G75*
%MOIN*%
%OFA0B0*%
%FSLAX25Y25*%
%IPPOS*%
%LPD*%
%AMOC8*
5,1,8,0,0,1.08239X$1,22.5*
%
%ADD10C,0.00800*%
%ADD11R,0.05524X0.06312*%
%ADD12R,0.05131X0.04737*%
%ADD13C,0.10800*%
%ADD14C,0.11300*%
D10*
X0389833Y0053000D02*
X0423833Y0053000D01*
X0420833Y0060000D01*
X0417833Y0065500D01*
X0417932Y0065590D01*
X0418053Y0065643D01*
X0418186Y0065653D01*
X0418315Y0065620D01*
X0418426Y0065547D01*
X0418508Y0065442D01*
X0418551Y0065316D01*
X0418551Y0065184D01*
X0418508Y0065058D01*
X0418426Y0064953D01*
X0418315Y0064880D01*
X0418186Y0064847D01*
X0418053Y0064857D01*
X0417932Y0064910D01*
X0417833Y0065000D01*
X0417724Y0065185D01*
X0417668Y0065393D01*
X0417668Y0065607D01*
X0417724Y0065815D01*
X0417833Y0066000D01*
X0416333Y0068000D01*
X0415778Y0069072D01*
X0415109Y0070076D01*
X0414333Y0071000D01*
X0406833Y0079000D01*
X0405333Y0077500D01*
X0401388Y0073189D01*
X0397839Y0068546D01*
X0394715Y0063607D01*
X0392039Y0058412D01*
X0389833Y0053000D01*
X0390037Y0053500D02*
X0423619Y0053500D01*
X0423627Y0053246D02*
X0423708Y0053217D01*
X0423775Y0053161D01*
X0423818Y0053086D01*
X0423833Y0053000D01*
X0423333Y0053000D01*
X0423348Y0053086D01*
X0423392Y0053161D01*
X0423458Y0053217D01*
X0423540Y0053246D01*
X0423627Y0053246D01*
X0423277Y0054299D02*
X0390363Y0054299D01*
X0390688Y0055097D02*
X0422934Y0055097D01*
X0422592Y0055896D02*
X0391014Y0055896D01*
X0391339Y0056694D02*
X0422250Y0056694D01*
X0421908Y0057493D02*
X0391665Y0057493D01*
X0391990Y0058291D02*
X0421566Y0058291D01*
X0421223Y0059090D02*
X0392388Y0059090D01*
X0392800Y0059888D02*
X0420881Y0059888D01*
X0420459Y0060687D02*
X0393211Y0060687D01*
X0393622Y0061485D02*
X0420023Y0061485D01*
X0419588Y0062284D02*
X0394033Y0062284D01*
X0394444Y0063082D02*
X0419152Y0063082D01*
X0418716Y0063881D02*
X0394888Y0063881D01*
X0395393Y0064679D02*
X0418281Y0064679D01*
X0418480Y0065478D02*
X0417845Y0065478D01*
X0417668Y0065478D02*
X0395898Y0065478D01*
X0396403Y0066276D02*
X0417626Y0066276D01*
X0417027Y0067075D02*
X0396909Y0067075D01*
X0397414Y0067873D02*
X0416428Y0067873D01*
X0415985Y0068672D02*
X0397935Y0068672D01*
X0398546Y0069470D02*
X0415512Y0069470D01*
X0414947Y0070269D02*
X0399156Y0070269D01*
X0399766Y0071068D02*
X0414270Y0071068D01*
X0413521Y0071866D02*
X0400377Y0071866D01*
X0400987Y0072665D02*
X0412773Y0072665D01*
X0412024Y0073463D02*
X0401639Y0073463D01*
X0402370Y0074262D02*
X0411276Y0074262D01*
X0410527Y0075060D02*
X0403100Y0075060D01*
X0403831Y0075859D02*
X0409778Y0075859D01*
X0409030Y0076657D02*
X0404562Y0076657D01*
X0405293Y0077456D02*
X0408281Y0077456D01*
X0407533Y0078254D02*
X0406087Y0078254D01*
D11*
X0400928Y0037000D03*
X0412739Y0037000D03*
D12*
X0410180Y0027500D03*
X0403487Y0027500D03*
D13*
X0406333Y0061500D03*
D14*
X0406233Y0070500D03*
M02*
