G75*
%MOIN*%
%OFA0B0*%
%FSLAX25Y25*%
%IPPOS*%
%LPD*%
%AMOC8*
5,1,8,0,0,1.08239X$1,22.5*
%
%ADD10R,0.04724X0.05512*%
%ADD11R,0.04331X0.03937*%
%ADD12C,0.10000*%
%ADD13C,0.01000*%
%ADD14C,0.10500*%
%ADD15C,0.04000*%
%ADD16C,0.00600*%
D10*
X0400928Y0037000D03*
X0412739Y0037000D03*
D11*
X0410180Y0027500D03*
X0403487Y0027500D03*
D12*
X0406333Y0061500D03*
D13*
X0391682Y0061386D02*
X0387933Y0054300D01*
X0423633Y0054200D01*
X0421292Y0059673D01*
X0418523Y0064942D01*
X0415343Y0069974D01*
X0411772Y0074737D01*
X0407833Y0079200D01*
X0406433Y0080300D01*
X0400968Y0074436D01*
X0396038Y0068115D01*
X0391682Y0061386D01*
X0391430Y0060909D02*
X0420643Y0060909D01*
X0421167Y0059911D02*
X0390902Y0059911D01*
X0390373Y0058912D02*
X0421618Y0058912D01*
X0422045Y0057914D02*
X0389845Y0057914D01*
X0389317Y0056915D02*
X0422472Y0056915D01*
X0422899Y0055917D02*
X0388789Y0055917D01*
X0388260Y0054918D02*
X0423326Y0054918D01*
X0406333Y0061500D02*
X0400928Y0056094D01*
X0400928Y0037000D01*
X0412739Y0037000D02*
X0412739Y0030059D01*
X0410180Y0027500D01*
X0405333Y0025654D02*
X0403487Y0027500D01*
X0405333Y0025654D02*
X0405333Y0015500D01*
X0392020Y0061908D02*
X0420118Y0061908D01*
X0419593Y0062906D02*
X0392666Y0062906D01*
X0393313Y0063905D02*
X0419068Y0063905D01*
X0418543Y0064903D02*
X0393959Y0064903D01*
X0394605Y0065902D02*
X0417916Y0065902D01*
X0417285Y0066900D02*
X0395252Y0066900D01*
X0395898Y0067899D02*
X0416654Y0067899D01*
X0416023Y0068897D02*
X0396648Y0068897D01*
X0397427Y0069896D02*
X0415392Y0069896D01*
X0414653Y0070894D02*
X0398206Y0070894D01*
X0398984Y0071893D02*
X0413904Y0071893D01*
X0413155Y0072891D02*
X0399763Y0072891D01*
X0400542Y0073890D02*
X0412407Y0073890D01*
X0411638Y0074888D02*
X0401390Y0074888D01*
X0402320Y0075887D02*
X0410757Y0075887D01*
X0409876Y0076885D02*
X0403251Y0076885D01*
X0404181Y0077884D02*
X0408995Y0077884D01*
X0408114Y0078882D02*
X0405112Y0078882D01*
X0406043Y0079881D02*
X0406967Y0079881D01*
D14*
X0406233Y0070500D03*
D15*
X0405333Y0015500D03*
D16*
X0406333Y0061500D02*
X0406233Y0061600D01*
X0406233Y0070500D01*
M02*
