G75*
%MOIN*%
%OFA0B0*%
%FSLAX25Y25*%
%IPPOS*%
%LPD*%
%AMOC8*
5,1,8,0,0,1.08239X$1,22.5*
%
%ADD10C,0.00800*%
D10*
X0388583Y0039000D02*
X0393083Y0047250D01*
X0390083Y0047250D01*
X0395583Y0056000D01*
X0393333Y0057250D01*
X0397833Y0064500D01*
X0401083Y0064500D01*
X0396583Y0058500D01*
X0399833Y0057250D01*
X0393833Y0049750D01*
X0397083Y0049250D01*
X0388583Y0039000D01*
X0388653Y0039127D02*
X0388689Y0039127D01*
X0389088Y0039926D02*
X0389351Y0039926D01*
X0389524Y0040724D02*
X0390013Y0040724D01*
X0389959Y0041523D02*
X0390675Y0041523D01*
X0390395Y0042321D02*
X0391337Y0042321D01*
X0390830Y0043120D02*
X0392000Y0043120D01*
X0392662Y0043918D02*
X0391266Y0043918D01*
X0391701Y0044717D02*
X0393324Y0044717D01*
X0393986Y0045515D02*
X0392137Y0045515D01*
X0392573Y0046314D02*
X0394648Y0046314D01*
X0395310Y0047112D02*
X0393008Y0047112D01*
X0390499Y0047911D02*
X0395973Y0047911D01*
X0396635Y0048709D02*
X0391001Y0048709D01*
X0391502Y0049508D02*
X0395408Y0049508D01*
X0394278Y0050306D02*
X0392004Y0050306D01*
X0392506Y0051105D02*
X0394917Y0051105D01*
X0395556Y0051903D02*
X0393008Y0051903D01*
X0393510Y0052702D02*
X0396195Y0052702D01*
X0396834Y0053500D02*
X0394012Y0053500D01*
X0394514Y0054299D02*
X0397472Y0054299D01*
X0398111Y0055097D02*
X0395016Y0055097D01*
X0395518Y0055896D02*
X0398750Y0055896D01*
X0399389Y0056694D02*
X0394334Y0056694D01*
X0393484Y0057493D02*
X0399202Y0057493D01*
X0397126Y0058291D02*
X0393980Y0058291D01*
X0394475Y0059090D02*
X0397026Y0059090D01*
X0397625Y0059888D02*
X0394971Y0059888D01*
X0395467Y0060687D02*
X0398223Y0060687D01*
X0398822Y0061485D02*
X0395962Y0061485D01*
X0396458Y0062284D02*
X0399421Y0062284D01*
X0400020Y0063082D02*
X0396953Y0063082D01*
X0397449Y0063881D02*
X0400619Y0063881D01*
X0412083Y0065000D02*
X0416583Y0059000D01*
X0413333Y0057750D01*
X0419333Y0050250D01*
X0416083Y0049750D01*
X0423583Y0041000D01*
X0420083Y0047750D01*
X0423083Y0047750D01*
X0417583Y0056500D01*
X0419833Y0057750D01*
X0415333Y0065000D01*
X0412083Y0065000D01*
X0412324Y0064679D02*
X0415532Y0064679D01*
X0416028Y0063881D02*
X0412923Y0063881D01*
X0413522Y0063082D02*
X0416524Y0063082D01*
X0417019Y0062284D02*
X0414120Y0062284D01*
X0414719Y0061485D02*
X0417515Y0061485D01*
X0418010Y0060687D02*
X0415318Y0060687D01*
X0415917Y0059888D02*
X0418506Y0059888D01*
X0419002Y0059090D02*
X0416516Y0059090D01*
X0414741Y0058291D02*
X0419497Y0058291D01*
X0419370Y0057493D02*
X0413539Y0057493D01*
X0414178Y0056694D02*
X0417933Y0056694D01*
X0417963Y0055896D02*
X0414817Y0055896D01*
X0415455Y0055097D02*
X0418465Y0055097D01*
X0418967Y0054299D02*
X0416094Y0054299D01*
X0416733Y0053500D02*
X0419469Y0053500D01*
X0419971Y0052702D02*
X0417372Y0052702D01*
X0418011Y0051903D02*
X0420473Y0051903D01*
X0420975Y0051105D02*
X0418650Y0051105D01*
X0419288Y0050306D02*
X0421477Y0050306D01*
X0421978Y0049508D02*
X0416291Y0049508D01*
X0416975Y0048709D02*
X0422480Y0048709D01*
X0422982Y0047911D02*
X0417660Y0047911D01*
X0418344Y0047112D02*
X0420414Y0047112D01*
X0420828Y0046314D02*
X0419029Y0046314D01*
X0419713Y0045515D02*
X0421242Y0045515D01*
X0421656Y0044717D02*
X0420398Y0044717D01*
X0421082Y0043918D02*
X0422070Y0043918D01*
X0421767Y0043120D02*
X0422484Y0043120D01*
X0422451Y0042321D02*
X0422898Y0042321D01*
X0423135Y0041523D02*
X0423312Y0041523D01*
M02*
