G75*
%MOIN*%
%OFA0B0*%
%FSLAX25Y25*%
%IPPOS*%
%LPD*%
%AMOC8*
5,1,8,0,0,1.08239X$1,22.5*
%
%ADD10R,0.06500X0.03937*%
%ADD11R,0.04331X0.03937*%
%ADD12C,0.01000*%
%ADD13C,0.04000*%
D10*
X0193188Y0102451D03*
X0193188Y0115049D03*
X0213479Y0115049D03*
X0213479Y0102451D03*
X0235688Y0144951D03*
X0235688Y0157549D03*
X0255979Y0157549D03*
X0255979Y0144951D03*
X0278188Y0187451D03*
X0278188Y0200049D03*
X0298479Y0200049D03*
X0298479Y0187451D03*
X0170979Y0157549D03*
X0150688Y0157549D03*
X0150688Y0144951D03*
X0170979Y0144951D03*
X0128479Y0187451D03*
X0108188Y0187451D03*
X0108188Y0200049D03*
X0128479Y0200049D03*
D11*
X0122930Y0178750D03*
X0116237Y0178750D03*
X0116237Y0171250D03*
X0122930Y0171250D03*
X0157487Y0136250D03*
X0164180Y0136250D03*
X0199987Y0093750D03*
X0206680Y0093750D03*
X0242487Y0136250D03*
X0249180Y0136250D03*
X0284987Y0178750D03*
X0291680Y0178750D03*
D12*
X0180083Y0105717D02*
X0174336Y0105717D01*
X0175334Y0104719D02*
X0180083Y0104719D01*
X0180083Y0103720D02*
X0176333Y0103720D01*
X0177331Y0102722D02*
X0180083Y0102722D01*
X0180083Y0101723D02*
X0178330Y0101723D01*
X0179328Y0100725D02*
X0181030Y0100725D01*
X0180327Y0099726D02*
X0182029Y0099726D01*
X0181325Y0098728D02*
X0183027Y0098728D01*
X0182324Y0097729D02*
X0184026Y0097729D01*
X0183323Y0096731D02*
X0185024Y0096731D01*
X0184321Y0095732D02*
X0186023Y0095732D01*
X0185320Y0094734D02*
X0187021Y0094734D01*
X0186318Y0093735D02*
X0188020Y0093735D01*
X0187317Y0092737D02*
X0189018Y0092737D01*
X0188315Y0091738D02*
X0196522Y0091738D01*
X0196522Y0091750D02*
X0196522Y0091243D01*
X0197283Y0090481D01*
X0202691Y0090481D01*
X0203225Y0091015D01*
X0203314Y0090860D01*
X0203593Y0090581D01*
X0203935Y0090384D01*
X0204317Y0090281D01*
X0206196Y0090281D01*
X0206196Y0093266D01*
X0207164Y0093266D01*
X0207164Y0094234D01*
X0210345Y0094234D01*
X0210345Y0095916D01*
X0210243Y0096297D01*
X0210045Y0096640D01*
X0209766Y0096919D01*
X0209424Y0097116D01*
X0209043Y0097218D01*
X0207164Y0097218D01*
X0207164Y0094234D01*
X0206196Y0094234D01*
X0206196Y0097218D01*
X0204317Y0097218D01*
X0203935Y0097116D01*
X0203593Y0096919D01*
X0203314Y0096640D01*
X0203225Y0096485D01*
X0202833Y0096876D01*
X0202833Y0097922D01*
X0203523Y0098611D01*
X0203851Y0098283D01*
X0205137Y0097750D01*
X0206530Y0097750D01*
X0207816Y0098283D01*
X0208800Y0099267D01*
X0209036Y0099837D01*
X0209691Y0099182D01*
X0217267Y0099182D01*
X0218029Y0099944D01*
X0218029Y0104958D01*
X0217699Y0105287D01*
X0236583Y0124172D01*
X0236583Y0132922D01*
X0237912Y0134250D01*
X0239022Y0134250D01*
X0239022Y0133743D01*
X0239783Y0132981D01*
X0245191Y0132981D01*
X0245725Y0133515D01*
X0245814Y0133360D01*
X0246093Y0133081D01*
X0246435Y0132884D01*
X0246817Y0132781D01*
X0248696Y0132781D01*
X0248696Y0135766D01*
X0249664Y0135766D01*
X0249664Y0136734D01*
X0252845Y0136734D01*
X0252845Y0138416D01*
X0252743Y0138797D01*
X0252545Y0139140D01*
X0252266Y0139419D01*
X0251924Y0139616D01*
X0251543Y0139718D01*
X0249664Y0139718D01*
X0249664Y0136734D01*
X0248696Y0136734D01*
X0248696Y0139718D01*
X0246817Y0139718D01*
X0246435Y0139616D01*
X0246093Y0139419D01*
X0245814Y0139140D01*
X0245725Y0138985D01*
X0245333Y0139376D01*
X0245333Y0140422D01*
X0247912Y0143000D01*
X0251429Y0143000D01*
X0251429Y0142444D01*
X0252191Y0141682D01*
X0259767Y0141682D01*
X0260529Y0142444D01*
X0260529Y0143000D01*
X0264162Y0143000D01*
X0265333Y0144172D01*
X0285412Y0164250D01*
X0286583Y0165422D01*
X0286583Y0171672D01*
X0286987Y0172075D01*
X0286987Y0175481D01*
X0287691Y0175481D01*
X0288225Y0176015D01*
X0288314Y0175860D01*
X0288593Y0175581D01*
X0288935Y0175384D01*
X0289317Y0175281D01*
X0291196Y0175281D01*
X0291196Y0178266D01*
X0292164Y0178266D01*
X0292164Y0179234D01*
X0295345Y0179234D01*
X0295345Y0180916D01*
X0295243Y0181297D01*
X0295045Y0181640D01*
X0294766Y0181919D01*
X0294424Y0182116D01*
X0294043Y0182218D01*
X0292164Y0182218D01*
X0292164Y0179234D01*
X0291196Y0179234D01*
X0291196Y0182218D01*
X0289317Y0182218D01*
X0288935Y0182116D01*
X0288593Y0181919D01*
X0288314Y0181640D01*
X0288225Y0181485D01*
X0287691Y0182018D01*
X0286583Y0182018D01*
X0286583Y0182922D01*
X0289113Y0185451D01*
X0293929Y0185451D01*
X0293929Y0184944D01*
X0294691Y0184182D01*
X0302033Y0184182D01*
X0302033Y0182994D01*
X0302612Y0181597D01*
X0303681Y0180529D01*
X0305077Y0179950D01*
X0306563Y0179950D01*
X0206710Y0080096D01*
X0207133Y0081119D01*
X0207133Y0082631D01*
X0206555Y0084028D01*
X0205486Y0085096D01*
X0204089Y0085675D01*
X0202577Y0085675D01*
X0201181Y0085096D01*
X0200112Y0084028D01*
X0199533Y0082631D01*
X0199533Y0081119D01*
X0199957Y0080096D01*
X0100103Y0179950D01*
X0101589Y0179950D01*
X0102986Y0180529D01*
X0104055Y0181597D01*
X0104633Y0182994D01*
X0104633Y0184182D01*
X0111976Y0184182D01*
X0112738Y0184944D01*
X0112738Y0185451D01*
X0113804Y0185451D01*
X0113833Y0185422D01*
X0113833Y0182018D01*
X0113533Y0182018D01*
X0112772Y0181257D01*
X0112772Y0176243D01*
X0113533Y0175481D01*
X0118941Y0175481D01*
X0119583Y0176124D01*
X0120226Y0175481D01*
X0125634Y0175481D01*
X0126395Y0176243D01*
X0126395Y0181257D01*
X0125634Y0182018D01*
X0124930Y0182018D01*
X0124930Y0183732D01*
X0120333Y0188328D01*
X0120333Y0189550D01*
X0121300Y0190517D01*
X0121833Y0191804D01*
X0121833Y0193196D01*
X0121300Y0194483D01*
X0120316Y0195467D01*
X0119030Y0196000D01*
X0117637Y0196000D01*
X0116351Y0195467D01*
X0115366Y0194483D01*
X0114833Y0193196D01*
X0114833Y0191804D01*
X0115366Y0190517D01*
X0116333Y0189550D01*
X0116333Y0188578D01*
X0115461Y0189451D01*
X0112738Y0189451D01*
X0112738Y0189958D01*
X0111976Y0190719D01*
X0104399Y0190719D01*
X0103638Y0189958D01*
X0103638Y0186320D01*
X0102986Y0186971D01*
X0101589Y0187550D01*
X0100077Y0187550D01*
X0098681Y0186971D01*
X0097933Y0186224D01*
X0097933Y0236901D01*
X0098056Y0236779D01*
X0099452Y0236200D01*
X0100964Y0236200D01*
X0102361Y0236779D01*
X0103430Y0237847D01*
X0104008Y0239244D01*
X0104008Y0240105D01*
X0201860Y0142253D01*
X0201181Y0141971D01*
X0200112Y0140903D01*
X0199533Y0139506D01*
X0199533Y0137994D01*
X0200112Y0136597D01*
X0201181Y0135529D01*
X0202577Y0134950D01*
X0204089Y0134950D01*
X0205486Y0135529D01*
X0206555Y0136597D01*
X0207133Y0137994D01*
X0207133Y0139506D01*
X0206555Y0140903D01*
X0205486Y0141971D01*
X0204806Y0142253D01*
X0205433Y0142880D01*
X0302033Y0239480D01*
X0302033Y0239244D01*
X0302612Y0237847D01*
X0303681Y0236779D01*
X0305077Y0236200D01*
X0306589Y0236200D01*
X0307986Y0236779D01*
X0308733Y0237526D01*
X0308733Y0186224D01*
X0307986Y0186971D01*
X0306589Y0187550D01*
X0305077Y0187550D01*
X0303681Y0186971D01*
X0303029Y0186320D01*
X0303029Y0189367D01*
X0305412Y0191750D01*
X0306583Y0192922D01*
X0306583Y0213328D01*
X0296833Y0223078D01*
X0296833Y0224446D01*
X0296300Y0225733D01*
X0295316Y0226717D01*
X0294030Y0227250D01*
X0292637Y0227250D01*
X0291351Y0226717D01*
X0290366Y0225733D01*
X0289833Y0224446D01*
X0289833Y0223054D01*
X0290366Y0221767D01*
X0291351Y0220783D01*
X0292637Y0220250D01*
X0294005Y0220250D01*
X0302583Y0211672D01*
X0302583Y0203002D01*
X0302267Y0203318D01*
X0294691Y0203318D01*
X0293929Y0202556D01*
X0293929Y0202049D01*
X0290054Y0202049D01*
X0287505Y0199500D01*
X0286333Y0198328D01*
X0286333Y0196700D01*
X0285366Y0195733D01*
X0284833Y0194446D01*
X0284833Y0193054D01*
X0285366Y0191767D01*
X0286351Y0190783D01*
X0287637Y0190250D01*
X0289030Y0190250D01*
X0290083Y0190687D01*
X0290083Y0189451D01*
X0289211Y0189451D01*
X0289162Y0189500D01*
X0287505Y0189500D01*
X0286333Y0188328D01*
X0282583Y0184578D01*
X0282583Y0182018D01*
X0282283Y0182018D01*
X0281522Y0181257D01*
X0281522Y0176243D01*
X0282283Y0175481D01*
X0282987Y0175481D01*
X0282987Y0173732D01*
X0282583Y0173328D01*
X0282583Y0167078D01*
X0262505Y0147000D01*
X0260529Y0147000D01*
X0260529Y0147458D01*
X0259767Y0148219D01*
X0252191Y0148219D01*
X0251429Y0147458D01*
X0251429Y0147000D01*
X0246255Y0147000D01*
X0245083Y0145828D01*
X0242505Y0143250D01*
X0242505Y0143250D01*
X0241333Y0142078D01*
X0241333Y0139518D01*
X0239783Y0139518D01*
X0239022Y0138757D01*
X0239022Y0138250D01*
X0236255Y0138250D01*
X0233755Y0135750D01*
X0232583Y0134578D01*
X0232583Y0125828D01*
X0230247Y0123492D01*
X0230583Y0124304D01*
X0230583Y0125696D01*
X0230050Y0126983D01*
X0229083Y0127950D01*
X0229083Y0134550D01*
X0230050Y0135517D01*
X0230583Y0136804D01*
X0230583Y0138196D01*
X0230050Y0139483D01*
X0229066Y0140467D01*
X0227780Y0141000D01*
X0226387Y0141000D01*
X0225101Y0140467D01*
X0224116Y0139483D01*
X0223583Y0138196D01*
X0223583Y0136804D01*
X0224116Y0135517D01*
X0225083Y0134550D01*
X0225083Y0127950D01*
X0224116Y0126983D01*
X0223583Y0125696D01*
X0223583Y0124304D01*
X0224116Y0123017D01*
X0225101Y0122033D01*
X0226387Y0121500D01*
X0227780Y0121500D01*
X0228591Y0121836D01*
X0215005Y0108250D01*
X0213755Y0108250D01*
X0212583Y0107078D01*
X0211333Y0105828D01*
X0211333Y0105719D01*
X0209691Y0105719D01*
X0208929Y0104958D01*
X0208929Y0104451D01*
X0207252Y0104451D01*
X0206530Y0104750D01*
X0205137Y0104750D01*
X0203851Y0104217D01*
X0202884Y0103250D01*
X0202505Y0103250D01*
X0201333Y0102078D01*
X0198833Y0099578D01*
X0198833Y0097018D01*
X0197283Y0097018D01*
X0196522Y0096257D01*
X0196522Y0095750D01*
X0191662Y0095750D01*
X0186912Y0100500D01*
X0188638Y0100500D01*
X0188638Y0099944D01*
X0189399Y0099182D01*
X0196976Y0099182D01*
X0197738Y0099944D01*
X0197738Y0104958D01*
X0196976Y0105719D01*
X0189399Y0105719D01*
X0188638Y0104958D01*
X0188638Y0104500D01*
X0187912Y0104500D01*
X0187833Y0104578D01*
X0187833Y0142078D01*
X0175199Y0154712D01*
X0175529Y0155042D01*
X0175529Y0159976D01*
X0190083Y0145422D01*
X0190083Y0127950D01*
X0189116Y0126983D01*
X0188583Y0125696D01*
X0188583Y0124304D01*
X0189116Y0123017D01*
X0190101Y0122033D01*
X0191387Y0121500D01*
X0192780Y0121500D01*
X0194066Y0122033D01*
X0195050Y0123017D01*
X0195583Y0124304D01*
X0195583Y0125696D01*
X0195050Y0126983D01*
X0194083Y0127950D01*
X0194083Y0147078D01*
X0192912Y0148250D01*
X0176662Y0164500D01*
X0155412Y0164500D01*
X0150333Y0169578D01*
X0150333Y0170800D01*
X0151300Y0171767D01*
X0151833Y0173054D01*
X0151833Y0174446D01*
X0151300Y0175733D01*
X0150316Y0176717D01*
X0149030Y0177250D01*
X0147637Y0177250D01*
X0146351Y0176717D01*
X0145366Y0175733D01*
X0144833Y0174446D01*
X0144833Y0173054D01*
X0145366Y0171767D01*
X0146333Y0170800D01*
X0146333Y0167922D01*
X0153237Y0161018D01*
X0151172Y0161018D01*
X0151172Y0158034D01*
X0150203Y0158034D01*
X0150203Y0161018D01*
X0147240Y0161018D01*
X0146859Y0160915D01*
X0146517Y0160718D01*
X0146237Y0160439D01*
X0146040Y0160097D01*
X0145938Y0159715D01*
X0145938Y0158033D01*
X0150203Y0158033D01*
X0150203Y0157065D01*
X0145938Y0157065D01*
X0145938Y0155383D01*
X0146040Y0155002D01*
X0146237Y0154660D01*
X0146517Y0154380D01*
X0146859Y0154183D01*
X0147240Y0154081D01*
X0150203Y0154081D01*
X0150203Y0157065D01*
X0151172Y0157065D01*
X0151172Y0158033D01*
X0155438Y0158033D01*
X0155438Y0159715D01*
X0155335Y0160097D01*
X0155138Y0160439D01*
X0155077Y0160500D01*
X0166873Y0160500D01*
X0166429Y0160056D01*
X0166429Y0155042D01*
X0167191Y0154281D01*
X0168833Y0154281D01*
X0168833Y0154172D01*
X0170083Y0152922D01*
X0171255Y0151750D01*
X0172505Y0151750D01*
X0177255Y0147000D01*
X0175529Y0147000D01*
X0175529Y0147458D01*
X0174767Y0148219D01*
X0167191Y0148219D01*
X0166429Y0147458D01*
X0166429Y0142444D01*
X0167191Y0141682D01*
X0174767Y0141682D01*
X0175529Y0142444D01*
X0175529Y0143000D01*
X0176255Y0143000D01*
X0180083Y0139172D01*
X0180083Y0125750D01*
X0161662Y0125750D01*
X0154083Y0133328D01*
X0154083Y0133681D01*
X0154783Y0132981D01*
X0160191Y0132981D01*
X0160725Y0133515D01*
X0160814Y0133360D01*
X0161093Y0133081D01*
X0161435Y0132884D01*
X0161817Y0132781D01*
X0163696Y0132781D01*
X0163696Y0135766D01*
X0164664Y0135766D01*
X0164664Y0136734D01*
X0167845Y0136734D01*
X0167845Y0138416D01*
X0167743Y0138797D01*
X0167545Y0139140D01*
X0167266Y0139419D01*
X0166924Y0139616D01*
X0166543Y0139718D01*
X0164664Y0139718D01*
X0164664Y0136734D01*
X0163696Y0136734D01*
X0163696Y0139718D01*
X0161817Y0139718D01*
X0161435Y0139616D01*
X0161093Y0139419D01*
X0160814Y0139140D01*
X0160725Y0138985D01*
X0160191Y0139518D01*
X0154783Y0139518D01*
X0154022Y0138757D01*
X0154022Y0138250D01*
X0150412Y0138250D01*
X0146979Y0141682D01*
X0154476Y0141682D01*
X0155238Y0142444D01*
X0155238Y0147458D01*
X0154476Y0148219D01*
X0146899Y0148219D01*
X0146171Y0147491D01*
X0134083Y0159578D01*
X0134083Y0179172D01*
X0134162Y0179250D01*
X0135333Y0180422D01*
X0135333Y0199578D01*
X0134162Y0200750D01*
X0133029Y0201883D01*
X0133029Y0202556D01*
X0132267Y0203318D01*
X0124691Y0203318D01*
X0123929Y0202556D01*
X0123929Y0198483D01*
X0121583Y0200828D01*
X0121583Y0210272D01*
X0122816Y0210783D01*
X0123800Y0211767D01*
X0124333Y0213054D01*
X0124333Y0214446D01*
X0123800Y0215733D01*
X0122816Y0216717D01*
X0121530Y0217250D01*
X0120137Y0217250D01*
X0118851Y0216717D01*
X0117866Y0215733D01*
X0117333Y0214446D01*
X0117333Y0213054D01*
X0117583Y0212450D01*
X0117583Y0199172D01*
X0118755Y0198000D01*
X0123755Y0193000D01*
X0125005Y0193000D01*
X0126333Y0191672D01*
X0126333Y0190719D01*
X0124691Y0190719D01*
X0123929Y0189958D01*
X0123929Y0184944D01*
X0124691Y0184182D01*
X0126479Y0184182D01*
X0126479Y0173250D01*
X0126395Y0173250D01*
X0126395Y0173757D01*
X0125634Y0174518D01*
X0120226Y0174518D01*
X0119692Y0173985D01*
X0119603Y0174140D01*
X0119323Y0174419D01*
X0118981Y0174616D01*
X0118600Y0174718D01*
X0116721Y0174718D01*
X0116721Y0171734D01*
X0115753Y0171734D01*
X0115753Y0170766D01*
X0116721Y0170766D01*
X0116721Y0167781D01*
X0118600Y0167781D01*
X0118981Y0167884D01*
X0119323Y0168081D01*
X0119603Y0168360D01*
X0119692Y0168515D01*
X0120226Y0167981D01*
X0125634Y0167981D01*
X0126395Y0168743D01*
X0126395Y0169250D01*
X0126479Y0169250D01*
X0126479Y0156526D01*
X0148755Y0134250D01*
X0150083Y0134250D01*
X0150083Y0131672D01*
X0151255Y0130500D01*
X0160005Y0121750D01*
X0180083Y0121750D01*
X0180083Y0101672D01*
X0190005Y0091750D01*
X0196522Y0091750D01*
X0197025Y0090740D02*
X0189314Y0090740D01*
X0190312Y0089741D02*
X0216355Y0089741D01*
X0217353Y0090740D02*
X0209925Y0090740D01*
X0210045Y0090860D02*
X0210243Y0091203D01*
X0210345Y0091584D01*
X0210345Y0093266D01*
X0207164Y0093266D01*
X0207164Y0090281D01*
X0209043Y0090281D01*
X0209424Y0090384D01*
X0209766Y0090581D01*
X0210045Y0090860D01*
X0210345Y0091738D02*
X0218352Y0091738D01*
X0219350Y0092737D02*
X0210345Y0092737D01*
X0210345Y0094734D02*
X0221347Y0094734D01*
X0222346Y0095732D02*
X0210345Y0095732D01*
X0209954Y0096731D02*
X0223344Y0096731D01*
X0224343Y0097729D02*
X0202833Y0097729D01*
X0202979Y0096731D02*
X0203405Y0096731D01*
X0206196Y0096731D02*
X0207164Y0096731D01*
X0207164Y0095732D02*
X0206196Y0095732D01*
X0206196Y0094734D02*
X0207164Y0094734D01*
X0207164Y0093735D02*
X0220349Y0093735D01*
X0217811Y0099726D02*
X0226340Y0099726D01*
X0227338Y0100725D02*
X0218029Y0100725D01*
X0218029Y0101723D02*
X0228337Y0101723D01*
X0229335Y0102722D02*
X0218029Y0102722D01*
X0218029Y0103720D02*
X0230334Y0103720D01*
X0231332Y0104719D02*
X0218029Y0104719D01*
X0218129Y0105717D02*
X0232331Y0105717D01*
X0233329Y0106716D02*
X0219127Y0106716D01*
X0220126Y0107714D02*
X0234328Y0107714D01*
X0235326Y0108713D02*
X0221125Y0108713D01*
X0222123Y0109711D02*
X0236325Y0109711D01*
X0237323Y0110710D02*
X0223122Y0110710D01*
X0224120Y0111708D02*
X0238322Y0111708D01*
X0239320Y0112707D02*
X0225119Y0112707D01*
X0226117Y0113705D02*
X0240319Y0113705D01*
X0241317Y0114704D02*
X0227116Y0114704D01*
X0228114Y0115702D02*
X0242316Y0115702D01*
X0243314Y0116701D02*
X0229113Y0116701D01*
X0230111Y0117699D02*
X0244313Y0117699D01*
X0245311Y0118698D02*
X0231110Y0118698D01*
X0232108Y0119696D02*
X0246310Y0119696D01*
X0247308Y0120695D02*
X0233107Y0120695D01*
X0234105Y0121693D02*
X0248307Y0121693D01*
X0249305Y0122692D02*
X0235104Y0122692D01*
X0236102Y0123690D02*
X0250304Y0123690D01*
X0251302Y0124689D02*
X0236583Y0124689D01*
X0236583Y0125687D02*
X0252301Y0125687D01*
X0253299Y0126686D02*
X0236583Y0126686D01*
X0236583Y0127684D02*
X0254298Y0127684D01*
X0255297Y0128683D02*
X0236583Y0128683D01*
X0236583Y0129682D02*
X0256295Y0129682D01*
X0257294Y0130680D02*
X0236583Y0130680D01*
X0236583Y0131679D02*
X0258292Y0131679D01*
X0259291Y0132677D02*
X0236583Y0132677D01*
X0237337Y0133676D02*
X0239089Y0133676D01*
X0237083Y0136250D02*
X0234583Y0133750D01*
X0234583Y0125000D01*
X0215833Y0106250D01*
X0214583Y0106250D01*
X0213333Y0105000D01*
X0213333Y0102596D01*
X0213479Y0102451D01*
X0207034Y0102451D01*
X0205833Y0101250D01*
X0203333Y0101250D01*
X0200833Y0098750D01*
X0200833Y0093750D01*
X0199987Y0093750D01*
X0190833Y0093750D01*
X0182083Y0102500D01*
X0182083Y0123750D01*
X0160833Y0123750D01*
X0152083Y0132500D01*
X0152083Y0136250D01*
X0149583Y0136250D01*
X0128479Y0157354D01*
X0128479Y0171250D01*
X0122930Y0171250D01*
X0126395Y0173616D02*
X0126479Y0173616D01*
X0126479Y0174615D02*
X0118984Y0174615D01*
X0119072Y0175613D02*
X0120094Y0175613D01*
X0116721Y0174615D02*
X0115753Y0174615D01*
X0115753Y0174718D02*
X0113874Y0174718D01*
X0113493Y0174616D01*
X0113150Y0174419D01*
X0112871Y0174140D01*
X0112674Y0173797D01*
X0112572Y0173416D01*
X0112572Y0171734D01*
X0115753Y0171734D01*
X0115753Y0174718D01*
X0115753Y0173616D02*
X0116721Y0173616D01*
X0116721Y0172618D02*
X0115753Y0172618D01*
X0115753Y0171619D02*
X0108434Y0171619D01*
X0107436Y0172618D02*
X0112572Y0172618D01*
X0112625Y0173616D02*
X0106437Y0173616D01*
X0105439Y0174615D02*
X0113490Y0174615D01*
X0113401Y0175613D02*
X0104440Y0175613D01*
X0103442Y0176612D02*
X0112772Y0176612D01*
X0112772Y0177610D02*
X0102443Y0177610D01*
X0101445Y0178609D02*
X0112772Y0178609D01*
X0112772Y0179607D02*
X0100446Y0179607D01*
X0103063Y0180606D02*
X0112772Y0180606D01*
X0113119Y0181604D02*
X0104058Y0181604D01*
X0104471Y0182603D02*
X0113833Y0182603D01*
X0113833Y0183601D02*
X0104633Y0183601D01*
X0103638Y0186597D02*
X0103361Y0186597D01*
X0103638Y0187595D02*
X0097933Y0187595D01*
X0097933Y0186597D02*
X0098306Y0186597D01*
X0097933Y0188594D02*
X0103638Y0188594D01*
X0103638Y0189592D02*
X0097933Y0189592D01*
X0097933Y0190591D02*
X0104271Y0190591D01*
X0108188Y0187451D02*
X0114633Y0187451D01*
X0115833Y0186250D01*
X0115833Y0179154D01*
X0116237Y0178750D01*
X0122930Y0178750D02*
X0122930Y0182904D01*
X0118333Y0187500D01*
X0118333Y0192500D01*
X0114833Y0192588D02*
X0097933Y0192588D01*
X0097933Y0193586D02*
X0114995Y0193586D01*
X0115468Y0194585D02*
X0097933Y0194585D01*
X0097933Y0195583D02*
X0116631Y0195583D01*
X0119175Y0197580D02*
X0112856Y0197580D01*
X0112835Y0197502D02*
X0112938Y0197883D01*
X0112938Y0199565D01*
X0108672Y0199565D01*
X0108672Y0200533D01*
X0112938Y0200533D01*
X0112938Y0202215D01*
X0112835Y0202597D01*
X0112638Y0202939D01*
X0112359Y0203218D01*
X0112017Y0203415D01*
X0111635Y0203518D01*
X0108672Y0203518D01*
X0108672Y0200534D01*
X0107703Y0200534D01*
X0107703Y0203518D01*
X0104740Y0203518D01*
X0104359Y0203415D01*
X0104017Y0203218D01*
X0103737Y0202939D01*
X0103540Y0202597D01*
X0103438Y0202215D01*
X0103438Y0200533D01*
X0107703Y0200533D01*
X0107703Y0199565D01*
X0103438Y0199565D01*
X0103438Y0197883D01*
X0103540Y0197502D01*
X0103737Y0197160D01*
X0104017Y0196880D01*
X0104359Y0196683D01*
X0104740Y0196581D01*
X0107703Y0196581D01*
X0107703Y0199565D01*
X0108672Y0199565D01*
X0108672Y0196581D01*
X0111635Y0196581D01*
X0112017Y0196683D01*
X0112359Y0196880D01*
X0112638Y0197160D01*
X0112835Y0197502D01*
X0112938Y0198579D02*
X0118176Y0198579D01*
X0117583Y0199577D02*
X0108672Y0199577D01*
X0107703Y0199577D02*
X0097933Y0199577D01*
X0097933Y0198579D02*
X0103438Y0198579D01*
X0103519Y0197580D02*
X0097933Y0197580D01*
X0097933Y0196582D02*
X0104736Y0196582D01*
X0107703Y0196582D02*
X0108672Y0196582D01*
X0108672Y0197580D02*
X0107703Y0197580D01*
X0107703Y0198579D02*
X0108672Y0198579D01*
X0108672Y0200576D02*
X0107703Y0200576D01*
X0107703Y0201574D02*
X0108672Y0201574D01*
X0108672Y0202573D02*
X0107703Y0202573D01*
X0103534Y0202573D02*
X0097933Y0202573D01*
X0097933Y0203571D02*
X0117583Y0203571D01*
X0117583Y0202573D02*
X0112842Y0202573D01*
X0112938Y0201574D02*
X0117583Y0201574D01*
X0117583Y0200576D02*
X0112938Y0200576D01*
X0117583Y0204570D02*
X0097933Y0204570D01*
X0097933Y0205568D02*
X0117583Y0205568D01*
X0117583Y0206567D02*
X0097933Y0206567D01*
X0097933Y0207565D02*
X0117583Y0207565D01*
X0117583Y0208564D02*
X0097933Y0208564D01*
X0097933Y0209562D02*
X0117583Y0209562D01*
X0117583Y0210561D02*
X0097933Y0210561D01*
X0097933Y0211559D02*
X0117583Y0211559D01*
X0117539Y0212558D02*
X0097933Y0212558D01*
X0097933Y0213556D02*
X0117333Y0213556D01*
X0117378Y0214555D02*
X0097933Y0214555D01*
X0097933Y0215553D02*
X0117792Y0215553D01*
X0118686Y0216552D02*
X0097933Y0216552D01*
X0097933Y0217551D02*
X0126563Y0217551D01*
X0125564Y0218549D02*
X0097933Y0218549D01*
X0097933Y0219548D02*
X0124566Y0219548D01*
X0123567Y0220546D02*
X0097933Y0220546D01*
X0097933Y0221545D02*
X0122569Y0221545D01*
X0121570Y0222543D02*
X0097933Y0222543D01*
X0097933Y0223542D02*
X0120572Y0223542D01*
X0119573Y0224540D02*
X0097933Y0224540D01*
X0097933Y0225539D02*
X0118575Y0225539D01*
X0117576Y0226537D02*
X0097933Y0226537D01*
X0097933Y0227536D02*
X0116578Y0227536D01*
X0115579Y0228534D02*
X0097933Y0228534D01*
X0097933Y0229533D02*
X0114581Y0229533D01*
X0113582Y0230531D02*
X0097933Y0230531D01*
X0097933Y0231530D02*
X0112584Y0231530D01*
X0111585Y0232528D02*
X0097933Y0232528D01*
X0097933Y0233527D02*
X0110587Y0233527D01*
X0109588Y0234525D02*
X0097933Y0234525D01*
X0097933Y0235524D02*
X0108590Y0235524D01*
X0107591Y0236522D02*
X0101742Y0236522D01*
X0103103Y0237521D02*
X0106593Y0237521D01*
X0105594Y0238519D02*
X0103708Y0238519D01*
X0104008Y0239518D02*
X0104596Y0239518D01*
X0098675Y0236522D02*
X0097933Y0236522D01*
X0122981Y0216552D02*
X0127561Y0216552D01*
X0128560Y0215553D02*
X0123875Y0215553D01*
X0124288Y0214555D02*
X0129559Y0214555D01*
X0130557Y0213556D02*
X0124333Y0213556D01*
X0124128Y0212558D02*
X0131556Y0212558D01*
X0132554Y0211559D02*
X0123593Y0211559D01*
X0122280Y0210561D02*
X0133553Y0210561D01*
X0134551Y0209562D02*
X0121583Y0209562D01*
X0121583Y0208564D02*
X0135550Y0208564D01*
X0136548Y0207565D02*
X0121583Y0207565D01*
X0121583Y0206567D02*
X0137547Y0206567D01*
X0138545Y0205568D02*
X0121583Y0205568D01*
X0121583Y0204570D02*
X0139544Y0204570D01*
X0140542Y0203571D02*
X0121583Y0203571D01*
X0121583Y0202573D02*
X0123946Y0202573D01*
X0123929Y0201574D02*
X0121583Y0201574D01*
X0121836Y0200576D02*
X0123929Y0200576D01*
X0123929Y0199577D02*
X0122834Y0199577D01*
X0123833Y0198579D02*
X0123929Y0198579D01*
X0124583Y0195000D02*
X0119583Y0200000D01*
X0119583Y0212500D01*
X0120833Y0213750D01*
X0133012Y0202573D02*
X0141541Y0202573D01*
X0142539Y0201574D02*
X0133337Y0201574D01*
X0134336Y0200576D02*
X0143538Y0200576D01*
X0144536Y0199577D02*
X0135333Y0199577D01*
X0135333Y0198579D02*
X0145535Y0198579D01*
X0146533Y0197580D02*
X0135333Y0197580D01*
X0135333Y0196582D02*
X0147532Y0196582D01*
X0148530Y0195583D02*
X0135333Y0195583D01*
X0135333Y0194585D02*
X0149529Y0194585D01*
X0150527Y0193586D02*
X0135333Y0193586D01*
X0135333Y0192588D02*
X0151526Y0192588D01*
X0152524Y0191589D02*
X0135333Y0191589D01*
X0135333Y0190591D02*
X0153523Y0190591D01*
X0154521Y0189592D02*
X0135333Y0189592D01*
X0135333Y0188594D02*
X0155520Y0188594D01*
X0156518Y0187595D02*
X0135333Y0187595D01*
X0135333Y0186597D02*
X0157517Y0186597D01*
X0158515Y0185598D02*
X0135333Y0185598D01*
X0135333Y0184600D02*
X0159514Y0184600D01*
X0160512Y0183601D02*
X0135333Y0183601D01*
X0135333Y0182603D02*
X0161511Y0182603D01*
X0162509Y0181604D02*
X0135333Y0181604D01*
X0135333Y0180606D02*
X0163508Y0180606D01*
X0164506Y0179607D02*
X0134519Y0179607D01*
X0134083Y0178609D02*
X0165505Y0178609D01*
X0166503Y0177610D02*
X0134083Y0177610D01*
X0134083Y0176612D02*
X0146245Y0176612D01*
X0145317Y0175613D02*
X0134083Y0175613D01*
X0134083Y0174615D02*
X0144903Y0174615D01*
X0144833Y0173616D02*
X0134083Y0173616D01*
X0134083Y0172618D02*
X0145014Y0172618D01*
X0145515Y0171619D02*
X0134083Y0171619D01*
X0134083Y0170620D02*
X0146333Y0170620D01*
X0146333Y0169622D02*
X0134083Y0169622D01*
X0134083Y0168623D02*
X0146333Y0168623D01*
X0146630Y0167625D02*
X0134083Y0167625D01*
X0134083Y0166626D02*
X0147628Y0166626D01*
X0148627Y0165628D02*
X0134083Y0165628D01*
X0134083Y0164629D02*
X0149625Y0164629D01*
X0150624Y0163631D02*
X0134083Y0163631D01*
X0134083Y0162632D02*
X0151623Y0162632D01*
X0152621Y0161634D02*
X0134083Y0161634D01*
X0134083Y0160635D02*
X0146434Y0160635D01*
X0145938Y0159637D02*
X0134083Y0159637D01*
X0135023Y0158638D02*
X0145938Y0158638D01*
X0145938Y0156641D02*
X0137020Y0156641D01*
X0136022Y0157640D02*
X0150203Y0157640D01*
X0151172Y0157640D02*
X0166429Y0157640D01*
X0166429Y0158638D02*
X0155438Y0158638D01*
X0155438Y0159637D02*
X0166429Y0159637D01*
X0170833Y0157404D02*
X0170833Y0155000D01*
X0172083Y0153750D01*
X0173333Y0153750D01*
X0185833Y0141250D01*
X0185833Y0103750D01*
X0187083Y0102500D01*
X0193138Y0102500D01*
X0193188Y0102451D01*
X0197738Y0102722D02*
X0201977Y0102722D01*
X0200978Y0101723D02*
X0197738Y0101723D01*
X0197738Y0100725D02*
X0199980Y0100725D01*
X0198981Y0099726D02*
X0197520Y0099726D01*
X0198833Y0098728D02*
X0188684Y0098728D01*
X0188855Y0099726D02*
X0187686Y0099726D01*
X0189683Y0097729D02*
X0198833Y0097729D01*
X0196995Y0096731D02*
X0190681Y0096731D01*
X0197738Y0103720D02*
X0203354Y0103720D01*
X0205062Y0104719D02*
X0197738Y0104719D01*
X0196978Y0105717D02*
X0209688Y0105717D01*
X0208929Y0104719D02*
X0206605Y0104719D01*
X0212221Y0106716D02*
X0187833Y0106716D01*
X0187833Y0107714D02*
X0213219Y0107714D01*
X0215468Y0108713D02*
X0187833Y0108713D01*
X0187833Y0109711D02*
X0216466Y0109711D01*
X0217465Y0110710D02*
X0187833Y0110710D01*
X0187833Y0111708D02*
X0189315Y0111708D01*
X0189359Y0111683D02*
X0189740Y0111581D01*
X0192703Y0111581D01*
X0192703Y0114565D01*
X0188438Y0114565D01*
X0188438Y0112883D01*
X0188540Y0112502D01*
X0188737Y0112160D01*
X0189017Y0111880D01*
X0189359Y0111683D01*
X0188485Y0112707D02*
X0187833Y0112707D01*
X0187833Y0113705D02*
X0188438Y0113705D01*
X0187833Y0114704D02*
X0192703Y0114704D01*
X0192703Y0114565D02*
X0192703Y0115533D01*
X0188438Y0115533D01*
X0188438Y0117215D01*
X0188540Y0117597D01*
X0188737Y0117939D01*
X0189017Y0118218D01*
X0189359Y0118415D01*
X0189740Y0118518D01*
X0192703Y0118518D01*
X0192703Y0115534D01*
X0193672Y0115534D01*
X0193672Y0118518D01*
X0196635Y0118518D01*
X0197017Y0118415D01*
X0197359Y0118218D01*
X0197638Y0117939D01*
X0197835Y0117597D01*
X0197938Y0117215D01*
X0197938Y0115533D01*
X0193672Y0115533D01*
X0193672Y0114565D01*
X0197938Y0114565D01*
X0197938Y0112883D01*
X0197835Y0112502D01*
X0197638Y0112160D01*
X0197359Y0111880D01*
X0197017Y0111683D01*
X0196635Y0111581D01*
X0193672Y0111581D01*
X0193672Y0114565D01*
X0192703Y0114565D01*
X0192703Y0113705D02*
X0193672Y0113705D01*
X0193672Y0112707D02*
X0192703Y0112707D01*
X0192703Y0111708D02*
X0193672Y0111708D01*
X0193672Y0114704D02*
X0207051Y0114704D01*
X0206053Y0115702D02*
X0197938Y0115702D01*
X0197938Y0116701D02*
X0205083Y0116701D01*
X0205083Y0116672D02*
X0208706Y0113049D01*
X0208929Y0113049D01*
X0208929Y0112542D01*
X0209691Y0111781D01*
X0217267Y0111781D01*
X0218029Y0112542D01*
X0218029Y0117556D01*
X0217267Y0118318D01*
X0209691Y0118318D01*
X0209392Y0118019D01*
X0209083Y0118328D01*
X0209083Y0125422D01*
X0226662Y0143000D01*
X0231138Y0143000D01*
X0231138Y0142444D01*
X0231899Y0141682D01*
X0239476Y0141682D01*
X0240238Y0142444D01*
X0240238Y0147458D01*
X0239476Y0148219D01*
X0231899Y0148219D01*
X0231138Y0147458D01*
X0231138Y0147000D01*
X0225005Y0147000D01*
X0206255Y0128250D01*
X0205083Y0127078D01*
X0205083Y0116672D01*
X0205083Y0117699D02*
X0197776Y0117699D01*
X0193672Y0117699D02*
X0192703Y0117699D01*
X0192703Y0116701D02*
X0193672Y0116701D01*
X0193672Y0115702D02*
X0192703Y0115702D01*
X0188438Y0115702D02*
X0187833Y0115702D01*
X0187833Y0116701D02*
X0188438Y0116701D01*
X0188599Y0117699D02*
X0187833Y0117699D01*
X0187833Y0118698D02*
X0205083Y0118698D01*
X0205083Y0119696D02*
X0187833Y0119696D01*
X0187833Y0120695D02*
X0205083Y0120695D01*
X0205083Y0121693D02*
X0193246Y0121693D01*
X0194725Y0122692D02*
X0205083Y0122692D01*
X0205083Y0123690D02*
X0195329Y0123690D01*
X0195583Y0124689D02*
X0205083Y0124689D01*
X0205083Y0125687D02*
X0195583Y0125687D01*
X0195173Y0126686D02*
X0205083Y0126686D01*
X0205689Y0127684D02*
X0194349Y0127684D01*
X0194083Y0128683D02*
X0206688Y0128683D01*
X0207686Y0129682D02*
X0194083Y0129682D01*
X0194083Y0130680D02*
X0208685Y0130680D01*
X0209683Y0131679D02*
X0194083Y0131679D01*
X0194083Y0132677D02*
X0210682Y0132677D01*
X0211680Y0133676D02*
X0194083Y0133676D01*
X0194083Y0134674D02*
X0212679Y0134674D01*
X0213677Y0135673D02*
X0205630Y0135673D01*
X0206585Y0136671D02*
X0214676Y0136671D01*
X0215675Y0137670D02*
X0206999Y0137670D01*
X0207133Y0138668D02*
X0216673Y0138668D01*
X0217672Y0139667D02*
X0207067Y0139667D01*
X0206653Y0140665D02*
X0218670Y0140665D01*
X0219669Y0141664D02*
X0205794Y0141664D01*
X0205215Y0142662D02*
X0220667Y0142662D01*
X0221666Y0143661D02*
X0206214Y0143661D01*
X0207212Y0144659D02*
X0222664Y0144659D01*
X0223663Y0145658D02*
X0208211Y0145658D01*
X0209209Y0146656D02*
X0224661Y0146656D01*
X0225833Y0145000D02*
X0207083Y0126250D01*
X0207083Y0117500D01*
X0209534Y0115049D01*
X0213479Y0115049D01*
X0218029Y0114704D02*
X0221459Y0114704D01*
X0222457Y0115702D02*
X0218029Y0115702D01*
X0218029Y0116701D02*
X0223456Y0116701D01*
X0224454Y0117699D02*
X0217886Y0117699D01*
X0218029Y0113705D02*
X0220460Y0113705D01*
X0219462Y0112707D02*
X0218029Y0112707D01*
X0218463Y0111708D02*
X0197061Y0111708D01*
X0197890Y0112707D02*
X0208929Y0112707D01*
X0208050Y0113705D02*
X0197938Y0113705D01*
X0209083Y0118698D02*
X0225453Y0118698D01*
X0226451Y0119696D02*
X0209083Y0119696D01*
X0209083Y0120695D02*
X0227450Y0120695D01*
X0228246Y0121693D02*
X0228448Y0121693D01*
X0225920Y0121693D02*
X0209083Y0121693D01*
X0209083Y0122692D02*
X0224442Y0122692D01*
X0223837Y0123690D02*
X0209083Y0123690D01*
X0209083Y0124689D02*
X0223583Y0124689D01*
X0223583Y0125687D02*
X0209349Y0125687D01*
X0210348Y0126686D02*
X0223993Y0126686D01*
X0224818Y0127684D02*
X0211346Y0127684D01*
X0212345Y0128683D02*
X0225083Y0128683D01*
X0225083Y0129682D02*
X0213343Y0129682D01*
X0214342Y0130680D02*
X0225083Y0130680D01*
X0225083Y0131679D02*
X0215340Y0131679D01*
X0216339Y0132677D02*
X0225083Y0132677D01*
X0225083Y0133676D02*
X0217337Y0133676D01*
X0218336Y0134674D02*
X0224959Y0134674D01*
X0224052Y0135673D02*
X0219334Y0135673D01*
X0220333Y0136671D02*
X0223638Y0136671D01*
X0223583Y0137670D02*
X0221331Y0137670D01*
X0222330Y0138668D02*
X0223779Y0138668D01*
X0223328Y0139667D02*
X0224300Y0139667D01*
X0224327Y0140665D02*
X0225579Y0140665D01*
X0225325Y0141664D02*
X0241333Y0141664D01*
X0241333Y0140665D02*
X0228588Y0140665D01*
X0229866Y0139667D02*
X0241333Y0139667D01*
X0239022Y0138668D02*
X0230388Y0138668D01*
X0230583Y0137670D02*
X0235675Y0137670D01*
X0234676Y0136671D02*
X0230528Y0136671D01*
X0230115Y0135673D02*
X0233677Y0135673D01*
X0232679Y0134674D02*
X0229207Y0134674D01*
X0229083Y0133676D02*
X0232583Y0133676D01*
X0232583Y0132677D02*
X0229083Y0132677D01*
X0229083Y0131679D02*
X0232583Y0131679D01*
X0232583Y0130680D02*
X0229083Y0130680D01*
X0229083Y0129682D02*
X0232583Y0129682D01*
X0232583Y0128683D02*
X0229083Y0128683D01*
X0229349Y0127684D02*
X0232583Y0127684D01*
X0232583Y0126686D02*
X0230173Y0126686D01*
X0230583Y0125687D02*
X0232442Y0125687D01*
X0231444Y0124689D02*
X0230583Y0124689D01*
X0230445Y0123690D02*
X0230329Y0123690D01*
X0227083Y0125000D02*
X0227083Y0137500D01*
X0226324Y0142662D02*
X0231138Y0142662D01*
X0235638Y0145000D02*
X0225833Y0145000D01*
X0231335Y0147655D02*
X0210208Y0147655D01*
X0211206Y0148653D02*
X0264158Y0148653D01*
X0263160Y0147655D02*
X0260332Y0147655D01*
X0263333Y0145000D02*
X0256028Y0145000D01*
X0247083Y0145000D01*
X0243333Y0141250D01*
X0243333Y0136250D01*
X0242487Y0136250D01*
X0237083Y0136250D01*
X0245333Y0139667D02*
X0246623Y0139667D01*
X0245577Y0140665D02*
X0267279Y0140665D01*
X0268277Y0141664D02*
X0246575Y0141664D01*
X0247574Y0142662D02*
X0251429Y0142662D01*
X0251736Y0139667D02*
X0266280Y0139667D01*
X0265282Y0138668D02*
X0252778Y0138668D01*
X0252845Y0137670D02*
X0264283Y0137670D01*
X0263285Y0136671D02*
X0249664Y0136671D01*
X0249664Y0135766D02*
X0252845Y0135766D01*
X0252845Y0134084D01*
X0252743Y0133703D01*
X0252545Y0133360D01*
X0252266Y0133081D01*
X0251924Y0132884D01*
X0251543Y0132781D01*
X0249664Y0132781D01*
X0249664Y0135766D01*
X0249664Y0135673D02*
X0248696Y0135673D01*
X0248696Y0134674D02*
X0249664Y0134674D01*
X0249664Y0133676D02*
X0248696Y0133676D01*
X0252727Y0133676D02*
X0260289Y0133676D01*
X0261288Y0134674D02*
X0252845Y0134674D01*
X0252845Y0135673D02*
X0262286Y0135673D01*
X0260529Y0142662D02*
X0269276Y0142662D01*
X0270274Y0143661D02*
X0264822Y0143661D01*
X0265333Y0144172D02*
X0265333Y0144172D01*
X0265821Y0144659D02*
X0271273Y0144659D01*
X0272271Y0145658D02*
X0266819Y0145658D01*
X0267818Y0146656D02*
X0273270Y0146656D01*
X0274268Y0147655D02*
X0268816Y0147655D01*
X0269815Y0148653D02*
X0275267Y0148653D01*
X0276265Y0149652D02*
X0270813Y0149652D01*
X0271812Y0150650D02*
X0277264Y0150650D01*
X0278262Y0151649D02*
X0272811Y0151649D01*
X0273809Y0152647D02*
X0279261Y0152647D01*
X0280259Y0153646D02*
X0274808Y0153646D01*
X0275806Y0154644D02*
X0281258Y0154644D01*
X0282256Y0155643D02*
X0276805Y0155643D01*
X0277803Y0156641D02*
X0283255Y0156641D01*
X0284253Y0157640D02*
X0278802Y0157640D01*
X0279800Y0158638D02*
X0285252Y0158638D01*
X0286250Y0159637D02*
X0280799Y0159637D01*
X0281797Y0160635D02*
X0287249Y0160635D01*
X0288247Y0161634D02*
X0282796Y0161634D01*
X0283794Y0162632D02*
X0289246Y0162632D01*
X0290244Y0163631D02*
X0284793Y0163631D01*
X0285791Y0164629D02*
X0291243Y0164629D01*
X0292241Y0165628D02*
X0286583Y0165628D01*
X0286583Y0166626D02*
X0293240Y0166626D01*
X0294238Y0167625D02*
X0286583Y0167625D01*
X0286583Y0168623D02*
X0295237Y0168623D01*
X0296235Y0169622D02*
X0286583Y0169622D01*
X0286583Y0170620D02*
X0297234Y0170620D01*
X0298232Y0171619D02*
X0286583Y0171619D01*
X0286987Y0172618D02*
X0299231Y0172618D01*
X0300230Y0173616D02*
X0286987Y0173616D01*
X0286987Y0174615D02*
X0301228Y0174615D01*
X0302227Y0175613D02*
X0294798Y0175613D01*
X0294766Y0175581D02*
X0295045Y0175860D01*
X0295243Y0176203D01*
X0295345Y0176584D01*
X0295345Y0178266D01*
X0292164Y0178266D01*
X0292164Y0175281D01*
X0294043Y0175281D01*
X0294424Y0175384D01*
X0294766Y0175581D01*
X0295345Y0176612D02*
X0303225Y0176612D01*
X0304224Y0177610D02*
X0295345Y0177610D01*
X0295345Y0179607D02*
X0306221Y0179607D01*
X0305222Y0178609D02*
X0292164Y0178609D01*
X0292164Y0179607D02*
X0291196Y0179607D01*
X0291196Y0180606D02*
X0292164Y0180606D01*
X0292164Y0181604D02*
X0291196Y0181604D01*
X0288294Y0181604D02*
X0288105Y0181604D01*
X0286583Y0182603D02*
X0302195Y0182603D01*
X0302033Y0183601D02*
X0287263Y0183601D01*
X0288261Y0184600D02*
X0294273Y0184600D01*
X0295066Y0181604D02*
X0302609Y0181604D01*
X0303604Y0180606D02*
X0295345Y0180606D01*
X0292164Y0177610D02*
X0291196Y0177610D01*
X0291196Y0176612D02*
X0292164Y0176612D01*
X0292164Y0175613D02*
X0291196Y0175613D01*
X0288562Y0175613D02*
X0287822Y0175613D01*
X0284987Y0172904D02*
X0284987Y0178750D01*
X0284583Y0179154D01*
X0284583Y0183750D01*
X0288333Y0187500D01*
X0288383Y0187451D01*
X0292083Y0187451D01*
X0292083Y0190000D01*
X0293333Y0191250D01*
X0295833Y0191250D01*
X0302083Y0191250D01*
X0304583Y0193750D01*
X0304583Y0212500D01*
X0293333Y0223750D01*
X0291922Y0220546D02*
X0283099Y0220546D01*
X0282101Y0219548D02*
X0294707Y0219548D01*
X0295706Y0218549D02*
X0281102Y0218549D01*
X0280104Y0217551D02*
X0296704Y0217551D01*
X0297703Y0216552D02*
X0279105Y0216552D01*
X0278107Y0215553D02*
X0298701Y0215553D01*
X0299700Y0214555D02*
X0277108Y0214555D01*
X0276110Y0213556D02*
X0300698Y0213556D01*
X0301697Y0212558D02*
X0275111Y0212558D01*
X0274113Y0211559D02*
X0302583Y0211559D01*
X0302583Y0210561D02*
X0273114Y0210561D01*
X0272116Y0209562D02*
X0302583Y0209562D01*
X0302583Y0208564D02*
X0271117Y0208564D01*
X0270119Y0207565D02*
X0302583Y0207565D01*
X0302583Y0206567D02*
X0269120Y0206567D01*
X0268122Y0205568D02*
X0302583Y0205568D01*
X0302583Y0204570D02*
X0267123Y0204570D01*
X0266125Y0203571D02*
X0302583Y0203571D01*
X0306583Y0203571D02*
X0308733Y0203571D01*
X0308733Y0202573D02*
X0306583Y0202573D01*
X0306583Y0201574D02*
X0308733Y0201574D01*
X0308733Y0200576D02*
X0306583Y0200576D01*
X0306583Y0199577D02*
X0308733Y0199577D01*
X0308733Y0198579D02*
X0306583Y0198579D01*
X0306583Y0197580D02*
X0308733Y0197580D01*
X0308733Y0196582D02*
X0306583Y0196582D01*
X0306583Y0195583D02*
X0308733Y0195583D01*
X0308733Y0194585D02*
X0306583Y0194585D01*
X0306583Y0193586D02*
X0308733Y0193586D01*
X0308733Y0192588D02*
X0306249Y0192588D01*
X0305251Y0191589D02*
X0308733Y0191589D01*
X0308733Y0190591D02*
X0304252Y0190591D01*
X0303254Y0189592D02*
X0308733Y0189592D01*
X0308733Y0188594D02*
X0303029Y0188594D01*
X0303029Y0187595D02*
X0308733Y0187595D01*
X0308733Y0186597D02*
X0308361Y0186597D01*
X0303306Y0186597D02*
X0303029Y0186597D01*
X0298479Y0187451D02*
X0292083Y0187451D01*
X0290083Y0189592D02*
X0282738Y0189592D01*
X0282738Y0189958D02*
X0282738Y0184944D01*
X0281976Y0184182D01*
X0274399Y0184182D01*
X0273638Y0184944D01*
X0273638Y0185451D01*
X0267863Y0185451D01*
X0249083Y0166672D01*
X0249083Y0159578D01*
X0249162Y0159500D01*
X0251429Y0159500D01*
X0251429Y0160056D01*
X0252191Y0160818D01*
X0259767Y0160818D01*
X0260529Y0160056D01*
X0260529Y0155042D01*
X0259767Y0154281D01*
X0252191Y0154281D01*
X0251429Y0155042D01*
X0251429Y0155500D01*
X0247505Y0155500D01*
X0246333Y0156672D01*
X0245083Y0157922D01*
X0245083Y0168328D01*
X0246255Y0169500D01*
X0266206Y0189451D01*
X0273638Y0189451D01*
X0273638Y0189958D01*
X0274399Y0190719D01*
X0281976Y0190719D01*
X0282738Y0189958D01*
X0282105Y0190591D02*
X0286815Y0190591D01*
X0285544Y0191589D02*
X0254142Y0191589D01*
X0253144Y0190591D02*
X0274271Y0190591D01*
X0273638Y0189592D02*
X0252145Y0189592D01*
X0251147Y0188594D02*
X0265349Y0188594D01*
X0264350Y0187595D02*
X0250148Y0187595D01*
X0249150Y0186597D02*
X0263352Y0186597D01*
X0262353Y0185598D02*
X0248151Y0185598D01*
X0247153Y0184600D02*
X0261355Y0184600D01*
X0260356Y0183601D02*
X0246154Y0183601D01*
X0245156Y0182603D02*
X0259358Y0182603D01*
X0258359Y0181604D02*
X0244157Y0181604D01*
X0243159Y0180606D02*
X0257361Y0180606D01*
X0256362Y0179607D02*
X0242160Y0179607D01*
X0241162Y0178609D02*
X0255363Y0178609D01*
X0254365Y0177610D02*
X0240163Y0177610D01*
X0239165Y0176612D02*
X0253366Y0176612D01*
X0252368Y0175613D02*
X0238166Y0175613D01*
X0237168Y0174615D02*
X0251369Y0174615D01*
X0250371Y0173616D02*
X0236169Y0173616D01*
X0235171Y0172618D02*
X0249372Y0172618D01*
X0248374Y0171619D02*
X0234172Y0171619D01*
X0233174Y0170620D02*
X0247375Y0170620D01*
X0246377Y0169622D02*
X0232175Y0169622D01*
X0231177Y0168623D02*
X0245378Y0168623D01*
X0245083Y0167625D02*
X0230178Y0167625D01*
X0229180Y0166626D02*
X0245083Y0166626D01*
X0245083Y0165628D02*
X0228181Y0165628D01*
X0227183Y0164629D02*
X0245083Y0164629D01*
X0245083Y0163631D02*
X0226184Y0163631D01*
X0225186Y0162632D02*
X0245083Y0162632D01*
X0245083Y0161634D02*
X0224187Y0161634D01*
X0223189Y0160635D02*
X0231434Y0160635D01*
X0231517Y0160718D02*
X0231237Y0160439D01*
X0231040Y0160097D01*
X0230938Y0159715D01*
X0230938Y0158033D01*
X0235203Y0158033D01*
X0235203Y0157065D01*
X0230938Y0157065D01*
X0230938Y0155383D01*
X0231040Y0155002D01*
X0231237Y0154660D01*
X0231517Y0154380D01*
X0231859Y0154183D01*
X0232240Y0154081D01*
X0235203Y0154081D01*
X0235203Y0157065D01*
X0236172Y0157065D01*
X0236172Y0158033D01*
X0240438Y0158033D01*
X0240438Y0159715D01*
X0240335Y0160097D01*
X0240138Y0160439D01*
X0239859Y0160718D01*
X0239517Y0160915D01*
X0239135Y0161018D01*
X0236172Y0161018D01*
X0236172Y0158034D01*
X0235203Y0158034D01*
X0235203Y0161018D01*
X0232240Y0161018D01*
X0231859Y0160915D01*
X0231517Y0160718D01*
X0230938Y0159637D02*
X0222190Y0159637D01*
X0221192Y0158638D02*
X0230938Y0158638D01*
X0230938Y0156641D02*
X0219194Y0156641D01*
X0218196Y0155643D02*
X0230938Y0155643D01*
X0231253Y0154644D02*
X0217197Y0154644D01*
X0216199Y0153646D02*
X0269151Y0153646D01*
X0270149Y0154644D02*
X0260131Y0154644D01*
X0260529Y0155643D02*
X0271148Y0155643D01*
X0272146Y0156641D02*
X0260529Y0156641D01*
X0260529Y0157640D02*
X0273145Y0157640D01*
X0274143Y0158638D02*
X0260529Y0158638D01*
X0260529Y0159637D02*
X0275142Y0159637D01*
X0276140Y0160635D02*
X0259950Y0160635D01*
X0255979Y0157549D02*
X0255930Y0157500D01*
X0248333Y0157500D01*
X0247083Y0158750D01*
X0247083Y0167500D01*
X0267034Y0187451D01*
X0278188Y0187451D01*
X0282738Y0187595D02*
X0285600Y0187595D01*
X0284602Y0186597D02*
X0282738Y0186597D01*
X0282738Y0185598D02*
X0283603Y0185598D01*
X0282605Y0184600D02*
X0282393Y0184600D01*
X0282583Y0183601D02*
X0266013Y0183601D01*
X0265014Y0182603D02*
X0282583Y0182603D01*
X0281869Y0181604D02*
X0264016Y0181604D01*
X0263017Y0180606D02*
X0281522Y0180606D01*
X0281522Y0179607D02*
X0262019Y0179607D01*
X0261020Y0178609D02*
X0281522Y0178609D01*
X0281522Y0177610D02*
X0260022Y0177610D01*
X0259023Y0176612D02*
X0281522Y0176612D01*
X0282151Y0175613D02*
X0258025Y0175613D01*
X0257026Y0174615D02*
X0282987Y0174615D01*
X0282871Y0173616D02*
X0256028Y0173616D01*
X0255029Y0172618D02*
X0282583Y0172618D01*
X0282583Y0171619D02*
X0254031Y0171619D01*
X0253032Y0170620D02*
X0282583Y0170620D01*
X0282583Y0169622D02*
X0252034Y0169622D01*
X0251035Y0168623D02*
X0282583Y0168623D01*
X0282583Y0167625D02*
X0250037Y0167625D01*
X0249083Y0166626D02*
X0282131Y0166626D01*
X0281133Y0165628D02*
X0249083Y0165628D01*
X0249083Y0164629D02*
X0280134Y0164629D01*
X0279136Y0163631D02*
X0249083Y0163631D01*
X0249083Y0162632D02*
X0278137Y0162632D01*
X0277139Y0161634D02*
X0249083Y0161634D01*
X0249083Y0160635D02*
X0252008Y0160635D01*
X0251429Y0159637D02*
X0249083Y0159637D01*
X0245083Y0159637D02*
X0240438Y0159637D01*
X0240438Y0158638D02*
X0245083Y0158638D01*
X0245365Y0157640D02*
X0236172Y0157640D01*
X0236172Y0157065D02*
X0240438Y0157065D01*
X0240438Y0155383D01*
X0240335Y0155002D01*
X0240138Y0154660D01*
X0239859Y0154380D01*
X0239517Y0154183D01*
X0239135Y0154081D01*
X0236172Y0154081D01*
X0236172Y0157065D01*
X0236172Y0156641D02*
X0235203Y0156641D01*
X0235203Y0155643D02*
X0236172Y0155643D01*
X0236172Y0154644D02*
X0235203Y0154644D01*
X0235203Y0157640D02*
X0220193Y0157640D01*
X0215200Y0152647D02*
X0268152Y0152647D01*
X0267154Y0151649D02*
X0214202Y0151649D01*
X0213203Y0150650D02*
X0266155Y0150650D01*
X0265157Y0149652D02*
X0212205Y0149652D01*
X0201451Y0142662D02*
X0194083Y0142662D01*
X0194083Y0141664D02*
X0200873Y0141664D01*
X0200014Y0140665D02*
X0194083Y0140665D01*
X0194083Y0139667D02*
X0199600Y0139667D01*
X0199533Y0138668D02*
X0194083Y0138668D01*
X0194083Y0137670D02*
X0199668Y0137670D01*
X0200081Y0136671D02*
X0194083Y0136671D01*
X0194083Y0135673D02*
X0201037Y0135673D01*
X0190083Y0135673D02*
X0187833Y0135673D01*
X0187833Y0136671D02*
X0190083Y0136671D01*
X0190083Y0137670D02*
X0187833Y0137670D01*
X0187833Y0138668D02*
X0190083Y0138668D01*
X0190083Y0139667D02*
X0187833Y0139667D01*
X0187833Y0140665D02*
X0190083Y0140665D01*
X0190083Y0141664D02*
X0187833Y0141664D01*
X0187250Y0142662D02*
X0190083Y0142662D01*
X0190083Y0143661D02*
X0186251Y0143661D01*
X0185253Y0144659D02*
X0190083Y0144659D01*
X0189847Y0145658D02*
X0184254Y0145658D01*
X0183256Y0146656D02*
X0188849Y0146656D01*
X0187850Y0147655D02*
X0182257Y0147655D01*
X0181259Y0148653D02*
X0186852Y0148653D01*
X0185853Y0149652D02*
X0180260Y0149652D01*
X0179261Y0150650D02*
X0184855Y0150650D01*
X0183856Y0151649D02*
X0178263Y0151649D01*
X0177264Y0152647D02*
X0182858Y0152647D01*
X0181859Y0153646D02*
X0176266Y0153646D01*
X0175267Y0154644D02*
X0180861Y0154644D01*
X0179862Y0155643D02*
X0175529Y0155643D01*
X0175529Y0156641D02*
X0178864Y0156641D01*
X0177865Y0157640D02*
X0175529Y0157640D01*
X0175529Y0158638D02*
X0176867Y0158638D01*
X0175868Y0159637D02*
X0175529Y0159637D01*
X0175833Y0162500D02*
X0192083Y0146250D01*
X0192083Y0125000D01*
X0188837Y0123690D02*
X0187833Y0123690D01*
X0187833Y0122692D02*
X0189442Y0122692D01*
X0190920Y0121693D02*
X0187833Y0121693D01*
X0187833Y0124689D02*
X0188583Y0124689D01*
X0188583Y0125687D02*
X0187833Y0125687D01*
X0187833Y0126686D02*
X0188993Y0126686D01*
X0189818Y0127684D02*
X0187833Y0127684D01*
X0187833Y0128683D02*
X0190083Y0128683D01*
X0190083Y0129682D02*
X0187833Y0129682D01*
X0187833Y0130680D02*
X0190083Y0130680D01*
X0190083Y0131679D02*
X0187833Y0131679D01*
X0187833Y0132677D02*
X0190083Y0132677D01*
X0190083Y0133676D02*
X0187833Y0133676D01*
X0187833Y0134674D02*
X0190083Y0134674D01*
X0182083Y0140000D02*
X0177083Y0145000D01*
X0171028Y0145000D01*
X0170979Y0144951D01*
X0166429Y0144659D02*
X0155238Y0144659D01*
X0155238Y0143661D02*
X0166429Y0143661D01*
X0166429Y0142662D02*
X0155238Y0142662D01*
X0155238Y0145658D02*
X0166429Y0145658D01*
X0166429Y0146656D02*
X0155238Y0146656D01*
X0155041Y0147655D02*
X0166626Y0147655D01*
X0170358Y0152647D02*
X0141014Y0152647D01*
X0140016Y0153646D02*
X0169359Y0153646D01*
X0166827Y0154644D02*
X0155123Y0154644D01*
X0155138Y0154660D02*
X0155335Y0155002D01*
X0155438Y0155383D01*
X0155438Y0157065D01*
X0151172Y0157065D01*
X0151172Y0154081D01*
X0154135Y0154081D01*
X0154517Y0154183D01*
X0154859Y0154380D01*
X0155138Y0154660D01*
X0155438Y0155643D02*
X0166429Y0155643D01*
X0166429Y0156641D02*
X0155438Y0156641D01*
X0151172Y0156641D02*
X0150203Y0156641D01*
X0150203Y0155643D02*
X0151172Y0155643D01*
X0151172Y0154644D02*
X0150203Y0154644D01*
X0146253Y0154644D02*
X0139017Y0154644D01*
X0138019Y0155643D02*
X0145938Y0155643D01*
X0150203Y0158638D02*
X0151172Y0158638D01*
X0151172Y0159637D02*
X0150203Y0159637D01*
X0150203Y0160635D02*
X0151172Y0160635D01*
X0154583Y0162500D02*
X0148333Y0168750D01*
X0148333Y0173750D01*
X0151833Y0173616D02*
X0170497Y0173616D01*
X0169499Y0174615D02*
X0151764Y0174615D01*
X0151350Y0175613D02*
X0168500Y0175613D01*
X0167502Y0176612D02*
X0150422Y0176612D01*
X0151653Y0172618D02*
X0171496Y0172618D01*
X0172494Y0171619D02*
X0151152Y0171619D01*
X0150333Y0170620D02*
X0173493Y0170620D01*
X0174492Y0169622D02*
X0150333Y0169622D01*
X0151288Y0168623D02*
X0175490Y0168623D01*
X0176489Y0167625D02*
X0152287Y0167625D01*
X0153285Y0166626D02*
X0177487Y0166626D01*
X0178486Y0165628D02*
X0154284Y0165628D01*
X0155282Y0164629D02*
X0179484Y0164629D01*
X0180483Y0163631D02*
X0177531Y0163631D01*
X0178529Y0162632D02*
X0181481Y0162632D01*
X0182480Y0161634D02*
X0179528Y0161634D01*
X0180526Y0160635D02*
X0183478Y0160635D01*
X0184477Y0159637D02*
X0181525Y0159637D01*
X0182523Y0158638D02*
X0185475Y0158638D01*
X0186474Y0157640D02*
X0183522Y0157640D01*
X0184520Y0156641D02*
X0187472Y0156641D01*
X0188471Y0155643D02*
X0185519Y0155643D01*
X0186517Y0154644D02*
X0189469Y0154644D01*
X0190468Y0153646D02*
X0187516Y0153646D01*
X0188514Y0152647D02*
X0191466Y0152647D01*
X0192465Y0151649D02*
X0189513Y0151649D01*
X0190511Y0150650D02*
X0193463Y0150650D01*
X0194462Y0149652D02*
X0191510Y0149652D01*
X0192509Y0148653D02*
X0195460Y0148653D01*
X0196459Y0147655D02*
X0193507Y0147655D01*
X0194083Y0146656D02*
X0197457Y0146656D01*
X0198456Y0145658D02*
X0194083Y0145658D01*
X0194083Y0144659D02*
X0199454Y0144659D01*
X0200453Y0143661D02*
X0194083Y0143661D01*
X0182083Y0140000D02*
X0182083Y0123750D01*
X0180083Y0121693D02*
X0158360Y0121693D01*
X0159063Y0122692D02*
X0157361Y0122692D01*
X0158064Y0123690D02*
X0156363Y0123690D01*
X0157066Y0124689D02*
X0155364Y0124689D01*
X0156067Y0125687D02*
X0154366Y0125687D01*
X0155069Y0126686D02*
X0153367Y0126686D01*
X0154070Y0127684D02*
X0152369Y0127684D01*
X0153072Y0128683D02*
X0151370Y0128683D01*
X0152073Y0129682D02*
X0150372Y0129682D01*
X0151255Y0130500D02*
X0151255Y0130500D01*
X0151075Y0130680D02*
X0149373Y0130680D01*
X0150083Y0131679D02*
X0148375Y0131679D01*
X0147376Y0132677D02*
X0150083Y0132677D01*
X0150083Y0133676D02*
X0146378Y0133676D01*
X0145379Y0134674D02*
X0148331Y0134674D01*
X0147332Y0135673D02*
X0144381Y0135673D01*
X0143382Y0136671D02*
X0146334Y0136671D01*
X0145335Y0137670D02*
X0142384Y0137670D01*
X0141385Y0138668D02*
X0144337Y0138668D01*
X0143338Y0139667D02*
X0140387Y0139667D01*
X0139388Y0140665D02*
X0142340Y0140665D01*
X0141341Y0141664D02*
X0138389Y0141664D01*
X0137391Y0142662D02*
X0140343Y0142662D01*
X0139344Y0143661D02*
X0136392Y0143661D01*
X0135394Y0144659D02*
X0138346Y0144659D01*
X0137347Y0145658D02*
X0134395Y0145658D01*
X0133397Y0146656D02*
X0136349Y0146656D01*
X0135350Y0147655D02*
X0132398Y0147655D01*
X0131400Y0148653D02*
X0134352Y0148653D01*
X0133353Y0149652D02*
X0130401Y0149652D01*
X0129403Y0150650D02*
X0132355Y0150650D01*
X0131356Y0151649D02*
X0128404Y0151649D01*
X0127406Y0152647D02*
X0130358Y0152647D01*
X0129359Y0153646D02*
X0126407Y0153646D01*
X0125409Y0154644D02*
X0128361Y0154644D01*
X0127362Y0155643D02*
X0124410Y0155643D01*
X0123412Y0156641D02*
X0126479Y0156641D01*
X0126479Y0157640D02*
X0122413Y0157640D01*
X0121415Y0158638D02*
X0126479Y0158638D01*
X0126479Y0159637D02*
X0120416Y0159637D01*
X0119418Y0160635D02*
X0126479Y0160635D01*
X0126479Y0161634D02*
X0118419Y0161634D01*
X0117421Y0162632D02*
X0126479Y0162632D01*
X0126479Y0163631D02*
X0116422Y0163631D01*
X0115424Y0164629D02*
X0126479Y0164629D01*
X0126479Y0165628D02*
X0114425Y0165628D01*
X0113427Y0166626D02*
X0126479Y0166626D01*
X0126479Y0167625D02*
X0112428Y0167625D01*
X0113150Y0168081D02*
X0113493Y0167884D01*
X0113874Y0167781D01*
X0115753Y0167781D01*
X0115753Y0170766D01*
X0112572Y0170766D01*
X0112572Y0169084D01*
X0112674Y0168703D01*
X0112871Y0168360D01*
X0113150Y0168081D01*
X0112719Y0168623D02*
X0111430Y0168623D01*
X0110431Y0169622D02*
X0112572Y0169622D01*
X0112572Y0170620D02*
X0109433Y0170620D01*
X0115753Y0170620D02*
X0116721Y0170620D01*
X0116721Y0169622D02*
X0115753Y0169622D01*
X0115753Y0168623D02*
X0116721Y0168623D01*
X0126276Y0168623D02*
X0126479Y0168623D01*
X0128479Y0171250D02*
X0128479Y0187451D01*
X0128333Y0187596D01*
X0128333Y0192500D01*
X0125833Y0195000D01*
X0124583Y0195000D01*
X0123169Y0193586D02*
X0121672Y0193586D01*
X0121833Y0192588D02*
X0125417Y0192588D01*
X0126333Y0191589D02*
X0121744Y0191589D01*
X0121331Y0190591D02*
X0124562Y0190591D01*
X0123929Y0189592D02*
X0120375Y0189592D01*
X0120333Y0188594D02*
X0123929Y0188594D01*
X0123929Y0187595D02*
X0121067Y0187595D01*
X0122065Y0186597D02*
X0123929Y0186597D01*
X0123929Y0185598D02*
X0123064Y0185598D01*
X0124062Y0184600D02*
X0124273Y0184600D01*
X0124930Y0183601D02*
X0126479Y0183601D01*
X0126479Y0182603D02*
X0124930Y0182603D01*
X0126048Y0181604D02*
X0126479Y0181604D01*
X0126479Y0180606D02*
X0126395Y0180606D01*
X0126395Y0179607D02*
X0126479Y0179607D01*
X0126479Y0178609D02*
X0126395Y0178609D01*
X0126395Y0177610D02*
X0126479Y0177610D01*
X0126479Y0176612D02*
X0126395Y0176612D01*
X0126479Y0175613D02*
X0125765Y0175613D01*
X0132083Y0180000D02*
X0133333Y0181250D01*
X0133333Y0198750D01*
X0132034Y0200049D01*
X0128479Y0200049D01*
X0136458Y0201875D02*
X0136458Y0186875D01*
X0142083Y0181250D01*
X0132083Y0180000D02*
X0132083Y0158750D01*
X0145833Y0145000D01*
X0150638Y0145000D01*
X0150688Y0144951D01*
X0146335Y0147655D02*
X0146007Y0147655D01*
X0145009Y0148653D02*
X0175602Y0148653D01*
X0175332Y0147655D02*
X0176600Y0147655D01*
X0174603Y0149652D02*
X0144010Y0149652D01*
X0143011Y0150650D02*
X0173605Y0150650D01*
X0172606Y0151649D02*
X0142013Y0151649D01*
X0146998Y0141664D02*
X0177591Y0141664D01*
X0176593Y0142662D02*
X0175529Y0142662D01*
X0178590Y0140665D02*
X0147997Y0140665D01*
X0148995Y0139667D02*
X0161623Y0139667D01*
X0163696Y0139667D02*
X0164664Y0139667D01*
X0164664Y0138668D02*
X0163696Y0138668D01*
X0163696Y0137670D02*
X0164664Y0137670D01*
X0164664Y0136671D02*
X0180083Y0136671D01*
X0180083Y0135673D02*
X0167845Y0135673D01*
X0167845Y0135766D02*
X0164664Y0135766D01*
X0164664Y0132781D01*
X0166543Y0132781D01*
X0166924Y0132884D01*
X0167266Y0133081D01*
X0167545Y0133360D01*
X0167743Y0133703D01*
X0167845Y0134084D01*
X0167845Y0135766D01*
X0167845Y0134674D02*
X0180083Y0134674D01*
X0180083Y0133676D02*
X0167727Y0133676D01*
X0164664Y0133676D02*
X0163696Y0133676D01*
X0163696Y0134674D02*
X0164664Y0134674D01*
X0164664Y0135673D02*
X0163696Y0135673D01*
X0167845Y0137670D02*
X0180083Y0137670D01*
X0180083Y0138668D02*
X0167778Y0138668D01*
X0166736Y0139667D02*
X0179588Y0139667D01*
X0180083Y0132677D02*
X0154735Y0132677D01*
X0154089Y0133676D02*
X0154083Y0133676D01*
X0155733Y0131679D02*
X0180083Y0131679D01*
X0180083Y0130680D02*
X0156732Y0130680D01*
X0157730Y0129682D02*
X0180083Y0129682D01*
X0180083Y0128683D02*
X0158729Y0128683D01*
X0159727Y0127684D02*
X0180083Y0127684D01*
X0180083Y0126686D02*
X0160726Y0126686D01*
X0159358Y0120695D02*
X0180083Y0120695D01*
X0180083Y0119696D02*
X0160357Y0119696D01*
X0161355Y0118698D02*
X0180083Y0118698D01*
X0180083Y0117699D02*
X0162354Y0117699D01*
X0163352Y0116701D02*
X0180083Y0116701D01*
X0180083Y0115702D02*
X0164351Y0115702D01*
X0165349Y0114704D02*
X0180083Y0114704D01*
X0180083Y0113705D02*
X0166348Y0113705D01*
X0167346Y0112707D02*
X0180083Y0112707D01*
X0180083Y0111708D02*
X0168345Y0111708D01*
X0169343Y0110710D02*
X0180083Y0110710D01*
X0180083Y0109711D02*
X0170342Y0109711D01*
X0171340Y0108713D02*
X0180083Y0108713D01*
X0180083Y0107714D02*
X0172339Y0107714D01*
X0173337Y0106716D02*
X0180083Y0106716D01*
X0187833Y0105717D02*
X0189397Y0105717D01*
X0188638Y0104719D02*
X0187833Y0104719D01*
X0208261Y0098728D02*
X0225341Y0098728D01*
X0215356Y0088743D02*
X0191311Y0088743D01*
X0192309Y0087744D02*
X0214358Y0087744D01*
X0213359Y0086746D02*
X0193308Y0086746D01*
X0194306Y0085747D02*
X0212361Y0085747D01*
X0211362Y0084749D02*
X0205834Y0084749D01*
X0206670Y0083750D02*
X0210363Y0083750D01*
X0209365Y0082751D02*
X0207083Y0082751D01*
X0207133Y0081753D02*
X0208366Y0081753D01*
X0207368Y0080754D02*
X0206982Y0080754D01*
X0199684Y0080754D02*
X0199299Y0080754D01*
X0199533Y0081753D02*
X0198300Y0081753D01*
X0197302Y0082751D02*
X0199583Y0082751D01*
X0199997Y0083750D02*
X0196303Y0083750D01*
X0195305Y0084749D02*
X0200833Y0084749D01*
X0202949Y0090740D02*
X0203435Y0090740D01*
X0206196Y0090740D02*
X0207164Y0090740D01*
X0207164Y0091738D02*
X0206196Y0091738D01*
X0206196Y0092737D02*
X0207164Y0092737D01*
X0208991Y0099726D02*
X0209147Y0099726D01*
X0158333Y0136250D02*
X0157487Y0136250D01*
X0152083Y0136250D01*
X0154022Y0138668D02*
X0149994Y0138668D01*
X0170833Y0157404D02*
X0170979Y0157549D01*
X0175833Y0162500D02*
X0154583Y0162500D01*
X0113833Y0184600D02*
X0112393Y0184600D01*
X0112738Y0189592D02*
X0116291Y0189592D01*
X0116318Y0188594D02*
X0116333Y0188594D01*
X0115336Y0190591D02*
X0112105Y0190591D01*
X0114922Y0191589D02*
X0097933Y0191589D01*
X0111639Y0196582D02*
X0120173Y0196582D01*
X0120036Y0195583D02*
X0121172Y0195583D01*
X0121198Y0194585D02*
X0122170Y0194585D01*
X0103438Y0200576D02*
X0097933Y0200576D01*
X0097933Y0201574D02*
X0103438Y0201574D01*
X0235203Y0160635D02*
X0236172Y0160635D01*
X0236172Y0159637D02*
X0235203Y0159637D01*
X0235203Y0158638D02*
X0236172Y0158638D01*
X0239941Y0160635D02*
X0245083Y0160635D01*
X0246364Y0156641D02*
X0240438Y0156641D01*
X0240438Y0155643D02*
X0247362Y0155643D01*
X0251827Y0154644D02*
X0240123Y0154644D01*
X0240041Y0147655D02*
X0251626Y0147655D01*
X0255979Y0144951D02*
X0256028Y0145000D01*
X0263333Y0145000D02*
X0284583Y0166250D01*
X0284583Y0172500D01*
X0284987Y0172904D01*
X0273982Y0184600D02*
X0267011Y0184600D01*
X0282738Y0188594D02*
X0286599Y0188594D01*
X0289852Y0190591D02*
X0290083Y0190591D01*
X0288333Y0193750D02*
X0288333Y0197500D01*
X0290883Y0200049D01*
X0298479Y0200049D01*
X0293946Y0202573D02*
X0282842Y0202573D01*
X0282835Y0202597D02*
X0282638Y0202939D01*
X0282359Y0203218D01*
X0282017Y0203415D01*
X0281635Y0203518D01*
X0278672Y0203518D01*
X0278672Y0200534D01*
X0277703Y0200534D01*
X0277703Y0203518D01*
X0274740Y0203518D01*
X0274359Y0203415D01*
X0274017Y0203218D01*
X0273737Y0202939D01*
X0273540Y0202597D01*
X0273438Y0202215D01*
X0273438Y0200533D01*
X0277703Y0200533D01*
X0277703Y0199565D01*
X0273438Y0199565D01*
X0273438Y0197883D01*
X0273540Y0197502D01*
X0273737Y0197160D01*
X0274017Y0196880D01*
X0274359Y0196683D01*
X0274740Y0196581D01*
X0277703Y0196581D01*
X0277703Y0199565D01*
X0278672Y0199565D01*
X0278672Y0200533D01*
X0282938Y0200533D01*
X0282938Y0202215D01*
X0282835Y0202597D01*
X0282938Y0201574D02*
X0289579Y0201574D01*
X0288581Y0200576D02*
X0282938Y0200576D01*
X0282938Y0199565D02*
X0278672Y0199565D01*
X0278672Y0196581D01*
X0281635Y0196581D01*
X0282017Y0196683D01*
X0282359Y0196880D01*
X0282638Y0197160D01*
X0282835Y0197502D01*
X0282938Y0197883D01*
X0282938Y0199565D01*
X0282938Y0198579D02*
X0286584Y0198579D01*
X0286333Y0197580D02*
X0282856Y0197580D01*
X0281639Y0196582D02*
X0286215Y0196582D01*
X0285304Y0195583D02*
X0258136Y0195583D01*
X0257138Y0194585D02*
X0284891Y0194585D01*
X0284833Y0193586D02*
X0256139Y0193586D01*
X0255141Y0192588D02*
X0285026Y0192588D01*
X0287582Y0199577D02*
X0278672Y0199577D01*
X0277703Y0199577D02*
X0262130Y0199577D01*
X0261132Y0198579D02*
X0273438Y0198579D01*
X0273519Y0197580D02*
X0260133Y0197580D01*
X0259135Y0196582D02*
X0274736Y0196582D01*
X0277703Y0196582D02*
X0278672Y0196582D01*
X0278672Y0197580D02*
X0277703Y0197580D01*
X0277703Y0198579D02*
X0278672Y0198579D01*
X0278672Y0200576D02*
X0277703Y0200576D01*
X0277703Y0201574D02*
X0278672Y0201574D01*
X0278672Y0202573D02*
X0277703Y0202573D01*
X0273534Y0202573D02*
X0265126Y0202573D01*
X0264127Y0201574D02*
X0273438Y0201574D01*
X0273438Y0200576D02*
X0263129Y0200576D01*
X0295833Y0191250D02*
X0300833Y0191250D01*
X0306583Y0204570D02*
X0308733Y0204570D01*
X0308733Y0205568D02*
X0306583Y0205568D01*
X0306583Y0206567D02*
X0308733Y0206567D01*
X0308733Y0207565D02*
X0306583Y0207565D01*
X0306583Y0208564D02*
X0308733Y0208564D01*
X0308733Y0209562D02*
X0306583Y0209562D01*
X0306583Y0210561D02*
X0308733Y0210561D01*
X0308733Y0211559D02*
X0306583Y0211559D01*
X0306583Y0212558D02*
X0308733Y0212558D01*
X0308733Y0213556D02*
X0306355Y0213556D01*
X0305357Y0214555D02*
X0308733Y0214555D01*
X0308733Y0215553D02*
X0304358Y0215553D01*
X0303360Y0216552D02*
X0308733Y0216552D01*
X0308733Y0217551D02*
X0302361Y0217551D01*
X0301363Y0218549D02*
X0308733Y0218549D01*
X0308733Y0219548D02*
X0300364Y0219548D01*
X0299366Y0220546D02*
X0308733Y0220546D01*
X0308733Y0221545D02*
X0298367Y0221545D01*
X0297369Y0222543D02*
X0308733Y0222543D01*
X0308733Y0223542D02*
X0296833Y0223542D01*
X0296794Y0224540D02*
X0308733Y0224540D01*
X0308733Y0225539D02*
X0296381Y0225539D01*
X0295496Y0226537D02*
X0308733Y0226537D01*
X0308733Y0227536D02*
X0290089Y0227536D01*
X0291087Y0228534D02*
X0308733Y0228534D01*
X0308733Y0229533D02*
X0292086Y0229533D01*
X0293084Y0230531D02*
X0308733Y0230531D01*
X0308733Y0231530D02*
X0294083Y0231530D01*
X0295081Y0232528D02*
X0308733Y0232528D01*
X0308733Y0233527D02*
X0296080Y0233527D01*
X0297078Y0234525D02*
X0308733Y0234525D01*
X0308733Y0235524D02*
X0298077Y0235524D01*
X0299075Y0236522D02*
X0304300Y0236522D01*
X0302939Y0237521D02*
X0300074Y0237521D01*
X0301072Y0238519D02*
X0302334Y0238519D01*
X0307367Y0236522D02*
X0308733Y0236522D01*
X0308728Y0237521D02*
X0308733Y0237521D01*
X0291171Y0226537D02*
X0289090Y0226537D01*
X0288092Y0225539D02*
X0290286Y0225539D01*
X0289872Y0224540D02*
X0287093Y0224540D01*
X0286095Y0223542D02*
X0289833Y0223542D01*
X0290045Y0222543D02*
X0285096Y0222543D01*
X0284098Y0221545D02*
X0290589Y0221545D01*
X0245911Y0146656D02*
X0240238Y0146656D01*
X0240238Y0145658D02*
X0244913Y0145658D01*
X0245083Y0145828D02*
X0245083Y0145828D01*
X0243914Y0144659D02*
X0240238Y0144659D01*
X0240238Y0143661D02*
X0242916Y0143661D01*
X0241917Y0142662D02*
X0240238Y0142662D01*
X0235688Y0144951D02*
X0235638Y0145000D01*
X0248696Y0139667D02*
X0249664Y0139667D01*
X0249664Y0138668D02*
X0248696Y0138668D01*
X0248696Y0137670D02*
X0249664Y0137670D01*
D13*
X0245833Y0150000D03*
X0227083Y0137500D03*
X0215833Y0145000D03*
X0227083Y0125000D03*
X0192083Y0125000D03*
X0205833Y0101250D03*
X0160833Y0153750D03*
X0139583Y0157500D03*
X0155833Y0170000D03*
X0148333Y0173750D03*
X0142083Y0181250D03*
X0118333Y0192500D03*
X0136458Y0201875D03*
X0120833Y0213750D03*
X0112083Y0213750D03*
X0105833Y0235000D03*
X0107083Y0180000D03*
X0272083Y0171250D03*
X0299583Y0178750D03*
X0288333Y0193750D03*
X0282083Y0211250D03*
X0293333Y0223750D03*
M02*
