%
M48
M72
T01C0.0200
T02C0.0500
%
T01
X20583Y10125
X19208Y12500
X21583Y14500
X22708Y13750
X22708Y12500
X24583Y15000
X27208Y17125
X29958Y17875
X28833Y19375
X28208Y21125
X29333Y22375
X16083Y15375
X13958Y15750
X15583Y17000
X14833Y17375
X14208Y18125
X11833Y19250
X13646Y20188
X12083Y21375
X11208Y21375
X10583Y23500
X10708Y18000
T02
X20333Y8188
X20333Y13875
X10083Y18375
X10021Y24000
X30583Y24000
X30583Y18375
M30
