G75*
%MOIN*%
%OFA0B0*%
%FSLAX25Y25*%
%IPPOS*%
%LPD*%
%AMOC8*
5,1,8,0,0,1.08239X$1,22.5*
%
%ADD10C,0.00000*%
%ADD11C,0.01600*%
D10*
X0200833Y0081875D02*
X0200835Y0081974D01*
X0200841Y0082074D01*
X0200851Y0082173D01*
X0200865Y0082271D01*
X0200882Y0082369D01*
X0200904Y0082466D01*
X0200929Y0082562D01*
X0200958Y0082657D01*
X0200991Y0082751D01*
X0201028Y0082843D01*
X0201068Y0082934D01*
X0201112Y0083023D01*
X0201160Y0083111D01*
X0201211Y0083196D01*
X0201265Y0083279D01*
X0201322Y0083361D01*
X0201383Y0083439D01*
X0201447Y0083516D01*
X0201513Y0083589D01*
X0201583Y0083660D01*
X0201655Y0083728D01*
X0201730Y0083794D01*
X0201808Y0083856D01*
X0201888Y0083915D01*
X0201970Y0083971D01*
X0202054Y0084023D01*
X0202141Y0084072D01*
X0202229Y0084118D01*
X0202319Y0084160D01*
X0202411Y0084199D01*
X0202504Y0084234D01*
X0202598Y0084265D01*
X0202694Y0084292D01*
X0202791Y0084315D01*
X0202888Y0084335D01*
X0202986Y0084351D01*
X0203085Y0084363D01*
X0203184Y0084371D01*
X0203283Y0084375D01*
X0203383Y0084375D01*
X0203482Y0084371D01*
X0203581Y0084363D01*
X0203680Y0084351D01*
X0203778Y0084335D01*
X0203875Y0084315D01*
X0203972Y0084292D01*
X0204068Y0084265D01*
X0204162Y0084234D01*
X0204255Y0084199D01*
X0204347Y0084160D01*
X0204437Y0084118D01*
X0204525Y0084072D01*
X0204612Y0084023D01*
X0204696Y0083971D01*
X0204778Y0083915D01*
X0204858Y0083856D01*
X0204936Y0083794D01*
X0205011Y0083728D01*
X0205083Y0083660D01*
X0205153Y0083589D01*
X0205219Y0083516D01*
X0205283Y0083439D01*
X0205344Y0083361D01*
X0205401Y0083279D01*
X0205455Y0083196D01*
X0205506Y0083111D01*
X0205554Y0083023D01*
X0205598Y0082934D01*
X0205638Y0082843D01*
X0205675Y0082751D01*
X0205708Y0082657D01*
X0205737Y0082562D01*
X0205762Y0082466D01*
X0205784Y0082369D01*
X0205801Y0082271D01*
X0205815Y0082173D01*
X0205825Y0082074D01*
X0205831Y0081974D01*
X0205833Y0081875D01*
X0205831Y0081776D01*
X0205825Y0081676D01*
X0205815Y0081577D01*
X0205801Y0081479D01*
X0205784Y0081381D01*
X0205762Y0081284D01*
X0205737Y0081188D01*
X0205708Y0081093D01*
X0205675Y0080999D01*
X0205638Y0080907D01*
X0205598Y0080816D01*
X0205554Y0080727D01*
X0205506Y0080639D01*
X0205455Y0080554D01*
X0205401Y0080471D01*
X0205344Y0080389D01*
X0205283Y0080311D01*
X0205219Y0080234D01*
X0205153Y0080161D01*
X0205083Y0080090D01*
X0205011Y0080022D01*
X0204936Y0079956D01*
X0204858Y0079894D01*
X0204778Y0079835D01*
X0204696Y0079779D01*
X0204612Y0079727D01*
X0204525Y0079678D01*
X0204437Y0079632D01*
X0204347Y0079590D01*
X0204255Y0079551D01*
X0204162Y0079516D01*
X0204068Y0079485D01*
X0203972Y0079458D01*
X0203875Y0079435D01*
X0203778Y0079415D01*
X0203680Y0079399D01*
X0203581Y0079387D01*
X0203482Y0079379D01*
X0203383Y0079375D01*
X0203283Y0079375D01*
X0203184Y0079379D01*
X0203085Y0079387D01*
X0202986Y0079399D01*
X0202888Y0079415D01*
X0202791Y0079435D01*
X0202694Y0079458D01*
X0202598Y0079485D01*
X0202504Y0079516D01*
X0202411Y0079551D01*
X0202319Y0079590D01*
X0202229Y0079632D01*
X0202141Y0079678D01*
X0202054Y0079727D01*
X0201970Y0079779D01*
X0201888Y0079835D01*
X0201808Y0079894D01*
X0201730Y0079956D01*
X0201655Y0080022D01*
X0201583Y0080090D01*
X0201513Y0080161D01*
X0201447Y0080234D01*
X0201383Y0080311D01*
X0201322Y0080389D01*
X0201265Y0080471D01*
X0201211Y0080554D01*
X0201160Y0080639D01*
X0201112Y0080727D01*
X0201068Y0080816D01*
X0201028Y0080907D01*
X0200991Y0080999D01*
X0200958Y0081093D01*
X0200929Y0081188D01*
X0200904Y0081284D01*
X0200882Y0081381D01*
X0200865Y0081479D01*
X0200851Y0081577D01*
X0200841Y0081676D01*
X0200835Y0081776D01*
X0200833Y0081875D01*
X0200833Y0138750D02*
X0200835Y0138849D01*
X0200841Y0138949D01*
X0200851Y0139048D01*
X0200865Y0139146D01*
X0200882Y0139244D01*
X0200904Y0139341D01*
X0200929Y0139437D01*
X0200958Y0139532D01*
X0200991Y0139626D01*
X0201028Y0139718D01*
X0201068Y0139809D01*
X0201112Y0139898D01*
X0201160Y0139986D01*
X0201211Y0140071D01*
X0201265Y0140154D01*
X0201322Y0140236D01*
X0201383Y0140314D01*
X0201447Y0140391D01*
X0201513Y0140464D01*
X0201583Y0140535D01*
X0201655Y0140603D01*
X0201730Y0140669D01*
X0201808Y0140731D01*
X0201888Y0140790D01*
X0201970Y0140846D01*
X0202054Y0140898D01*
X0202141Y0140947D01*
X0202229Y0140993D01*
X0202319Y0141035D01*
X0202411Y0141074D01*
X0202504Y0141109D01*
X0202598Y0141140D01*
X0202694Y0141167D01*
X0202791Y0141190D01*
X0202888Y0141210D01*
X0202986Y0141226D01*
X0203085Y0141238D01*
X0203184Y0141246D01*
X0203283Y0141250D01*
X0203383Y0141250D01*
X0203482Y0141246D01*
X0203581Y0141238D01*
X0203680Y0141226D01*
X0203778Y0141210D01*
X0203875Y0141190D01*
X0203972Y0141167D01*
X0204068Y0141140D01*
X0204162Y0141109D01*
X0204255Y0141074D01*
X0204347Y0141035D01*
X0204437Y0140993D01*
X0204525Y0140947D01*
X0204612Y0140898D01*
X0204696Y0140846D01*
X0204778Y0140790D01*
X0204858Y0140731D01*
X0204936Y0140669D01*
X0205011Y0140603D01*
X0205083Y0140535D01*
X0205153Y0140464D01*
X0205219Y0140391D01*
X0205283Y0140314D01*
X0205344Y0140236D01*
X0205401Y0140154D01*
X0205455Y0140071D01*
X0205506Y0139986D01*
X0205554Y0139898D01*
X0205598Y0139809D01*
X0205638Y0139718D01*
X0205675Y0139626D01*
X0205708Y0139532D01*
X0205737Y0139437D01*
X0205762Y0139341D01*
X0205784Y0139244D01*
X0205801Y0139146D01*
X0205815Y0139048D01*
X0205825Y0138949D01*
X0205831Y0138849D01*
X0205833Y0138750D01*
X0205831Y0138651D01*
X0205825Y0138551D01*
X0205815Y0138452D01*
X0205801Y0138354D01*
X0205784Y0138256D01*
X0205762Y0138159D01*
X0205737Y0138063D01*
X0205708Y0137968D01*
X0205675Y0137874D01*
X0205638Y0137782D01*
X0205598Y0137691D01*
X0205554Y0137602D01*
X0205506Y0137514D01*
X0205455Y0137429D01*
X0205401Y0137346D01*
X0205344Y0137264D01*
X0205283Y0137186D01*
X0205219Y0137109D01*
X0205153Y0137036D01*
X0205083Y0136965D01*
X0205011Y0136897D01*
X0204936Y0136831D01*
X0204858Y0136769D01*
X0204778Y0136710D01*
X0204696Y0136654D01*
X0204612Y0136602D01*
X0204525Y0136553D01*
X0204437Y0136507D01*
X0204347Y0136465D01*
X0204255Y0136426D01*
X0204162Y0136391D01*
X0204068Y0136360D01*
X0203972Y0136333D01*
X0203875Y0136310D01*
X0203778Y0136290D01*
X0203680Y0136274D01*
X0203581Y0136262D01*
X0203482Y0136254D01*
X0203383Y0136250D01*
X0203283Y0136250D01*
X0203184Y0136254D01*
X0203085Y0136262D01*
X0202986Y0136274D01*
X0202888Y0136290D01*
X0202791Y0136310D01*
X0202694Y0136333D01*
X0202598Y0136360D01*
X0202504Y0136391D01*
X0202411Y0136426D01*
X0202319Y0136465D01*
X0202229Y0136507D01*
X0202141Y0136553D01*
X0202054Y0136602D01*
X0201970Y0136654D01*
X0201888Y0136710D01*
X0201808Y0136769D01*
X0201730Y0136831D01*
X0201655Y0136897D01*
X0201583Y0136965D01*
X0201513Y0137036D01*
X0201447Y0137109D01*
X0201383Y0137186D01*
X0201322Y0137264D01*
X0201265Y0137346D01*
X0201211Y0137429D01*
X0201160Y0137514D01*
X0201112Y0137602D01*
X0201068Y0137691D01*
X0201028Y0137782D01*
X0200991Y0137874D01*
X0200958Y0137968D01*
X0200929Y0138063D01*
X0200904Y0138159D01*
X0200882Y0138256D01*
X0200865Y0138354D01*
X0200851Y0138452D01*
X0200841Y0138551D01*
X0200835Y0138651D01*
X0200833Y0138750D01*
X0098333Y0183750D02*
X0098335Y0183849D01*
X0098341Y0183949D01*
X0098351Y0184048D01*
X0098365Y0184146D01*
X0098382Y0184244D01*
X0098404Y0184341D01*
X0098429Y0184437D01*
X0098458Y0184532D01*
X0098491Y0184626D01*
X0098528Y0184718D01*
X0098568Y0184809D01*
X0098612Y0184898D01*
X0098660Y0184986D01*
X0098711Y0185071D01*
X0098765Y0185154D01*
X0098822Y0185236D01*
X0098883Y0185314D01*
X0098947Y0185391D01*
X0099013Y0185464D01*
X0099083Y0185535D01*
X0099155Y0185603D01*
X0099230Y0185669D01*
X0099308Y0185731D01*
X0099388Y0185790D01*
X0099470Y0185846D01*
X0099554Y0185898D01*
X0099641Y0185947D01*
X0099729Y0185993D01*
X0099819Y0186035D01*
X0099911Y0186074D01*
X0100004Y0186109D01*
X0100098Y0186140D01*
X0100194Y0186167D01*
X0100291Y0186190D01*
X0100388Y0186210D01*
X0100486Y0186226D01*
X0100585Y0186238D01*
X0100684Y0186246D01*
X0100783Y0186250D01*
X0100883Y0186250D01*
X0100982Y0186246D01*
X0101081Y0186238D01*
X0101180Y0186226D01*
X0101278Y0186210D01*
X0101375Y0186190D01*
X0101472Y0186167D01*
X0101568Y0186140D01*
X0101662Y0186109D01*
X0101755Y0186074D01*
X0101847Y0186035D01*
X0101937Y0185993D01*
X0102025Y0185947D01*
X0102112Y0185898D01*
X0102196Y0185846D01*
X0102278Y0185790D01*
X0102358Y0185731D01*
X0102436Y0185669D01*
X0102511Y0185603D01*
X0102583Y0185535D01*
X0102653Y0185464D01*
X0102719Y0185391D01*
X0102783Y0185314D01*
X0102844Y0185236D01*
X0102901Y0185154D01*
X0102955Y0185071D01*
X0103006Y0184986D01*
X0103054Y0184898D01*
X0103098Y0184809D01*
X0103138Y0184718D01*
X0103175Y0184626D01*
X0103208Y0184532D01*
X0103237Y0184437D01*
X0103262Y0184341D01*
X0103284Y0184244D01*
X0103301Y0184146D01*
X0103315Y0184048D01*
X0103325Y0183949D01*
X0103331Y0183849D01*
X0103333Y0183750D01*
X0103331Y0183651D01*
X0103325Y0183551D01*
X0103315Y0183452D01*
X0103301Y0183354D01*
X0103284Y0183256D01*
X0103262Y0183159D01*
X0103237Y0183063D01*
X0103208Y0182968D01*
X0103175Y0182874D01*
X0103138Y0182782D01*
X0103098Y0182691D01*
X0103054Y0182602D01*
X0103006Y0182514D01*
X0102955Y0182429D01*
X0102901Y0182346D01*
X0102844Y0182264D01*
X0102783Y0182186D01*
X0102719Y0182109D01*
X0102653Y0182036D01*
X0102583Y0181965D01*
X0102511Y0181897D01*
X0102436Y0181831D01*
X0102358Y0181769D01*
X0102278Y0181710D01*
X0102196Y0181654D01*
X0102112Y0181602D01*
X0102025Y0181553D01*
X0101937Y0181507D01*
X0101847Y0181465D01*
X0101755Y0181426D01*
X0101662Y0181391D01*
X0101568Y0181360D01*
X0101472Y0181333D01*
X0101375Y0181310D01*
X0101278Y0181290D01*
X0101180Y0181274D01*
X0101081Y0181262D01*
X0100982Y0181254D01*
X0100883Y0181250D01*
X0100783Y0181250D01*
X0100684Y0181254D01*
X0100585Y0181262D01*
X0100486Y0181274D01*
X0100388Y0181290D01*
X0100291Y0181310D01*
X0100194Y0181333D01*
X0100098Y0181360D01*
X0100004Y0181391D01*
X0099911Y0181426D01*
X0099819Y0181465D01*
X0099729Y0181507D01*
X0099641Y0181553D01*
X0099554Y0181602D01*
X0099470Y0181654D01*
X0099388Y0181710D01*
X0099308Y0181769D01*
X0099230Y0181831D01*
X0099155Y0181897D01*
X0099083Y0181965D01*
X0099013Y0182036D01*
X0098947Y0182109D01*
X0098883Y0182186D01*
X0098822Y0182264D01*
X0098765Y0182346D01*
X0098711Y0182429D01*
X0098660Y0182514D01*
X0098612Y0182602D01*
X0098568Y0182691D01*
X0098528Y0182782D01*
X0098491Y0182874D01*
X0098458Y0182968D01*
X0098429Y0183063D01*
X0098404Y0183159D01*
X0098382Y0183256D01*
X0098365Y0183354D01*
X0098351Y0183452D01*
X0098341Y0183551D01*
X0098335Y0183651D01*
X0098333Y0183750D01*
X0097708Y0240000D02*
X0097710Y0240099D01*
X0097716Y0240199D01*
X0097726Y0240298D01*
X0097740Y0240396D01*
X0097757Y0240494D01*
X0097779Y0240591D01*
X0097804Y0240687D01*
X0097833Y0240782D01*
X0097866Y0240876D01*
X0097903Y0240968D01*
X0097943Y0241059D01*
X0097987Y0241148D01*
X0098035Y0241236D01*
X0098086Y0241321D01*
X0098140Y0241404D01*
X0098197Y0241486D01*
X0098258Y0241564D01*
X0098322Y0241641D01*
X0098388Y0241714D01*
X0098458Y0241785D01*
X0098530Y0241853D01*
X0098605Y0241919D01*
X0098683Y0241981D01*
X0098763Y0242040D01*
X0098845Y0242096D01*
X0098929Y0242148D01*
X0099016Y0242197D01*
X0099104Y0242243D01*
X0099194Y0242285D01*
X0099286Y0242324D01*
X0099379Y0242359D01*
X0099473Y0242390D01*
X0099569Y0242417D01*
X0099666Y0242440D01*
X0099763Y0242460D01*
X0099861Y0242476D01*
X0099960Y0242488D01*
X0100059Y0242496D01*
X0100158Y0242500D01*
X0100258Y0242500D01*
X0100357Y0242496D01*
X0100456Y0242488D01*
X0100555Y0242476D01*
X0100653Y0242460D01*
X0100750Y0242440D01*
X0100847Y0242417D01*
X0100943Y0242390D01*
X0101037Y0242359D01*
X0101130Y0242324D01*
X0101222Y0242285D01*
X0101312Y0242243D01*
X0101400Y0242197D01*
X0101487Y0242148D01*
X0101571Y0242096D01*
X0101653Y0242040D01*
X0101733Y0241981D01*
X0101811Y0241919D01*
X0101886Y0241853D01*
X0101958Y0241785D01*
X0102028Y0241714D01*
X0102094Y0241641D01*
X0102158Y0241564D01*
X0102219Y0241486D01*
X0102276Y0241404D01*
X0102330Y0241321D01*
X0102381Y0241236D01*
X0102429Y0241148D01*
X0102473Y0241059D01*
X0102513Y0240968D01*
X0102550Y0240876D01*
X0102583Y0240782D01*
X0102612Y0240687D01*
X0102637Y0240591D01*
X0102659Y0240494D01*
X0102676Y0240396D01*
X0102690Y0240298D01*
X0102700Y0240199D01*
X0102706Y0240099D01*
X0102708Y0240000D01*
X0102706Y0239901D01*
X0102700Y0239801D01*
X0102690Y0239702D01*
X0102676Y0239604D01*
X0102659Y0239506D01*
X0102637Y0239409D01*
X0102612Y0239313D01*
X0102583Y0239218D01*
X0102550Y0239124D01*
X0102513Y0239032D01*
X0102473Y0238941D01*
X0102429Y0238852D01*
X0102381Y0238764D01*
X0102330Y0238679D01*
X0102276Y0238596D01*
X0102219Y0238514D01*
X0102158Y0238436D01*
X0102094Y0238359D01*
X0102028Y0238286D01*
X0101958Y0238215D01*
X0101886Y0238147D01*
X0101811Y0238081D01*
X0101733Y0238019D01*
X0101653Y0237960D01*
X0101571Y0237904D01*
X0101487Y0237852D01*
X0101400Y0237803D01*
X0101312Y0237757D01*
X0101222Y0237715D01*
X0101130Y0237676D01*
X0101037Y0237641D01*
X0100943Y0237610D01*
X0100847Y0237583D01*
X0100750Y0237560D01*
X0100653Y0237540D01*
X0100555Y0237524D01*
X0100456Y0237512D01*
X0100357Y0237504D01*
X0100258Y0237500D01*
X0100158Y0237500D01*
X0100059Y0237504D01*
X0099960Y0237512D01*
X0099861Y0237524D01*
X0099763Y0237540D01*
X0099666Y0237560D01*
X0099569Y0237583D01*
X0099473Y0237610D01*
X0099379Y0237641D01*
X0099286Y0237676D01*
X0099194Y0237715D01*
X0099104Y0237757D01*
X0099016Y0237803D01*
X0098929Y0237852D01*
X0098845Y0237904D01*
X0098763Y0237960D01*
X0098683Y0238019D01*
X0098605Y0238081D01*
X0098530Y0238147D01*
X0098458Y0238215D01*
X0098388Y0238286D01*
X0098322Y0238359D01*
X0098258Y0238436D01*
X0098197Y0238514D01*
X0098140Y0238596D01*
X0098086Y0238679D01*
X0098035Y0238764D01*
X0097987Y0238852D01*
X0097943Y0238941D01*
X0097903Y0239032D01*
X0097866Y0239124D01*
X0097833Y0239218D01*
X0097804Y0239313D01*
X0097779Y0239409D01*
X0097757Y0239506D01*
X0097740Y0239604D01*
X0097726Y0239702D01*
X0097716Y0239801D01*
X0097710Y0239901D01*
X0097708Y0240000D01*
X0303333Y0240000D02*
X0303335Y0240099D01*
X0303341Y0240199D01*
X0303351Y0240298D01*
X0303365Y0240396D01*
X0303382Y0240494D01*
X0303404Y0240591D01*
X0303429Y0240687D01*
X0303458Y0240782D01*
X0303491Y0240876D01*
X0303528Y0240968D01*
X0303568Y0241059D01*
X0303612Y0241148D01*
X0303660Y0241236D01*
X0303711Y0241321D01*
X0303765Y0241404D01*
X0303822Y0241486D01*
X0303883Y0241564D01*
X0303947Y0241641D01*
X0304013Y0241714D01*
X0304083Y0241785D01*
X0304155Y0241853D01*
X0304230Y0241919D01*
X0304308Y0241981D01*
X0304388Y0242040D01*
X0304470Y0242096D01*
X0304554Y0242148D01*
X0304641Y0242197D01*
X0304729Y0242243D01*
X0304819Y0242285D01*
X0304911Y0242324D01*
X0305004Y0242359D01*
X0305098Y0242390D01*
X0305194Y0242417D01*
X0305291Y0242440D01*
X0305388Y0242460D01*
X0305486Y0242476D01*
X0305585Y0242488D01*
X0305684Y0242496D01*
X0305783Y0242500D01*
X0305883Y0242500D01*
X0305982Y0242496D01*
X0306081Y0242488D01*
X0306180Y0242476D01*
X0306278Y0242460D01*
X0306375Y0242440D01*
X0306472Y0242417D01*
X0306568Y0242390D01*
X0306662Y0242359D01*
X0306755Y0242324D01*
X0306847Y0242285D01*
X0306937Y0242243D01*
X0307025Y0242197D01*
X0307112Y0242148D01*
X0307196Y0242096D01*
X0307278Y0242040D01*
X0307358Y0241981D01*
X0307436Y0241919D01*
X0307511Y0241853D01*
X0307583Y0241785D01*
X0307653Y0241714D01*
X0307719Y0241641D01*
X0307783Y0241564D01*
X0307844Y0241486D01*
X0307901Y0241404D01*
X0307955Y0241321D01*
X0308006Y0241236D01*
X0308054Y0241148D01*
X0308098Y0241059D01*
X0308138Y0240968D01*
X0308175Y0240876D01*
X0308208Y0240782D01*
X0308237Y0240687D01*
X0308262Y0240591D01*
X0308284Y0240494D01*
X0308301Y0240396D01*
X0308315Y0240298D01*
X0308325Y0240199D01*
X0308331Y0240099D01*
X0308333Y0240000D01*
X0308331Y0239901D01*
X0308325Y0239801D01*
X0308315Y0239702D01*
X0308301Y0239604D01*
X0308284Y0239506D01*
X0308262Y0239409D01*
X0308237Y0239313D01*
X0308208Y0239218D01*
X0308175Y0239124D01*
X0308138Y0239032D01*
X0308098Y0238941D01*
X0308054Y0238852D01*
X0308006Y0238764D01*
X0307955Y0238679D01*
X0307901Y0238596D01*
X0307844Y0238514D01*
X0307783Y0238436D01*
X0307719Y0238359D01*
X0307653Y0238286D01*
X0307583Y0238215D01*
X0307511Y0238147D01*
X0307436Y0238081D01*
X0307358Y0238019D01*
X0307278Y0237960D01*
X0307196Y0237904D01*
X0307112Y0237852D01*
X0307025Y0237803D01*
X0306937Y0237757D01*
X0306847Y0237715D01*
X0306755Y0237676D01*
X0306662Y0237641D01*
X0306568Y0237610D01*
X0306472Y0237583D01*
X0306375Y0237560D01*
X0306278Y0237540D01*
X0306180Y0237524D01*
X0306081Y0237512D01*
X0305982Y0237504D01*
X0305883Y0237500D01*
X0305783Y0237500D01*
X0305684Y0237504D01*
X0305585Y0237512D01*
X0305486Y0237524D01*
X0305388Y0237540D01*
X0305291Y0237560D01*
X0305194Y0237583D01*
X0305098Y0237610D01*
X0305004Y0237641D01*
X0304911Y0237676D01*
X0304819Y0237715D01*
X0304729Y0237757D01*
X0304641Y0237803D01*
X0304554Y0237852D01*
X0304470Y0237904D01*
X0304388Y0237960D01*
X0304308Y0238019D01*
X0304230Y0238081D01*
X0304155Y0238147D01*
X0304083Y0238215D01*
X0304013Y0238286D01*
X0303947Y0238359D01*
X0303883Y0238436D01*
X0303822Y0238514D01*
X0303765Y0238596D01*
X0303711Y0238679D01*
X0303660Y0238764D01*
X0303612Y0238852D01*
X0303568Y0238941D01*
X0303528Y0239032D01*
X0303491Y0239124D01*
X0303458Y0239218D01*
X0303429Y0239313D01*
X0303404Y0239409D01*
X0303382Y0239506D01*
X0303365Y0239604D01*
X0303351Y0239702D01*
X0303341Y0239801D01*
X0303335Y0239901D01*
X0303333Y0240000D01*
X0303333Y0183750D02*
X0303335Y0183849D01*
X0303341Y0183949D01*
X0303351Y0184048D01*
X0303365Y0184146D01*
X0303382Y0184244D01*
X0303404Y0184341D01*
X0303429Y0184437D01*
X0303458Y0184532D01*
X0303491Y0184626D01*
X0303528Y0184718D01*
X0303568Y0184809D01*
X0303612Y0184898D01*
X0303660Y0184986D01*
X0303711Y0185071D01*
X0303765Y0185154D01*
X0303822Y0185236D01*
X0303883Y0185314D01*
X0303947Y0185391D01*
X0304013Y0185464D01*
X0304083Y0185535D01*
X0304155Y0185603D01*
X0304230Y0185669D01*
X0304308Y0185731D01*
X0304388Y0185790D01*
X0304470Y0185846D01*
X0304554Y0185898D01*
X0304641Y0185947D01*
X0304729Y0185993D01*
X0304819Y0186035D01*
X0304911Y0186074D01*
X0305004Y0186109D01*
X0305098Y0186140D01*
X0305194Y0186167D01*
X0305291Y0186190D01*
X0305388Y0186210D01*
X0305486Y0186226D01*
X0305585Y0186238D01*
X0305684Y0186246D01*
X0305783Y0186250D01*
X0305883Y0186250D01*
X0305982Y0186246D01*
X0306081Y0186238D01*
X0306180Y0186226D01*
X0306278Y0186210D01*
X0306375Y0186190D01*
X0306472Y0186167D01*
X0306568Y0186140D01*
X0306662Y0186109D01*
X0306755Y0186074D01*
X0306847Y0186035D01*
X0306937Y0185993D01*
X0307025Y0185947D01*
X0307112Y0185898D01*
X0307196Y0185846D01*
X0307278Y0185790D01*
X0307358Y0185731D01*
X0307436Y0185669D01*
X0307511Y0185603D01*
X0307583Y0185535D01*
X0307653Y0185464D01*
X0307719Y0185391D01*
X0307783Y0185314D01*
X0307844Y0185236D01*
X0307901Y0185154D01*
X0307955Y0185071D01*
X0308006Y0184986D01*
X0308054Y0184898D01*
X0308098Y0184809D01*
X0308138Y0184718D01*
X0308175Y0184626D01*
X0308208Y0184532D01*
X0308237Y0184437D01*
X0308262Y0184341D01*
X0308284Y0184244D01*
X0308301Y0184146D01*
X0308315Y0184048D01*
X0308325Y0183949D01*
X0308331Y0183849D01*
X0308333Y0183750D01*
X0308331Y0183651D01*
X0308325Y0183551D01*
X0308315Y0183452D01*
X0308301Y0183354D01*
X0308284Y0183256D01*
X0308262Y0183159D01*
X0308237Y0183063D01*
X0308208Y0182968D01*
X0308175Y0182874D01*
X0308138Y0182782D01*
X0308098Y0182691D01*
X0308054Y0182602D01*
X0308006Y0182514D01*
X0307955Y0182429D01*
X0307901Y0182346D01*
X0307844Y0182264D01*
X0307783Y0182186D01*
X0307719Y0182109D01*
X0307653Y0182036D01*
X0307583Y0181965D01*
X0307511Y0181897D01*
X0307436Y0181831D01*
X0307358Y0181769D01*
X0307278Y0181710D01*
X0307196Y0181654D01*
X0307112Y0181602D01*
X0307025Y0181553D01*
X0306937Y0181507D01*
X0306847Y0181465D01*
X0306755Y0181426D01*
X0306662Y0181391D01*
X0306568Y0181360D01*
X0306472Y0181333D01*
X0306375Y0181310D01*
X0306278Y0181290D01*
X0306180Y0181274D01*
X0306081Y0181262D01*
X0305982Y0181254D01*
X0305883Y0181250D01*
X0305783Y0181250D01*
X0305684Y0181254D01*
X0305585Y0181262D01*
X0305486Y0181274D01*
X0305388Y0181290D01*
X0305291Y0181310D01*
X0305194Y0181333D01*
X0305098Y0181360D01*
X0305004Y0181391D01*
X0304911Y0181426D01*
X0304819Y0181465D01*
X0304729Y0181507D01*
X0304641Y0181553D01*
X0304554Y0181602D01*
X0304470Y0181654D01*
X0304388Y0181710D01*
X0304308Y0181769D01*
X0304230Y0181831D01*
X0304155Y0181897D01*
X0304083Y0181965D01*
X0304013Y0182036D01*
X0303947Y0182109D01*
X0303883Y0182186D01*
X0303822Y0182264D01*
X0303765Y0182346D01*
X0303711Y0182429D01*
X0303660Y0182514D01*
X0303612Y0182602D01*
X0303568Y0182691D01*
X0303528Y0182782D01*
X0303491Y0182874D01*
X0303458Y0182968D01*
X0303429Y0183063D01*
X0303404Y0183159D01*
X0303382Y0183256D01*
X0303365Y0183354D01*
X0303351Y0183452D01*
X0303341Y0183551D01*
X0303335Y0183651D01*
X0303333Y0183750D01*
D11*
X0203333Y0073750D02*
X0095833Y0181250D01*
X0095833Y0251250D01*
X0203333Y0143750D01*
X0310833Y0251250D01*
X0310833Y0181250D01*
X0203333Y0073750D01*
M02*
