G75*
%MOIN*%
%OFA0B0*%
%FSLAX25Y25*%
%IPPOS*%
%LPD*%
%AMOC8*
5,1,8,0,0,1.08239X$1,22.5*
%
%ADD10R,0.10000X0.05000*%
%ADD11C,0.01000*%
%ADD12C,0.04000*%
D10*
G36*
X0229066Y0116553D02*
X0236136Y0109483D01*
X0232600Y0105947D01*
X0225530Y0113017D01*
X0229066Y0116553D01*
G37*
G36*
X0236566Y0124053D02*
X0243636Y0116983D01*
X0240100Y0113447D01*
X0233030Y0120517D01*
X0236566Y0124053D01*
G37*
G36*
X0244066Y0131553D02*
X0251136Y0124483D01*
X0247600Y0120947D01*
X0240530Y0128017D01*
X0244066Y0131553D01*
G37*
G36*
X0251566Y0139053D02*
X0258636Y0131983D01*
X0255100Y0128447D01*
X0248030Y0135517D01*
X0251566Y0139053D01*
G37*
G36*
X0160530Y0169483D02*
X0167600Y0176553D01*
X0171136Y0173017D01*
X0164066Y0165947D01*
X0160530Y0169483D01*
G37*
G36*
X0153030Y0176983D02*
X0160100Y0184053D01*
X0163636Y0180517D01*
X0156566Y0173447D01*
X0153030Y0176983D01*
G37*
G36*
X0145530Y0184483D02*
X0152600Y0191553D01*
X0156136Y0188017D01*
X0149066Y0180947D01*
X0145530Y0184483D01*
G37*
G36*
X0138030Y0191983D02*
X0145100Y0199053D01*
X0148636Y0195517D01*
X0141566Y0188447D01*
X0138030Y0191983D01*
G37*
X0103333Y0193750D03*
X0103333Y0203750D03*
X0103333Y0213750D03*
X0103333Y0223750D03*
X0303333Y0223750D03*
X0303333Y0213750D03*
X0303333Y0203750D03*
X0303333Y0193750D03*
D11*
X0222472Y0105717D02*
X0174336Y0105717D01*
X0175334Y0104719D02*
X0205062Y0104719D01*
X0205137Y0104750D02*
X0203851Y0104217D01*
X0202866Y0103233D01*
X0202333Y0101946D01*
X0202333Y0100554D01*
X0202866Y0099267D01*
X0203851Y0098283D01*
X0205137Y0097750D01*
X0206530Y0097750D01*
X0207816Y0098283D01*
X0208783Y0099250D01*
X0221662Y0099250D01*
X0229561Y0107149D01*
X0231661Y0105048D01*
X0206710Y0080096D01*
X0207133Y0081119D01*
X0207133Y0082631D01*
X0206555Y0084028D01*
X0205486Y0085096D01*
X0204089Y0085675D01*
X0202577Y0085675D01*
X0201181Y0085096D01*
X0200112Y0084028D01*
X0199533Y0082631D01*
X0199533Y0081119D01*
X0199957Y0080096D01*
X0100103Y0179950D01*
X0101589Y0179950D01*
X0102986Y0180529D01*
X0104055Y0181597D01*
X0104633Y0182994D01*
X0104633Y0184506D01*
X0104055Y0185903D01*
X0102986Y0186971D01*
X0101589Y0187550D01*
X0100077Y0187550D01*
X0098681Y0186971D01*
X0097933Y0186224D01*
X0097933Y0189950D01*
X0108872Y0189950D01*
X0109633Y0190712D01*
X0109633Y0191750D01*
X0110005Y0191750D01*
X0113833Y0187922D01*
X0115005Y0186750D01*
X0120005Y0186750D01*
X0125083Y0181672D01*
X0125083Y0176672D01*
X0126255Y0175500D01*
X0138833Y0162922D01*
X0140005Y0161750D01*
X0159162Y0161750D01*
X0160333Y0162922D01*
X0162793Y0165381D01*
X0163527Y0164647D01*
X0164604Y0164647D01*
X0164606Y0164649D01*
X0198833Y0130422D01*
X0200005Y0129250D01*
X0234162Y0129250D01*
X0241662Y0136750D01*
X0247424Y0136750D01*
X0246730Y0136056D01*
X0246730Y0134979D01*
X0254161Y0127548D01*
X0252035Y0125422D01*
X0244604Y0132853D01*
X0243527Y0132853D01*
X0243418Y0132744D01*
X0242912Y0133250D01*
X0238755Y0133250D01*
X0232505Y0127000D01*
X0230033Y0127000D01*
X0229066Y0127967D01*
X0227780Y0128500D01*
X0226387Y0128500D01*
X0225101Y0127967D01*
X0224134Y0127000D01*
X0195033Y0127000D01*
X0194066Y0127967D01*
X0192780Y0128500D01*
X0191387Y0128500D01*
X0190101Y0127967D01*
X0189116Y0126983D01*
X0188583Y0125696D01*
X0188583Y0124304D01*
X0189116Y0123017D01*
X0190101Y0122033D01*
X0191387Y0121500D01*
X0192780Y0121500D01*
X0194066Y0122033D01*
X0195033Y0123000D01*
X0224134Y0123000D01*
X0225101Y0122033D01*
X0226387Y0121500D01*
X0227780Y0121500D01*
X0229066Y0122033D01*
X0230033Y0123000D01*
X0234162Y0123000D01*
X0234476Y0123314D01*
X0238333Y0119457D01*
X0237626Y0118750D01*
X0233384Y0122993D01*
X0231830Y0121439D01*
X0231632Y0121097D01*
X0231530Y0120715D01*
X0231530Y0120320D01*
X0231632Y0119939D01*
X0231830Y0119597D01*
X0235151Y0116275D01*
X0237626Y0118750D01*
X0238333Y0118043D01*
X0235858Y0115568D01*
X0239020Y0112406D01*
X0237035Y0110422D01*
X0229604Y0117853D01*
X0228527Y0117853D01*
X0224230Y0113556D01*
X0224230Y0112479D01*
X0226732Y0109977D01*
X0220005Y0103250D01*
X0208783Y0103250D01*
X0207816Y0104217D01*
X0206530Y0104750D01*
X0205137Y0104750D01*
X0206605Y0104719D02*
X0221474Y0104719D01*
X0220475Y0103720D02*
X0208313Y0103720D01*
X0205833Y0101250D02*
X0220833Y0101250D01*
X0230833Y0111250D01*
X0233752Y0113705D02*
X0237721Y0113705D01*
X0238720Y0112707D02*
X0234750Y0112707D01*
X0235749Y0111708D02*
X0238322Y0111708D01*
X0237323Y0110710D02*
X0236748Y0110710D01*
X0236723Y0114704D02*
X0232753Y0114704D01*
X0231755Y0115702D02*
X0235993Y0115702D01*
X0235577Y0116701D02*
X0236991Y0116701D01*
X0236576Y0117699D02*
X0237990Y0117699D01*
X0237678Y0118698D02*
X0237574Y0118698D01*
X0238333Y0119457D02*
X0239040Y0118750D01*
X0241515Y0121225D01*
X0244677Y0118063D01*
X0246661Y0120048D01*
X0239230Y0127479D01*
X0239230Y0128068D01*
X0236715Y0125553D01*
X0236763Y0125553D01*
X0237145Y0125451D01*
X0237487Y0125254D01*
X0240808Y0121932D01*
X0238333Y0119457D01*
X0238094Y0119696D02*
X0236680Y0119696D01*
X0237095Y0120695D02*
X0235681Y0120695D01*
X0236097Y0121693D02*
X0234683Y0121693D01*
X0235098Y0122692D02*
X0233684Y0122692D01*
X0233083Y0122692D02*
X0229725Y0122692D01*
X0228246Y0121693D02*
X0232084Y0121693D01*
X0231530Y0120695D02*
X0159358Y0120695D01*
X0158360Y0121693D02*
X0190920Y0121693D01*
X0189442Y0122692D02*
X0157361Y0122692D01*
X0156363Y0123690D02*
X0188837Y0123690D01*
X0188583Y0124689D02*
X0155364Y0124689D01*
X0154366Y0125687D02*
X0188583Y0125687D01*
X0188993Y0126686D02*
X0153367Y0126686D01*
X0152369Y0127684D02*
X0189818Y0127684D01*
X0192083Y0125000D02*
X0227083Y0125000D01*
X0233333Y0125000D01*
X0239583Y0131250D01*
X0242083Y0131250D01*
X0245833Y0127500D01*
X0245833Y0126250D01*
X0243019Y0123690D02*
X0239050Y0123690D01*
X0240048Y0122692D02*
X0244017Y0122692D01*
X0245016Y0121693D02*
X0240570Y0121693D01*
X0240985Y0120695D02*
X0239571Y0120695D01*
X0239987Y0119696D02*
X0238573Y0119696D01*
X0242045Y0120695D02*
X0246014Y0120695D01*
X0246310Y0119696D02*
X0243044Y0119696D01*
X0244042Y0118698D02*
X0245311Y0118698D01*
X0242020Y0124689D02*
X0238051Y0124689D01*
X0236849Y0125687D02*
X0241022Y0125687D01*
X0240023Y0126686D02*
X0237848Y0126686D01*
X0238846Y0127684D02*
X0239230Y0127684D01*
X0236185Y0130680D02*
X0235592Y0130680D01*
X0235186Y0129682D02*
X0234593Y0129682D01*
X0234188Y0128683D02*
X0151370Y0128683D01*
X0150372Y0129682D02*
X0199573Y0129682D01*
X0198575Y0130680D02*
X0149373Y0130680D01*
X0148375Y0131679D02*
X0197576Y0131679D01*
X0196578Y0132677D02*
X0147376Y0132677D01*
X0146378Y0133676D02*
X0195579Y0133676D01*
X0194581Y0134674D02*
X0145379Y0134674D01*
X0144381Y0135673D02*
X0193582Y0135673D01*
X0192584Y0136671D02*
X0143382Y0136671D01*
X0142384Y0137670D02*
X0191585Y0137670D01*
X0190587Y0138668D02*
X0141385Y0138668D01*
X0140387Y0139667D02*
X0189588Y0139667D01*
X0188590Y0140665D02*
X0139388Y0140665D01*
X0138389Y0141664D02*
X0187591Y0141664D01*
X0186593Y0142662D02*
X0137391Y0142662D01*
X0136392Y0143661D02*
X0185594Y0143661D01*
X0184596Y0144659D02*
X0135394Y0144659D01*
X0134395Y0145658D02*
X0183597Y0145658D01*
X0182599Y0146656D02*
X0133397Y0146656D01*
X0132398Y0147655D02*
X0181600Y0147655D01*
X0180602Y0148653D02*
X0131400Y0148653D01*
X0130401Y0149652D02*
X0179603Y0149652D01*
X0178605Y0150650D02*
X0129403Y0150650D01*
X0128404Y0151649D02*
X0177606Y0151649D01*
X0176608Y0152647D02*
X0127406Y0152647D01*
X0126407Y0153646D02*
X0175609Y0153646D01*
X0174611Y0154644D02*
X0125409Y0154644D01*
X0124410Y0155643D02*
X0173612Y0155643D01*
X0172614Y0156641D02*
X0123412Y0156641D01*
X0122413Y0157640D02*
X0171615Y0157640D01*
X0170617Y0158638D02*
X0121415Y0158638D01*
X0120416Y0159637D02*
X0169618Y0159637D01*
X0168620Y0160635D02*
X0119418Y0160635D01*
X0118419Y0161634D02*
X0167621Y0161634D01*
X0166623Y0162632D02*
X0160044Y0162632D01*
X0161043Y0163631D02*
X0165624Y0163631D01*
X0164625Y0164629D02*
X0162041Y0164629D01*
X0158333Y0163750D02*
X0140833Y0163750D01*
X0127083Y0177500D01*
X0127083Y0182500D01*
X0120833Y0188750D01*
X0115833Y0188750D01*
X0110833Y0193750D01*
X0103333Y0193750D01*
X0109633Y0191589D02*
X0110166Y0191589D01*
X0109513Y0190591D02*
X0111164Y0190591D01*
X0112163Y0189592D02*
X0097933Y0189592D01*
X0097933Y0188594D02*
X0113161Y0188594D01*
X0114160Y0187595D02*
X0097933Y0187595D01*
X0097933Y0186597D02*
X0098306Y0186597D01*
X0103361Y0186597D02*
X0120158Y0186597D01*
X0121157Y0185598D02*
X0104181Y0185598D01*
X0104594Y0184600D02*
X0122155Y0184600D01*
X0123154Y0183601D02*
X0104633Y0183601D01*
X0104471Y0182603D02*
X0124152Y0182603D01*
X0125083Y0181604D02*
X0104058Y0181604D01*
X0103063Y0180606D02*
X0125083Y0180606D01*
X0125083Y0179607D02*
X0100446Y0179607D01*
X0101445Y0178609D02*
X0125083Y0178609D01*
X0125083Y0177610D02*
X0102443Y0177610D01*
X0103442Y0176612D02*
X0125143Y0176612D01*
X0126142Y0175613D02*
X0104440Y0175613D01*
X0105439Y0174615D02*
X0127140Y0174615D01*
X0128139Y0173616D02*
X0106437Y0173616D01*
X0107436Y0172618D02*
X0129137Y0172618D01*
X0130136Y0171619D02*
X0108434Y0171619D01*
X0109433Y0170620D02*
X0131134Y0170620D01*
X0132133Y0169622D02*
X0110431Y0169622D01*
X0111430Y0168623D02*
X0133131Y0168623D01*
X0134130Y0167625D02*
X0112428Y0167625D01*
X0113427Y0166626D02*
X0135128Y0166626D01*
X0136127Y0165628D02*
X0114425Y0165628D01*
X0115424Y0164629D02*
X0137125Y0164629D01*
X0138124Y0163631D02*
X0116422Y0163631D01*
X0117421Y0162632D02*
X0139123Y0162632D01*
X0141662Y0165750D02*
X0129083Y0178328D01*
X0129083Y0183328D01*
X0122833Y0189578D01*
X0121662Y0190750D01*
X0121397Y0190750D01*
X0121833Y0191804D01*
X0121833Y0192422D01*
X0142505Y0171750D01*
X0145384Y0171750D01*
X0146351Y0170783D01*
X0147637Y0170250D01*
X0149030Y0170250D01*
X0150316Y0170783D01*
X0151283Y0171750D01*
X0154162Y0171750D01*
X0155293Y0172881D01*
X0156027Y0172147D01*
X0157104Y0172147D01*
X0164535Y0179578D01*
X0166661Y0177452D01*
X0159230Y0170021D01*
X0159230Y0168944D01*
X0159964Y0168209D01*
X0157505Y0165750D01*
X0141662Y0165750D01*
X0140785Y0166626D02*
X0158381Y0166626D01*
X0159380Y0167625D02*
X0139787Y0167625D01*
X0138788Y0168623D02*
X0159550Y0168623D01*
X0159230Y0169622D02*
X0137790Y0169622D01*
X0136791Y0170620D02*
X0146743Y0170620D01*
X0145515Y0171619D02*
X0135793Y0171619D01*
X0134794Y0172618D02*
X0141637Y0172618D01*
X0140639Y0173616D02*
X0133796Y0173616D01*
X0132797Y0174615D02*
X0139640Y0174615D01*
X0138642Y0175613D02*
X0131799Y0175613D01*
X0130800Y0176612D02*
X0137643Y0176612D01*
X0136645Y0177610D02*
X0129802Y0177610D01*
X0129083Y0178609D02*
X0135646Y0178609D01*
X0134648Y0179607D02*
X0129083Y0179607D01*
X0129083Y0180606D02*
X0133649Y0180606D01*
X0132651Y0181604D02*
X0129083Y0181604D01*
X0129083Y0182603D02*
X0131652Y0182603D01*
X0130654Y0183601D02*
X0128811Y0183601D01*
X0129655Y0184600D02*
X0127812Y0184600D01*
X0128657Y0185598D02*
X0126814Y0185598D01*
X0127658Y0186597D02*
X0125815Y0186597D01*
X0126660Y0187595D02*
X0124817Y0187595D01*
X0125661Y0188594D02*
X0123818Y0188594D01*
X0124663Y0189592D02*
X0122820Y0189592D01*
X0123664Y0190591D02*
X0121821Y0190591D01*
X0121744Y0191589D02*
X0122666Y0191589D01*
X0125327Y0194585D02*
X0134670Y0194585D01*
X0133672Y0195583D02*
X0124328Y0195583D01*
X0123330Y0196582D02*
X0132673Y0196582D01*
X0131675Y0197580D02*
X0122331Y0197580D01*
X0121333Y0198579D02*
X0130676Y0198579D01*
X0129678Y0199577D02*
X0120334Y0199577D01*
X0119787Y0200125D02*
X0114162Y0205750D01*
X0109633Y0205750D01*
X0109633Y0206788D01*
X0108872Y0207550D01*
X0097933Y0207550D01*
X0097933Y0209804D01*
X0098136Y0209750D01*
X0102833Y0209750D01*
X0102833Y0213250D01*
X0103833Y0213250D01*
X0103833Y0209750D01*
X0108531Y0209750D01*
X0108912Y0209852D01*
X0109254Y0210050D01*
X0109534Y0210329D01*
X0109731Y0210671D01*
X0109833Y0211053D01*
X0109833Y0213250D01*
X0103833Y0213250D01*
X0103833Y0214250D01*
X0102833Y0214250D01*
X0102833Y0217750D01*
X0098136Y0217750D01*
X0097933Y0217696D01*
X0097933Y0219950D01*
X0108872Y0219950D01*
X0109633Y0220712D01*
X0109633Y0221750D01*
X0110005Y0221750D01*
X0117333Y0214422D01*
X0117333Y0213054D01*
X0117866Y0211767D01*
X0118851Y0210783D01*
X0120137Y0210250D01*
X0121333Y0210250D01*
X0121333Y0209578D01*
X0121333Y0207922D01*
X0136333Y0192922D01*
X0136333Y0192922D01*
X0136732Y0192523D01*
X0136730Y0192521D01*
X0136730Y0191444D01*
X0141027Y0187147D01*
X0142104Y0187147D01*
X0149535Y0194578D01*
X0151520Y0192593D01*
X0148358Y0189432D01*
X0150833Y0186957D01*
X0150126Y0186250D01*
X0150833Y0185543D01*
X0146591Y0181300D01*
X0148145Y0179746D01*
X0148487Y0179549D01*
X0148868Y0179447D01*
X0149263Y0179447D01*
X0149645Y0179549D01*
X0149987Y0179746D01*
X0153308Y0183068D01*
X0150833Y0185543D01*
X0151540Y0186250D01*
X0154015Y0183775D01*
X0157177Y0186937D01*
X0159161Y0184952D01*
X0151730Y0177521D01*
X0151730Y0176444D01*
X0152424Y0175750D01*
X0151283Y0175750D01*
X0150316Y0176717D01*
X0149030Y0177250D01*
X0147637Y0177250D01*
X0146351Y0176717D01*
X0145384Y0175750D01*
X0144162Y0175750D01*
X0120958Y0198953D01*
X0119787Y0200125D01*
X0119336Y0200576D02*
X0128679Y0200576D01*
X0127681Y0201574D02*
X0118337Y0201574D01*
X0117339Y0202573D02*
X0126682Y0202573D01*
X0125684Y0203571D02*
X0116340Y0203571D01*
X0115342Y0204570D02*
X0124685Y0204570D01*
X0123687Y0205568D02*
X0114343Y0205568D01*
X0113333Y0203750D02*
X0118958Y0198125D01*
X0117083Y0196250D01*
X0117083Y0193750D01*
X0118333Y0192500D01*
X0118958Y0198125D02*
X0143333Y0173750D01*
X0148333Y0173750D01*
X0153333Y0173750D01*
X0158333Y0178750D01*
X0155813Y0181604D02*
X0151844Y0181604D01*
X0150846Y0180606D02*
X0154815Y0180606D01*
X0153816Y0179607D02*
X0149745Y0179607D01*
X0148386Y0179607D02*
X0140305Y0179607D01*
X0141303Y0178609D02*
X0152818Y0178609D01*
X0151819Y0177610D02*
X0142302Y0177610D01*
X0143300Y0176612D02*
X0146245Y0176612D01*
X0150422Y0176612D02*
X0151730Y0176612D01*
X0155029Y0172618D02*
X0155556Y0172618D01*
X0157575Y0172618D02*
X0161827Y0172618D01*
X0162825Y0173616D02*
X0158573Y0173616D01*
X0159572Y0174615D02*
X0163824Y0174615D01*
X0164822Y0175613D02*
X0160570Y0175613D01*
X0161569Y0176612D02*
X0165821Y0176612D01*
X0166503Y0177610D02*
X0162567Y0177610D01*
X0163566Y0178609D02*
X0165505Y0178609D01*
X0158809Y0184600D02*
X0154840Y0184600D01*
X0155838Y0185598D02*
X0158515Y0185598D01*
X0157517Y0186597D02*
X0156837Y0186597D01*
X0157810Y0183601D02*
X0152775Y0183601D01*
X0152843Y0182603D02*
X0156812Y0182603D01*
X0153191Y0184600D02*
X0151777Y0184600D01*
X0152192Y0185598D02*
X0150889Y0185598D01*
X0150778Y0185598D02*
X0149474Y0185598D01*
X0150126Y0186250D02*
X0145884Y0182007D01*
X0144330Y0183561D01*
X0144132Y0183903D01*
X0144030Y0184285D01*
X0144030Y0184680D01*
X0144132Y0185061D01*
X0144330Y0185403D01*
X0147651Y0188725D01*
X0150126Y0186250D01*
X0149780Y0186597D02*
X0150473Y0186597D01*
X0150833Y0186250D02*
X0145833Y0181250D01*
X0142083Y0181250D01*
X0139306Y0180606D02*
X0147285Y0180606D01*
X0146895Y0181604D02*
X0138308Y0181604D01*
X0137309Y0182603D02*
X0145288Y0182603D01*
X0146479Y0182603D02*
X0147893Y0182603D01*
X0147477Y0183601D02*
X0148892Y0183601D01*
X0148476Y0184600D02*
X0149890Y0184600D01*
X0145523Y0186597D02*
X0133315Y0186597D01*
X0132317Y0187595D02*
X0140579Y0187595D01*
X0139580Y0188594D02*
X0131318Y0188594D01*
X0130320Y0189592D02*
X0138582Y0189592D01*
X0137583Y0190591D02*
X0129321Y0190591D01*
X0128323Y0191589D02*
X0136730Y0191589D01*
X0136667Y0192588D02*
X0127324Y0192588D01*
X0126325Y0193586D02*
X0135669Y0193586D01*
X0138333Y0193750D02*
X0123333Y0208750D01*
X0123333Y0211250D01*
X0120833Y0213750D01*
X0110833Y0223750D01*
X0103333Y0223750D01*
X0108333Y0223750D01*
X0109633Y0225750D02*
X0109633Y0226788D01*
X0108872Y0227550D01*
X0097933Y0227550D01*
X0097933Y0236901D01*
X0098056Y0236779D01*
X0099452Y0236200D01*
X0100964Y0236200D01*
X0102361Y0236779D01*
X0103430Y0237847D01*
X0104008Y0239244D01*
X0104008Y0240105D01*
X0144161Y0199952D01*
X0139959Y0195750D01*
X0139162Y0195750D01*
X0125333Y0209578D01*
X0125333Y0212078D01*
X0124333Y0213078D01*
X0124333Y0214446D01*
X0123800Y0215733D01*
X0122816Y0216717D01*
X0121530Y0217250D01*
X0120162Y0217250D01*
X0112833Y0224578D01*
X0111662Y0225750D01*
X0109633Y0225750D01*
X0109633Y0226537D02*
X0117576Y0226537D01*
X0116578Y0227536D02*
X0108886Y0227536D01*
X0111873Y0225539D02*
X0118575Y0225539D01*
X0119573Y0224540D02*
X0112872Y0224540D01*
X0112833Y0224578D02*
X0112833Y0224578D01*
X0113870Y0223542D02*
X0120572Y0223542D01*
X0121570Y0222543D02*
X0114869Y0222543D01*
X0115867Y0221545D02*
X0122569Y0221545D01*
X0123567Y0220546D02*
X0116866Y0220546D01*
X0117864Y0219548D02*
X0124566Y0219548D01*
X0125564Y0218549D02*
X0118863Y0218549D01*
X0119861Y0217551D02*
X0126563Y0217551D01*
X0127561Y0216552D02*
X0122981Y0216552D01*
X0123875Y0215553D02*
X0128560Y0215553D01*
X0129559Y0214555D02*
X0124288Y0214555D01*
X0124333Y0213556D02*
X0130557Y0213556D01*
X0131556Y0212558D02*
X0124854Y0212558D01*
X0125333Y0211559D02*
X0132554Y0211559D01*
X0133553Y0210561D02*
X0125333Y0210561D01*
X0125349Y0209562D02*
X0134551Y0209562D01*
X0135550Y0208564D02*
X0126348Y0208564D01*
X0127346Y0207565D02*
X0136548Y0207565D01*
X0137547Y0206567D02*
X0128345Y0206567D01*
X0129343Y0205568D02*
X0138545Y0205568D01*
X0139544Y0204570D02*
X0130342Y0204570D01*
X0131340Y0203571D02*
X0140542Y0203571D01*
X0141541Y0202573D02*
X0132339Y0202573D01*
X0133337Y0201574D02*
X0142539Y0201574D01*
X0143538Y0200576D02*
X0134336Y0200576D01*
X0135334Y0199577D02*
X0143787Y0199577D01*
X0142788Y0198579D02*
X0136333Y0198579D01*
X0137331Y0197580D02*
X0141790Y0197580D01*
X0140791Y0196582D02*
X0138330Y0196582D01*
X0138333Y0193750D02*
X0143333Y0193750D01*
X0145548Y0190591D02*
X0149517Y0190591D01*
X0150516Y0191589D02*
X0146547Y0191589D01*
X0147545Y0192588D02*
X0151514Y0192588D01*
X0150527Y0193586D02*
X0148544Y0193586D01*
X0148519Y0189592D02*
X0144550Y0189592D01*
X0143551Y0188594D02*
X0147520Y0188594D01*
X0147783Y0188594D02*
X0149197Y0188594D01*
X0148781Y0187595D02*
X0150195Y0187595D01*
X0146522Y0187595D02*
X0142553Y0187595D01*
X0144525Y0185598D02*
X0134314Y0185598D01*
X0135312Y0184600D02*
X0144030Y0184600D01*
X0144307Y0183601D02*
X0136311Y0183601D01*
X0149924Y0170620D02*
X0159830Y0170620D01*
X0160828Y0171619D02*
X0151152Y0171619D01*
X0158333Y0163750D02*
X0163333Y0168750D01*
X0165833Y0171250D01*
X0163333Y0168750D02*
X0200833Y0131250D01*
X0233333Y0131250D01*
X0240833Y0138750D01*
X0248333Y0138750D01*
X0253333Y0133750D01*
X0293333Y0173750D01*
X0293333Y0193750D01*
X0288333Y0193750D01*
X0303333Y0193750D01*
X0308733Y0189950D02*
X0297795Y0189950D01*
X0297033Y0190712D01*
X0297033Y0191750D01*
X0295333Y0191750D01*
X0295333Y0172922D01*
X0294162Y0171750D01*
X0257435Y0135023D01*
X0259535Y0132922D01*
X0306563Y0179950D01*
X0305077Y0179950D01*
X0303681Y0180529D01*
X0302612Y0181597D01*
X0302033Y0182994D01*
X0302033Y0184506D01*
X0302612Y0185903D01*
X0303681Y0186971D01*
X0305077Y0187550D01*
X0306589Y0187550D01*
X0307986Y0186971D01*
X0308733Y0186224D01*
X0308733Y0189950D01*
X0308733Y0189592D02*
X0295333Y0189592D01*
X0295333Y0188594D02*
X0308733Y0188594D01*
X0308733Y0187595D02*
X0295333Y0187595D01*
X0295333Y0186597D02*
X0303306Y0186597D01*
X0302486Y0185598D02*
X0295333Y0185598D01*
X0295333Y0184600D02*
X0302072Y0184600D01*
X0302033Y0183601D02*
X0295333Y0183601D01*
X0295333Y0182603D02*
X0302195Y0182603D01*
X0302609Y0181604D02*
X0295333Y0181604D01*
X0295333Y0180606D02*
X0303604Y0180606D01*
X0305222Y0178609D02*
X0295333Y0178609D01*
X0295333Y0179607D02*
X0306221Y0179607D01*
X0304224Y0177610D02*
X0295333Y0177610D01*
X0295333Y0176612D02*
X0303225Y0176612D01*
X0302227Y0175613D02*
X0295333Y0175613D01*
X0295333Y0174615D02*
X0301228Y0174615D01*
X0300230Y0173616D02*
X0295333Y0173616D01*
X0295029Y0172618D02*
X0299231Y0172618D01*
X0298232Y0171619D02*
X0294031Y0171619D01*
X0293032Y0170620D02*
X0297234Y0170620D01*
X0296235Y0169622D02*
X0292034Y0169622D01*
X0291035Y0168623D02*
X0295237Y0168623D01*
X0294238Y0167625D02*
X0290037Y0167625D01*
X0289038Y0166626D02*
X0293240Y0166626D01*
X0292241Y0165628D02*
X0288040Y0165628D01*
X0287041Y0164629D02*
X0291243Y0164629D01*
X0290244Y0163631D02*
X0286043Y0163631D01*
X0285044Y0162632D02*
X0289246Y0162632D01*
X0288247Y0161634D02*
X0284046Y0161634D01*
X0283047Y0160635D02*
X0287249Y0160635D01*
X0286250Y0159637D02*
X0282049Y0159637D01*
X0281050Y0158638D02*
X0285252Y0158638D01*
X0284253Y0157640D02*
X0280052Y0157640D01*
X0279053Y0156641D02*
X0283255Y0156641D01*
X0282256Y0155643D02*
X0278055Y0155643D01*
X0277056Y0154644D02*
X0281258Y0154644D01*
X0280259Y0153646D02*
X0276058Y0153646D01*
X0275059Y0152647D02*
X0279261Y0152647D01*
X0278262Y0151649D02*
X0274061Y0151649D01*
X0273062Y0150650D02*
X0277264Y0150650D01*
X0276265Y0149652D02*
X0272063Y0149652D01*
X0271065Y0148653D02*
X0275267Y0148653D01*
X0274268Y0147655D02*
X0270066Y0147655D01*
X0269068Y0146656D02*
X0273270Y0146656D01*
X0272271Y0145658D02*
X0268069Y0145658D01*
X0267071Y0144659D02*
X0271273Y0144659D01*
X0270274Y0143661D02*
X0266072Y0143661D01*
X0265074Y0142662D02*
X0269276Y0142662D01*
X0268277Y0141664D02*
X0264075Y0141664D01*
X0263077Y0140665D02*
X0267279Y0140665D01*
X0266280Y0139667D02*
X0262078Y0139667D01*
X0261080Y0138668D02*
X0265282Y0138668D01*
X0264283Y0137670D02*
X0260081Y0137670D01*
X0259083Y0136671D02*
X0263285Y0136671D01*
X0262286Y0135673D02*
X0258084Y0135673D01*
X0257783Y0134674D02*
X0261288Y0134674D01*
X0260289Y0133676D02*
X0258782Y0133676D01*
X0254606Y0137851D02*
X0252104Y0140353D01*
X0251027Y0140353D01*
X0250293Y0139619D01*
X0249162Y0140750D01*
X0240005Y0140750D01*
X0238833Y0139578D01*
X0232505Y0133250D01*
X0201662Y0133250D01*
X0167435Y0167477D01*
X0172035Y0172078D01*
X0201860Y0142253D01*
X0201181Y0141971D01*
X0200112Y0140903D01*
X0199533Y0139506D01*
X0199533Y0137994D01*
X0200112Y0136597D01*
X0201181Y0135529D01*
X0202577Y0134950D01*
X0204089Y0134950D01*
X0205486Y0135529D01*
X0206555Y0136597D01*
X0207133Y0137994D01*
X0207133Y0139506D01*
X0206555Y0140903D01*
X0205486Y0141971D01*
X0204806Y0142253D01*
X0205433Y0142880D01*
X0302033Y0239480D01*
X0302033Y0239244D01*
X0302612Y0237847D01*
X0303681Y0236779D01*
X0305077Y0236200D01*
X0306589Y0236200D01*
X0307986Y0236779D01*
X0308733Y0237526D01*
X0308733Y0227550D01*
X0297795Y0227550D01*
X0297033Y0226788D01*
X0297033Y0225750D01*
X0296283Y0225750D01*
X0295316Y0226717D01*
X0294030Y0227250D01*
X0292637Y0227250D01*
X0291351Y0226717D01*
X0290366Y0225733D01*
X0289833Y0224446D01*
X0289833Y0223054D01*
X0290366Y0221767D01*
X0291351Y0220783D01*
X0292637Y0220250D01*
X0294030Y0220250D01*
X0295316Y0220783D01*
X0296283Y0221750D01*
X0297033Y0221750D01*
X0297033Y0220712D01*
X0297795Y0219950D01*
X0308733Y0219950D01*
X0308733Y0217696D01*
X0308531Y0217750D01*
X0303833Y0217750D01*
X0303833Y0214250D01*
X0302833Y0214250D01*
X0302833Y0213250D01*
X0296833Y0213250D01*
X0296833Y0211053D01*
X0296936Y0210671D01*
X0297133Y0210329D01*
X0297412Y0210050D01*
X0297754Y0209852D01*
X0298136Y0209750D01*
X0302833Y0209750D01*
X0302833Y0213250D01*
X0303833Y0213250D01*
X0303833Y0209750D01*
X0308531Y0209750D01*
X0308733Y0209804D01*
X0308733Y0207550D01*
X0297795Y0207550D01*
X0297033Y0206788D01*
X0297033Y0205750D01*
X0278755Y0205750D01*
X0226255Y0153250D01*
X0225083Y0152078D01*
X0225083Y0140450D01*
X0224116Y0139483D01*
X0223583Y0138196D01*
X0223583Y0136804D01*
X0224116Y0135517D01*
X0225101Y0134533D01*
X0226387Y0134000D01*
X0227780Y0134000D01*
X0229066Y0134533D01*
X0230050Y0135517D01*
X0230583Y0136804D01*
X0230583Y0138196D01*
X0230050Y0139483D01*
X0229083Y0140450D01*
X0229083Y0150422D01*
X0280412Y0201750D01*
X0297033Y0201750D01*
X0297033Y0200712D01*
X0297795Y0199950D01*
X0308733Y0199950D01*
X0308733Y0197550D01*
X0297795Y0197550D01*
X0297033Y0196788D01*
X0297033Y0195750D01*
X0291283Y0195750D01*
X0290316Y0196717D01*
X0289030Y0197250D01*
X0287637Y0197250D01*
X0286351Y0196717D01*
X0285366Y0195733D01*
X0284833Y0194446D01*
X0284833Y0193054D01*
X0285366Y0191767D01*
X0286351Y0190783D01*
X0287637Y0190250D01*
X0289030Y0190250D01*
X0290316Y0190783D01*
X0291283Y0191750D01*
X0291333Y0191750D01*
X0291333Y0174578D01*
X0254606Y0137851D01*
X0253789Y0138668D02*
X0255423Y0138668D01*
X0256422Y0139667D02*
X0252791Y0139667D01*
X0250340Y0139667D02*
X0250245Y0139667D01*
X0249247Y0140665D02*
X0257420Y0140665D01*
X0258419Y0141664D02*
X0229083Y0141664D01*
X0229083Y0142662D02*
X0259417Y0142662D01*
X0260416Y0143661D02*
X0229083Y0143661D01*
X0229083Y0144659D02*
X0261414Y0144659D01*
X0262413Y0145658D02*
X0229083Y0145658D01*
X0229083Y0146656D02*
X0263411Y0146656D01*
X0264410Y0147655D02*
X0229083Y0147655D01*
X0229083Y0148653D02*
X0265408Y0148653D01*
X0266407Y0149652D02*
X0229083Y0149652D01*
X0229312Y0150650D02*
X0267405Y0150650D01*
X0268404Y0151649D02*
X0230311Y0151649D01*
X0231309Y0152647D02*
X0269402Y0152647D01*
X0270401Y0153646D02*
X0232308Y0153646D01*
X0233306Y0154644D02*
X0271399Y0154644D01*
X0272398Y0155643D02*
X0234305Y0155643D01*
X0235303Y0156641D02*
X0273396Y0156641D01*
X0274395Y0157640D02*
X0236302Y0157640D01*
X0237300Y0158638D02*
X0275393Y0158638D01*
X0276392Y0159637D02*
X0238299Y0159637D01*
X0239297Y0160635D02*
X0277390Y0160635D01*
X0278389Y0161634D02*
X0240296Y0161634D01*
X0241294Y0162632D02*
X0279387Y0162632D01*
X0280386Y0163631D02*
X0242293Y0163631D01*
X0243291Y0164629D02*
X0281384Y0164629D01*
X0282383Y0165628D02*
X0244290Y0165628D01*
X0245288Y0166626D02*
X0283381Y0166626D01*
X0284380Y0167625D02*
X0246287Y0167625D01*
X0247285Y0168623D02*
X0285378Y0168623D01*
X0286377Y0169622D02*
X0248284Y0169622D01*
X0249282Y0170620D02*
X0287375Y0170620D01*
X0288374Y0171619D02*
X0250281Y0171619D01*
X0251279Y0172618D02*
X0289372Y0172618D01*
X0290371Y0173616D02*
X0252278Y0173616D01*
X0253276Y0174615D02*
X0291333Y0174615D01*
X0291333Y0175613D02*
X0254275Y0175613D01*
X0255273Y0176612D02*
X0291333Y0176612D01*
X0291333Y0177610D02*
X0256272Y0177610D01*
X0257270Y0178609D02*
X0291333Y0178609D01*
X0291333Y0179607D02*
X0258269Y0179607D01*
X0259267Y0180606D02*
X0291333Y0180606D01*
X0291333Y0181604D02*
X0260266Y0181604D01*
X0261264Y0182603D02*
X0291333Y0182603D01*
X0291333Y0183601D02*
X0262263Y0183601D01*
X0263261Y0184600D02*
X0291333Y0184600D01*
X0291333Y0185598D02*
X0264260Y0185598D01*
X0265258Y0186597D02*
X0291333Y0186597D01*
X0291333Y0187595D02*
X0266257Y0187595D01*
X0267255Y0188594D02*
X0291333Y0188594D01*
X0291333Y0189592D02*
X0268254Y0189592D01*
X0269252Y0190591D02*
X0286815Y0190591D01*
X0285544Y0191589D02*
X0270251Y0191589D01*
X0271249Y0192588D02*
X0285026Y0192588D01*
X0284833Y0193586D02*
X0272248Y0193586D01*
X0273247Y0194585D02*
X0284891Y0194585D01*
X0285304Y0195583D02*
X0274245Y0195583D01*
X0275244Y0196582D02*
X0286215Y0196582D01*
X0290451Y0196582D02*
X0297033Y0196582D01*
X0297169Y0200576D02*
X0279238Y0200576D01*
X0280236Y0201574D02*
X0297033Y0201574D01*
X0303333Y0203750D02*
X0279583Y0203750D01*
X0227083Y0151250D01*
X0227083Y0137500D01*
X0223583Y0137670D02*
X0206999Y0137670D01*
X0207133Y0138668D02*
X0223779Y0138668D01*
X0224300Y0139667D02*
X0207067Y0139667D01*
X0206653Y0140665D02*
X0225083Y0140665D01*
X0225083Y0141664D02*
X0205794Y0141664D01*
X0205215Y0142662D02*
X0225083Y0142662D01*
X0225083Y0143661D02*
X0206214Y0143661D01*
X0207212Y0144659D02*
X0225083Y0144659D01*
X0225083Y0145658D02*
X0208211Y0145658D01*
X0209209Y0146656D02*
X0225083Y0146656D01*
X0225083Y0147655D02*
X0210208Y0147655D01*
X0211206Y0148653D02*
X0225083Y0148653D01*
X0225083Y0149652D02*
X0212205Y0149652D01*
X0213203Y0150650D02*
X0225083Y0150650D01*
X0225083Y0151649D02*
X0214202Y0151649D01*
X0215200Y0152647D02*
X0225652Y0152647D01*
X0226651Y0153646D02*
X0216199Y0153646D01*
X0217197Y0154644D02*
X0227649Y0154644D01*
X0228648Y0155643D02*
X0218196Y0155643D01*
X0219194Y0156641D02*
X0229646Y0156641D01*
X0230645Y0157640D02*
X0220193Y0157640D01*
X0221192Y0158638D02*
X0231643Y0158638D01*
X0232642Y0159637D02*
X0222190Y0159637D01*
X0223189Y0160635D02*
X0233640Y0160635D01*
X0234639Y0161634D02*
X0224187Y0161634D01*
X0225186Y0162632D02*
X0235637Y0162632D01*
X0236636Y0163631D02*
X0226184Y0163631D01*
X0227183Y0164629D02*
X0237634Y0164629D01*
X0238633Y0165628D02*
X0228181Y0165628D01*
X0229180Y0166626D02*
X0239631Y0166626D01*
X0240630Y0167625D02*
X0230178Y0167625D01*
X0231177Y0168623D02*
X0241628Y0168623D01*
X0242627Y0169622D02*
X0232175Y0169622D01*
X0233174Y0170620D02*
X0243625Y0170620D01*
X0244624Y0171619D02*
X0234172Y0171619D01*
X0235171Y0172618D02*
X0245622Y0172618D01*
X0246621Y0173616D02*
X0236169Y0173616D01*
X0237168Y0174615D02*
X0247619Y0174615D01*
X0248618Y0175613D02*
X0238166Y0175613D01*
X0239165Y0176612D02*
X0249616Y0176612D01*
X0250615Y0177610D02*
X0240163Y0177610D01*
X0241162Y0178609D02*
X0251613Y0178609D01*
X0252612Y0179607D02*
X0242160Y0179607D01*
X0243159Y0180606D02*
X0253611Y0180606D01*
X0254609Y0181604D02*
X0244157Y0181604D01*
X0245156Y0182603D02*
X0255608Y0182603D01*
X0256606Y0183601D02*
X0246154Y0183601D01*
X0247153Y0184600D02*
X0257605Y0184600D01*
X0258603Y0185598D02*
X0248151Y0185598D01*
X0249150Y0186597D02*
X0259602Y0186597D01*
X0260600Y0187595D02*
X0250148Y0187595D01*
X0251147Y0188594D02*
X0261599Y0188594D01*
X0262597Y0189592D02*
X0252145Y0189592D01*
X0253144Y0190591D02*
X0263596Y0190591D01*
X0264594Y0191589D02*
X0254142Y0191589D01*
X0255141Y0192588D02*
X0265593Y0192588D01*
X0266591Y0193586D02*
X0256139Y0193586D01*
X0257138Y0194585D02*
X0267590Y0194585D01*
X0268588Y0195583D02*
X0258136Y0195583D01*
X0259135Y0196582D02*
X0269587Y0196582D01*
X0270585Y0197580D02*
X0260133Y0197580D01*
X0261132Y0198579D02*
X0271584Y0198579D01*
X0272582Y0199577D02*
X0262130Y0199577D01*
X0263129Y0200576D02*
X0273581Y0200576D01*
X0274579Y0201574D02*
X0264127Y0201574D01*
X0265126Y0202573D02*
X0275578Y0202573D01*
X0276576Y0203571D02*
X0266125Y0203571D01*
X0267123Y0204570D02*
X0277575Y0204570D01*
X0278573Y0205568D02*
X0268122Y0205568D01*
X0269120Y0206567D02*
X0297033Y0206567D01*
X0296999Y0210561D02*
X0273114Y0210561D01*
X0272116Y0209562D02*
X0308733Y0209562D01*
X0308733Y0208564D02*
X0271117Y0208564D01*
X0270119Y0207565D02*
X0308733Y0207565D01*
X0303833Y0210561D02*
X0302833Y0210561D01*
X0302833Y0211559D02*
X0303833Y0211559D01*
X0303833Y0212558D02*
X0302833Y0212558D01*
X0302833Y0213556D02*
X0276110Y0213556D01*
X0275111Y0212558D02*
X0296833Y0212558D01*
X0296833Y0211559D02*
X0274113Y0211559D01*
X0277108Y0214555D02*
X0296833Y0214555D01*
X0296833Y0214250D02*
X0302833Y0214250D01*
X0302833Y0217750D01*
X0298136Y0217750D01*
X0297754Y0217648D01*
X0297412Y0217450D01*
X0297133Y0217171D01*
X0296936Y0216829D01*
X0296833Y0216447D01*
X0296833Y0214250D01*
X0296833Y0215553D02*
X0278107Y0215553D01*
X0279105Y0216552D02*
X0296861Y0216552D01*
X0297586Y0217551D02*
X0280104Y0217551D01*
X0281102Y0218549D02*
X0308733Y0218549D01*
X0308733Y0219548D02*
X0282101Y0219548D01*
X0283099Y0220546D02*
X0291922Y0220546D01*
X0290589Y0221545D02*
X0284098Y0221545D01*
X0285096Y0222543D02*
X0290045Y0222543D01*
X0289833Y0223542D02*
X0286095Y0223542D01*
X0287093Y0224540D02*
X0289872Y0224540D01*
X0290286Y0225539D02*
X0288092Y0225539D01*
X0289090Y0226537D02*
X0291171Y0226537D01*
X0290089Y0227536D02*
X0297780Y0227536D01*
X0297033Y0226537D02*
X0295496Y0226537D01*
X0293333Y0223750D02*
X0303333Y0223750D01*
X0297033Y0221545D02*
X0296078Y0221545D01*
X0297199Y0220546D02*
X0294744Y0220546D01*
X0302833Y0217551D02*
X0303833Y0217551D01*
X0303833Y0216552D02*
X0302833Y0216552D01*
X0302833Y0215553D02*
X0303833Y0215553D01*
X0303833Y0214555D02*
X0302833Y0214555D01*
X0308733Y0228534D02*
X0291087Y0228534D01*
X0292086Y0229533D02*
X0308733Y0229533D01*
X0308733Y0230531D02*
X0293084Y0230531D01*
X0294083Y0231530D02*
X0308733Y0231530D01*
X0308733Y0232528D02*
X0295081Y0232528D01*
X0296080Y0233527D02*
X0308733Y0233527D01*
X0308733Y0234525D02*
X0297078Y0234525D01*
X0298077Y0235524D02*
X0308733Y0235524D01*
X0308733Y0236522D02*
X0307367Y0236522D01*
X0308728Y0237521D02*
X0308733Y0237521D01*
X0304300Y0236522D02*
X0299075Y0236522D01*
X0300074Y0237521D02*
X0302939Y0237521D01*
X0302334Y0238519D02*
X0301072Y0238519D01*
X0308733Y0199577D02*
X0278239Y0199577D01*
X0277241Y0198579D02*
X0308733Y0198579D01*
X0308733Y0197580D02*
X0276242Y0197580D01*
X0289852Y0190591D02*
X0291333Y0190591D01*
X0291333Y0191589D02*
X0291122Y0191589D01*
X0295333Y0191589D02*
X0297033Y0191589D01*
X0297154Y0190591D02*
X0295333Y0190591D01*
X0308361Y0186597D02*
X0308733Y0186597D01*
X0239920Y0140665D02*
X0229083Y0140665D01*
X0229866Y0139667D02*
X0238922Y0139667D01*
X0237923Y0138668D02*
X0230388Y0138668D01*
X0230583Y0137670D02*
X0236925Y0137670D01*
X0235926Y0136671D02*
X0230528Y0136671D01*
X0230115Y0135673D02*
X0234927Y0135673D01*
X0233929Y0134674D02*
X0229207Y0134674D01*
X0232930Y0133676D02*
X0201236Y0133676D01*
X0200238Y0134674D02*
X0224959Y0134674D01*
X0224052Y0135673D02*
X0205630Y0135673D01*
X0206585Y0136671D02*
X0223638Y0136671D01*
X0236590Y0131679D02*
X0237183Y0131679D01*
X0237589Y0132677D02*
X0238182Y0132677D01*
X0238587Y0133676D02*
X0248034Y0133676D01*
X0247035Y0134674D02*
X0239586Y0134674D01*
X0240584Y0135673D02*
X0246730Y0135673D01*
X0247345Y0136671D02*
X0241583Y0136671D01*
X0244780Y0132677D02*
X0249032Y0132677D01*
X0250031Y0131679D02*
X0245779Y0131679D01*
X0246777Y0130680D02*
X0251029Y0130680D01*
X0252028Y0129682D02*
X0247776Y0129682D01*
X0248774Y0128683D02*
X0253026Y0128683D01*
X0254025Y0127684D02*
X0249773Y0127684D01*
X0250771Y0126686D02*
X0253299Y0126686D01*
X0252301Y0125687D02*
X0251770Y0125687D01*
X0233189Y0127684D02*
X0229349Y0127684D01*
X0224818Y0127684D02*
X0194349Y0127684D01*
X0194725Y0122692D02*
X0224442Y0122692D01*
X0225920Y0121693D02*
X0193246Y0121693D01*
X0199239Y0135673D02*
X0201037Y0135673D01*
X0200081Y0136671D02*
X0198241Y0136671D01*
X0197242Y0137670D02*
X0199668Y0137670D01*
X0199533Y0138668D02*
X0196244Y0138668D01*
X0195245Y0139667D02*
X0199600Y0139667D01*
X0200014Y0140665D02*
X0194247Y0140665D01*
X0193248Y0141664D02*
X0200873Y0141664D01*
X0201451Y0142662D02*
X0192250Y0142662D01*
X0191251Y0143661D02*
X0200453Y0143661D01*
X0199454Y0144659D02*
X0190253Y0144659D01*
X0189254Y0145658D02*
X0198456Y0145658D01*
X0197457Y0146656D02*
X0188256Y0146656D01*
X0187257Y0147655D02*
X0196459Y0147655D01*
X0195460Y0148653D02*
X0186259Y0148653D01*
X0185260Y0149652D02*
X0194462Y0149652D01*
X0193463Y0150650D02*
X0184261Y0150650D01*
X0183263Y0151649D02*
X0192465Y0151649D01*
X0191466Y0152647D02*
X0182264Y0152647D01*
X0181266Y0153646D02*
X0190468Y0153646D01*
X0189469Y0154644D02*
X0180267Y0154644D01*
X0179269Y0155643D02*
X0188471Y0155643D01*
X0187472Y0156641D02*
X0178270Y0156641D01*
X0177272Y0157640D02*
X0186474Y0157640D01*
X0185475Y0158638D02*
X0176273Y0158638D01*
X0175275Y0159637D02*
X0184477Y0159637D01*
X0183478Y0160635D02*
X0174276Y0160635D01*
X0173278Y0161634D02*
X0182480Y0161634D01*
X0181481Y0162632D02*
X0172279Y0162632D01*
X0171281Y0163631D02*
X0180483Y0163631D01*
X0179484Y0164629D02*
X0170282Y0164629D01*
X0169284Y0165628D02*
X0178486Y0165628D01*
X0177487Y0166626D02*
X0168285Y0166626D01*
X0167582Y0167625D02*
X0176489Y0167625D01*
X0175490Y0168623D02*
X0168581Y0168623D01*
X0169579Y0169622D02*
X0174492Y0169622D01*
X0173493Y0170620D02*
X0170578Y0170620D01*
X0171576Y0171619D02*
X0172494Y0171619D01*
X0122688Y0206567D02*
X0109633Y0206567D01*
X0113333Y0203750D02*
X0103333Y0203750D01*
X0097933Y0207565D02*
X0121689Y0207565D01*
X0121333Y0208564D02*
X0097933Y0208564D01*
X0097933Y0209562D02*
X0121333Y0209562D01*
X0119386Y0210561D02*
X0109668Y0210561D01*
X0109833Y0211559D02*
X0118074Y0211559D01*
X0117539Y0212558D02*
X0109833Y0212558D01*
X0109833Y0214250D02*
X0103833Y0214250D01*
X0103833Y0217750D01*
X0108531Y0217750D01*
X0108912Y0217648D01*
X0109254Y0217450D01*
X0109534Y0217171D01*
X0109731Y0216829D01*
X0109833Y0216447D01*
X0109833Y0214250D01*
X0109833Y0214555D02*
X0117200Y0214555D01*
X0117333Y0213556D02*
X0103833Y0213556D01*
X0103833Y0212558D02*
X0102833Y0212558D01*
X0102833Y0211559D02*
X0103833Y0211559D01*
X0103833Y0210561D02*
X0102833Y0210561D01*
X0102833Y0214555D02*
X0103833Y0214555D01*
X0103833Y0215553D02*
X0102833Y0215553D01*
X0102833Y0216552D02*
X0103833Y0216552D01*
X0103833Y0217551D02*
X0102833Y0217551D01*
X0097933Y0218549D02*
X0113206Y0218549D01*
X0114204Y0217551D02*
X0109081Y0217551D01*
X0109805Y0216552D02*
X0115203Y0216552D01*
X0116201Y0215553D02*
X0109833Y0215553D01*
X0112207Y0219548D02*
X0097933Y0219548D01*
X0109468Y0220546D02*
X0111209Y0220546D01*
X0110210Y0221545D02*
X0109633Y0221545D01*
X0115579Y0228534D02*
X0097933Y0228534D01*
X0097933Y0229533D02*
X0114581Y0229533D01*
X0113582Y0230531D02*
X0097933Y0230531D01*
X0097933Y0231530D02*
X0112584Y0231530D01*
X0111585Y0232528D02*
X0097933Y0232528D01*
X0097933Y0233527D02*
X0110587Y0233527D01*
X0109588Y0234525D02*
X0097933Y0234525D01*
X0097933Y0235524D02*
X0108590Y0235524D01*
X0107591Y0236522D02*
X0101742Y0236522D01*
X0103103Y0237521D02*
X0106593Y0237521D01*
X0105594Y0238519D02*
X0103708Y0238519D01*
X0104008Y0239518D02*
X0104596Y0239518D01*
X0098675Y0236522D02*
X0097933Y0236522D01*
X0160357Y0119696D02*
X0231772Y0119696D01*
X0232729Y0118698D02*
X0161355Y0118698D01*
X0162354Y0117699D02*
X0228373Y0117699D01*
X0229758Y0117699D02*
X0233727Y0117699D01*
X0234726Y0116701D02*
X0230756Y0116701D01*
X0227375Y0116701D02*
X0163352Y0116701D01*
X0164351Y0115702D02*
X0226376Y0115702D01*
X0225378Y0114704D02*
X0165349Y0114704D01*
X0166348Y0113705D02*
X0224379Y0113705D01*
X0224230Y0112707D02*
X0167346Y0112707D01*
X0168345Y0111708D02*
X0225001Y0111708D01*
X0226000Y0110710D02*
X0169343Y0110710D01*
X0170342Y0109711D02*
X0226466Y0109711D01*
X0225468Y0108713D02*
X0171340Y0108713D01*
X0172339Y0107714D02*
X0224469Y0107714D01*
X0223471Y0106716D02*
X0173337Y0106716D01*
X0176333Y0103720D02*
X0203354Y0103720D01*
X0202655Y0102722D02*
X0177331Y0102722D01*
X0178330Y0101723D02*
X0202333Y0101723D01*
X0202333Y0100725D02*
X0179328Y0100725D01*
X0180327Y0099726D02*
X0202676Y0099726D01*
X0203406Y0098728D02*
X0181325Y0098728D01*
X0182324Y0097729D02*
X0224343Y0097729D01*
X0225341Y0098728D02*
X0208261Y0098728D01*
X0218352Y0091738D02*
X0188315Y0091738D01*
X0189314Y0090740D02*
X0217353Y0090740D01*
X0216355Y0089741D02*
X0190312Y0089741D01*
X0191311Y0088743D02*
X0215356Y0088743D01*
X0214358Y0087744D02*
X0192309Y0087744D01*
X0193308Y0086746D02*
X0213359Y0086746D01*
X0212361Y0085747D02*
X0194306Y0085747D01*
X0195305Y0084749D02*
X0200833Y0084749D01*
X0199997Y0083750D02*
X0196303Y0083750D01*
X0197302Y0082751D02*
X0199583Y0082751D01*
X0199533Y0081753D02*
X0198300Y0081753D01*
X0199299Y0080754D02*
X0199684Y0080754D01*
X0206982Y0080754D02*
X0207368Y0080754D01*
X0207133Y0081753D02*
X0208366Y0081753D01*
X0209365Y0082751D02*
X0207083Y0082751D01*
X0206670Y0083750D02*
X0210363Y0083750D01*
X0211362Y0084749D02*
X0205834Y0084749D01*
X0219350Y0092737D02*
X0187317Y0092737D01*
X0186318Y0093735D02*
X0220349Y0093735D01*
X0221347Y0094734D02*
X0185320Y0094734D01*
X0184321Y0095732D02*
X0222346Y0095732D01*
X0223344Y0096731D02*
X0183323Y0096731D01*
X0222138Y0099726D02*
X0226340Y0099726D01*
X0227338Y0100725D02*
X0223136Y0100725D01*
X0224135Y0101723D02*
X0228337Y0101723D01*
X0229335Y0102722D02*
X0225133Y0102722D01*
X0226132Y0103720D02*
X0230334Y0103720D01*
X0231332Y0104719D02*
X0227130Y0104719D01*
X0228129Y0105717D02*
X0230992Y0105717D01*
X0229994Y0106716D02*
X0229127Y0106716D01*
D12*
X0205833Y0101250D03*
X0192083Y0125000D03*
X0215833Y0145000D03*
X0227083Y0137500D03*
X0227083Y0125000D03*
X0245833Y0150000D03*
X0272083Y0171250D03*
X0299583Y0178750D03*
X0288333Y0193750D03*
X0282083Y0211250D03*
X0293333Y0223750D03*
X0160833Y0153750D03*
X0139583Y0157500D03*
X0155833Y0170000D03*
X0148333Y0173750D03*
X0142083Y0181250D03*
X0118333Y0192500D03*
X0136458Y0201875D03*
X0120833Y0213750D03*
X0112083Y0213750D03*
X0105833Y0235000D03*
X0107083Y0180000D03*
M02*
