G75*
%MOIN*%
%OFA0B0*%
%FSLAX25Y25*%
%IPPOS*%
%LPD*%
%AMOC8*
5,1,8,0,0,1.08239X$1,22.5*
%
%ADD10C,0.00800*%
%ADD11C,0.00600*%
D10*
X0184612Y0108504D02*
X0189747Y0108504D01*
X0189215Y0109302D02*
X0184013Y0109302D01*
X0183414Y0110101D02*
X0188683Y0110101D01*
X0188333Y0110625D02*
X0192083Y0111875D01*
X0184583Y0123125D01*
X0178333Y0123125D01*
X0185833Y0113125D01*
X0182083Y0111875D01*
X0189583Y0101875D01*
X0185833Y0101875D01*
X0195833Y0088125D01*
X0190833Y0099375D01*
X0195833Y0099375D01*
X0188333Y0110625D01*
X0189156Y0110899D02*
X0182815Y0110899D01*
X0182216Y0111698D02*
X0191552Y0111698D01*
X0191669Y0112496D02*
X0183948Y0112496D01*
X0185706Y0113295D02*
X0191137Y0113295D01*
X0190604Y0114093D02*
X0185107Y0114093D01*
X0184508Y0114892D02*
X0190072Y0114892D01*
X0189540Y0115690D02*
X0183909Y0115690D01*
X0183310Y0116489D02*
X0189007Y0116489D01*
X0188475Y0117287D02*
X0182711Y0117287D01*
X0182113Y0118086D02*
X0187943Y0118086D01*
X0187410Y0118884D02*
X0181514Y0118884D01*
X0180915Y0119683D02*
X0186878Y0119683D01*
X0186346Y0120482D02*
X0180316Y0120482D01*
X0179717Y0121280D02*
X0185813Y0121280D01*
X0185281Y0122079D02*
X0179118Y0122079D01*
X0178519Y0122877D02*
X0184749Y0122877D01*
X0186028Y0126650D02*
X0188831Y0126650D01*
X0188831Y0130854D01*
X0186028Y0130854D01*
X0187430Y0128752D02*
X0188831Y0128752D01*
X0190632Y0130153D02*
X0191333Y0130854D01*
X0193435Y0130854D01*
X0193435Y0126650D01*
X0191333Y0126650D01*
X0190632Y0127351D01*
X0190632Y0130153D01*
X0195236Y0129452D02*
X0195236Y0126650D01*
X0195236Y0128752D02*
X0198039Y0128752D01*
X0198039Y0129452D02*
X0198039Y0126650D01*
X0199840Y0126650D02*
X0201241Y0128051D01*
X0200541Y0128051D02*
X0202643Y0128051D01*
X0202643Y0126650D02*
X0202643Y0130854D01*
X0200541Y0130854D01*
X0199840Y0130153D01*
X0199840Y0128752D01*
X0200541Y0128051D01*
X0198039Y0129452D02*
X0196638Y0130854D01*
X0195236Y0129452D01*
X0204444Y0130854D02*
X0207247Y0130854D01*
X0207247Y0126650D01*
X0204444Y0126650D01*
X0205845Y0128752D02*
X0207247Y0128752D01*
X0209048Y0130153D02*
X0211850Y0127351D01*
X0211850Y0126650D01*
X0209048Y0126650D01*
X0209048Y0130153D02*
X0209048Y0130854D01*
X0211850Y0130854D01*
X0213652Y0129452D02*
X0213652Y0126650D01*
X0213652Y0128752D02*
X0216454Y0128752D01*
X0216454Y0129452D02*
X0216454Y0126650D01*
X0218256Y0126650D02*
X0221058Y0126650D01*
X0221058Y0130854D01*
X0216454Y0129452D02*
X0215053Y0130854D01*
X0213652Y0129452D01*
X0209183Y0123354D02*
X0207082Y0123354D01*
X0206381Y0122653D01*
X0206381Y0121252D01*
X0207082Y0120551D01*
X0209183Y0120551D01*
X0207782Y0120551D02*
X0206381Y0119150D01*
X0204579Y0119851D02*
X0204579Y0122653D01*
X0203879Y0123354D01*
X0202478Y0123354D01*
X0201777Y0122653D01*
X0201777Y0121252D02*
X0203178Y0121252D01*
X0201777Y0121252D02*
X0201777Y0119851D01*
X0202478Y0119150D01*
X0203879Y0119150D01*
X0204579Y0119851D01*
X0199975Y0119150D02*
X0199975Y0123354D01*
X0197874Y0123354D01*
X0197173Y0122653D01*
X0197173Y0121952D01*
X0197874Y0121252D01*
X0199975Y0121252D01*
X0197874Y0121252D02*
X0197173Y0120551D01*
X0197173Y0119851D01*
X0197874Y0119150D01*
X0199975Y0119150D01*
X0209183Y0119150D02*
X0209183Y0123354D01*
X0218192Y0117287D02*
X0223955Y0117287D01*
X0223356Y0116489D02*
X0217659Y0116489D01*
X0217127Y0115690D02*
X0222757Y0115690D01*
X0222159Y0114892D02*
X0216595Y0114892D01*
X0216062Y0114093D02*
X0221560Y0114093D01*
X0220961Y0113295D02*
X0215530Y0113295D01*
X0214998Y0112496D02*
X0222719Y0112496D01*
X0224451Y0111698D02*
X0215115Y0111698D01*
X0214583Y0111875D02*
X0218333Y0110625D01*
X0210833Y0099375D01*
X0215833Y0099375D01*
X0210833Y0088125D01*
X0220833Y0101875D01*
X0217083Y0101875D01*
X0224583Y0111875D01*
X0220833Y0113125D01*
X0228333Y0123125D01*
X0222083Y0123125D01*
X0214583Y0111875D01*
X0217510Y0110899D02*
X0223852Y0110899D01*
X0223253Y0110101D02*
X0217984Y0110101D01*
X0217452Y0109302D02*
X0222654Y0109302D01*
X0222055Y0108504D02*
X0216919Y0108504D01*
X0216387Y0107705D02*
X0221456Y0107705D01*
X0220857Y0106907D02*
X0215855Y0106907D01*
X0215322Y0106108D02*
X0220258Y0106108D01*
X0219659Y0105310D02*
X0214790Y0105310D01*
X0214258Y0104511D02*
X0219061Y0104511D01*
X0218462Y0103713D02*
X0213725Y0103713D01*
X0213193Y0102914D02*
X0217863Y0102914D01*
X0217264Y0102116D02*
X0212660Y0102116D01*
X0212128Y0101317D02*
X0220428Y0101317D01*
X0219847Y0100519D02*
X0211596Y0100519D01*
X0211063Y0099720D02*
X0219266Y0099720D01*
X0218685Y0098922D02*
X0215632Y0098922D01*
X0215277Y0098123D02*
X0218105Y0098123D01*
X0217524Y0097325D02*
X0214922Y0097325D01*
X0214567Y0096526D02*
X0216943Y0096526D01*
X0216363Y0095728D02*
X0214212Y0095728D01*
X0213857Y0094929D02*
X0215782Y0094929D01*
X0215201Y0094131D02*
X0213502Y0094131D01*
X0213148Y0093332D02*
X0214620Y0093332D01*
X0214040Y0092534D02*
X0212793Y0092534D01*
X0212438Y0091735D02*
X0213459Y0091735D01*
X0212878Y0090937D02*
X0212083Y0090937D01*
X0212297Y0090138D02*
X0211728Y0090138D01*
X0211717Y0089340D02*
X0211373Y0089340D01*
X0211136Y0088541D02*
X0211018Y0088541D01*
X0195648Y0088541D02*
X0195531Y0088541D01*
X0195294Y0089340D02*
X0194950Y0089340D01*
X0194939Y0090138D02*
X0194369Y0090138D01*
X0194584Y0090937D02*
X0193789Y0090937D01*
X0194229Y0091735D02*
X0193208Y0091735D01*
X0192627Y0092534D02*
X0193874Y0092534D01*
X0193519Y0093332D02*
X0192046Y0093332D01*
X0191466Y0094131D02*
X0193164Y0094131D01*
X0192809Y0094929D02*
X0190885Y0094929D01*
X0190304Y0095728D02*
X0192454Y0095728D01*
X0192099Y0096526D02*
X0189723Y0096526D01*
X0189143Y0097325D02*
X0191745Y0097325D01*
X0191390Y0098123D02*
X0188562Y0098123D01*
X0187981Y0098922D02*
X0191035Y0098922D01*
X0189403Y0102116D02*
X0194006Y0102116D01*
X0193474Y0102914D02*
X0188804Y0102914D01*
X0188205Y0103713D02*
X0192941Y0103713D01*
X0192409Y0104511D02*
X0187606Y0104511D01*
X0187007Y0105310D02*
X0191877Y0105310D01*
X0191344Y0106108D02*
X0186408Y0106108D01*
X0185809Y0106907D02*
X0190812Y0106907D01*
X0190280Y0107705D02*
X0185211Y0107705D01*
X0186239Y0101317D02*
X0194538Y0101317D01*
X0195071Y0100519D02*
X0186820Y0100519D01*
X0187400Y0099720D02*
X0195603Y0099720D01*
X0218724Y0118086D02*
X0224554Y0118086D01*
X0225153Y0118884D02*
X0219256Y0118884D01*
X0219789Y0119683D02*
X0225752Y0119683D01*
X0226351Y0120482D02*
X0220321Y0120482D01*
X0220853Y0121280D02*
X0226950Y0121280D01*
X0227548Y0122079D02*
X0221386Y0122079D01*
X0221918Y0122877D02*
X0228147Y0122877D01*
D11*
X0233223Y0118601D02*
X0233836Y0118601D01*
X0234450Y0117988D01*
X0234450Y0117375D01*
X0233223Y0116148D01*
X0232610Y0116148D01*
X0231996Y0116761D01*
X0231996Y0117375D01*
X0234080Y0115291D02*
X0234080Y0114678D01*
X0234693Y0114064D01*
X0235307Y0114064D01*
X0236533Y0115291D01*
X0236533Y0115904D01*
X0235920Y0116518D01*
X0235307Y0116518D01*
X0237697Y0114741D02*
X0236470Y0113514D01*
X0236470Y0112288D01*
X0237697Y0112288D01*
X0238923Y0113514D01*
X0243027Y0119481D02*
X0242413Y0120094D01*
X0242413Y0120708D01*
X0243027Y0121321D01*
X0243640Y0120708D01*
X0243640Y0121934D02*
X0244253Y0121934D01*
X0244867Y0121321D01*
X0244867Y0120708D01*
X0243640Y0119481D01*
X0243027Y0119481D01*
X0241250Y0121258D02*
X0243090Y0123098D01*
X0240023Y0122484D01*
X0241863Y0124324D01*
X0241006Y0125181D02*
X0240086Y0126101D01*
X0239473Y0126101D01*
X0238246Y0124875D01*
X0238246Y0124261D01*
X0239166Y0123341D01*
X0241006Y0125181D01*
X0248137Y0129371D02*
X0248750Y0128758D01*
X0248443Y0129064D02*
X0250283Y0130904D01*
X0250590Y0130598D02*
X0249977Y0131211D01*
X0251140Y0129434D02*
X0251753Y0129434D01*
X0252673Y0128514D01*
X0250833Y0126674D01*
X0249913Y0127594D01*
X0249913Y0128208D01*
X0251140Y0129434D01*
X0257193Y0136564D02*
X0256580Y0137178D01*
X0256580Y0137791D01*
X0257807Y0139018D01*
X0258420Y0139018D01*
X0259033Y0138404D01*
X0259033Y0137791D01*
X0257807Y0136564D01*
X0257193Y0136564D01*
X0258663Y0135708D02*
X0259890Y0136934D01*
X0260503Y0136934D01*
X0261423Y0136014D01*
X0259583Y0134174D01*
X0258663Y0135094D01*
X0258663Y0135708D01*
X0165409Y0176250D02*
X0164489Y0175330D01*
X0163876Y0175330D01*
X0162649Y0176557D01*
X0162649Y0177170D01*
X0163569Y0178090D01*
X0165409Y0176250D01*
X0163019Y0174473D02*
X0163019Y0173860D01*
X0162406Y0173246D01*
X0161792Y0173246D01*
X0160566Y0174473D01*
X0160566Y0175086D01*
X0161179Y0175700D01*
X0161792Y0175700D01*
X0163019Y0174473D01*
X0155826Y0181666D02*
X0155212Y0181053D01*
X0155519Y0181360D02*
X0153679Y0183200D01*
X0153986Y0183507D02*
X0153372Y0182893D01*
X0155149Y0184057D02*
X0155149Y0184670D01*
X0156069Y0185590D01*
X0157909Y0183750D01*
X0156989Y0182830D01*
X0156376Y0182830D01*
X0155149Y0184057D01*
X0148326Y0189166D02*
X0146486Y0191007D01*
X0147099Y0187940D01*
X0145259Y0189780D01*
X0144402Y0188923D02*
X0143482Y0188003D01*
X0143482Y0187390D01*
X0144709Y0186163D01*
X0145322Y0186163D01*
X0146242Y0187083D01*
X0144402Y0188923D01*
X0147649Y0191557D02*
X0147649Y0192170D01*
X0148262Y0192783D01*
X0148876Y0192783D01*
X0150102Y0191557D01*
X0150102Y0190943D01*
X0149489Y0190330D01*
X0148876Y0190330D01*
X0148262Y0190943D01*
X0148876Y0191557D01*
X0140519Y0196360D02*
X0139906Y0195746D01*
X0139292Y0195746D01*
X0138435Y0194890D02*
X0138435Y0194276D01*
X0137822Y0193663D01*
X0137209Y0193663D01*
X0138435Y0194890D02*
X0137209Y0196116D01*
X0136595Y0196116D01*
X0135982Y0195503D01*
X0135982Y0194890D01*
X0138066Y0196973D02*
X0138066Y0197586D01*
X0138679Y0198200D01*
X0139292Y0198200D01*
X0140519Y0196973D01*
X0140519Y0196360D01*
X0141069Y0198137D02*
X0139842Y0199363D01*
X0141069Y0198137D02*
X0142296Y0198137D01*
X0142296Y0199363D01*
X0141069Y0200590D01*
X0106783Y0200402D02*
X0106783Y0197800D01*
X0105482Y0197800D01*
X0105049Y0198234D01*
X0105049Y0199969D01*
X0105482Y0200402D01*
X0106783Y0200402D01*
X0103837Y0199969D02*
X0103837Y0198234D01*
X0103403Y0197800D01*
X0102536Y0197800D01*
X0102102Y0198234D01*
X0102102Y0199969D01*
X0102536Y0200402D01*
X0103403Y0200402D01*
X0103837Y0199969D01*
X0103837Y0207800D02*
X0102969Y0207800D01*
X0103403Y0207800D02*
X0103403Y0210402D01*
X0103837Y0210402D02*
X0102969Y0210402D01*
X0105049Y0209969D02*
X0105482Y0210402D01*
X0106783Y0210402D01*
X0106783Y0207800D01*
X0105482Y0207800D01*
X0105049Y0208234D01*
X0105049Y0209969D01*
X0105482Y0217800D02*
X0105049Y0218234D01*
X0105049Y0219101D01*
X0105916Y0219101D01*
X0106783Y0218234D02*
X0106350Y0217800D01*
X0105482Y0217800D01*
X0106783Y0218234D02*
X0106783Y0219969D01*
X0106350Y0220402D01*
X0105482Y0220402D01*
X0105049Y0219969D01*
X0103837Y0220402D02*
X0103837Y0217800D01*
X0102102Y0217800D02*
X0102102Y0220402D01*
X0100890Y0220402D02*
X0099589Y0220402D01*
X0099155Y0219969D01*
X0099155Y0218234D01*
X0099589Y0217800D01*
X0100890Y0217800D01*
X0100890Y0220402D01*
X0102102Y0217800D02*
X0103837Y0220402D01*
X0103403Y0227800D02*
X0102536Y0227800D01*
X0102102Y0228234D01*
X0100890Y0228234D02*
X0100457Y0227800D01*
X0099589Y0227800D01*
X0099155Y0228234D01*
X0099155Y0229969D02*
X0099589Y0230402D01*
X0100457Y0230402D01*
X0100890Y0229969D01*
X0100890Y0228234D01*
X0102102Y0229969D02*
X0102536Y0230402D01*
X0103403Y0230402D01*
X0103837Y0229969D01*
X0103837Y0228234D01*
X0103403Y0227800D01*
X0105049Y0228667D02*
X0105049Y0230402D01*
X0106783Y0230402D02*
X0106783Y0228667D01*
X0105916Y0227800D01*
X0105049Y0228667D01*
X0300405Y0228234D02*
X0300839Y0227800D01*
X0301707Y0227800D01*
X0302140Y0228234D01*
X0302140Y0229969D01*
X0301707Y0230402D01*
X0300839Y0230402D01*
X0300405Y0229969D01*
X0303352Y0229969D02*
X0303786Y0230402D01*
X0304653Y0230402D01*
X0305087Y0229969D01*
X0305087Y0228234D01*
X0304653Y0227800D01*
X0303786Y0227800D01*
X0303352Y0228234D01*
X0306299Y0228667D02*
X0306299Y0230402D01*
X0308033Y0230402D02*
X0308033Y0228667D01*
X0307166Y0227800D01*
X0306299Y0228667D01*
X0306732Y0220402D02*
X0307600Y0220402D01*
X0308033Y0219969D01*
X0308033Y0218234D01*
X0307600Y0217800D01*
X0306732Y0217800D01*
X0306299Y0218234D01*
X0306299Y0219101D01*
X0307166Y0219101D01*
X0306299Y0219969D02*
X0306732Y0220402D01*
X0305087Y0220402D02*
X0303352Y0217800D01*
X0303352Y0220402D01*
X0302140Y0220402D02*
X0300839Y0220402D01*
X0300405Y0219969D01*
X0300405Y0218234D01*
X0300839Y0217800D01*
X0302140Y0217800D01*
X0302140Y0220402D01*
X0305087Y0220402D02*
X0305087Y0217800D01*
X0305087Y0210402D02*
X0304219Y0210402D01*
X0303786Y0210402D02*
X0304653Y0210402D01*
X0304653Y0207800D01*
X0303786Y0207800D01*
X0303352Y0208234D01*
X0304219Y0207800D02*
X0305087Y0207800D01*
X0305087Y0208234D02*
X0304653Y0207800D01*
X0305087Y0208234D02*
X0305087Y0209969D01*
X0304653Y0210402D01*
X0303786Y0210402D02*
X0303352Y0209969D01*
X0302140Y0209969D02*
X0302140Y0208234D01*
X0301707Y0207800D01*
X0300839Y0207800D01*
X0300405Y0208234D01*
X0300405Y0209969D02*
X0300839Y0210402D01*
X0301707Y0210402D01*
X0302140Y0209969D01*
X0306299Y0209969D02*
X0306732Y0210402D01*
X0308033Y0210402D01*
X0308033Y0207800D01*
X0306732Y0207800D01*
X0306299Y0208234D01*
X0306299Y0209969D01*
X0306299Y0210402D02*
X0306299Y0208667D01*
X0307166Y0207800D01*
X0308033Y0208667D01*
X0308033Y0210402D01*
X0308033Y0200402D02*
X0306732Y0200402D01*
X0306299Y0199969D01*
X0306299Y0198234D01*
X0306732Y0197800D01*
X0308033Y0197800D01*
X0308033Y0200402D01*
X0305087Y0199969D02*
X0305087Y0198234D01*
X0304653Y0197800D01*
X0303786Y0197800D01*
X0303352Y0198234D01*
X0303352Y0199969D01*
X0303786Y0200402D01*
X0304653Y0200402D01*
X0305087Y0199969D01*
M02*
