G75*
%MOIN*%
%OFA0B0*%
%FSLAX25Y25*%
%IPPOS*%
%LPD*%
%AMOC8*
5,1,8,0,0,1.08239X$1,22.5*
%
%ADD10C,0.05800*%
%ADD11R,0.04737X0.18910*%
%ADD12R,0.14186X0.07099*%
%ADD13R,0.03556X0.06706*%
%ADD14R,0.04737X0.03162*%
%ADD15R,0.04737X0.03950*%
%ADD16C,0.04343*%
D10*
X0203333Y0081875D03*
X0203333Y0138750D03*
X0113333Y0171250D03*
X0112708Y0227500D03*
X0293333Y0227500D03*
X0293333Y0171250D03*
D11*
G36*
X0278282Y0177906D02*
X0274933Y0181255D01*
X0288304Y0194626D01*
X0291653Y0191277D01*
X0278282Y0177906D01*
G37*
G36*
X0272714Y0183474D02*
X0269365Y0186823D01*
X0282736Y0200194D01*
X0286085Y0196845D01*
X0272714Y0183474D01*
G37*
D12*
G36*
X0249042Y0181534D02*
X0259072Y0191564D01*
X0264092Y0186544D01*
X0254062Y0176514D01*
X0249042Y0181534D01*
G37*
G36*
X0267973Y0162604D02*
X0278003Y0172634D01*
X0283023Y0167614D01*
X0272993Y0157584D01*
X0267973Y0162604D01*
G37*
D13*
G36*
X0127362Y0187736D02*
X0124847Y0190251D01*
X0129588Y0194992D01*
X0132103Y0192477D01*
X0127362Y0187736D01*
G37*
G36*
X0123186Y0191912D02*
X0120671Y0194427D01*
X0125412Y0199168D01*
X0127927Y0196653D01*
X0123186Y0191912D01*
G37*
G36*
X0114835Y0200264D02*
X0112320Y0202779D01*
X0117061Y0207520D01*
X0119576Y0205005D01*
X0114835Y0200264D01*
G37*
D14*
G36*
X0119150Y0218237D02*
X0122498Y0214889D01*
X0120262Y0212653D01*
X0116914Y0216001D01*
X0119150Y0218237D01*
G37*
G36*
X0139472Y0197915D02*
X0142820Y0194567D01*
X0140584Y0192331D01*
X0137236Y0195679D01*
X0139472Y0197915D01*
G37*
D15*
G36*
X0133905Y0192347D02*
X0137252Y0189000D01*
X0134459Y0186207D01*
X0131112Y0189554D01*
X0133905Y0192347D01*
G37*
G36*
X0113583Y0212669D02*
X0116930Y0209322D01*
X0114137Y0206529D01*
X0110790Y0209876D01*
X0113583Y0212669D01*
G37*
D16*
X0122908Y0206676D03*
X0131259Y0198324D03*
M02*
