G75*
%MOIN*%
%OFA0B0*%
%FSLAX25Y25*%
%IPPOS*%
%LPD*%
%AMOC8*
5,1,8,0,0,1.08239X$1,22.5*
%
%ADD10R,0.05512X0.04724*%
%ADD11R,0.03937X0.04331*%
%ADD12C,0.01000*%
%ADD13C,0.04362*%
%ADD14C,0.04000*%
D10*
X0203333Y0104094D03*
X0203333Y0115906D03*
X0223333Y0122844D03*
X0223333Y0134656D03*
X0243333Y0142844D03*
X0243333Y0154656D03*
X0263333Y0162844D03*
X0263333Y0174656D03*
X0283333Y0182844D03*
X0283333Y0194656D03*
X0183333Y0134656D03*
X0183333Y0122844D03*
X0163333Y0142844D03*
X0163333Y0154656D03*
X0143333Y0162844D03*
X0143333Y0174656D03*
X0123333Y0182844D03*
X0123333Y0194656D03*
D11*
X0113333Y0192096D03*
X0113333Y0185404D03*
X0133333Y0172096D03*
X0133333Y0165404D03*
X0153333Y0152096D03*
X0153333Y0145404D03*
X0173333Y0132096D03*
X0173333Y0125404D03*
X0203333Y0124779D03*
X0203333Y0131471D03*
X0233333Y0132096D03*
X0233333Y0125404D03*
X0253333Y0145404D03*
X0253333Y0152096D03*
X0273333Y0165404D03*
X0273333Y0172096D03*
X0293333Y0185404D03*
X0293333Y0192096D03*
D12*
X0182280Y0100725D02*
X0179328Y0100725D01*
X0178330Y0101723D02*
X0181282Y0101723D01*
X0180283Y0102722D02*
X0177331Y0102722D01*
X0176333Y0103720D02*
X0179285Y0103720D01*
X0178286Y0104719D02*
X0175334Y0104719D01*
X0174336Y0105717D02*
X0177288Y0105717D01*
X0176289Y0106716D02*
X0173337Y0106716D01*
X0172339Y0107714D02*
X0175291Y0107714D01*
X0175083Y0107922D02*
X0176255Y0106750D01*
X0195005Y0088000D01*
X0212912Y0088000D01*
X0230099Y0105187D01*
X0231271Y0106359D01*
X0231271Y0106359D01*
X0252912Y0128000D01*
X0254083Y0129172D01*
X0270412Y0145500D01*
X0271583Y0146672D01*
X0285333Y0160422D01*
X0285333Y0179182D01*
X0286628Y0179182D01*
X0287389Y0179944D01*
X0287389Y0185745D01*
X0286628Y0186507D01*
X0280039Y0186507D01*
X0279277Y0185745D01*
X0279277Y0179944D01*
X0280039Y0179182D01*
X0281333Y0179182D01*
X0281333Y0162078D01*
X0269583Y0150328D01*
X0265333Y0154578D01*
X0265333Y0159182D01*
X0266628Y0159182D01*
X0267389Y0159944D01*
X0267389Y0165745D01*
X0266628Y0166507D01*
X0260039Y0166507D01*
X0259277Y0165745D01*
X0259277Y0159944D01*
X0260039Y0159182D01*
X0261333Y0159182D01*
X0261333Y0152922D01*
X0266755Y0147500D01*
X0252083Y0132828D01*
X0245729Y0139182D01*
X0246628Y0139182D01*
X0247389Y0139944D01*
X0247389Y0145745D01*
X0246628Y0146507D01*
X0240039Y0146507D01*
X0239277Y0145745D01*
X0239277Y0139944D01*
X0240039Y0139182D01*
X0241333Y0139182D01*
X0241333Y0137922D01*
X0249255Y0130000D01*
X0229271Y0110016D01*
X0225333Y0113953D01*
X0225333Y0119182D01*
X0226628Y0119182D01*
X0227389Y0119944D01*
X0227389Y0125745D01*
X0226628Y0126507D01*
X0220039Y0126507D01*
X0219277Y0125745D01*
X0219277Y0119944D01*
X0220039Y0119182D01*
X0221333Y0119182D01*
X0221333Y0112297D01*
X0226442Y0107187D01*
X0211255Y0092000D01*
X0205333Y0092000D01*
X0205333Y0093719D01*
X0205419Y0093754D01*
X0206454Y0094790D01*
X0207014Y0096143D01*
X0207014Y0097607D01*
X0206454Y0098960D01*
X0205419Y0099996D01*
X0205333Y0100031D01*
X0205333Y0100432D01*
X0206628Y0100432D01*
X0207389Y0101194D01*
X0207389Y0106995D01*
X0206628Y0107757D01*
X0200039Y0107757D01*
X0199277Y0106995D01*
X0199277Y0101194D01*
X0200039Y0100432D01*
X0201333Y0100432D01*
X0201333Y0100031D01*
X0201248Y0099996D01*
X0200213Y0098960D01*
X0199652Y0097607D01*
X0199652Y0096143D01*
X0200213Y0094790D01*
X0201248Y0093754D01*
X0201333Y0093719D01*
X0201333Y0092000D01*
X0196662Y0092000D01*
X0179912Y0108750D01*
X0185333Y0114172D01*
X0185333Y0119182D01*
X0186628Y0119182D01*
X0187389Y0119944D01*
X0187389Y0125745D01*
X0186628Y0126507D01*
X0180039Y0126507D01*
X0179277Y0125745D01*
X0179277Y0119944D01*
X0180039Y0119182D01*
X0181333Y0119182D01*
X0181333Y0115828D01*
X0177083Y0111578D01*
X0160849Y0127812D01*
X0165333Y0132297D01*
X0165333Y0139182D01*
X0166628Y0139182D01*
X0167389Y0139944D01*
X0167389Y0145745D01*
X0166628Y0146507D01*
X0160039Y0146507D01*
X0159277Y0145745D01*
X0159277Y0139944D01*
X0160039Y0139182D01*
X0161333Y0139182D01*
X0161333Y0133953D01*
X0158021Y0130641D01*
X0138974Y0149687D01*
X0145333Y0156047D01*
X0145333Y0159182D01*
X0146628Y0159182D01*
X0147389Y0159944D01*
X0147389Y0165745D01*
X0146628Y0166507D01*
X0140039Y0166507D01*
X0139277Y0165745D01*
X0139277Y0159944D01*
X0140039Y0159182D01*
X0141333Y0159182D01*
X0141333Y0157703D01*
X0136146Y0152516D01*
X0124083Y0164578D01*
X0124083Y0179182D01*
X0126628Y0179182D01*
X0127389Y0179944D01*
X0127389Y0185745D01*
X0126628Y0186507D01*
X0120039Y0186507D01*
X0119277Y0185745D01*
X0119277Y0179944D01*
X0120039Y0179182D01*
X0120083Y0179182D01*
X0120083Y0162922D01*
X0121255Y0161750D01*
X0134146Y0148859D01*
X0135317Y0147688D01*
X0156021Y0126984D01*
X0157192Y0125812D01*
X0175083Y0107922D01*
X0175083Y0107922D01*
X0174292Y0108713D02*
X0171340Y0108713D01*
X0170342Y0109711D02*
X0173294Y0109711D01*
X0172295Y0110710D02*
X0169343Y0110710D01*
X0168345Y0111708D02*
X0171297Y0111708D01*
X0170298Y0112707D02*
X0167346Y0112707D01*
X0166348Y0113705D02*
X0169300Y0113705D01*
X0168301Y0114704D02*
X0165349Y0114704D01*
X0164351Y0115702D02*
X0167303Y0115702D01*
X0166304Y0116701D02*
X0163352Y0116701D01*
X0162354Y0117699D02*
X0165306Y0117699D01*
X0164307Y0118698D02*
X0161355Y0118698D01*
X0160357Y0119696D02*
X0163308Y0119696D01*
X0162310Y0120695D02*
X0159358Y0120695D01*
X0158360Y0121693D02*
X0161311Y0121693D01*
X0160313Y0122692D02*
X0157361Y0122692D01*
X0156363Y0123690D02*
X0159314Y0123690D01*
X0158316Y0124689D02*
X0155364Y0124689D01*
X0154366Y0125687D02*
X0157317Y0125687D01*
X0156319Y0126686D02*
X0153367Y0126686D01*
X0152369Y0127684D02*
X0155320Y0127684D01*
X0154322Y0128683D02*
X0151370Y0128683D01*
X0150372Y0129682D02*
X0153323Y0129682D01*
X0152325Y0130680D02*
X0149373Y0130680D01*
X0148375Y0131679D02*
X0151326Y0131679D01*
X0150328Y0132677D02*
X0147376Y0132677D01*
X0146378Y0133676D02*
X0149329Y0133676D01*
X0148331Y0134674D02*
X0145379Y0134674D01*
X0144381Y0135673D02*
X0147332Y0135673D01*
X0146334Y0136671D02*
X0143382Y0136671D01*
X0142384Y0137670D02*
X0145335Y0137670D01*
X0144337Y0138668D02*
X0141385Y0138668D01*
X0140387Y0139667D02*
X0143338Y0139667D01*
X0142340Y0140665D02*
X0139388Y0140665D01*
X0138389Y0141664D02*
X0141341Y0141664D01*
X0140343Y0142662D02*
X0137391Y0142662D01*
X0136392Y0143661D02*
X0139344Y0143661D01*
X0138346Y0144659D02*
X0135394Y0144659D01*
X0134395Y0145658D02*
X0137347Y0145658D01*
X0136349Y0146656D02*
X0133397Y0146656D01*
X0132398Y0147655D02*
X0135350Y0147655D01*
X0134352Y0148653D02*
X0131400Y0148653D01*
X0130401Y0149652D02*
X0133353Y0149652D01*
X0132355Y0150650D02*
X0129403Y0150650D01*
X0128404Y0151649D02*
X0131356Y0151649D01*
X0130358Y0152647D02*
X0127406Y0152647D01*
X0126407Y0153646D02*
X0129359Y0153646D01*
X0128361Y0154644D02*
X0125409Y0154644D01*
X0124410Y0155643D02*
X0127362Y0155643D01*
X0126364Y0156641D02*
X0123412Y0156641D01*
X0122413Y0157640D02*
X0125365Y0157640D01*
X0124367Y0158638D02*
X0121415Y0158638D01*
X0120416Y0159637D02*
X0123368Y0159637D01*
X0122370Y0160635D02*
X0119418Y0160635D01*
X0118419Y0161634D02*
X0121371Y0161634D01*
X0120373Y0162632D02*
X0117421Y0162632D01*
X0116422Y0163631D02*
X0120083Y0163631D01*
X0120083Y0164629D02*
X0115424Y0164629D01*
X0114425Y0165628D02*
X0120083Y0165628D01*
X0120083Y0166626D02*
X0113427Y0166626D01*
X0114089Y0167450D02*
X0115486Y0168029D01*
X0116555Y0169097D01*
X0117133Y0170494D01*
X0117133Y0172006D01*
X0116555Y0173403D01*
X0115486Y0174471D01*
X0114089Y0175050D01*
X0112577Y0175050D01*
X0111181Y0174471D01*
X0110433Y0173724D01*
X0110433Y0182048D01*
X0110444Y0182038D01*
X0110786Y0181840D01*
X0111167Y0181738D01*
X0112849Y0181738D01*
X0112849Y0184919D01*
X0113818Y0184919D01*
X0113818Y0185888D01*
X0116802Y0185888D01*
X0116802Y0187766D01*
X0116700Y0188148D01*
X0116502Y0188490D01*
X0116223Y0188769D01*
X0116068Y0188859D01*
X0116602Y0189393D01*
X0116602Y0194800D01*
X0115840Y0195562D01*
X0115333Y0195562D01*
X0115333Y0197922D01*
X0116662Y0199250D01*
X0120005Y0199250D01*
X0120937Y0198318D01*
X0120039Y0198318D01*
X0119277Y0197556D01*
X0119277Y0191755D01*
X0120039Y0190993D01*
X0126628Y0190993D01*
X0127389Y0191755D01*
X0127389Y0197556D01*
X0126628Y0198318D01*
X0125333Y0198318D01*
X0125333Y0199578D01*
X0122833Y0202078D01*
X0121662Y0203250D01*
X0115005Y0203250D01*
X0112505Y0200750D01*
X0111333Y0199578D01*
X0111333Y0195562D01*
X0110826Y0195562D01*
X0110433Y0195169D01*
X0110433Y0224401D01*
X0110556Y0224279D01*
X0111952Y0223700D01*
X0113464Y0223700D01*
X0114861Y0224279D01*
X0115930Y0225347D01*
X0116508Y0226744D01*
X0116508Y0227605D01*
X0201860Y0142253D01*
X0201181Y0141971D01*
X0200112Y0140903D01*
X0199533Y0139506D01*
X0199533Y0137994D01*
X0200112Y0136597D01*
X0201181Y0135529D01*
X0202127Y0135137D01*
X0201167Y0135137D01*
X0200786Y0135035D01*
X0200444Y0134837D01*
X0200165Y0134558D01*
X0199967Y0134216D01*
X0199865Y0133834D01*
X0199865Y0131956D01*
X0202849Y0131956D01*
X0202849Y0130987D01*
X0199865Y0130987D01*
X0199865Y0129109D01*
X0199967Y0128727D01*
X0200165Y0128385D01*
X0200444Y0128106D01*
X0200599Y0128016D01*
X0200065Y0127482D01*
X0200065Y0122075D01*
X0200826Y0121313D01*
X0201333Y0121313D01*
X0201333Y0119568D01*
X0200039Y0119568D01*
X0199277Y0118806D01*
X0199277Y0113005D01*
X0200039Y0112243D01*
X0206628Y0112243D01*
X0207389Y0113005D01*
X0207389Y0118806D01*
X0206628Y0119568D01*
X0205333Y0119568D01*
X0205333Y0121313D01*
X0205840Y0121313D01*
X0206602Y0122075D01*
X0206602Y0127482D01*
X0206068Y0128016D01*
X0206223Y0128106D01*
X0206502Y0128385D01*
X0206700Y0128727D01*
X0206802Y0129109D01*
X0206802Y0130987D01*
X0203818Y0130987D01*
X0203818Y0131956D01*
X0206802Y0131956D01*
X0206802Y0133834D01*
X0206700Y0134216D01*
X0206502Y0134558D01*
X0206223Y0134837D01*
X0205881Y0135035D01*
X0205499Y0135137D01*
X0204540Y0135137D01*
X0205486Y0135529D01*
X0206555Y0136597D01*
X0207133Y0137994D01*
X0207133Y0139506D01*
X0206555Y0140903D01*
X0205486Y0141971D01*
X0204806Y0142253D01*
X0205433Y0142880D01*
X0289533Y0226980D01*
X0289533Y0226744D01*
X0290112Y0225347D01*
X0291181Y0224279D01*
X0292577Y0223700D01*
X0294089Y0223700D01*
X0295486Y0224279D01*
X0296233Y0225026D01*
X0296233Y0195169D01*
X0295840Y0195562D01*
X0295333Y0195562D01*
X0295333Y0199578D01*
X0292833Y0202078D01*
X0291662Y0203250D01*
X0283755Y0203250D01*
X0281333Y0200828D01*
X0281333Y0198318D01*
X0280039Y0198318D01*
X0279277Y0197556D01*
X0279277Y0191755D01*
X0280039Y0190993D01*
X0286628Y0190993D01*
X0287389Y0191755D01*
X0287389Y0197556D01*
X0286628Y0198318D01*
X0285333Y0198318D01*
X0285333Y0199172D01*
X0285412Y0199250D01*
X0290005Y0199250D01*
X0291333Y0197922D01*
X0291333Y0195562D01*
X0290826Y0195562D01*
X0290065Y0194800D01*
X0290065Y0189393D01*
X0290599Y0188859D01*
X0290444Y0188769D01*
X0290165Y0188490D01*
X0289967Y0188148D01*
X0289865Y0187766D01*
X0289865Y0185888D01*
X0292849Y0185888D01*
X0292849Y0184919D01*
X0293818Y0184919D01*
X0293818Y0181738D01*
X0295499Y0181738D01*
X0295881Y0181840D01*
X0296223Y0182038D01*
X0296233Y0182048D01*
X0296233Y0173724D01*
X0295486Y0174471D01*
X0294089Y0175050D01*
X0292577Y0175050D01*
X0291181Y0174471D01*
X0290112Y0173403D01*
X0289533Y0172006D01*
X0289533Y0170494D01*
X0290112Y0169097D01*
X0291181Y0168029D01*
X0292577Y0167450D01*
X0294063Y0167450D01*
X0206710Y0080096D01*
X0207133Y0081119D01*
X0207133Y0082631D01*
X0206555Y0084028D01*
X0205486Y0085096D01*
X0204089Y0085675D01*
X0202577Y0085675D01*
X0201181Y0085096D01*
X0200112Y0084028D01*
X0199533Y0082631D01*
X0199533Y0081119D01*
X0199957Y0080096D01*
X0112603Y0167450D01*
X0114089Y0167450D01*
X0114512Y0167625D02*
X0120083Y0167625D01*
X0120083Y0168623D02*
X0116081Y0168623D01*
X0116772Y0169622D02*
X0120083Y0169622D01*
X0120083Y0170620D02*
X0117133Y0170620D01*
X0117133Y0171619D02*
X0120083Y0171619D01*
X0120083Y0172618D02*
X0116880Y0172618D01*
X0116341Y0173616D02*
X0120083Y0173616D01*
X0120083Y0174615D02*
X0115140Y0174615D01*
X0111526Y0174615D02*
X0110433Y0174615D01*
X0110433Y0175613D02*
X0120083Y0175613D01*
X0120083Y0176612D02*
X0110433Y0176612D01*
X0110433Y0177610D02*
X0120083Y0177610D01*
X0120083Y0178609D02*
X0110433Y0178609D01*
X0110433Y0179607D02*
X0119614Y0179607D01*
X0119277Y0180606D02*
X0110433Y0180606D01*
X0110433Y0181604D02*
X0119277Y0181604D01*
X0119277Y0182603D02*
X0116667Y0182603D01*
X0116700Y0182659D02*
X0116802Y0183041D01*
X0116802Y0184919D01*
X0113818Y0184919D01*
X0113818Y0181738D01*
X0115499Y0181738D01*
X0115881Y0181840D01*
X0116223Y0182038D01*
X0116502Y0182317D01*
X0116700Y0182659D01*
X0116802Y0183601D02*
X0119277Y0183601D01*
X0119277Y0184600D02*
X0116802Y0184600D01*
X0116802Y0186597D02*
X0157517Y0186597D01*
X0156518Y0187595D02*
X0116802Y0187595D01*
X0116398Y0188594D02*
X0155520Y0188594D01*
X0154521Y0189592D02*
X0116602Y0189592D01*
X0116602Y0190591D02*
X0153523Y0190591D01*
X0152524Y0191589D02*
X0127224Y0191589D01*
X0127389Y0192588D02*
X0151526Y0192588D01*
X0150527Y0193586D02*
X0127389Y0193586D01*
X0127389Y0194585D02*
X0149529Y0194585D01*
X0148530Y0195583D02*
X0132669Y0195583D01*
X0132999Y0195720D02*
X0133863Y0196584D01*
X0134331Y0197713D01*
X0134331Y0198935D01*
X0133863Y0200064D01*
X0132999Y0200928D01*
X0131870Y0201396D01*
X0130648Y0201396D01*
X0129519Y0200928D01*
X0128655Y0200064D01*
X0128188Y0198935D01*
X0128188Y0197713D01*
X0128655Y0196584D01*
X0129519Y0195720D01*
X0130648Y0195253D01*
X0131870Y0195253D01*
X0132999Y0195720D01*
X0133861Y0196582D02*
X0147532Y0196582D01*
X0146533Y0197580D02*
X0134276Y0197580D01*
X0134331Y0198579D02*
X0145535Y0198579D01*
X0144536Y0199577D02*
X0134065Y0199577D01*
X0133351Y0200576D02*
X0143538Y0200576D01*
X0142539Y0201574D02*
X0123337Y0201574D01*
X0122339Y0202573D02*
X0141541Y0202573D01*
X0140542Y0203571D02*
X0110433Y0203571D01*
X0110433Y0202573D02*
X0114328Y0202573D01*
X0113329Y0201574D02*
X0110433Y0201574D01*
X0110433Y0200576D02*
X0112331Y0200576D01*
X0111333Y0199577D02*
X0110433Y0199577D01*
X0110433Y0198579D02*
X0111333Y0198579D01*
X0111333Y0197580D02*
X0110433Y0197580D01*
X0110433Y0196582D02*
X0111333Y0196582D01*
X0111333Y0195583D02*
X0110433Y0195583D01*
X0113333Y0198750D02*
X0113333Y0192096D01*
X0116602Y0192588D02*
X0119277Y0192588D01*
X0119277Y0193586D02*
X0116602Y0193586D01*
X0116602Y0194585D02*
X0119277Y0194585D01*
X0119277Y0195583D02*
X0115333Y0195583D01*
X0115333Y0196582D02*
X0119277Y0196582D01*
X0119302Y0197580D02*
X0115333Y0197580D01*
X0115991Y0198579D02*
X0120676Y0198579D01*
X0123333Y0198750D02*
X0120833Y0201250D01*
X0115833Y0201250D01*
X0113333Y0198750D01*
X0120303Y0204936D02*
X0121168Y0204072D01*
X0122297Y0203604D01*
X0123518Y0203604D01*
X0124647Y0204072D01*
X0125512Y0204936D01*
X0125979Y0206065D01*
X0125979Y0207287D01*
X0125512Y0208416D01*
X0124647Y0209280D01*
X0123518Y0209747D01*
X0122297Y0209747D01*
X0121168Y0209280D01*
X0120303Y0208416D01*
X0119836Y0207287D01*
X0119836Y0206065D01*
X0120303Y0204936D01*
X0120669Y0204570D02*
X0110433Y0204570D01*
X0110433Y0205568D02*
X0120041Y0205568D01*
X0119836Y0206567D02*
X0110433Y0206567D01*
X0110433Y0207565D02*
X0119951Y0207565D01*
X0120452Y0208564D02*
X0110433Y0208564D01*
X0110433Y0209562D02*
X0121850Y0209562D01*
X0123965Y0209562D02*
X0134551Y0209562D01*
X0135550Y0208564D02*
X0125363Y0208564D01*
X0125864Y0207565D02*
X0136548Y0207565D01*
X0137547Y0206567D02*
X0125979Y0206567D01*
X0125774Y0205568D02*
X0138545Y0205568D01*
X0139544Y0204570D02*
X0125146Y0204570D01*
X0124336Y0200576D02*
X0129167Y0200576D01*
X0128454Y0199577D02*
X0125333Y0199577D01*
X0125333Y0198579D02*
X0128188Y0198579D01*
X0128243Y0197580D02*
X0127365Y0197580D01*
X0127389Y0196582D02*
X0128658Y0196582D01*
X0129850Y0195583D02*
X0127389Y0195583D01*
X0123333Y0194656D02*
X0123333Y0198750D01*
X0119443Y0191589D02*
X0116602Y0191589D01*
X0119277Y0185598D02*
X0113818Y0185598D01*
X0113818Y0184600D02*
X0112849Y0184600D01*
X0112849Y0183601D02*
X0113818Y0183601D01*
X0113818Y0182603D02*
X0112849Y0182603D01*
X0122083Y0181594D02*
X0123333Y0182844D01*
X0122083Y0181594D02*
X0122083Y0163750D01*
X0136146Y0149688D01*
X0143333Y0156875D01*
X0143333Y0162844D01*
X0139277Y0162632D02*
X0136684Y0162632D01*
X0136700Y0162659D02*
X0136802Y0163041D01*
X0136802Y0164919D01*
X0133818Y0164919D01*
X0133818Y0165888D01*
X0136802Y0165888D01*
X0136802Y0167766D01*
X0136700Y0168148D01*
X0136502Y0168490D01*
X0136223Y0168769D01*
X0136068Y0168859D01*
X0136602Y0169393D01*
X0136602Y0174800D01*
X0135840Y0175562D01*
X0135333Y0175562D01*
X0135333Y0177922D01*
X0136662Y0179250D01*
X0141255Y0179250D01*
X0141333Y0179172D01*
X0141333Y0178318D01*
X0140039Y0178318D01*
X0139277Y0177556D01*
X0139277Y0171755D01*
X0140039Y0170993D01*
X0146628Y0170993D01*
X0147389Y0171755D01*
X0147389Y0177556D01*
X0146628Y0178318D01*
X0145333Y0178318D01*
X0145333Y0180828D01*
X0144162Y0182000D01*
X0142912Y0183250D01*
X0135005Y0183250D01*
X0133833Y0182078D01*
X0131333Y0179578D01*
X0131333Y0175562D01*
X0130826Y0175562D01*
X0130065Y0174800D01*
X0130065Y0169393D01*
X0130599Y0168859D01*
X0130444Y0168769D01*
X0130165Y0168490D01*
X0129967Y0168148D01*
X0129865Y0167766D01*
X0129865Y0165888D01*
X0132849Y0165888D01*
X0132849Y0164919D01*
X0133818Y0164919D01*
X0133818Y0161738D01*
X0135499Y0161738D01*
X0135881Y0161840D01*
X0136223Y0162038D01*
X0136502Y0162317D01*
X0136700Y0162659D01*
X0136802Y0163631D02*
X0139277Y0163631D01*
X0139277Y0164629D02*
X0136802Y0164629D01*
X0136802Y0166626D02*
X0177487Y0166626D01*
X0178486Y0165628D02*
X0147389Y0165628D01*
X0147389Y0164629D02*
X0179484Y0164629D01*
X0180483Y0163631D02*
X0147389Y0163631D01*
X0147389Y0162632D02*
X0154387Y0162632D01*
X0153833Y0162078D02*
X0151333Y0159578D01*
X0151333Y0155562D01*
X0150826Y0155562D01*
X0150065Y0154800D01*
X0150065Y0149393D01*
X0150599Y0148859D01*
X0150444Y0148769D01*
X0150165Y0148490D01*
X0149967Y0148148D01*
X0149865Y0147766D01*
X0149865Y0145888D01*
X0152849Y0145888D01*
X0152849Y0144919D01*
X0153818Y0144919D01*
X0153818Y0145888D01*
X0156802Y0145888D01*
X0156802Y0147766D01*
X0156700Y0148148D01*
X0156502Y0148490D01*
X0156223Y0148769D01*
X0156068Y0148859D01*
X0156602Y0149393D01*
X0156602Y0154800D01*
X0155840Y0155562D01*
X0155333Y0155562D01*
X0155333Y0157922D01*
X0156662Y0159250D01*
X0161255Y0159250D01*
X0161333Y0159172D01*
X0161333Y0158318D01*
X0160039Y0158318D01*
X0159277Y0157556D01*
X0159277Y0151755D01*
X0160039Y0150993D01*
X0166628Y0150993D01*
X0167389Y0151755D01*
X0167389Y0157556D01*
X0166628Y0158318D01*
X0165333Y0158318D01*
X0165333Y0160828D01*
X0164162Y0162000D01*
X0162912Y0163250D01*
X0155005Y0163250D01*
X0153833Y0162078D01*
X0153389Y0161634D02*
X0147389Y0161634D01*
X0147389Y0160635D02*
X0152390Y0160635D01*
X0151392Y0159637D02*
X0147082Y0159637D01*
X0145333Y0158638D02*
X0151333Y0158638D01*
X0151333Y0157640D02*
X0145333Y0157640D01*
X0145333Y0156641D02*
X0151333Y0156641D01*
X0151333Y0155643D02*
X0144930Y0155643D01*
X0143931Y0154644D02*
X0150065Y0154644D01*
X0150065Y0153646D02*
X0142933Y0153646D01*
X0141934Y0152647D02*
X0150065Y0152647D01*
X0150065Y0151649D02*
X0140936Y0151649D01*
X0139937Y0150650D02*
X0150065Y0150650D01*
X0150065Y0149652D02*
X0139010Y0149652D01*
X0140008Y0148653D02*
X0150328Y0148653D01*
X0149865Y0147655D02*
X0141007Y0147655D01*
X0142006Y0146656D02*
X0149865Y0146656D01*
X0149865Y0144919D02*
X0149865Y0143041D01*
X0149967Y0142659D01*
X0150165Y0142317D01*
X0150444Y0142038D01*
X0150786Y0141840D01*
X0151167Y0141738D01*
X0152849Y0141738D01*
X0152849Y0144919D01*
X0149865Y0144919D01*
X0149865Y0144659D02*
X0144003Y0144659D01*
X0145001Y0143661D02*
X0149865Y0143661D01*
X0149966Y0142662D02*
X0146000Y0142662D01*
X0146998Y0141664D02*
X0159277Y0141664D01*
X0159277Y0142662D02*
X0156700Y0142662D01*
X0156700Y0142659D02*
X0156802Y0143041D01*
X0156802Y0144919D01*
X0153818Y0144919D01*
X0153818Y0141738D01*
X0155499Y0141738D01*
X0155881Y0141840D01*
X0156223Y0142038D01*
X0156502Y0142317D01*
X0156700Y0142659D01*
X0156802Y0143661D02*
X0159277Y0143661D01*
X0159277Y0144659D02*
X0156802Y0144659D01*
X0156802Y0146656D02*
X0197457Y0146656D01*
X0196459Y0147655D02*
X0156802Y0147655D01*
X0156339Y0148653D02*
X0195460Y0148653D01*
X0194462Y0149652D02*
X0156602Y0149652D01*
X0156602Y0150650D02*
X0193463Y0150650D01*
X0192465Y0151649D02*
X0167283Y0151649D01*
X0167389Y0152647D02*
X0191466Y0152647D01*
X0190468Y0153646D02*
X0167389Y0153646D01*
X0167389Y0154644D02*
X0189469Y0154644D01*
X0188471Y0155643D02*
X0167389Y0155643D01*
X0167389Y0156641D02*
X0187472Y0156641D01*
X0186474Y0157640D02*
X0167306Y0157640D01*
X0165333Y0158638D02*
X0185475Y0158638D01*
X0184477Y0159637D02*
X0165333Y0159637D01*
X0165333Y0160635D02*
X0183478Y0160635D01*
X0182480Y0161634D02*
X0164528Y0161634D01*
X0163529Y0162632D02*
X0181481Y0162632D01*
X0176489Y0167625D02*
X0136802Y0167625D01*
X0136369Y0168623D02*
X0175490Y0168623D01*
X0174492Y0169622D02*
X0136602Y0169622D01*
X0136602Y0170620D02*
X0173493Y0170620D01*
X0172494Y0171619D02*
X0147253Y0171619D01*
X0147389Y0172618D02*
X0171496Y0172618D01*
X0170497Y0173616D02*
X0147389Y0173616D01*
X0147389Y0174615D02*
X0169499Y0174615D01*
X0168500Y0175613D02*
X0147389Y0175613D01*
X0147389Y0176612D02*
X0167502Y0176612D01*
X0166503Y0177610D02*
X0147335Y0177610D01*
X0145333Y0178609D02*
X0165505Y0178609D01*
X0164506Y0179607D02*
X0145333Y0179607D01*
X0145333Y0180606D02*
X0163508Y0180606D01*
X0162509Y0181604D02*
X0144558Y0181604D01*
X0143559Y0182603D02*
X0161511Y0182603D01*
X0160512Y0183601D02*
X0127389Y0183601D01*
X0127389Y0182603D02*
X0134358Y0182603D01*
X0133359Y0181604D02*
X0127389Y0181604D01*
X0127389Y0180606D02*
X0132361Y0180606D01*
X0131362Y0179607D02*
X0127053Y0179607D01*
X0124083Y0178609D02*
X0131333Y0178609D01*
X0131333Y0177610D02*
X0124083Y0177610D01*
X0124083Y0176612D02*
X0131333Y0176612D01*
X0131333Y0175613D02*
X0124083Y0175613D01*
X0124083Y0174615D02*
X0130065Y0174615D01*
X0130065Y0173616D02*
X0124083Y0173616D01*
X0124083Y0172618D02*
X0130065Y0172618D01*
X0130065Y0171619D02*
X0124083Y0171619D01*
X0124083Y0170620D02*
X0130065Y0170620D01*
X0130065Y0169622D02*
X0124083Y0169622D01*
X0124083Y0168623D02*
X0130298Y0168623D01*
X0129865Y0167625D02*
X0124083Y0167625D01*
X0124083Y0166626D02*
X0129865Y0166626D01*
X0129865Y0164919D02*
X0129865Y0163041D01*
X0129967Y0162659D01*
X0130165Y0162317D01*
X0130444Y0162038D01*
X0130786Y0161840D01*
X0131167Y0161738D01*
X0132849Y0161738D01*
X0132849Y0164919D01*
X0129865Y0164919D01*
X0129865Y0164629D02*
X0124083Y0164629D01*
X0124083Y0165628D02*
X0132849Y0165628D01*
X0133818Y0165628D02*
X0139277Y0165628D01*
X0139277Y0161634D02*
X0127028Y0161634D01*
X0128026Y0160635D02*
X0139277Y0160635D01*
X0139584Y0159637D02*
X0129025Y0159637D01*
X0130023Y0158638D02*
X0141333Y0158638D01*
X0141270Y0157640D02*
X0131022Y0157640D01*
X0132020Y0156641D02*
X0140271Y0156641D01*
X0139273Y0155643D02*
X0133019Y0155643D01*
X0134017Y0154644D02*
X0138274Y0154644D01*
X0137276Y0153646D02*
X0135016Y0153646D01*
X0136014Y0152647D02*
X0136277Y0152647D01*
X0136146Y0149688D02*
X0158021Y0127812D01*
X0163333Y0133125D01*
X0163333Y0142844D01*
X0167389Y0142662D02*
X0173167Y0142662D01*
X0172583Y0142078D02*
X0171333Y0140828D01*
X0171333Y0135562D01*
X0170826Y0135562D01*
X0170065Y0134800D01*
X0170065Y0129393D01*
X0170599Y0128859D01*
X0170444Y0128769D01*
X0170165Y0128490D01*
X0169967Y0128148D01*
X0169865Y0127766D01*
X0169865Y0125888D01*
X0172849Y0125888D01*
X0172849Y0124919D01*
X0173818Y0124919D01*
X0173818Y0125888D01*
X0176802Y0125888D01*
X0176802Y0127766D01*
X0176700Y0128148D01*
X0176502Y0128490D01*
X0176223Y0128769D01*
X0176068Y0128859D01*
X0176602Y0129393D01*
X0176602Y0134800D01*
X0175840Y0135562D01*
X0175333Y0135562D01*
X0175333Y0139172D01*
X0175412Y0139250D01*
X0181255Y0139250D01*
X0181333Y0139172D01*
X0181333Y0138318D01*
X0180039Y0138318D01*
X0179277Y0137556D01*
X0179277Y0131755D01*
X0180039Y0130993D01*
X0186628Y0130993D01*
X0187389Y0131755D01*
X0187389Y0137556D01*
X0186628Y0138318D01*
X0185333Y0138318D01*
X0185333Y0140828D01*
X0184162Y0142000D01*
X0182912Y0143250D01*
X0173755Y0143250D01*
X0172583Y0142078D01*
X0172169Y0141664D02*
X0167389Y0141664D01*
X0167389Y0140665D02*
X0171333Y0140665D01*
X0171333Y0139667D02*
X0167112Y0139667D01*
X0165333Y0138668D02*
X0171333Y0138668D01*
X0171333Y0137670D02*
X0165333Y0137670D01*
X0165333Y0136671D02*
X0171333Y0136671D01*
X0171333Y0135673D02*
X0165333Y0135673D01*
X0165333Y0134674D02*
X0170065Y0134674D01*
X0170065Y0133676D02*
X0165333Y0133676D01*
X0165333Y0132677D02*
X0170065Y0132677D01*
X0170065Y0131679D02*
X0164715Y0131679D01*
X0163717Y0130680D02*
X0170065Y0130680D01*
X0170065Y0129682D02*
X0162718Y0129682D01*
X0161720Y0128683D02*
X0170358Y0128683D01*
X0169865Y0127684D02*
X0160977Y0127684D01*
X0161976Y0126686D02*
X0169865Y0126686D01*
X0169865Y0124919D02*
X0169865Y0123041D01*
X0169967Y0122659D01*
X0170165Y0122317D01*
X0170444Y0122038D01*
X0170786Y0121840D01*
X0171167Y0121738D01*
X0172849Y0121738D01*
X0172849Y0124919D01*
X0169865Y0124919D01*
X0169865Y0124689D02*
X0163973Y0124689D01*
X0164971Y0123690D02*
X0169865Y0123690D01*
X0169958Y0122692D02*
X0165970Y0122692D01*
X0166968Y0121693D02*
X0179277Y0121693D01*
X0179277Y0120695D02*
X0167967Y0120695D01*
X0168965Y0119696D02*
X0179525Y0119696D01*
X0181333Y0118698D02*
X0169964Y0118698D01*
X0170962Y0117699D02*
X0181333Y0117699D01*
X0181333Y0116701D02*
X0171961Y0116701D01*
X0172959Y0115702D02*
X0181207Y0115702D01*
X0180209Y0114704D02*
X0173958Y0114704D01*
X0174956Y0113705D02*
X0179210Y0113705D01*
X0178212Y0112707D02*
X0175955Y0112707D01*
X0176953Y0111708D02*
X0177213Y0111708D01*
X0177083Y0108750D02*
X0183333Y0115000D01*
X0183333Y0122844D01*
X0179277Y0122692D02*
X0176708Y0122692D01*
X0176700Y0122659D02*
X0176802Y0123041D01*
X0176802Y0124919D01*
X0173818Y0124919D01*
X0173818Y0121738D01*
X0175499Y0121738D01*
X0175881Y0121840D01*
X0176223Y0122038D01*
X0176502Y0122317D01*
X0176700Y0122659D01*
X0176802Y0123690D02*
X0179277Y0123690D01*
X0179277Y0124689D02*
X0176802Y0124689D01*
X0176802Y0126686D02*
X0200065Y0126686D01*
X0200065Y0125687D02*
X0187389Y0125687D01*
X0187389Y0124689D02*
X0200065Y0124689D01*
X0200065Y0123690D02*
X0187389Y0123690D01*
X0187389Y0122692D02*
X0200065Y0122692D01*
X0200446Y0121693D02*
X0187389Y0121693D01*
X0187389Y0120695D02*
X0201333Y0120695D01*
X0201333Y0119696D02*
X0187142Y0119696D01*
X0185333Y0118698D02*
X0199277Y0118698D01*
X0199277Y0117699D02*
X0185333Y0117699D01*
X0185333Y0116701D02*
X0199277Y0116701D01*
X0199277Y0115702D02*
X0185333Y0115702D01*
X0185333Y0114704D02*
X0199277Y0114704D01*
X0199277Y0113705D02*
X0184867Y0113705D01*
X0183869Y0112707D02*
X0199575Y0112707D01*
X0203333Y0115906D02*
X0203333Y0124779D01*
X0206602Y0124689D02*
X0219277Y0124689D01*
X0219277Y0125687D02*
X0206602Y0125687D01*
X0206602Y0126686D02*
X0229865Y0126686D01*
X0229865Y0125888D02*
X0229865Y0127766D01*
X0229967Y0128148D01*
X0230165Y0128490D01*
X0230444Y0128769D01*
X0230599Y0128859D01*
X0230065Y0129393D01*
X0230065Y0134800D01*
X0230826Y0135562D01*
X0231333Y0135562D01*
X0231333Y0137922D01*
X0227505Y0141750D01*
X0226662Y0141750D01*
X0225333Y0140422D01*
X0225333Y0138318D01*
X0226628Y0138318D01*
X0227389Y0137556D01*
X0227389Y0131755D01*
X0226628Y0130993D01*
X0220039Y0130993D01*
X0219277Y0131755D01*
X0219277Y0137556D01*
X0220039Y0138318D01*
X0221333Y0138318D01*
X0221333Y0142078D01*
X0223833Y0144578D01*
X0225005Y0145750D01*
X0229162Y0145750D01*
X0230333Y0144578D01*
X0235333Y0139578D01*
X0235333Y0135562D01*
X0235840Y0135562D01*
X0236602Y0134800D01*
X0236602Y0129393D01*
X0236068Y0128859D01*
X0236223Y0128769D01*
X0236502Y0128490D01*
X0236700Y0128148D01*
X0236802Y0127766D01*
X0236802Y0125888D01*
X0233818Y0125888D01*
X0233818Y0124919D01*
X0236802Y0124919D01*
X0236802Y0123041D01*
X0236700Y0122659D01*
X0236502Y0122317D01*
X0236223Y0122038D01*
X0235881Y0121840D01*
X0235499Y0121738D01*
X0233818Y0121738D01*
X0233818Y0124919D01*
X0232849Y0124919D01*
X0232849Y0121738D01*
X0231167Y0121738D01*
X0230786Y0121840D01*
X0230444Y0122038D01*
X0230165Y0122317D01*
X0229967Y0122659D01*
X0229865Y0123041D01*
X0229865Y0124919D01*
X0232849Y0124919D01*
X0232849Y0125888D01*
X0229865Y0125888D01*
X0229865Y0124689D02*
X0227389Y0124689D01*
X0227389Y0125687D02*
X0232849Y0125687D01*
X0233818Y0125687D02*
X0244942Y0125687D01*
X0243944Y0124689D02*
X0236802Y0124689D01*
X0236802Y0123690D02*
X0242945Y0123690D01*
X0241947Y0122692D02*
X0236708Y0122692D01*
X0233818Y0122692D02*
X0232849Y0122692D01*
X0232849Y0123690D02*
X0233818Y0123690D01*
X0233818Y0124689D02*
X0232849Y0124689D01*
X0229865Y0123690D02*
X0227389Y0123690D01*
X0227389Y0122692D02*
X0229958Y0122692D01*
X0227389Y0121693D02*
X0240948Y0121693D01*
X0239950Y0120695D02*
X0227389Y0120695D01*
X0227142Y0119696D02*
X0238951Y0119696D01*
X0237953Y0118698D02*
X0225333Y0118698D01*
X0225333Y0117699D02*
X0236954Y0117699D01*
X0235956Y0116701D02*
X0225333Y0116701D01*
X0225333Y0115702D02*
X0234957Y0115702D01*
X0233959Y0114704D02*
X0225333Y0114704D01*
X0225581Y0113705D02*
X0232960Y0113705D01*
X0231962Y0112707D02*
X0226580Y0112707D01*
X0227578Y0111708D02*
X0230963Y0111708D01*
X0229965Y0110710D02*
X0228577Y0110710D01*
X0224917Y0108713D02*
X0179949Y0108713D01*
X0180873Y0109711D02*
X0223919Y0109711D01*
X0222920Y0110710D02*
X0181872Y0110710D01*
X0182870Y0111708D02*
X0221922Y0111708D01*
X0221333Y0112707D02*
X0207091Y0112707D01*
X0207389Y0113705D02*
X0221333Y0113705D01*
X0221333Y0114704D02*
X0207389Y0114704D01*
X0207389Y0115702D02*
X0221333Y0115702D01*
X0221333Y0116701D02*
X0207389Y0116701D01*
X0207389Y0117699D02*
X0221333Y0117699D01*
X0221333Y0118698D02*
X0207389Y0118698D01*
X0205333Y0119696D02*
X0219525Y0119696D01*
X0219277Y0120695D02*
X0205333Y0120695D01*
X0206221Y0121693D02*
X0219277Y0121693D01*
X0219277Y0122692D02*
X0206602Y0122692D01*
X0206602Y0123690D02*
X0219277Y0123690D01*
X0223333Y0122844D02*
X0223333Y0113125D01*
X0229271Y0107187D01*
X0212083Y0090000D01*
X0203958Y0090000D01*
X0203333Y0090625D01*
X0203333Y0096875D01*
X0203333Y0104094D01*
X0199277Y0103720D02*
X0184942Y0103720D01*
X0185940Y0102722D02*
X0199277Y0102722D01*
X0199277Y0101723D02*
X0186939Y0101723D01*
X0187937Y0100725D02*
X0199747Y0100725D01*
X0200979Y0099726D02*
X0188936Y0099726D01*
X0189934Y0098728D02*
X0200116Y0098728D01*
X0199703Y0097729D02*
X0190933Y0097729D01*
X0191931Y0096731D02*
X0199652Y0096731D01*
X0199822Y0095732D02*
X0192930Y0095732D01*
X0193928Y0094734D02*
X0200269Y0094734D01*
X0201294Y0093735D02*
X0194927Y0093735D01*
X0195925Y0092737D02*
X0201333Y0092737D01*
X0203958Y0090000D02*
X0195833Y0090000D01*
X0177083Y0108750D01*
X0158021Y0127812D01*
X0157982Y0130680D02*
X0158060Y0130680D01*
X0159058Y0131679D02*
X0156983Y0131679D01*
X0155985Y0132677D02*
X0160057Y0132677D01*
X0161055Y0133676D02*
X0154986Y0133676D01*
X0153988Y0134674D02*
X0161333Y0134674D01*
X0161333Y0135673D02*
X0152989Y0135673D01*
X0151991Y0136671D02*
X0161333Y0136671D01*
X0161333Y0137670D02*
X0150992Y0137670D01*
X0149994Y0138668D02*
X0161333Y0138668D01*
X0159555Y0139667D02*
X0148995Y0139667D01*
X0147997Y0140665D02*
X0159277Y0140665D01*
X0167389Y0143661D02*
X0200453Y0143661D01*
X0199454Y0144659D02*
X0167389Y0144659D01*
X0167389Y0145658D02*
X0198456Y0145658D01*
X0201451Y0142662D02*
X0183500Y0142662D01*
X0184498Y0141664D02*
X0200873Y0141664D01*
X0200014Y0140665D02*
X0185333Y0140665D01*
X0185333Y0139667D02*
X0199600Y0139667D01*
X0199533Y0138668D02*
X0185333Y0138668D01*
X0187276Y0137670D02*
X0199668Y0137670D01*
X0200081Y0136671D02*
X0187389Y0136671D01*
X0187389Y0135673D02*
X0201037Y0135673D01*
X0200281Y0134674D02*
X0187389Y0134674D01*
X0187389Y0133676D02*
X0199865Y0133676D01*
X0199865Y0132677D02*
X0187389Y0132677D01*
X0187313Y0131679D02*
X0202849Y0131679D01*
X0203818Y0131679D02*
X0219354Y0131679D01*
X0219277Y0132677D02*
X0206802Y0132677D01*
X0206802Y0133676D02*
X0219277Y0133676D01*
X0219277Y0134674D02*
X0206386Y0134674D01*
X0205630Y0135673D02*
X0219277Y0135673D01*
X0219277Y0136671D02*
X0206585Y0136671D01*
X0206999Y0137670D02*
X0219391Y0137670D01*
X0221333Y0138668D02*
X0207133Y0138668D01*
X0207067Y0139667D02*
X0221333Y0139667D01*
X0221333Y0140665D02*
X0206653Y0140665D01*
X0205794Y0141664D02*
X0221333Y0141664D01*
X0221917Y0142662D02*
X0205215Y0142662D01*
X0206214Y0143661D02*
X0222916Y0143661D01*
X0223914Y0144659D02*
X0207212Y0144659D01*
X0208211Y0145658D02*
X0224913Y0145658D01*
X0225833Y0143750D02*
X0228333Y0143750D01*
X0233333Y0138750D01*
X0233333Y0132096D01*
X0230065Y0131679D02*
X0227313Y0131679D01*
X0227389Y0132677D02*
X0230065Y0132677D01*
X0230065Y0133676D02*
X0227389Y0133676D01*
X0227389Y0134674D02*
X0230065Y0134674D01*
X0231333Y0135673D02*
X0227389Y0135673D01*
X0227389Y0136671D02*
X0231333Y0136671D01*
X0231333Y0137670D02*
X0227276Y0137670D01*
X0225333Y0138668D02*
X0230587Y0138668D01*
X0229588Y0139667D02*
X0225333Y0139667D01*
X0225577Y0140665D02*
X0228590Y0140665D01*
X0227591Y0141664D02*
X0226575Y0141664D01*
X0225833Y0143750D02*
X0223333Y0141250D01*
X0223333Y0134656D01*
X0230065Y0130680D02*
X0206802Y0130680D01*
X0206802Y0129682D02*
X0230065Y0129682D01*
X0230358Y0128683D02*
X0206674Y0128683D01*
X0206400Y0127684D02*
X0229865Y0127684D01*
X0236309Y0128683D02*
X0247938Y0128683D01*
X0248936Y0129682D02*
X0236602Y0129682D01*
X0236602Y0130680D02*
X0248575Y0130680D01*
X0247576Y0131679D02*
X0236602Y0131679D01*
X0236602Y0132677D02*
X0246578Y0132677D01*
X0245579Y0133676D02*
X0236602Y0133676D01*
X0236602Y0134674D02*
X0244581Y0134674D01*
X0243582Y0135673D02*
X0235333Y0135673D01*
X0235333Y0136671D02*
X0242584Y0136671D01*
X0241585Y0137670D02*
X0235333Y0137670D01*
X0235333Y0138668D02*
X0241333Y0138668D01*
X0243333Y0138750D02*
X0252083Y0130000D01*
X0229271Y0107187D01*
X0230629Y0105717D02*
X0232331Y0105717D01*
X0231627Y0106716D02*
X0233329Y0106716D01*
X0232626Y0107714D02*
X0234328Y0107714D01*
X0233625Y0108713D02*
X0235326Y0108713D01*
X0234623Y0109711D02*
X0236325Y0109711D01*
X0235622Y0110710D02*
X0237323Y0110710D01*
X0236620Y0111708D02*
X0238322Y0111708D01*
X0237619Y0112707D02*
X0239320Y0112707D01*
X0238617Y0113705D02*
X0240319Y0113705D01*
X0239616Y0114704D02*
X0241317Y0114704D01*
X0240614Y0115702D02*
X0242316Y0115702D01*
X0241613Y0116701D02*
X0243314Y0116701D01*
X0242611Y0117699D02*
X0244313Y0117699D01*
X0243610Y0118698D02*
X0245311Y0118698D01*
X0244608Y0119696D02*
X0246310Y0119696D01*
X0245607Y0120695D02*
X0247308Y0120695D01*
X0246605Y0121693D02*
X0248307Y0121693D01*
X0247604Y0122692D02*
X0249305Y0122692D01*
X0248602Y0123690D02*
X0250304Y0123690D01*
X0249601Y0124689D02*
X0251302Y0124689D01*
X0250599Y0125687D02*
X0252301Y0125687D01*
X0251598Y0126686D02*
X0253299Y0126686D01*
X0252596Y0127684D02*
X0254298Y0127684D01*
X0253595Y0128683D02*
X0255297Y0128683D01*
X0254593Y0129682D02*
X0256295Y0129682D01*
X0255592Y0130680D02*
X0257294Y0130680D01*
X0256590Y0131679D02*
X0258292Y0131679D01*
X0257589Y0132677D02*
X0259291Y0132677D01*
X0258587Y0133676D02*
X0260289Y0133676D01*
X0259586Y0134674D02*
X0261288Y0134674D01*
X0260584Y0135673D02*
X0262286Y0135673D01*
X0261583Y0136671D02*
X0263285Y0136671D01*
X0262581Y0137670D02*
X0264283Y0137670D01*
X0263580Y0138668D02*
X0265282Y0138668D01*
X0264578Y0139667D02*
X0266280Y0139667D01*
X0265577Y0140665D02*
X0267279Y0140665D01*
X0266575Y0141664D02*
X0268277Y0141664D01*
X0267574Y0142662D02*
X0269276Y0142662D01*
X0268572Y0143661D02*
X0270274Y0143661D01*
X0269571Y0144659D02*
X0271273Y0144659D01*
X0270412Y0145500D02*
X0270412Y0145500D01*
X0270569Y0145658D02*
X0272271Y0145658D01*
X0271568Y0146656D02*
X0273270Y0146656D01*
X0272566Y0147655D02*
X0274268Y0147655D01*
X0273565Y0148653D02*
X0275267Y0148653D01*
X0274563Y0149652D02*
X0276265Y0149652D01*
X0275562Y0150650D02*
X0277264Y0150650D01*
X0276561Y0151649D02*
X0278262Y0151649D01*
X0277559Y0152647D02*
X0279261Y0152647D01*
X0278558Y0153646D02*
X0280259Y0153646D01*
X0279556Y0154644D02*
X0281258Y0154644D01*
X0280555Y0155643D02*
X0282256Y0155643D01*
X0281553Y0156641D02*
X0283255Y0156641D01*
X0282552Y0157640D02*
X0284253Y0157640D01*
X0283550Y0158638D02*
X0285252Y0158638D01*
X0284549Y0159637D02*
X0286250Y0159637D01*
X0285333Y0160635D02*
X0287249Y0160635D01*
X0288247Y0161634D02*
X0285333Y0161634D01*
X0285333Y0162632D02*
X0289246Y0162632D01*
X0290244Y0163631D02*
X0285333Y0163631D01*
X0285333Y0164629D02*
X0291243Y0164629D01*
X0292241Y0165628D02*
X0285333Y0165628D01*
X0285333Y0166626D02*
X0293240Y0166626D01*
X0292155Y0167625D02*
X0285333Y0167625D01*
X0285333Y0168623D02*
X0290586Y0168623D01*
X0289895Y0169622D02*
X0285333Y0169622D01*
X0285333Y0170620D02*
X0289533Y0170620D01*
X0289533Y0171619D02*
X0285333Y0171619D01*
X0285333Y0172618D02*
X0289787Y0172618D01*
X0290325Y0173616D02*
X0285333Y0173616D01*
X0285333Y0174615D02*
X0291526Y0174615D01*
X0295140Y0174615D02*
X0296233Y0174615D01*
X0296233Y0175613D02*
X0285333Y0175613D01*
X0285333Y0176612D02*
X0296233Y0176612D01*
X0296233Y0177610D02*
X0285333Y0177610D01*
X0285333Y0178609D02*
X0296233Y0178609D01*
X0296233Y0179607D02*
X0287053Y0179607D01*
X0287389Y0180606D02*
X0296233Y0180606D01*
X0296233Y0181604D02*
X0287389Y0181604D01*
X0287389Y0182603D02*
X0290000Y0182603D01*
X0289967Y0182659D02*
X0290165Y0182317D01*
X0290444Y0182038D01*
X0290786Y0181840D01*
X0291167Y0181738D01*
X0292849Y0181738D01*
X0292849Y0184919D01*
X0289865Y0184919D01*
X0289865Y0183041D01*
X0289967Y0182659D01*
X0289865Y0183601D02*
X0287389Y0183601D01*
X0287389Y0184600D02*
X0289865Y0184600D01*
X0289865Y0186597D02*
X0249150Y0186597D01*
X0250148Y0187595D02*
X0289865Y0187595D01*
X0290268Y0188594D02*
X0251147Y0188594D01*
X0252145Y0189592D02*
X0290065Y0189592D01*
X0290065Y0190591D02*
X0253144Y0190591D01*
X0254142Y0191589D02*
X0279443Y0191589D01*
X0279277Y0192588D02*
X0255141Y0192588D01*
X0256139Y0193586D02*
X0279277Y0193586D01*
X0279277Y0194585D02*
X0257138Y0194585D01*
X0258136Y0195583D02*
X0279277Y0195583D01*
X0279277Y0196582D02*
X0259135Y0196582D01*
X0260133Y0197580D02*
X0279302Y0197580D01*
X0281333Y0198579D02*
X0261132Y0198579D01*
X0262130Y0199577D02*
X0281333Y0199577D01*
X0281333Y0200576D02*
X0263129Y0200576D01*
X0264127Y0201574D02*
X0282079Y0201574D01*
X0283078Y0202573D02*
X0265126Y0202573D01*
X0266125Y0203571D02*
X0296233Y0203571D01*
X0296233Y0202573D02*
X0292339Y0202573D01*
X0293337Y0201574D02*
X0296233Y0201574D01*
X0296233Y0200576D02*
X0294336Y0200576D01*
X0295333Y0199577D02*
X0296233Y0199577D01*
X0296233Y0198579D02*
X0295333Y0198579D01*
X0295333Y0197580D02*
X0296233Y0197580D01*
X0296233Y0196582D02*
X0295333Y0196582D01*
X0295333Y0195583D02*
X0296233Y0195583D01*
X0293333Y0198750D02*
X0290833Y0201250D01*
X0284583Y0201250D01*
X0283333Y0200000D01*
X0283333Y0194656D01*
X0287389Y0194585D02*
X0290065Y0194585D01*
X0290065Y0193586D02*
X0287389Y0193586D01*
X0287389Y0192588D02*
X0290065Y0192588D01*
X0290065Y0191589D02*
X0287224Y0191589D01*
X0287389Y0195583D02*
X0291333Y0195583D01*
X0291333Y0196582D02*
X0287389Y0196582D01*
X0287365Y0197580D02*
X0291333Y0197580D01*
X0290676Y0198579D02*
X0285333Y0198579D01*
X0293333Y0198750D02*
X0293333Y0192096D01*
X0292849Y0185598D02*
X0287389Y0185598D01*
X0283333Y0182844D02*
X0283333Y0161250D01*
X0269583Y0147500D01*
X0263333Y0153750D01*
X0263333Y0162844D01*
X0259277Y0162632D02*
X0254779Y0162632D01*
X0255333Y0162078D02*
X0254083Y0163328D01*
X0252912Y0164500D01*
X0243755Y0164500D01*
X0242505Y0163250D01*
X0241333Y0162078D01*
X0241333Y0158318D01*
X0240039Y0158318D01*
X0239277Y0157556D01*
X0239277Y0151755D01*
X0240039Y0150993D01*
X0246628Y0150993D01*
X0247389Y0151755D01*
X0247389Y0157556D01*
X0246628Y0158318D01*
X0245333Y0158318D01*
X0245333Y0160422D01*
X0245412Y0160500D01*
X0251255Y0160500D01*
X0251333Y0160422D01*
X0251333Y0155562D01*
X0250826Y0155562D01*
X0250065Y0154800D01*
X0250065Y0149393D01*
X0250599Y0148859D01*
X0250444Y0148769D01*
X0250165Y0148490D01*
X0249967Y0148148D01*
X0249865Y0147766D01*
X0249865Y0145888D01*
X0252849Y0145888D01*
X0252849Y0144919D01*
X0253818Y0144919D01*
X0253818Y0145888D01*
X0256802Y0145888D01*
X0256802Y0147766D01*
X0256700Y0148148D01*
X0256502Y0148490D01*
X0256223Y0148769D01*
X0256068Y0148859D01*
X0256602Y0149393D01*
X0256602Y0154800D01*
X0255840Y0155562D01*
X0255333Y0155562D01*
X0255333Y0162078D01*
X0255333Y0161634D02*
X0259277Y0161634D01*
X0259277Y0160635D02*
X0255333Y0160635D01*
X0255333Y0159637D02*
X0259584Y0159637D01*
X0261333Y0158638D02*
X0255333Y0158638D01*
X0255333Y0157640D02*
X0261333Y0157640D01*
X0261333Y0156641D02*
X0255333Y0156641D01*
X0255333Y0155643D02*
X0261333Y0155643D01*
X0261333Y0154644D02*
X0256602Y0154644D01*
X0256602Y0153646D02*
X0261333Y0153646D01*
X0261608Y0152647D02*
X0256602Y0152647D01*
X0256602Y0151649D02*
X0262606Y0151649D01*
X0263605Y0150650D02*
X0256602Y0150650D01*
X0256602Y0149652D02*
X0264603Y0149652D01*
X0265602Y0148653D02*
X0256339Y0148653D01*
X0256802Y0147655D02*
X0266600Y0147655D01*
X0265911Y0146656D02*
X0256802Y0146656D01*
X0256802Y0144919D02*
X0253818Y0144919D01*
X0253818Y0141738D01*
X0255499Y0141738D01*
X0255881Y0141840D01*
X0256223Y0142038D01*
X0256502Y0142317D01*
X0256700Y0142659D01*
X0256802Y0143041D01*
X0256802Y0144919D01*
X0256802Y0144659D02*
X0263914Y0144659D01*
X0262916Y0143661D02*
X0256802Y0143661D01*
X0256700Y0142662D02*
X0261917Y0142662D01*
X0260919Y0141664D02*
X0247389Y0141664D01*
X0247389Y0142662D02*
X0249966Y0142662D01*
X0249967Y0142659D02*
X0250165Y0142317D01*
X0250444Y0142038D01*
X0250786Y0141840D01*
X0251167Y0141738D01*
X0252849Y0141738D01*
X0252849Y0144919D01*
X0249865Y0144919D01*
X0249865Y0143041D01*
X0249967Y0142659D01*
X0249865Y0143661D02*
X0247389Y0143661D01*
X0247389Y0144659D02*
X0249865Y0144659D01*
X0249865Y0146656D02*
X0209209Y0146656D01*
X0210208Y0147655D02*
X0249865Y0147655D01*
X0250328Y0148653D02*
X0211206Y0148653D01*
X0212205Y0149652D02*
X0250065Y0149652D01*
X0250065Y0150650D02*
X0213203Y0150650D01*
X0214202Y0151649D02*
X0239383Y0151649D01*
X0239277Y0152647D02*
X0215200Y0152647D01*
X0216199Y0153646D02*
X0239277Y0153646D01*
X0239277Y0154644D02*
X0217197Y0154644D01*
X0218196Y0155643D02*
X0239277Y0155643D01*
X0239277Y0156641D02*
X0219194Y0156641D01*
X0220193Y0157640D02*
X0239361Y0157640D01*
X0241333Y0158638D02*
X0221192Y0158638D01*
X0222190Y0159637D02*
X0241333Y0159637D01*
X0241333Y0160635D02*
X0223189Y0160635D01*
X0224187Y0161634D02*
X0241333Y0161634D01*
X0241887Y0162632D02*
X0225186Y0162632D01*
X0226184Y0163631D02*
X0242886Y0163631D01*
X0244583Y0162500D02*
X0243333Y0161250D01*
X0243333Y0154656D01*
X0247389Y0154644D02*
X0250065Y0154644D01*
X0250065Y0153646D02*
X0247389Y0153646D01*
X0247389Y0152647D02*
X0250065Y0152647D01*
X0250065Y0151649D02*
X0247283Y0151649D01*
X0247389Y0155643D02*
X0251333Y0155643D01*
X0251333Y0156641D02*
X0247389Y0156641D01*
X0247306Y0157640D02*
X0251333Y0157640D01*
X0251333Y0158638D02*
X0245333Y0158638D01*
X0245333Y0159637D02*
X0251333Y0159637D01*
X0253333Y0161250D02*
X0252083Y0162500D01*
X0244583Y0162500D01*
X0253333Y0161250D02*
X0253333Y0152096D01*
X0252849Y0145658D02*
X0247389Y0145658D01*
X0243333Y0142844D02*
X0243333Y0138750D01*
X0246244Y0138668D02*
X0257923Y0138668D01*
X0256925Y0137670D02*
X0247242Y0137670D01*
X0248241Y0136671D02*
X0255926Y0136671D01*
X0254928Y0135673D02*
X0249239Y0135673D01*
X0250238Y0134674D02*
X0253929Y0134674D01*
X0252930Y0133676D02*
X0251236Y0133676D01*
X0252083Y0130000D02*
X0269583Y0147500D01*
X0271583Y0146672D02*
X0271583Y0146672D01*
X0269905Y0150650D02*
X0269261Y0150650D01*
X0268263Y0151649D02*
X0270904Y0151649D01*
X0271902Y0152647D02*
X0267264Y0152647D01*
X0266266Y0153646D02*
X0272901Y0153646D01*
X0273899Y0154644D02*
X0265333Y0154644D01*
X0265333Y0155643D02*
X0274898Y0155643D01*
X0275896Y0156641D02*
X0265333Y0156641D01*
X0265333Y0157640D02*
X0276895Y0157640D01*
X0277893Y0158638D02*
X0265333Y0158638D01*
X0267082Y0159637D02*
X0278892Y0159637D01*
X0279890Y0160635D02*
X0267389Y0160635D01*
X0267389Y0161634D02*
X0280889Y0161634D01*
X0281333Y0162632D02*
X0276684Y0162632D01*
X0276700Y0162659D02*
X0276802Y0163041D01*
X0276802Y0164919D01*
X0273818Y0164919D01*
X0273818Y0165888D01*
X0276802Y0165888D01*
X0276802Y0167766D01*
X0276700Y0168148D01*
X0276502Y0168490D01*
X0276223Y0168769D01*
X0276068Y0168859D01*
X0276602Y0169393D01*
X0276602Y0174800D01*
X0275840Y0175562D01*
X0275333Y0175562D01*
X0275333Y0180828D01*
X0272833Y0183328D01*
X0271662Y0184500D01*
X0263755Y0184500D01*
X0262505Y0183250D01*
X0261333Y0182078D01*
X0261333Y0178318D01*
X0260039Y0178318D01*
X0259277Y0177556D01*
X0259277Y0171755D01*
X0260039Y0170993D01*
X0266628Y0170993D01*
X0267389Y0171755D01*
X0267389Y0177556D01*
X0266628Y0178318D01*
X0265333Y0178318D01*
X0265333Y0180422D01*
X0265412Y0180500D01*
X0270005Y0180500D01*
X0271333Y0179172D01*
X0271333Y0175562D01*
X0270826Y0175562D01*
X0270065Y0174800D01*
X0270065Y0169393D01*
X0270599Y0168859D01*
X0270444Y0168769D01*
X0270165Y0168490D01*
X0269967Y0168148D01*
X0269865Y0167766D01*
X0269865Y0165888D01*
X0272849Y0165888D01*
X0272849Y0164919D01*
X0273818Y0164919D01*
X0273818Y0161738D01*
X0275499Y0161738D01*
X0275881Y0161840D01*
X0276223Y0162038D01*
X0276502Y0162317D01*
X0276700Y0162659D01*
X0276802Y0163631D02*
X0281333Y0163631D01*
X0281333Y0164629D02*
X0276802Y0164629D01*
X0276802Y0166626D02*
X0281333Y0166626D01*
X0281333Y0165628D02*
X0273818Y0165628D01*
X0272849Y0165628D02*
X0267389Y0165628D01*
X0267389Y0164629D02*
X0269865Y0164629D01*
X0269865Y0164919D02*
X0269865Y0163041D01*
X0269967Y0162659D01*
X0270165Y0162317D01*
X0270444Y0162038D01*
X0270786Y0161840D01*
X0271167Y0161738D01*
X0272849Y0161738D01*
X0272849Y0164919D01*
X0269865Y0164919D01*
X0269865Y0163631D02*
X0267389Y0163631D01*
X0267389Y0162632D02*
X0269983Y0162632D01*
X0272849Y0162632D02*
X0273818Y0162632D01*
X0273818Y0163631D02*
X0272849Y0163631D01*
X0272849Y0164629D02*
X0273818Y0164629D01*
X0276802Y0167625D02*
X0281333Y0167625D01*
X0281333Y0168623D02*
X0276369Y0168623D01*
X0276602Y0169622D02*
X0281333Y0169622D01*
X0281333Y0170620D02*
X0276602Y0170620D01*
X0276602Y0171619D02*
X0281333Y0171619D01*
X0281333Y0172618D02*
X0276602Y0172618D01*
X0276602Y0173616D02*
X0281333Y0173616D01*
X0281333Y0174615D02*
X0276602Y0174615D01*
X0275333Y0175613D02*
X0281333Y0175613D01*
X0281333Y0176612D02*
X0275333Y0176612D01*
X0275333Y0177610D02*
X0281333Y0177610D01*
X0281333Y0178609D02*
X0275333Y0178609D01*
X0275333Y0179607D02*
X0279614Y0179607D01*
X0279277Y0180606D02*
X0275333Y0180606D01*
X0274558Y0181604D02*
X0279277Y0181604D01*
X0279277Y0182603D02*
X0273559Y0182603D01*
X0272561Y0183601D02*
X0279277Y0183601D01*
X0279277Y0184600D02*
X0247153Y0184600D01*
X0248151Y0185598D02*
X0279277Y0185598D01*
X0273333Y0180000D02*
X0270833Y0182500D01*
X0264583Y0182500D01*
X0263333Y0181250D01*
X0263333Y0174656D01*
X0259277Y0174615D02*
X0237168Y0174615D01*
X0238166Y0175613D02*
X0259277Y0175613D01*
X0259277Y0176612D02*
X0239165Y0176612D01*
X0240163Y0177610D02*
X0259331Y0177610D01*
X0261333Y0178609D02*
X0241162Y0178609D01*
X0242160Y0179607D02*
X0261333Y0179607D01*
X0261333Y0180606D02*
X0243159Y0180606D01*
X0244157Y0181604D02*
X0261333Y0181604D01*
X0261858Y0182603D02*
X0245156Y0182603D01*
X0246154Y0183601D02*
X0262856Y0183601D01*
X0265333Y0179607D02*
X0270898Y0179607D01*
X0271333Y0178609D02*
X0265333Y0178609D01*
X0267335Y0177610D02*
X0271333Y0177610D01*
X0271333Y0176612D02*
X0267389Y0176612D01*
X0267389Y0175613D02*
X0271333Y0175613D01*
X0270065Y0174615D02*
X0267389Y0174615D01*
X0267389Y0173616D02*
X0270065Y0173616D01*
X0270065Y0172618D02*
X0267389Y0172618D01*
X0267253Y0171619D02*
X0270065Y0171619D01*
X0270065Y0170620D02*
X0233174Y0170620D01*
X0232175Y0169622D02*
X0270065Y0169622D01*
X0270298Y0168623D02*
X0231177Y0168623D01*
X0230178Y0167625D02*
X0269865Y0167625D01*
X0269865Y0166626D02*
X0229180Y0166626D01*
X0228181Y0165628D02*
X0259277Y0165628D01*
X0259277Y0164629D02*
X0227183Y0164629D01*
X0234172Y0171619D02*
X0259413Y0171619D01*
X0259277Y0172618D02*
X0235171Y0172618D01*
X0236169Y0173616D02*
X0259277Y0173616D01*
X0273333Y0172096D02*
X0273333Y0180000D01*
X0292849Y0182603D02*
X0293818Y0182603D01*
X0293818Y0183601D02*
X0292849Y0183601D01*
X0292849Y0184600D02*
X0293818Y0184600D01*
X0259277Y0163631D02*
X0253781Y0163631D01*
X0253818Y0145658D02*
X0264913Y0145658D01*
X0259920Y0140665D02*
X0247389Y0140665D01*
X0247112Y0139667D02*
X0258922Y0139667D01*
X0253818Y0142662D02*
X0252849Y0142662D01*
X0252849Y0143661D02*
X0253818Y0143661D01*
X0253818Y0144659D02*
X0252849Y0144659D01*
X0239277Y0144659D02*
X0230253Y0144659D01*
X0231251Y0143661D02*
X0239277Y0143661D01*
X0239277Y0142662D02*
X0232250Y0142662D01*
X0233248Y0141664D02*
X0239277Y0141664D01*
X0239277Y0140665D02*
X0234247Y0140665D01*
X0235245Y0139667D02*
X0239555Y0139667D01*
X0239277Y0145658D02*
X0229254Y0145658D01*
X0236802Y0127684D02*
X0246939Y0127684D01*
X0245941Y0126686D02*
X0236802Y0126686D01*
X0252912Y0128000D02*
X0252912Y0128000D01*
X0254083Y0129172D02*
X0254083Y0129172D01*
X0225916Y0107714D02*
X0206670Y0107714D01*
X0207389Y0106716D02*
X0225971Y0106716D01*
X0224972Y0105717D02*
X0207389Y0105717D01*
X0207389Y0104719D02*
X0223974Y0104719D01*
X0222975Y0103720D02*
X0207389Y0103720D01*
X0207389Y0102722D02*
X0221977Y0102722D01*
X0220978Y0101723D02*
X0207389Y0101723D01*
X0206920Y0100725D02*
X0219980Y0100725D01*
X0218981Y0099726D02*
X0205688Y0099726D01*
X0206550Y0098728D02*
X0217983Y0098728D01*
X0216984Y0097729D02*
X0206964Y0097729D01*
X0207014Y0096731D02*
X0215986Y0096731D01*
X0214987Y0095732D02*
X0206844Y0095732D01*
X0206398Y0094734D02*
X0213989Y0094734D01*
X0212990Y0093735D02*
X0205372Y0093735D01*
X0205333Y0092737D02*
X0211992Y0092737D01*
X0214653Y0089741D02*
X0216355Y0089741D01*
X0215651Y0090740D02*
X0217353Y0090740D01*
X0216650Y0091738D02*
X0218352Y0091738D01*
X0217648Y0092737D02*
X0219350Y0092737D01*
X0218647Y0093735D02*
X0220349Y0093735D01*
X0219645Y0094734D02*
X0221347Y0094734D01*
X0220644Y0095732D02*
X0222346Y0095732D01*
X0221642Y0096731D02*
X0223344Y0096731D01*
X0222641Y0097729D02*
X0224343Y0097729D01*
X0223639Y0098728D02*
X0225341Y0098728D01*
X0224638Y0099726D02*
X0226340Y0099726D01*
X0225636Y0100725D02*
X0227338Y0100725D01*
X0226635Y0101723D02*
X0228337Y0101723D01*
X0227633Y0102722D02*
X0229335Y0102722D01*
X0228632Y0103720D02*
X0230334Y0103720D01*
X0229630Y0104719D02*
X0231332Y0104719D01*
X0230099Y0105187D02*
X0230099Y0105187D01*
X0215356Y0088743D02*
X0213654Y0088743D01*
X0214358Y0087744D02*
X0192309Y0087744D01*
X0191311Y0088743D02*
X0194262Y0088743D01*
X0193264Y0089741D02*
X0190312Y0089741D01*
X0189314Y0090740D02*
X0192265Y0090740D01*
X0191267Y0091738D02*
X0188315Y0091738D01*
X0187317Y0092737D02*
X0190268Y0092737D01*
X0189270Y0093735D02*
X0186318Y0093735D01*
X0185320Y0094734D02*
X0188271Y0094734D01*
X0187273Y0095732D02*
X0184321Y0095732D01*
X0183323Y0096731D02*
X0186274Y0096731D01*
X0185276Y0097729D02*
X0182324Y0097729D01*
X0181325Y0098728D02*
X0184277Y0098728D01*
X0183279Y0099726D02*
X0180327Y0099726D01*
X0183943Y0104719D02*
X0199277Y0104719D01*
X0199277Y0105717D02*
X0182944Y0105717D01*
X0181946Y0106716D02*
X0199277Y0106716D01*
X0199997Y0107714D02*
X0180947Y0107714D01*
X0176255Y0106750D02*
X0176255Y0106750D01*
X0173818Y0122692D02*
X0172849Y0122692D01*
X0172849Y0123690D02*
X0173818Y0123690D01*
X0173818Y0124689D02*
X0172849Y0124689D01*
X0172849Y0125687D02*
X0162974Y0125687D01*
X0173818Y0125687D02*
X0179277Y0125687D01*
X0176802Y0127684D02*
X0200267Y0127684D01*
X0199993Y0128683D02*
X0176309Y0128683D01*
X0176602Y0129682D02*
X0199865Y0129682D01*
X0199865Y0130680D02*
X0176602Y0130680D01*
X0176602Y0131679D02*
X0179354Y0131679D01*
X0179277Y0132677D02*
X0176602Y0132677D01*
X0176602Y0133676D02*
X0179277Y0133676D01*
X0179277Y0134674D02*
X0176602Y0134674D01*
X0175333Y0135673D02*
X0179277Y0135673D01*
X0179277Y0136671D02*
X0175333Y0136671D01*
X0175333Y0137670D02*
X0179391Y0137670D01*
X0181333Y0138668D02*
X0175333Y0138668D01*
X0173333Y0140000D02*
X0174583Y0141250D01*
X0182083Y0141250D01*
X0183333Y0140000D01*
X0183333Y0134656D01*
X0173333Y0132096D02*
X0173333Y0140000D01*
X0159277Y0145658D02*
X0153818Y0145658D01*
X0152849Y0145658D02*
X0143004Y0145658D01*
X0152849Y0144659D02*
X0153818Y0144659D01*
X0153818Y0143661D02*
X0152849Y0143661D01*
X0152849Y0142662D02*
X0153818Y0142662D01*
X0156602Y0151649D02*
X0159383Y0151649D01*
X0159277Y0152647D02*
X0156602Y0152647D01*
X0156602Y0153646D02*
X0159277Y0153646D01*
X0159277Y0154644D02*
X0156602Y0154644D01*
X0155333Y0155643D02*
X0159277Y0155643D01*
X0159277Y0156641D02*
X0155333Y0156641D01*
X0155333Y0157640D02*
X0159361Y0157640D01*
X0161333Y0158638D02*
X0156050Y0158638D01*
X0155833Y0161250D02*
X0153333Y0158750D01*
X0153333Y0152096D01*
X0163333Y0154656D02*
X0163333Y0160000D01*
X0162083Y0161250D01*
X0155833Y0161250D01*
X0139413Y0171619D02*
X0136602Y0171619D01*
X0136602Y0172618D02*
X0139277Y0172618D01*
X0139277Y0173616D02*
X0136602Y0173616D01*
X0136602Y0174615D02*
X0139277Y0174615D01*
X0139277Y0175613D02*
X0135333Y0175613D01*
X0135333Y0176612D02*
X0139277Y0176612D01*
X0139331Y0177610D02*
X0135333Y0177610D01*
X0136020Y0178609D02*
X0141333Y0178609D01*
X0143333Y0180000D02*
X0142083Y0181250D01*
X0135833Y0181250D01*
X0133333Y0178750D01*
X0133333Y0172096D01*
X0133333Y0171250D01*
X0143333Y0174656D02*
X0143333Y0180000D01*
X0158515Y0185598D02*
X0127389Y0185598D01*
X0127389Y0184600D02*
X0159514Y0184600D01*
X0133818Y0164629D02*
X0132849Y0164629D01*
X0132849Y0163631D02*
X0133818Y0163631D01*
X0133818Y0162632D02*
X0132849Y0162632D01*
X0129983Y0162632D02*
X0126029Y0162632D01*
X0125031Y0163631D02*
X0129865Y0163631D01*
X0133553Y0210561D02*
X0110433Y0210561D01*
X0110433Y0211559D02*
X0132554Y0211559D01*
X0131556Y0212558D02*
X0110433Y0212558D01*
X0110433Y0213556D02*
X0130557Y0213556D01*
X0129559Y0214555D02*
X0110433Y0214555D01*
X0110433Y0215553D02*
X0128560Y0215553D01*
X0127561Y0216552D02*
X0110433Y0216552D01*
X0110433Y0217551D02*
X0126563Y0217551D01*
X0125564Y0218549D02*
X0110433Y0218549D01*
X0110433Y0219548D02*
X0124566Y0219548D01*
X0123567Y0220546D02*
X0110433Y0220546D01*
X0110433Y0221545D02*
X0122569Y0221545D01*
X0121570Y0222543D02*
X0110433Y0222543D01*
X0110433Y0223542D02*
X0120572Y0223542D01*
X0119573Y0224540D02*
X0115122Y0224540D01*
X0116009Y0225539D02*
X0118575Y0225539D01*
X0117576Y0226537D02*
X0116423Y0226537D01*
X0116508Y0227536D02*
X0116578Y0227536D01*
X0267123Y0204570D02*
X0296233Y0204570D01*
X0296233Y0205568D02*
X0268122Y0205568D01*
X0269120Y0206567D02*
X0296233Y0206567D01*
X0296233Y0207565D02*
X0270119Y0207565D01*
X0271117Y0208564D02*
X0296233Y0208564D01*
X0296233Y0209562D02*
X0272116Y0209562D01*
X0273114Y0210561D02*
X0296233Y0210561D01*
X0296233Y0211559D02*
X0274113Y0211559D01*
X0275111Y0212558D02*
X0296233Y0212558D01*
X0296233Y0213556D02*
X0276110Y0213556D01*
X0277108Y0214555D02*
X0296233Y0214555D01*
X0296233Y0215553D02*
X0278107Y0215553D01*
X0279105Y0216552D02*
X0296233Y0216552D01*
X0296233Y0217551D02*
X0280104Y0217551D01*
X0281102Y0218549D02*
X0296233Y0218549D01*
X0296233Y0219548D02*
X0282101Y0219548D01*
X0283099Y0220546D02*
X0296233Y0220546D01*
X0296233Y0221545D02*
X0284098Y0221545D01*
X0285096Y0222543D02*
X0296233Y0222543D01*
X0296233Y0223542D02*
X0286095Y0223542D01*
X0287093Y0224540D02*
X0290919Y0224540D01*
X0290033Y0225539D02*
X0288092Y0225539D01*
X0289090Y0226537D02*
X0289619Y0226537D01*
X0295747Y0224540D02*
X0296233Y0224540D01*
X0213359Y0086746D02*
X0193308Y0086746D01*
X0194306Y0085747D02*
X0212361Y0085747D01*
X0211362Y0084749D02*
X0205834Y0084749D01*
X0206670Y0083750D02*
X0210363Y0083750D01*
X0209365Y0082751D02*
X0207083Y0082751D01*
X0207133Y0081753D02*
X0208366Y0081753D01*
X0207368Y0080754D02*
X0206982Y0080754D01*
X0199684Y0080754D02*
X0199299Y0080754D01*
X0199533Y0081753D02*
X0198300Y0081753D01*
X0197302Y0082751D02*
X0199583Y0082751D01*
X0199997Y0083750D02*
X0196303Y0083750D01*
X0195305Y0084749D02*
X0200833Y0084749D01*
D13*
X0203333Y0096875D03*
D14*
X0230833Y0155000D03*
X0268333Y0193750D03*
X0154583Y0177500D03*
X0113958Y0219375D03*
M02*
