G75*
%MOIN*%
%OFA0B0*%
%FSLAX25Y25*%
%IPPOS*%
%LPD*%
%AMOC8*
5,1,8,0,0,1.08239X$1,22.5*
%
%ADD10C,0.31496*%
%ADD11R,0.12500X0.12500*%
%ADD12R,0.02756X0.05906*%
%ADD13R,0.03937X0.02362*%
%ADD14R,0.03937X0.03150*%
%ADD15C,0.01000*%
%ADD16C,0.04000*%
D10*
X0085161Y0067433D03*
D11*
X0054161Y0067433D03*
X0116161Y0067433D03*
D12*
G36*
X0087756Y0096148D02*
X0086378Y0098534D01*
X0091492Y0101486D01*
X0092870Y0099100D01*
X0087756Y0096148D01*
G37*
G36*
X0084803Y0101262D02*
X0083425Y0103648D01*
X0088539Y0106600D01*
X0089917Y0104214D01*
X0084803Y0101262D01*
G37*
G36*
X0078897Y0111491D02*
X0077519Y0113877D01*
X0082633Y0116829D01*
X0084011Y0114443D01*
X0078897Y0111491D01*
G37*
D13*
G36*
X0087424Y0126640D02*
X0089392Y0123233D01*
X0087348Y0122052D01*
X0085380Y0125459D01*
X0087424Y0126640D01*
G37*
G36*
X0101794Y0101751D02*
X0103762Y0098344D01*
X0101718Y0097163D01*
X0099750Y0100570D01*
X0101794Y0101751D01*
G37*
D14*
G36*
X0094975Y0097814D02*
X0096943Y0094407D01*
X0094217Y0092832D01*
X0092249Y0096239D01*
X0094975Y0097814D01*
G37*
G36*
X0080605Y0122704D02*
X0082573Y0119297D01*
X0079847Y0117722D01*
X0077879Y0121129D01*
X0080605Y0122704D01*
G37*
D15*
X0032883Y0037281D02*
X0032735Y0037133D01*
X0061587Y0037133D01*
X0061440Y0037281D01*
X0060861Y0038677D01*
X0060861Y0040189D01*
X0061440Y0041586D01*
X0062509Y0042655D01*
X0063905Y0043233D01*
X0065417Y0043233D01*
X0066814Y0042655D01*
X0067883Y0041586D01*
X0068461Y0040189D01*
X0068461Y0038677D01*
X0067883Y0037281D01*
X0067735Y0037133D01*
X0082087Y0037133D01*
X0081940Y0037281D01*
X0081361Y0038677D01*
X0081361Y0040189D01*
X0081940Y0041586D01*
X0083009Y0042655D01*
X0084405Y0043233D01*
X0085917Y0043233D01*
X0087314Y0042655D01*
X0088383Y0041586D01*
X0088961Y0040189D01*
X0088961Y0038677D01*
X0088383Y0037281D01*
X0088235Y0037133D01*
X0103087Y0037133D01*
X0102940Y0037281D01*
X0102361Y0038677D01*
X0102361Y0040189D01*
X0102940Y0041586D01*
X0104009Y0042655D01*
X0105405Y0043233D01*
X0106917Y0043233D01*
X0108314Y0042655D01*
X0109383Y0041586D01*
X0109961Y0040189D01*
X0109961Y0038677D01*
X0109383Y0037281D01*
X0109235Y0037133D01*
X0137587Y0037133D01*
X0137440Y0037281D01*
X0136861Y0038677D01*
X0136861Y0040189D01*
X0137440Y0041586D01*
X0138509Y0042655D01*
X0139905Y0043233D01*
X0141223Y0043233D01*
X0123711Y0073739D01*
X0123711Y0060645D01*
X0122950Y0059883D01*
X0109373Y0059883D01*
X0108611Y0060645D01*
X0108611Y0074222D01*
X0109373Y0074983D01*
X0115560Y0074983D01*
X0115009Y0075212D01*
X0113940Y0076281D01*
X0113361Y0077677D01*
X0113361Y0079189D01*
X0113940Y0080586D01*
X0115009Y0081655D01*
X0116405Y0082233D01*
X0117917Y0082233D01*
X0119122Y0081734D01*
X0111461Y0095079D01*
X0111461Y0094677D01*
X0110883Y0093281D01*
X0109814Y0092212D01*
X0108417Y0091633D01*
X0106905Y0091633D01*
X0105509Y0092212D01*
X0104440Y0093281D01*
X0103861Y0094677D01*
X0103861Y0096189D01*
X0104247Y0097121D01*
X0101901Y0095766D01*
X0100861Y0096045D01*
X0098354Y0100387D01*
X0098632Y0101428D01*
X0101611Y0103147D01*
X0102651Y0102868D01*
X0105158Y0098526D01*
X0105077Y0098222D01*
X0105509Y0098655D01*
X0106905Y0099233D01*
X0108417Y0099233D01*
X0109282Y0098875D01*
X0088744Y0134652D01*
X0088383Y0133781D01*
X0087314Y0132712D01*
X0085917Y0132133D01*
X0084405Y0132133D01*
X0083009Y0132712D01*
X0081940Y0133781D01*
X0081606Y0134586D01*
X0061096Y0098898D01*
X0061905Y0099233D01*
X0063417Y0099233D01*
X0064814Y0098655D01*
X0065883Y0097586D01*
X0066461Y0096189D01*
X0066461Y0094677D01*
X0065883Y0093281D01*
X0064814Y0092212D01*
X0063417Y0091633D01*
X0061905Y0091633D01*
X0060509Y0092212D01*
X0059440Y0093281D01*
X0058861Y0094677D01*
X0058861Y0095009D01*
X0051241Y0081751D01*
X0052405Y0082233D01*
X0053917Y0082233D01*
X0055314Y0081655D01*
X0056383Y0080586D01*
X0056961Y0079189D01*
X0056961Y0077677D01*
X0056653Y0076933D01*
X0063833Y0076933D01*
X0079661Y0092761D01*
X0079661Y0101761D01*
X0080833Y0102933D01*
X0080833Y0102933D01*
X0082273Y0104374D01*
X0082308Y0104505D01*
X0082535Y0104636D01*
X0083831Y0105931D01*
X0084779Y0105931D01*
X0088355Y0107996D01*
X0089396Y0107717D01*
X0091042Y0104865D01*
X0091042Y0105430D01*
X0091510Y0106559D01*
X0092374Y0107423D01*
X0093503Y0107890D01*
X0094725Y0107890D01*
X0095854Y0107423D01*
X0096718Y0106559D01*
X0097186Y0105430D01*
X0097186Y0104208D01*
X0096718Y0103079D01*
X0095854Y0102215D01*
X0094725Y0101747D01*
X0093503Y0101747D01*
X0092635Y0102107D01*
X0094265Y0099283D01*
X0094145Y0098837D01*
X0094792Y0099210D01*
X0095832Y0098931D01*
X0098339Y0094589D01*
X0098060Y0093549D01*
X0094400Y0091436D01*
X0093360Y0091714D01*
X0090853Y0096057D01*
X0090972Y0096503D01*
X0087939Y0094752D01*
X0086899Y0095031D01*
X0084982Y0098350D01*
X0085261Y0099390D01*
X0091308Y0102881D01*
X0091853Y0102735D01*
X0091510Y0103079D01*
X0091175Y0103887D01*
X0091033Y0103357D01*
X0084986Y0099866D01*
X0083946Y0100145D01*
X0083857Y0100300D01*
X0083661Y0100105D01*
X0083661Y0091105D01*
X0065490Y0072933D01*
X0061711Y0072933D01*
X0061711Y0060645D01*
X0060950Y0059883D01*
X0047373Y0059883D01*
X0046611Y0060645D01*
X0046611Y0073694D01*
X0029105Y0043233D01*
X0030417Y0043233D01*
X0031814Y0042655D01*
X0032883Y0041586D01*
X0033461Y0040189D01*
X0033461Y0038677D01*
X0032883Y0037281D01*
X0032945Y0037430D02*
X0061378Y0037430D01*
X0060964Y0038429D02*
X0033358Y0038429D01*
X0033461Y0039427D02*
X0060861Y0039427D01*
X0060959Y0040426D02*
X0033363Y0040426D01*
X0032950Y0041424D02*
X0061373Y0041424D01*
X0062277Y0042423D02*
X0032046Y0042423D01*
X0029213Y0043421D02*
X0141115Y0043421D01*
X0140542Y0044420D02*
X0029787Y0044420D01*
X0030361Y0045418D02*
X0139969Y0045418D01*
X0139396Y0046417D02*
X0030934Y0046417D01*
X0031508Y0047415D02*
X0138823Y0047415D01*
X0138249Y0048414D02*
X0032082Y0048414D01*
X0032656Y0049412D02*
X0137676Y0049412D01*
X0137103Y0050411D02*
X0087950Y0050411D01*
X0087415Y0050316D02*
X0088898Y0050578D01*
X0090353Y0050968D01*
X0091768Y0051483D01*
X0093133Y0052119D01*
X0094437Y0052872D01*
X0095671Y0053736D01*
X0096825Y0054704D01*
X0097890Y0055769D01*
X0098858Y0056923D01*
X0099722Y0058157D01*
X0100475Y0059461D01*
X0101112Y0060826D01*
X0101627Y0062242D01*
X0102016Y0063696D01*
X0102278Y0065180D01*
X0102409Y0066680D01*
X0102409Y0066933D01*
X0085661Y0066933D01*
X0085661Y0050185D01*
X0085914Y0050185D01*
X0087415Y0050316D01*
X0085661Y0050411D02*
X0084661Y0050411D01*
X0084661Y0050185D02*
X0084661Y0066933D01*
X0067913Y0066933D01*
X0067913Y0066680D01*
X0068044Y0065180D01*
X0068306Y0063696D01*
X0068696Y0062242D01*
X0069211Y0060826D01*
X0069847Y0059461D01*
X0070601Y0058157D01*
X0071464Y0056923D01*
X0072433Y0055769D01*
X0073498Y0054704D01*
X0074651Y0053736D01*
X0075885Y0052872D01*
X0077189Y0052119D01*
X0078554Y0051483D01*
X0079970Y0050968D01*
X0081425Y0050578D01*
X0082908Y0050316D01*
X0084408Y0050185D01*
X0084661Y0050185D01*
X0084661Y0051409D02*
X0085661Y0051409D01*
X0085661Y0052408D02*
X0084661Y0052408D01*
X0084661Y0053406D02*
X0085661Y0053406D01*
X0085661Y0054405D02*
X0084661Y0054405D01*
X0084661Y0055403D02*
X0085661Y0055403D01*
X0085661Y0056402D02*
X0084661Y0056402D01*
X0084661Y0057400D02*
X0085661Y0057400D01*
X0085661Y0058399D02*
X0084661Y0058399D01*
X0084661Y0059397D02*
X0085661Y0059397D01*
X0085661Y0060396D02*
X0084661Y0060396D01*
X0084661Y0061394D02*
X0085661Y0061394D01*
X0085661Y0062393D02*
X0084661Y0062393D01*
X0084661Y0063391D02*
X0085661Y0063391D01*
X0085661Y0064390D02*
X0084661Y0064390D01*
X0084661Y0065388D02*
X0085661Y0065388D01*
X0085661Y0066387D02*
X0084661Y0066387D01*
X0084661Y0066933D02*
X0085661Y0066933D01*
X0085661Y0067933D01*
X0084661Y0067933D01*
X0084661Y0066933D01*
X0084661Y0067385D02*
X0061711Y0067385D01*
X0061711Y0066387D02*
X0067939Y0066387D01*
X0068026Y0065388D02*
X0061711Y0065388D01*
X0061711Y0064390D02*
X0068184Y0064390D01*
X0068388Y0063391D02*
X0061711Y0063391D01*
X0061711Y0062393D02*
X0068655Y0062393D01*
X0069004Y0061394D02*
X0061711Y0061394D01*
X0061462Y0060396D02*
X0069412Y0060396D01*
X0069884Y0059397D02*
X0038395Y0059397D01*
X0037821Y0058399D02*
X0070461Y0058399D01*
X0071130Y0057400D02*
X0037247Y0057400D01*
X0036673Y0056402D02*
X0071902Y0056402D01*
X0072799Y0055403D02*
X0036099Y0055403D01*
X0035525Y0054405D02*
X0073855Y0054405D01*
X0075123Y0053406D02*
X0034951Y0053406D01*
X0034378Y0052408D02*
X0076690Y0052408D01*
X0078756Y0051409D02*
X0033804Y0051409D01*
X0033230Y0050411D02*
X0082372Y0050411D01*
X0082777Y0042423D02*
X0067046Y0042423D01*
X0067950Y0041424D02*
X0081873Y0041424D01*
X0081459Y0040426D02*
X0068363Y0040426D01*
X0068461Y0039427D02*
X0081361Y0039427D01*
X0081464Y0038429D02*
X0068358Y0038429D01*
X0067945Y0037430D02*
X0081878Y0037430D01*
X0087546Y0042423D02*
X0103777Y0042423D01*
X0102873Y0041424D02*
X0088450Y0041424D01*
X0088863Y0040426D02*
X0102459Y0040426D01*
X0102361Y0039427D02*
X0088961Y0039427D01*
X0088858Y0038429D02*
X0102464Y0038429D01*
X0102878Y0037430D02*
X0088445Y0037430D01*
X0091566Y0051409D02*
X0136530Y0051409D01*
X0135957Y0052408D02*
X0093633Y0052408D01*
X0095200Y0053406D02*
X0135383Y0053406D01*
X0134810Y0054405D02*
X0096468Y0054405D01*
X0097524Y0055403D02*
X0134237Y0055403D01*
X0133664Y0056402D02*
X0098421Y0056402D01*
X0099192Y0057400D02*
X0133091Y0057400D01*
X0132517Y0058399D02*
X0099862Y0058399D01*
X0100438Y0059397D02*
X0131944Y0059397D01*
X0131371Y0060396D02*
X0123462Y0060396D01*
X0123711Y0061394D02*
X0130798Y0061394D01*
X0130225Y0062393D02*
X0123711Y0062393D01*
X0123711Y0063391D02*
X0129652Y0063391D01*
X0129078Y0064390D02*
X0123711Y0064390D01*
X0123711Y0065388D02*
X0128505Y0065388D01*
X0127932Y0066387D02*
X0123711Y0066387D01*
X0123711Y0067385D02*
X0127359Y0067385D01*
X0126786Y0068384D02*
X0123711Y0068384D01*
X0123711Y0069382D02*
X0126212Y0069382D01*
X0125639Y0070381D02*
X0123711Y0070381D01*
X0123711Y0071379D02*
X0125066Y0071379D01*
X0124493Y0072378D02*
X0123711Y0072378D01*
X0123711Y0073377D02*
X0123920Y0073377D01*
X0114847Y0075374D02*
X0100490Y0075374D01*
X0100475Y0075405D02*
X0099722Y0076709D01*
X0098858Y0077943D01*
X0097890Y0079097D01*
X0096825Y0080162D01*
X0095671Y0081130D01*
X0094437Y0081994D01*
X0093133Y0082747D01*
X0091768Y0083383D01*
X0090353Y0083898D01*
X0088898Y0084288D01*
X0087415Y0084550D01*
X0085914Y0084681D01*
X0085661Y0084681D01*
X0085661Y0067933D01*
X0102409Y0067933D01*
X0102409Y0068186D01*
X0102278Y0069687D01*
X0102016Y0071170D01*
X0101627Y0072625D01*
X0101112Y0074040D01*
X0100475Y0075405D01*
X0099917Y0076372D02*
X0113902Y0076372D01*
X0113488Y0077371D02*
X0099259Y0077371D01*
X0098501Y0078369D02*
X0113361Y0078369D01*
X0113435Y0079368D02*
X0097619Y0079368D01*
X0096581Y0080366D02*
X0113849Y0080366D01*
X0114719Y0081365D02*
X0095336Y0081365D01*
X0093798Y0082363D02*
X0118761Y0082363D01*
X0118188Y0083362D02*
X0091815Y0083362D01*
X0088491Y0084360D02*
X0117614Y0084360D01*
X0117041Y0085359D02*
X0077915Y0085359D01*
X0078914Y0086357D02*
X0116468Y0086357D01*
X0115895Y0087356D02*
X0079912Y0087356D01*
X0080911Y0088354D02*
X0115322Y0088354D01*
X0114748Y0089353D02*
X0081909Y0089353D01*
X0082908Y0090351D02*
X0114175Y0090351D01*
X0113602Y0091350D02*
X0083661Y0091350D01*
X0083661Y0092348D02*
X0092994Y0092348D01*
X0092417Y0093347D02*
X0083661Y0093347D01*
X0083661Y0094345D02*
X0091841Y0094345D01*
X0091264Y0095344D02*
X0088964Y0095344D01*
X0090694Y0096342D02*
X0090929Y0096342D01*
X0086718Y0095344D02*
X0083661Y0095344D01*
X0083661Y0096342D02*
X0086142Y0096342D01*
X0085565Y0097341D02*
X0083661Y0097341D01*
X0083661Y0098339D02*
X0084989Y0098339D01*
X0085247Y0099338D02*
X0083661Y0099338D01*
X0085801Y0100336D02*
X0086900Y0100336D01*
X0087530Y0101335D02*
X0088629Y0101335D01*
X0089260Y0102333D02*
X0090359Y0102333D01*
X0090989Y0103332D02*
X0091405Y0103332D01*
X0091042Y0105329D02*
X0090775Y0105329D01*
X0090198Y0106327D02*
X0091414Y0106327D01*
X0092277Y0107326D02*
X0089622Y0107326D01*
X0087195Y0107326D02*
X0077661Y0107326D01*
X0077661Y0108324D02*
X0103858Y0108324D01*
X0104431Y0107326D02*
X0095951Y0107326D01*
X0096814Y0106327D02*
X0105004Y0106327D01*
X0105577Y0105329D02*
X0097186Y0105329D01*
X0097186Y0104330D02*
X0106150Y0104330D01*
X0106724Y0103332D02*
X0096823Y0103332D01*
X0095973Y0102333D02*
X0100201Y0102333D01*
X0098608Y0101335D02*
X0093080Y0101335D01*
X0093657Y0100336D02*
X0098383Y0100336D01*
X0098960Y0099338D02*
X0094233Y0099338D01*
X0096174Y0098339D02*
X0099536Y0098339D01*
X0100113Y0097341D02*
X0096750Y0097341D01*
X0097327Y0096342D02*
X0100689Y0096342D01*
X0097903Y0095344D02*
X0103861Y0095344D01*
X0103925Y0096342D02*
X0102898Y0096342D01*
X0105108Y0098339D02*
X0105193Y0098339D01*
X0104689Y0099338D02*
X0109016Y0099338D01*
X0108443Y0100336D02*
X0104113Y0100336D01*
X0103536Y0101335D02*
X0107870Y0101335D01*
X0107297Y0102333D02*
X0102960Y0102333D01*
X0103284Y0109323D02*
X0077661Y0109323D01*
X0077661Y0109605D02*
X0078348Y0110291D01*
X0079081Y0110095D01*
X0085128Y0113586D01*
X0085270Y0114116D01*
X0085604Y0113307D01*
X0086469Y0112443D01*
X0087597Y0111976D01*
X0088819Y0111976D01*
X0089948Y0112443D01*
X0090812Y0113307D01*
X0091280Y0114436D01*
X0091280Y0115658D01*
X0090812Y0116787D01*
X0089948Y0117651D01*
X0088819Y0118119D01*
X0087597Y0118119D01*
X0086469Y0117651D01*
X0085604Y0116787D01*
X0085137Y0115658D01*
X0085137Y0115094D01*
X0083490Y0117946D01*
X0083044Y0118065D01*
X0083690Y0118439D01*
X0083969Y0119479D01*
X0081462Y0123821D01*
X0080422Y0124100D01*
X0076761Y0121987D01*
X0076483Y0120946D01*
X0078990Y0116604D01*
X0079436Y0116484D01*
X0078874Y0116160D01*
X0078559Y0116160D01*
X0078130Y0115730D01*
X0076403Y0114733D01*
X0076136Y0113736D01*
X0073661Y0111261D01*
X0073661Y0093261D01*
X0072722Y0092322D01*
X0072644Y0092400D01*
X0071357Y0092933D01*
X0069965Y0092933D01*
X0068679Y0092400D01*
X0067694Y0091416D01*
X0067161Y0090129D01*
X0067161Y0088737D01*
X0067694Y0087450D01*
X0068679Y0086466D01*
X0069965Y0085933D01*
X0071357Y0085933D01*
X0072644Y0086466D01*
X0073628Y0087450D01*
X0073714Y0087658D01*
X0077661Y0091605D01*
X0077661Y0109605D01*
X0079473Y0110321D02*
X0102711Y0110321D01*
X0102138Y0111320D02*
X0081203Y0111320D01*
X0082932Y0112318D02*
X0086770Y0112318D01*
X0085601Y0113317D02*
X0084662Y0113317D01*
X0085010Y0115314D02*
X0085137Y0115314D01*
X0085408Y0116312D02*
X0084433Y0116312D01*
X0083857Y0117311D02*
X0086128Y0117311D01*
X0083467Y0118310D02*
X0098126Y0118310D01*
X0097552Y0119308D02*
X0083923Y0119308D01*
X0083491Y0120307D02*
X0096979Y0120307D01*
X0096406Y0121305D02*
X0088655Y0121305D01*
X0087531Y0120656D02*
X0090509Y0122376D01*
X0090788Y0123416D01*
X0088281Y0127758D01*
X0087241Y0128037D01*
X0084262Y0126317D01*
X0083984Y0125277D01*
X0086491Y0120935D01*
X0087531Y0120656D01*
X0086277Y0121305D02*
X0082914Y0121305D01*
X0082338Y0122304D02*
X0085700Y0122304D01*
X0085124Y0123302D02*
X0081762Y0123302D01*
X0079040Y0123302D02*
X0075121Y0123302D01*
X0074548Y0122304D02*
X0077310Y0122304D01*
X0076579Y0121305D02*
X0073974Y0121305D01*
X0073400Y0120307D02*
X0076852Y0120307D01*
X0077428Y0119308D02*
X0072826Y0119308D01*
X0072252Y0118310D02*
X0078005Y0118310D01*
X0078581Y0117311D02*
X0071678Y0117311D01*
X0071104Y0116312D02*
X0079138Y0116312D01*
X0077409Y0115314D02*
X0070531Y0115314D01*
X0069957Y0114315D02*
X0076291Y0114315D01*
X0075717Y0113317D02*
X0069383Y0113317D01*
X0068809Y0112318D02*
X0074718Y0112318D01*
X0073720Y0111320D02*
X0068235Y0111320D01*
X0067661Y0110321D02*
X0073661Y0110321D01*
X0073661Y0109323D02*
X0067087Y0109323D01*
X0066514Y0108324D02*
X0073661Y0108324D01*
X0073661Y0107326D02*
X0065940Y0107326D01*
X0065366Y0106327D02*
X0073661Y0106327D01*
X0073661Y0105329D02*
X0064792Y0105329D01*
X0064218Y0104330D02*
X0073661Y0104330D01*
X0073661Y0103332D02*
X0063644Y0103332D01*
X0063070Y0102333D02*
X0073661Y0102333D01*
X0073661Y0101335D02*
X0062497Y0101335D01*
X0061923Y0100336D02*
X0073661Y0100336D01*
X0073661Y0099338D02*
X0061349Y0099338D01*
X0065129Y0098339D02*
X0073661Y0098339D01*
X0073661Y0097341D02*
X0065984Y0097341D01*
X0066398Y0096342D02*
X0073661Y0096342D01*
X0073661Y0095344D02*
X0066461Y0095344D01*
X0066324Y0094345D02*
X0073661Y0094345D01*
X0073661Y0093347D02*
X0065910Y0093347D01*
X0064950Y0092348D02*
X0068627Y0092348D01*
X0067667Y0091350D02*
X0056758Y0091350D01*
X0057332Y0092348D02*
X0060372Y0092348D01*
X0059412Y0093347D02*
X0057906Y0093347D01*
X0058480Y0094345D02*
X0058999Y0094345D01*
X0056184Y0090351D02*
X0067253Y0090351D01*
X0067161Y0089353D02*
X0055610Y0089353D01*
X0055036Y0088354D02*
X0067320Y0088354D01*
X0067789Y0087356D02*
X0054463Y0087356D01*
X0053889Y0086357D02*
X0068941Y0086357D01*
X0071260Y0084360D02*
X0052741Y0084360D01*
X0052167Y0083362D02*
X0070261Y0083362D01*
X0069263Y0082363D02*
X0051593Y0082363D01*
X0053315Y0085359D02*
X0072258Y0085359D01*
X0072381Y0086357D02*
X0073257Y0086357D01*
X0073534Y0087356D02*
X0074255Y0087356D01*
X0074411Y0088354D02*
X0075254Y0088354D01*
X0075409Y0089353D02*
X0076252Y0089353D01*
X0076408Y0090351D02*
X0077251Y0090351D01*
X0077406Y0091350D02*
X0078249Y0091350D01*
X0077661Y0092348D02*
X0079248Y0092348D01*
X0079661Y0093347D02*
X0077661Y0093347D01*
X0077661Y0094345D02*
X0079661Y0094345D01*
X0079661Y0095344D02*
X0077661Y0095344D01*
X0077661Y0096342D02*
X0079661Y0096342D01*
X0079661Y0097341D02*
X0077661Y0097341D01*
X0077661Y0098339D02*
X0079661Y0098339D01*
X0079661Y0099338D02*
X0077661Y0099338D01*
X0077661Y0100336D02*
X0079661Y0100336D01*
X0079661Y0101335D02*
X0077661Y0101335D01*
X0077661Y0102333D02*
X0080233Y0102333D01*
X0081232Y0103332D02*
X0077661Y0103332D01*
X0077661Y0104330D02*
X0082230Y0104330D01*
X0083229Y0105329D02*
X0077661Y0105329D01*
X0077661Y0106327D02*
X0085466Y0106327D01*
X0084659Y0103931D02*
X0081661Y0100933D01*
X0081661Y0091933D01*
X0064661Y0074933D01*
X0055161Y0074933D01*
X0054161Y0073933D01*
X0054161Y0067433D01*
X0046611Y0067385D02*
X0042985Y0067385D01*
X0042412Y0066387D02*
X0046611Y0066387D01*
X0046611Y0065388D02*
X0041838Y0065388D01*
X0041264Y0064390D02*
X0046611Y0064390D01*
X0046611Y0063391D02*
X0040690Y0063391D01*
X0040116Y0062393D02*
X0046611Y0062393D01*
X0046611Y0061394D02*
X0039542Y0061394D01*
X0038968Y0060396D02*
X0046860Y0060396D01*
X0046611Y0068384D02*
X0043559Y0068384D01*
X0044133Y0069382D02*
X0046611Y0069382D01*
X0046611Y0070381D02*
X0044707Y0070381D01*
X0045281Y0071379D02*
X0046611Y0071379D01*
X0046611Y0072378D02*
X0045855Y0072378D01*
X0046429Y0073377D02*
X0046611Y0073377D01*
X0056834Y0077371D02*
X0064270Y0077371D01*
X0065269Y0078369D02*
X0056961Y0078369D01*
X0056887Y0079368D02*
X0066267Y0079368D01*
X0067266Y0080366D02*
X0056474Y0080366D01*
X0055604Y0081365D02*
X0068264Y0081365D01*
X0070926Y0078369D02*
X0071822Y0078369D01*
X0071464Y0077943D02*
X0070601Y0076709D01*
X0069847Y0075405D01*
X0069211Y0074040D01*
X0068696Y0072625D01*
X0068306Y0071170D01*
X0068044Y0069687D01*
X0067913Y0068186D01*
X0067913Y0067933D01*
X0084661Y0067933D01*
X0084661Y0084681D01*
X0084408Y0084681D01*
X0082908Y0084550D01*
X0081425Y0084288D01*
X0079970Y0083898D01*
X0078554Y0083383D01*
X0077189Y0082747D01*
X0075885Y0081994D01*
X0074651Y0081130D01*
X0073498Y0080162D01*
X0072433Y0079097D01*
X0071464Y0077943D01*
X0071064Y0077371D02*
X0069927Y0077371D01*
X0070406Y0076372D02*
X0068929Y0076372D01*
X0069833Y0075374D02*
X0067930Y0075374D01*
X0066932Y0074375D02*
X0069367Y0074375D01*
X0068970Y0073377D02*
X0065933Y0073377D01*
X0068630Y0072378D02*
X0061711Y0072378D01*
X0061711Y0071379D02*
X0068362Y0071379D01*
X0068167Y0070381D02*
X0061711Y0070381D01*
X0061711Y0069382D02*
X0068018Y0069382D01*
X0067931Y0068384D02*
X0061711Y0068384D01*
X0071924Y0079368D02*
X0072703Y0079368D01*
X0072923Y0080366D02*
X0073741Y0080366D01*
X0073921Y0081365D02*
X0074987Y0081365D01*
X0074920Y0082363D02*
X0076525Y0082363D01*
X0075918Y0083362D02*
X0078508Y0083362D01*
X0076917Y0084360D02*
X0081832Y0084360D01*
X0084661Y0084360D02*
X0085661Y0084360D01*
X0085661Y0083362D02*
X0084661Y0083362D01*
X0084661Y0082363D02*
X0085661Y0082363D01*
X0085661Y0081365D02*
X0084661Y0081365D01*
X0084661Y0080366D02*
X0085661Y0080366D01*
X0085661Y0079368D02*
X0084661Y0079368D01*
X0084661Y0078369D02*
X0085661Y0078369D01*
X0085661Y0077371D02*
X0084661Y0077371D01*
X0084661Y0076372D02*
X0085661Y0076372D01*
X0085661Y0075374D02*
X0084661Y0075374D01*
X0084661Y0074375D02*
X0085661Y0074375D01*
X0085661Y0073377D02*
X0084661Y0073377D01*
X0084661Y0072378D02*
X0085661Y0072378D01*
X0085661Y0071379D02*
X0084661Y0071379D01*
X0084661Y0070381D02*
X0085661Y0070381D01*
X0085661Y0069382D02*
X0084661Y0069382D01*
X0084661Y0068384D02*
X0085661Y0068384D01*
X0085661Y0067385D02*
X0108611Y0067385D01*
X0108611Y0066387D02*
X0102384Y0066387D01*
X0102296Y0065388D02*
X0108611Y0065388D01*
X0108611Y0064390D02*
X0102139Y0064390D01*
X0101935Y0063391D02*
X0108611Y0063391D01*
X0108611Y0062393D02*
X0101667Y0062393D01*
X0101318Y0061394D02*
X0108611Y0061394D01*
X0108860Y0060396D02*
X0100911Y0060396D01*
X0102392Y0068384D02*
X0108611Y0068384D01*
X0108611Y0069382D02*
X0102305Y0069382D01*
X0102156Y0070381D02*
X0108611Y0070381D01*
X0108611Y0071379D02*
X0101960Y0071379D01*
X0101693Y0072378D02*
X0108611Y0072378D01*
X0108611Y0073377D02*
X0101353Y0073377D01*
X0100955Y0074375D02*
X0108765Y0074375D01*
X0109950Y0092348D02*
X0113029Y0092348D01*
X0112456Y0093347D02*
X0110910Y0093347D01*
X0111324Y0094345D02*
X0111882Y0094345D01*
X0105372Y0092348D02*
X0095981Y0092348D01*
X0097710Y0093347D02*
X0104412Y0093347D01*
X0103999Y0094345D02*
X0098274Y0094345D01*
X0086671Y0103931D02*
X0084659Y0103931D01*
X0075661Y0110433D02*
X0079388Y0114160D01*
X0080765Y0114160D01*
X0075661Y0110433D02*
X0075661Y0092433D01*
X0072661Y0089433D01*
X0070661Y0089433D01*
X0072696Y0092348D02*
X0072748Y0092348D01*
X0089647Y0112318D02*
X0101565Y0112318D01*
X0100992Y0113317D02*
X0090816Y0113317D01*
X0091230Y0114315D02*
X0100418Y0114315D01*
X0099845Y0115314D02*
X0091280Y0115314D01*
X0091009Y0116312D02*
X0099272Y0116312D01*
X0098699Y0117311D02*
X0090289Y0117311D01*
X0090384Y0122304D02*
X0095833Y0122304D01*
X0095260Y0123302D02*
X0090757Y0123302D01*
X0090277Y0124301D02*
X0094686Y0124301D01*
X0094113Y0125299D02*
X0089701Y0125299D01*
X0089124Y0126298D02*
X0093540Y0126298D01*
X0092967Y0127296D02*
X0088548Y0127296D01*
X0085958Y0127296D02*
X0077417Y0127296D01*
X0077991Y0128295D02*
X0092394Y0128295D01*
X0091820Y0129293D02*
X0078565Y0129293D01*
X0079138Y0130292D02*
X0091247Y0130292D01*
X0090674Y0131290D02*
X0079712Y0131290D01*
X0080286Y0132289D02*
X0084030Y0132289D01*
X0082433Y0133287D02*
X0080860Y0133287D01*
X0081434Y0134286D02*
X0081731Y0134286D01*
X0086293Y0132289D02*
X0090101Y0132289D01*
X0089528Y0133287D02*
X0087889Y0133287D01*
X0088592Y0134286D02*
X0088954Y0134286D01*
X0084257Y0126298D02*
X0076843Y0126298D01*
X0076269Y0125299D02*
X0083990Y0125299D01*
X0084547Y0124301D02*
X0075695Y0124301D01*
X0108546Y0042423D02*
X0138277Y0042423D01*
X0137373Y0041424D02*
X0109450Y0041424D01*
X0109863Y0040426D02*
X0136959Y0040426D01*
X0136861Y0039427D02*
X0109961Y0039427D01*
X0109858Y0038429D02*
X0136964Y0038429D01*
X0137378Y0037430D02*
X0109445Y0037430D01*
D16*
X0097161Y0039933D03*
X0074161Y0039933D03*
X0111161Y0085433D03*
X0070661Y0089433D03*
X0059161Y0086933D03*
M02*
