G75*
%MOIN*%
%OFA0B0*%
%FSLAX25Y25*%
%IPPOS*%
%LPD*%
%AMOC8*
5,1,8,0,0,1.08239X$1,22.5*
%
%ADD10C,0.00800*%
%ADD11C,0.00000*%
D10*
X0022661Y0035433D02*
X0085161Y0144183D01*
X0085161Y0144308D02*
X0147661Y0035433D01*
X0022661Y0035433D01*
D11*
X0027161Y0039433D02*
X0027163Y0039532D01*
X0027169Y0039632D01*
X0027179Y0039731D01*
X0027193Y0039829D01*
X0027210Y0039927D01*
X0027232Y0040024D01*
X0027257Y0040120D01*
X0027286Y0040215D01*
X0027319Y0040309D01*
X0027356Y0040401D01*
X0027396Y0040492D01*
X0027440Y0040581D01*
X0027488Y0040669D01*
X0027539Y0040754D01*
X0027593Y0040837D01*
X0027650Y0040919D01*
X0027711Y0040997D01*
X0027775Y0041074D01*
X0027841Y0041147D01*
X0027911Y0041218D01*
X0027983Y0041286D01*
X0028058Y0041352D01*
X0028136Y0041414D01*
X0028216Y0041473D01*
X0028298Y0041529D01*
X0028382Y0041581D01*
X0028469Y0041630D01*
X0028557Y0041676D01*
X0028647Y0041718D01*
X0028739Y0041757D01*
X0028832Y0041792D01*
X0028926Y0041823D01*
X0029022Y0041850D01*
X0029119Y0041873D01*
X0029216Y0041893D01*
X0029314Y0041909D01*
X0029413Y0041921D01*
X0029512Y0041929D01*
X0029611Y0041933D01*
X0029711Y0041933D01*
X0029810Y0041929D01*
X0029909Y0041921D01*
X0030008Y0041909D01*
X0030106Y0041893D01*
X0030203Y0041873D01*
X0030300Y0041850D01*
X0030396Y0041823D01*
X0030490Y0041792D01*
X0030583Y0041757D01*
X0030675Y0041718D01*
X0030765Y0041676D01*
X0030853Y0041630D01*
X0030940Y0041581D01*
X0031024Y0041529D01*
X0031106Y0041473D01*
X0031186Y0041414D01*
X0031264Y0041352D01*
X0031339Y0041286D01*
X0031411Y0041218D01*
X0031481Y0041147D01*
X0031547Y0041074D01*
X0031611Y0040997D01*
X0031672Y0040919D01*
X0031729Y0040837D01*
X0031783Y0040754D01*
X0031834Y0040669D01*
X0031882Y0040581D01*
X0031926Y0040492D01*
X0031966Y0040401D01*
X0032003Y0040309D01*
X0032036Y0040215D01*
X0032065Y0040120D01*
X0032090Y0040024D01*
X0032112Y0039927D01*
X0032129Y0039829D01*
X0032143Y0039731D01*
X0032153Y0039632D01*
X0032159Y0039532D01*
X0032161Y0039433D01*
X0032159Y0039334D01*
X0032153Y0039234D01*
X0032143Y0039135D01*
X0032129Y0039037D01*
X0032112Y0038939D01*
X0032090Y0038842D01*
X0032065Y0038746D01*
X0032036Y0038651D01*
X0032003Y0038557D01*
X0031966Y0038465D01*
X0031926Y0038374D01*
X0031882Y0038285D01*
X0031834Y0038197D01*
X0031783Y0038112D01*
X0031729Y0038029D01*
X0031672Y0037947D01*
X0031611Y0037869D01*
X0031547Y0037792D01*
X0031481Y0037719D01*
X0031411Y0037648D01*
X0031339Y0037580D01*
X0031264Y0037514D01*
X0031186Y0037452D01*
X0031106Y0037393D01*
X0031024Y0037337D01*
X0030940Y0037285D01*
X0030853Y0037236D01*
X0030765Y0037190D01*
X0030675Y0037148D01*
X0030583Y0037109D01*
X0030490Y0037074D01*
X0030396Y0037043D01*
X0030300Y0037016D01*
X0030203Y0036993D01*
X0030106Y0036973D01*
X0030008Y0036957D01*
X0029909Y0036945D01*
X0029810Y0036937D01*
X0029711Y0036933D01*
X0029611Y0036933D01*
X0029512Y0036937D01*
X0029413Y0036945D01*
X0029314Y0036957D01*
X0029216Y0036973D01*
X0029119Y0036993D01*
X0029022Y0037016D01*
X0028926Y0037043D01*
X0028832Y0037074D01*
X0028739Y0037109D01*
X0028647Y0037148D01*
X0028557Y0037190D01*
X0028469Y0037236D01*
X0028382Y0037285D01*
X0028298Y0037337D01*
X0028216Y0037393D01*
X0028136Y0037452D01*
X0028058Y0037514D01*
X0027983Y0037580D01*
X0027911Y0037648D01*
X0027841Y0037719D01*
X0027775Y0037792D01*
X0027711Y0037869D01*
X0027650Y0037947D01*
X0027593Y0038029D01*
X0027539Y0038112D01*
X0027488Y0038197D01*
X0027440Y0038285D01*
X0027396Y0038374D01*
X0027356Y0038465D01*
X0027319Y0038557D01*
X0027286Y0038651D01*
X0027257Y0038746D01*
X0027232Y0038842D01*
X0027210Y0038939D01*
X0027193Y0039037D01*
X0027179Y0039135D01*
X0027169Y0039234D01*
X0027163Y0039334D01*
X0027161Y0039433D01*
X0062161Y0039433D02*
X0062163Y0039532D01*
X0062169Y0039632D01*
X0062179Y0039731D01*
X0062193Y0039829D01*
X0062210Y0039927D01*
X0062232Y0040024D01*
X0062257Y0040120D01*
X0062286Y0040215D01*
X0062319Y0040309D01*
X0062356Y0040401D01*
X0062396Y0040492D01*
X0062440Y0040581D01*
X0062488Y0040669D01*
X0062539Y0040754D01*
X0062593Y0040837D01*
X0062650Y0040919D01*
X0062711Y0040997D01*
X0062775Y0041074D01*
X0062841Y0041147D01*
X0062911Y0041218D01*
X0062983Y0041286D01*
X0063058Y0041352D01*
X0063136Y0041414D01*
X0063216Y0041473D01*
X0063298Y0041529D01*
X0063382Y0041581D01*
X0063469Y0041630D01*
X0063557Y0041676D01*
X0063647Y0041718D01*
X0063739Y0041757D01*
X0063832Y0041792D01*
X0063926Y0041823D01*
X0064022Y0041850D01*
X0064119Y0041873D01*
X0064216Y0041893D01*
X0064314Y0041909D01*
X0064413Y0041921D01*
X0064512Y0041929D01*
X0064611Y0041933D01*
X0064711Y0041933D01*
X0064810Y0041929D01*
X0064909Y0041921D01*
X0065008Y0041909D01*
X0065106Y0041893D01*
X0065203Y0041873D01*
X0065300Y0041850D01*
X0065396Y0041823D01*
X0065490Y0041792D01*
X0065583Y0041757D01*
X0065675Y0041718D01*
X0065765Y0041676D01*
X0065853Y0041630D01*
X0065940Y0041581D01*
X0066024Y0041529D01*
X0066106Y0041473D01*
X0066186Y0041414D01*
X0066264Y0041352D01*
X0066339Y0041286D01*
X0066411Y0041218D01*
X0066481Y0041147D01*
X0066547Y0041074D01*
X0066611Y0040997D01*
X0066672Y0040919D01*
X0066729Y0040837D01*
X0066783Y0040754D01*
X0066834Y0040669D01*
X0066882Y0040581D01*
X0066926Y0040492D01*
X0066966Y0040401D01*
X0067003Y0040309D01*
X0067036Y0040215D01*
X0067065Y0040120D01*
X0067090Y0040024D01*
X0067112Y0039927D01*
X0067129Y0039829D01*
X0067143Y0039731D01*
X0067153Y0039632D01*
X0067159Y0039532D01*
X0067161Y0039433D01*
X0067159Y0039334D01*
X0067153Y0039234D01*
X0067143Y0039135D01*
X0067129Y0039037D01*
X0067112Y0038939D01*
X0067090Y0038842D01*
X0067065Y0038746D01*
X0067036Y0038651D01*
X0067003Y0038557D01*
X0066966Y0038465D01*
X0066926Y0038374D01*
X0066882Y0038285D01*
X0066834Y0038197D01*
X0066783Y0038112D01*
X0066729Y0038029D01*
X0066672Y0037947D01*
X0066611Y0037869D01*
X0066547Y0037792D01*
X0066481Y0037719D01*
X0066411Y0037648D01*
X0066339Y0037580D01*
X0066264Y0037514D01*
X0066186Y0037452D01*
X0066106Y0037393D01*
X0066024Y0037337D01*
X0065940Y0037285D01*
X0065853Y0037236D01*
X0065765Y0037190D01*
X0065675Y0037148D01*
X0065583Y0037109D01*
X0065490Y0037074D01*
X0065396Y0037043D01*
X0065300Y0037016D01*
X0065203Y0036993D01*
X0065106Y0036973D01*
X0065008Y0036957D01*
X0064909Y0036945D01*
X0064810Y0036937D01*
X0064711Y0036933D01*
X0064611Y0036933D01*
X0064512Y0036937D01*
X0064413Y0036945D01*
X0064314Y0036957D01*
X0064216Y0036973D01*
X0064119Y0036993D01*
X0064022Y0037016D01*
X0063926Y0037043D01*
X0063832Y0037074D01*
X0063739Y0037109D01*
X0063647Y0037148D01*
X0063557Y0037190D01*
X0063469Y0037236D01*
X0063382Y0037285D01*
X0063298Y0037337D01*
X0063216Y0037393D01*
X0063136Y0037452D01*
X0063058Y0037514D01*
X0062983Y0037580D01*
X0062911Y0037648D01*
X0062841Y0037719D01*
X0062775Y0037792D01*
X0062711Y0037869D01*
X0062650Y0037947D01*
X0062593Y0038029D01*
X0062539Y0038112D01*
X0062488Y0038197D01*
X0062440Y0038285D01*
X0062396Y0038374D01*
X0062356Y0038465D01*
X0062319Y0038557D01*
X0062286Y0038651D01*
X0062257Y0038746D01*
X0062232Y0038842D01*
X0062210Y0038939D01*
X0062193Y0039037D01*
X0062179Y0039135D01*
X0062169Y0039234D01*
X0062163Y0039334D01*
X0062161Y0039433D01*
X0082661Y0039433D02*
X0082663Y0039532D01*
X0082669Y0039632D01*
X0082679Y0039731D01*
X0082693Y0039829D01*
X0082710Y0039927D01*
X0082732Y0040024D01*
X0082757Y0040120D01*
X0082786Y0040215D01*
X0082819Y0040309D01*
X0082856Y0040401D01*
X0082896Y0040492D01*
X0082940Y0040581D01*
X0082988Y0040669D01*
X0083039Y0040754D01*
X0083093Y0040837D01*
X0083150Y0040919D01*
X0083211Y0040997D01*
X0083275Y0041074D01*
X0083341Y0041147D01*
X0083411Y0041218D01*
X0083483Y0041286D01*
X0083558Y0041352D01*
X0083636Y0041414D01*
X0083716Y0041473D01*
X0083798Y0041529D01*
X0083882Y0041581D01*
X0083969Y0041630D01*
X0084057Y0041676D01*
X0084147Y0041718D01*
X0084239Y0041757D01*
X0084332Y0041792D01*
X0084426Y0041823D01*
X0084522Y0041850D01*
X0084619Y0041873D01*
X0084716Y0041893D01*
X0084814Y0041909D01*
X0084913Y0041921D01*
X0085012Y0041929D01*
X0085111Y0041933D01*
X0085211Y0041933D01*
X0085310Y0041929D01*
X0085409Y0041921D01*
X0085508Y0041909D01*
X0085606Y0041893D01*
X0085703Y0041873D01*
X0085800Y0041850D01*
X0085896Y0041823D01*
X0085990Y0041792D01*
X0086083Y0041757D01*
X0086175Y0041718D01*
X0086265Y0041676D01*
X0086353Y0041630D01*
X0086440Y0041581D01*
X0086524Y0041529D01*
X0086606Y0041473D01*
X0086686Y0041414D01*
X0086764Y0041352D01*
X0086839Y0041286D01*
X0086911Y0041218D01*
X0086981Y0041147D01*
X0087047Y0041074D01*
X0087111Y0040997D01*
X0087172Y0040919D01*
X0087229Y0040837D01*
X0087283Y0040754D01*
X0087334Y0040669D01*
X0087382Y0040581D01*
X0087426Y0040492D01*
X0087466Y0040401D01*
X0087503Y0040309D01*
X0087536Y0040215D01*
X0087565Y0040120D01*
X0087590Y0040024D01*
X0087612Y0039927D01*
X0087629Y0039829D01*
X0087643Y0039731D01*
X0087653Y0039632D01*
X0087659Y0039532D01*
X0087661Y0039433D01*
X0087659Y0039334D01*
X0087653Y0039234D01*
X0087643Y0039135D01*
X0087629Y0039037D01*
X0087612Y0038939D01*
X0087590Y0038842D01*
X0087565Y0038746D01*
X0087536Y0038651D01*
X0087503Y0038557D01*
X0087466Y0038465D01*
X0087426Y0038374D01*
X0087382Y0038285D01*
X0087334Y0038197D01*
X0087283Y0038112D01*
X0087229Y0038029D01*
X0087172Y0037947D01*
X0087111Y0037869D01*
X0087047Y0037792D01*
X0086981Y0037719D01*
X0086911Y0037648D01*
X0086839Y0037580D01*
X0086764Y0037514D01*
X0086686Y0037452D01*
X0086606Y0037393D01*
X0086524Y0037337D01*
X0086440Y0037285D01*
X0086353Y0037236D01*
X0086265Y0037190D01*
X0086175Y0037148D01*
X0086083Y0037109D01*
X0085990Y0037074D01*
X0085896Y0037043D01*
X0085800Y0037016D01*
X0085703Y0036993D01*
X0085606Y0036973D01*
X0085508Y0036957D01*
X0085409Y0036945D01*
X0085310Y0036937D01*
X0085211Y0036933D01*
X0085111Y0036933D01*
X0085012Y0036937D01*
X0084913Y0036945D01*
X0084814Y0036957D01*
X0084716Y0036973D01*
X0084619Y0036993D01*
X0084522Y0037016D01*
X0084426Y0037043D01*
X0084332Y0037074D01*
X0084239Y0037109D01*
X0084147Y0037148D01*
X0084057Y0037190D01*
X0083969Y0037236D01*
X0083882Y0037285D01*
X0083798Y0037337D01*
X0083716Y0037393D01*
X0083636Y0037452D01*
X0083558Y0037514D01*
X0083483Y0037580D01*
X0083411Y0037648D01*
X0083341Y0037719D01*
X0083275Y0037792D01*
X0083211Y0037869D01*
X0083150Y0037947D01*
X0083093Y0038029D01*
X0083039Y0038112D01*
X0082988Y0038197D01*
X0082940Y0038285D01*
X0082896Y0038374D01*
X0082856Y0038465D01*
X0082819Y0038557D01*
X0082786Y0038651D01*
X0082757Y0038746D01*
X0082732Y0038842D01*
X0082710Y0038939D01*
X0082693Y0039037D01*
X0082679Y0039135D01*
X0082669Y0039234D01*
X0082663Y0039334D01*
X0082661Y0039433D01*
X0103661Y0039433D02*
X0103663Y0039532D01*
X0103669Y0039632D01*
X0103679Y0039731D01*
X0103693Y0039829D01*
X0103710Y0039927D01*
X0103732Y0040024D01*
X0103757Y0040120D01*
X0103786Y0040215D01*
X0103819Y0040309D01*
X0103856Y0040401D01*
X0103896Y0040492D01*
X0103940Y0040581D01*
X0103988Y0040669D01*
X0104039Y0040754D01*
X0104093Y0040837D01*
X0104150Y0040919D01*
X0104211Y0040997D01*
X0104275Y0041074D01*
X0104341Y0041147D01*
X0104411Y0041218D01*
X0104483Y0041286D01*
X0104558Y0041352D01*
X0104636Y0041414D01*
X0104716Y0041473D01*
X0104798Y0041529D01*
X0104882Y0041581D01*
X0104969Y0041630D01*
X0105057Y0041676D01*
X0105147Y0041718D01*
X0105239Y0041757D01*
X0105332Y0041792D01*
X0105426Y0041823D01*
X0105522Y0041850D01*
X0105619Y0041873D01*
X0105716Y0041893D01*
X0105814Y0041909D01*
X0105913Y0041921D01*
X0106012Y0041929D01*
X0106111Y0041933D01*
X0106211Y0041933D01*
X0106310Y0041929D01*
X0106409Y0041921D01*
X0106508Y0041909D01*
X0106606Y0041893D01*
X0106703Y0041873D01*
X0106800Y0041850D01*
X0106896Y0041823D01*
X0106990Y0041792D01*
X0107083Y0041757D01*
X0107175Y0041718D01*
X0107265Y0041676D01*
X0107353Y0041630D01*
X0107440Y0041581D01*
X0107524Y0041529D01*
X0107606Y0041473D01*
X0107686Y0041414D01*
X0107764Y0041352D01*
X0107839Y0041286D01*
X0107911Y0041218D01*
X0107981Y0041147D01*
X0108047Y0041074D01*
X0108111Y0040997D01*
X0108172Y0040919D01*
X0108229Y0040837D01*
X0108283Y0040754D01*
X0108334Y0040669D01*
X0108382Y0040581D01*
X0108426Y0040492D01*
X0108466Y0040401D01*
X0108503Y0040309D01*
X0108536Y0040215D01*
X0108565Y0040120D01*
X0108590Y0040024D01*
X0108612Y0039927D01*
X0108629Y0039829D01*
X0108643Y0039731D01*
X0108653Y0039632D01*
X0108659Y0039532D01*
X0108661Y0039433D01*
X0108659Y0039334D01*
X0108653Y0039234D01*
X0108643Y0039135D01*
X0108629Y0039037D01*
X0108612Y0038939D01*
X0108590Y0038842D01*
X0108565Y0038746D01*
X0108536Y0038651D01*
X0108503Y0038557D01*
X0108466Y0038465D01*
X0108426Y0038374D01*
X0108382Y0038285D01*
X0108334Y0038197D01*
X0108283Y0038112D01*
X0108229Y0038029D01*
X0108172Y0037947D01*
X0108111Y0037869D01*
X0108047Y0037792D01*
X0107981Y0037719D01*
X0107911Y0037648D01*
X0107839Y0037580D01*
X0107764Y0037514D01*
X0107686Y0037452D01*
X0107606Y0037393D01*
X0107524Y0037337D01*
X0107440Y0037285D01*
X0107353Y0037236D01*
X0107265Y0037190D01*
X0107175Y0037148D01*
X0107083Y0037109D01*
X0106990Y0037074D01*
X0106896Y0037043D01*
X0106800Y0037016D01*
X0106703Y0036993D01*
X0106606Y0036973D01*
X0106508Y0036957D01*
X0106409Y0036945D01*
X0106310Y0036937D01*
X0106211Y0036933D01*
X0106111Y0036933D01*
X0106012Y0036937D01*
X0105913Y0036945D01*
X0105814Y0036957D01*
X0105716Y0036973D01*
X0105619Y0036993D01*
X0105522Y0037016D01*
X0105426Y0037043D01*
X0105332Y0037074D01*
X0105239Y0037109D01*
X0105147Y0037148D01*
X0105057Y0037190D01*
X0104969Y0037236D01*
X0104882Y0037285D01*
X0104798Y0037337D01*
X0104716Y0037393D01*
X0104636Y0037452D01*
X0104558Y0037514D01*
X0104483Y0037580D01*
X0104411Y0037648D01*
X0104341Y0037719D01*
X0104275Y0037792D01*
X0104211Y0037869D01*
X0104150Y0037947D01*
X0104093Y0038029D01*
X0104039Y0038112D01*
X0103988Y0038197D01*
X0103940Y0038285D01*
X0103896Y0038374D01*
X0103856Y0038465D01*
X0103819Y0038557D01*
X0103786Y0038651D01*
X0103757Y0038746D01*
X0103732Y0038842D01*
X0103710Y0038939D01*
X0103693Y0039037D01*
X0103679Y0039135D01*
X0103669Y0039234D01*
X0103663Y0039334D01*
X0103661Y0039433D01*
X0138161Y0039433D02*
X0138163Y0039532D01*
X0138169Y0039632D01*
X0138179Y0039731D01*
X0138193Y0039829D01*
X0138210Y0039927D01*
X0138232Y0040024D01*
X0138257Y0040120D01*
X0138286Y0040215D01*
X0138319Y0040309D01*
X0138356Y0040401D01*
X0138396Y0040492D01*
X0138440Y0040581D01*
X0138488Y0040669D01*
X0138539Y0040754D01*
X0138593Y0040837D01*
X0138650Y0040919D01*
X0138711Y0040997D01*
X0138775Y0041074D01*
X0138841Y0041147D01*
X0138911Y0041218D01*
X0138983Y0041286D01*
X0139058Y0041352D01*
X0139136Y0041414D01*
X0139216Y0041473D01*
X0139298Y0041529D01*
X0139382Y0041581D01*
X0139469Y0041630D01*
X0139557Y0041676D01*
X0139647Y0041718D01*
X0139739Y0041757D01*
X0139832Y0041792D01*
X0139926Y0041823D01*
X0140022Y0041850D01*
X0140119Y0041873D01*
X0140216Y0041893D01*
X0140314Y0041909D01*
X0140413Y0041921D01*
X0140512Y0041929D01*
X0140611Y0041933D01*
X0140711Y0041933D01*
X0140810Y0041929D01*
X0140909Y0041921D01*
X0141008Y0041909D01*
X0141106Y0041893D01*
X0141203Y0041873D01*
X0141300Y0041850D01*
X0141396Y0041823D01*
X0141490Y0041792D01*
X0141583Y0041757D01*
X0141675Y0041718D01*
X0141765Y0041676D01*
X0141853Y0041630D01*
X0141940Y0041581D01*
X0142024Y0041529D01*
X0142106Y0041473D01*
X0142186Y0041414D01*
X0142264Y0041352D01*
X0142339Y0041286D01*
X0142411Y0041218D01*
X0142481Y0041147D01*
X0142547Y0041074D01*
X0142611Y0040997D01*
X0142672Y0040919D01*
X0142729Y0040837D01*
X0142783Y0040754D01*
X0142834Y0040669D01*
X0142882Y0040581D01*
X0142926Y0040492D01*
X0142966Y0040401D01*
X0143003Y0040309D01*
X0143036Y0040215D01*
X0143065Y0040120D01*
X0143090Y0040024D01*
X0143112Y0039927D01*
X0143129Y0039829D01*
X0143143Y0039731D01*
X0143153Y0039632D01*
X0143159Y0039532D01*
X0143161Y0039433D01*
X0143159Y0039334D01*
X0143153Y0039234D01*
X0143143Y0039135D01*
X0143129Y0039037D01*
X0143112Y0038939D01*
X0143090Y0038842D01*
X0143065Y0038746D01*
X0143036Y0038651D01*
X0143003Y0038557D01*
X0142966Y0038465D01*
X0142926Y0038374D01*
X0142882Y0038285D01*
X0142834Y0038197D01*
X0142783Y0038112D01*
X0142729Y0038029D01*
X0142672Y0037947D01*
X0142611Y0037869D01*
X0142547Y0037792D01*
X0142481Y0037719D01*
X0142411Y0037648D01*
X0142339Y0037580D01*
X0142264Y0037514D01*
X0142186Y0037452D01*
X0142106Y0037393D01*
X0142024Y0037337D01*
X0141940Y0037285D01*
X0141853Y0037236D01*
X0141765Y0037190D01*
X0141675Y0037148D01*
X0141583Y0037109D01*
X0141490Y0037074D01*
X0141396Y0037043D01*
X0141300Y0037016D01*
X0141203Y0036993D01*
X0141106Y0036973D01*
X0141008Y0036957D01*
X0140909Y0036945D01*
X0140810Y0036937D01*
X0140711Y0036933D01*
X0140611Y0036933D01*
X0140512Y0036937D01*
X0140413Y0036945D01*
X0140314Y0036957D01*
X0140216Y0036973D01*
X0140119Y0036993D01*
X0140022Y0037016D01*
X0139926Y0037043D01*
X0139832Y0037074D01*
X0139739Y0037109D01*
X0139647Y0037148D01*
X0139557Y0037190D01*
X0139469Y0037236D01*
X0139382Y0037285D01*
X0139298Y0037337D01*
X0139216Y0037393D01*
X0139136Y0037452D01*
X0139058Y0037514D01*
X0138983Y0037580D01*
X0138911Y0037648D01*
X0138841Y0037719D01*
X0138775Y0037792D01*
X0138711Y0037869D01*
X0138650Y0037947D01*
X0138593Y0038029D01*
X0138539Y0038112D01*
X0138488Y0038197D01*
X0138440Y0038285D01*
X0138396Y0038374D01*
X0138356Y0038465D01*
X0138319Y0038557D01*
X0138286Y0038651D01*
X0138257Y0038746D01*
X0138232Y0038842D01*
X0138210Y0038939D01*
X0138193Y0039037D01*
X0138179Y0039135D01*
X0138169Y0039234D01*
X0138163Y0039334D01*
X0138161Y0039433D01*
X0114661Y0078433D02*
X0114663Y0078532D01*
X0114669Y0078632D01*
X0114679Y0078731D01*
X0114693Y0078829D01*
X0114710Y0078927D01*
X0114732Y0079024D01*
X0114757Y0079120D01*
X0114786Y0079215D01*
X0114819Y0079309D01*
X0114856Y0079401D01*
X0114896Y0079492D01*
X0114940Y0079581D01*
X0114988Y0079669D01*
X0115039Y0079754D01*
X0115093Y0079837D01*
X0115150Y0079919D01*
X0115211Y0079997D01*
X0115275Y0080074D01*
X0115341Y0080147D01*
X0115411Y0080218D01*
X0115483Y0080286D01*
X0115558Y0080352D01*
X0115636Y0080414D01*
X0115716Y0080473D01*
X0115798Y0080529D01*
X0115882Y0080581D01*
X0115969Y0080630D01*
X0116057Y0080676D01*
X0116147Y0080718D01*
X0116239Y0080757D01*
X0116332Y0080792D01*
X0116426Y0080823D01*
X0116522Y0080850D01*
X0116619Y0080873D01*
X0116716Y0080893D01*
X0116814Y0080909D01*
X0116913Y0080921D01*
X0117012Y0080929D01*
X0117111Y0080933D01*
X0117211Y0080933D01*
X0117310Y0080929D01*
X0117409Y0080921D01*
X0117508Y0080909D01*
X0117606Y0080893D01*
X0117703Y0080873D01*
X0117800Y0080850D01*
X0117896Y0080823D01*
X0117990Y0080792D01*
X0118083Y0080757D01*
X0118175Y0080718D01*
X0118265Y0080676D01*
X0118353Y0080630D01*
X0118440Y0080581D01*
X0118524Y0080529D01*
X0118606Y0080473D01*
X0118686Y0080414D01*
X0118764Y0080352D01*
X0118839Y0080286D01*
X0118911Y0080218D01*
X0118981Y0080147D01*
X0119047Y0080074D01*
X0119111Y0079997D01*
X0119172Y0079919D01*
X0119229Y0079837D01*
X0119283Y0079754D01*
X0119334Y0079669D01*
X0119382Y0079581D01*
X0119426Y0079492D01*
X0119466Y0079401D01*
X0119503Y0079309D01*
X0119536Y0079215D01*
X0119565Y0079120D01*
X0119590Y0079024D01*
X0119612Y0078927D01*
X0119629Y0078829D01*
X0119643Y0078731D01*
X0119653Y0078632D01*
X0119659Y0078532D01*
X0119661Y0078433D01*
X0119659Y0078334D01*
X0119653Y0078234D01*
X0119643Y0078135D01*
X0119629Y0078037D01*
X0119612Y0077939D01*
X0119590Y0077842D01*
X0119565Y0077746D01*
X0119536Y0077651D01*
X0119503Y0077557D01*
X0119466Y0077465D01*
X0119426Y0077374D01*
X0119382Y0077285D01*
X0119334Y0077197D01*
X0119283Y0077112D01*
X0119229Y0077029D01*
X0119172Y0076947D01*
X0119111Y0076869D01*
X0119047Y0076792D01*
X0118981Y0076719D01*
X0118911Y0076648D01*
X0118839Y0076580D01*
X0118764Y0076514D01*
X0118686Y0076452D01*
X0118606Y0076393D01*
X0118524Y0076337D01*
X0118440Y0076285D01*
X0118353Y0076236D01*
X0118265Y0076190D01*
X0118175Y0076148D01*
X0118083Y0076109D01*
X0117990Y0076074D01*
X0117896Y0076043D01*
X0117800Y0076016D01*
X0117703Y0075993D01*
X0117606Y0075973D01*
X0117508Y0075957D01*
X0117409Y0075945D01*
X0117310Y0075937D01*
X0117211Y0075933D01*
X0117111Y0075933D01*
X0117012Y0075937D01*
X0116913Y0075945D01*
X0116814Y0075957D01*
X0116716Y0075973D01*
X0116619Y0075993D01*
X0116522Y0076016D01*
X0116426Y0076043D01*
X0116332Y0076074D01*
X0116239Y0076109D01*
X0116147Y0076148D01*
X0116057Y0076190D01*
X0115969Y0076236D01*
X0115882Y0076285D01*
X0115798Y0076337D01*
X0115716Y0076393D01*
X0115636Y0076452D01*
X0115558Y0076514D01*
X0115483Y0076580D01*
X0115411Y0076648D01*
X0115341Y0076719D01*
X0115275Y0076792D01*
X0115211Y0076869D01*
X0115150Y0076947D01*
X0115093Y0077029D01*
X0115039Y0077112D01*
X0114988Y0077197D01*
X0114940Y0077285D01*
X0114896Y0077374D01*
X0114856Y0077465D01*
X0114819Y0077557D01*
X0114786Y0077651D01*
X0114757Y0077746D01*
X0114732Y0077842D01*
X0114710Y0077939D01*
X0114693Y0078037D01*
X0114679Y0078135D01*
X0114669Y0078234D01*
X0114663Y0078334D01*
X0114661Y0078433D01*
X0105161Y0095433D02*
X0105163Y0095532D01*
X0105169Y0095632D01*
X0105179Y0095731D01*
X0105193Y0095829D01*
X0105210Y0095927D01*
X0105232Y0096024D01*
X0105257Y0096120D01*
X0105286Y0096215D01*
X0105319Y0096309D01*
X0105356Y0096401D01*
X0105396Y0096492D01*
X0105440Y0096581D01*
X0105488Y0096669D01*
X0105539Y0096754D01*
X0105593Y0096837D01*
X0105650Y0096919D01*
X0105711Y0096997D01*
X0105775Y0097074D01*
X0105841Y0097147D01*
X0105911Y0097218D01*
X0105983Y0097286D01*
X0106058Y0097352D01*
X0106136Y0097414D01*
X0106216Y0097473D01*
X0106298Y0097529D01*
X0106382Y0097581D01*
X0106469Y0097630D01*
X0106557Y0097676D01*
X0106647Y0097718D01*
X0106739Y0097757D01*
X0106832Y0097792D01*
X0106926Y0097823D01*
X0107022Y0097850D01*
X0107119Y0097873D01*
X0107216Y0097893D01*
X0107314Y0097909D01*
X0107413Y0097921D01*
X0107512Y0097929D01*
X0107611Y0097933D01*
X0107711Y0097933D01*
X0107810Y0097929D01*
X0107909Y0097921D01*
X0108008Y0097909D01*
X0108106Y0097893D01*
X0108203Y0097873D01*
X0108300Y0097850D01*
X0108396Y0097823D01*
X0108490Y0097792D01*
X0108583Y0097757D01*
X0108675Y0097718D01*
X0108765Y0097676D01*
X0108853Y0097630D01*
X0108940Y0097581D01*
X0109024Y0097529D01*
X0109106Y0097473D01*
X0109186Y0097414D01*
X0109264Y0097352D01*
X0109339Y0097286D01*
X0109411Y0097218D01*
X0109481Y0097147D01*
X0109547Y0097074D01*
X0109611Y0096997D01*
X0109672Y0096919D01*
X0109729Y0096837D01*
X0109783Y0096754D01*
X0109834Y0096669D01*
X0109882Y0096581D01*
X0109926Y0096492D01*
X0109966Y0096401D01*
X0110003Y0096309D01*
X0110036Y0096215D01*
X0110065Y0096120D01*
X0110090Y0096024D01*
X0110112Y0095927D01*
X0110129Y0095829D01*
X0110143Y0095731D01*
X0110153Y0095632D01*
X0110159Y0095532D01*
X0110161Y0095433D01*
X0110159Y0095334D01*
X0110153Y0095234D01*
X0110143Y0095135D01*
X0110129Y0095037D01*
X0110112Y0094939D01*
X0110090Y0094842D01*
X0110065Y0094746D01*
X0110036Y0094651D01*
X0110003Y0094557D01*
X0109966Y0094465D01*
X0109926Y0094374D01*
X0109882Y0094285D01*
X0109834Y0094197D01*
X0109783Y0094112D01*
X0109729Y0094029D01*
X0109672Y0093947D01*
X0109611Y0093869D01*
X0109547Y0093792D01*
X0109481Y0093719D01*
X0109411Y0093648D01*
X0109339Y0093580D01*
X0109264Y0093514D01*
X0109186Y0093452D01*
X0109106Y0093393D01*
X0109024Y0093337D01*
X0108940Y0093285D01*
X0108853Y0093236D01*
X0108765Y0093190D01*
X0108675Y0093148D01*
X0108583Y0093109D01*
X0108490Y0093074D01*
X0108396Y0093043D01*
X0108300Y0093016D01*
X0108203Y0092993D01*
X0108106Y0092973D01*
X0108008Y0092957D01*
X0107909Y0092945D01*
X0107810Y0092937D01*
X0107711Y0092933D01*
X0107611Y0092933D01*
X0107512Y0092937D01*
X0107413Y0092945D01*
X0107314Y0092957D01*
X0107216Y0092973D01*
X0107119Y0092993D01*
X0107022Y0093016D01*
X0106926Y0093043D01*
X0106832Y0093074D01*
X0106739Y0093109D01*
X0106647Y0093148D01*
X0106557Y0093190D01*
X0106469Y0093236D01*
X0106382Y0093285D01*
X0106298Y0093337D01*
X0106216Y0093393D01*
X0106136Y0093452D01*
X0106058Y0093514D01*
X0105983Y0093580D01*
X0105911Y0093648D01*
X0105841Y0093719D01*
X0105775Y0093792D01*
X0105711Y0093869D01*
X0105650Y0093947D01*
X0105593Y0094029D01*
X0105539Y0094112D01*
X0105488Y0094197D01*
X0105440Y0094285D01*
X0105396Y0094374D01*
X0105356Y0094465D01*
X0105319Y0094557D01*
X0105286Y0094651D01*
X0105257Y0094746D01*
X0105232Y0094842D01*
X0105210Y0094939D01*
X0105193Y0095037D01*
X0105179Y0095135D01*
X0105169Y0095234D01*
X0105163Y0095334D01*
X0105161Y0095433D01*
X0092342Y0104819D02*
X0092344Y0104903D01*
X0092350Y0104986D01*
X0092360Y0105069D01*
X0092374Y0105152D01*
X0092391Y0105234D01*
X0092413Y0105315D01*
X0092438Y0105394D01*
X0092467Y0105473D01*
X0092500Y0105550D01*
X0092536Y0105625D01*
X0092576Y0105699D01*
X0092619Y0105771D01*
X0092666Y0105840D01*
X0092716Y0105907D01*
X0092769Y0105972D01*
X0092825Y0106034D01*
X0092883Y0106094D01*
X0092945Y0106151D01*
X0093009Y0106204D01*
X0093076Y0106255D01*
X0093145Y0106302D01*
X0093216Y0106347D01*
X0093289Y0106387D01*
X0093364Y0106424D01*
X0093441Y0106458D01*
X0093519Y0106488D01*
X0093598Y0106514D01*
X0093679Y0106537D01*
X0093761Y0106555D01*
X0093843Y0106570D01*
X0093926Y0106581D01*
X0094009Y0106588D01*
X0094093Y0106591D01*
X0094177Y0106590D01*
X0094260Y0106585D01*
X0094344Y0106576D01*
X0094426Y0106563D01*
X0094508Y0106547D01*
X0094589Y0106526D01*
X0094670Y0106502D01*
X0094748Y0106474D01*
X0094826Y0106442D01*
X0094902Y0106406D01*
X0094976Y0106367D01*
X0095048Y0106325D01*
X0095118Y0106279D01*
X0095186Y0106230D01*
X0095251Y0106178D01*
X0095314Y0106123D01*
X0095374Y0106065D01*
X0095432Y0106004D01*
X0095486Y0105940D01*
X0095538Y0105874D01*
X0095586Y0105806D01*
X0095631Y0105735D01*
X0095672Y0105662D01*
X0095711Y0105588D01*
X0095745Y0105512D01*
X0095776Y0105434D01*
X0095803Y0105355D01*
X0095827Y0105274D01*
X0095846Y0105193D01*
X0095862Y0105111D01*
X0095874Y0105028D01*
X0095882Y0104944D01*
X0095886Y0104861D01*
X0095886Y0104777D01*
X0095882Y0104694D01*
X0095874Y0104610D01*
X0095862Y0104527D01*
X0095846Y0104445D01*
X0095827Y0104364D01*
X0095803Y0104283D01*
X0095776Y0104204D01*
X0095745Y0104126D01*
X0095711Y0104050D01*
X0095672Y0103976D01*
X0095631Y0103903D01*
X0095586Y0103832D01*
X0095538Y0103764D01*
X0095486Y0103698D01*
X0095432Y0103634D01*
X0095374Y0103573D01*
X0095314Y0103515D01*
X0095251Y0103460D01*
X0095186Y0103408D01*
X0095118Y0103359D01*
X0095048Y0103313D01*
X0094976Y0103271D01*
X0094902Y0103232D01*
X0094826Y0103196D01*
X0094748Y0103164D01*
X0094670Y0103136D01*
X0094589Y0103112D01*
X0094508Y0103091D01*
X0094426Y0103075D01*
X0094344Y0103062D01*
X0094260Y0103053D01*
X0094177Y0103048D01*
X0094093Y0103047D01*
X0094009Y0103050D01*
X0093926Y0103057D01*
X0093843Y0103068D01*
X0093761Y0103083D01*
X0093679Y0103101D01*
X0093598Y0103124D01*
X0093519Y0103150D01*
X0093441Y0103180D01*
X0093364Y0103214D01*
X0093289Y0103251D01*
X0093216Y0103291D01*
X0093145Y0103336D01*
X0093076Y0103383D01*
X0093009Y0103434D01*
X0092945Y0103487D01*
X0092883Y0103544D01*
X0092825Y0103604D01*
X0092769Y0103666D01*
X0092716Y0103731D01*
X0092666Y0103798D01*
X0092619Y0103867D01*
X0092576Y0103939D01*
X0092536Y0104013D01*
X0092500Y0104088D01*
X0092467Y0104165D01*
X0092438Y0104244D01*
X0092413Y0104323D01*
X0092391Y0104404D01*
X0092374Y0104486D01*
X0092360Y0104569D01*
X0092350Y0104652D01*
X0092344Y0104735D01*
X0092342Y0104819D01*
X0086436Y0115047D02*
X0086438Y0115131D01*
X0086444Y0115214D01*
X0086454Y0115297D01*
X0086468Y0115380D01*
X0086485Y0115462D01*
X0086507Y0115543D01*
X0086532Y0115622D01*
X0086561Y0115701D01*
X0086594Y0115778D01*
X0086630Y0115853D01*
X0086670Y0115927D01*
X0086713Y0115999D01*
X0086760Y0116068D01*
X0086810Y0116135D01*
X0086863Y0116200D01*
X0086919Y0116262D01*
X0086977Y0116322D01*
X0087039Y0116379D01*
X0087103Y0116432D01*
X0087170Y0116483D01*
X0087239Y0116530D01*
X0087310Y0116575D01*
X0087383Y0116615D01*
X0087458Y0116652D01*
X0087535Y0116686D01*
X0087613Y0116716D01*
X0087692Y0116742D01*
X0087773Y0116765D01*
X0087855Y0116783D01*
X0087937Y0116798D01*
X0088020Y0116809D01*
X0088103Y0116816D01*
X0088187Y0116819D01*
X0088271Y0116818D01*
X0088354Y0116813D01*
X0088438Y0116804D01*
X0088520Y0116791D01*
X0088602Y0116775D01*
X0088683Y0116754D01*
X0088764Y0116730D01*
X0088842Y0116702D01*
X0088920Y0116670D01*
X0088996Y0116634D01*
X0089070Y0116595D01*
X0089142Y0116553D01*
X0089212Y0116507D01*
X0089280Y0116458D01*
X0089345Y0116406D01*
X0089408Y0116351D01*
X0089468Y0116293D01*
X0089526Y0116232D01*
X0089580Y0116168D01*
X0089632Y0116102D01*
X0089680Y0116034D01*
X0089725Y0115963D01*
X0089766Y0115890D01*
X0089805Y0115816D01*
X0089839Y0115740D01*
X0089870Y0115662D01*
X0089897Y0115583D01*
X0089921Y0115502D01*
X0089940Y0115421D01*
X0089956Y0115339D01*
X0089968Y0115256D01*
X0089976Y0115172D01*
X0089980Y0115089D01*
X0089980Y0115005D01*
X0089976Y0114922D01*
X0089968Y0114838D01*
X0089956Y0114755D01*
X0089940Y0114673D01*
X0089921Y0114592D01*
X0089897Y0114511D01*
X0089870Y0114432D01*
X0089839Y0114354D01*
X0089805Y0114278D01*
X0089766Y0114204D01*
X0089725Y0114131D01*
X0089680Y0114060D01*
X0089632Y0113992D01*
X0089580Y0113926D01*
X0089526Y0113862D01*
X0089468Y0113801D01*
X0089408Y0113743D01*
X0089345Y0113688D01*
X0089280Y0113636D01*
X0089212Y0113587D01*
X0089142Y0113541D01*
X0089070Y0113499D01*
X0088996Y0113460D01*
X0088920Y0113424D01*
X0088842Y0113392D01*
X0088764Y0113364D01*
X0088683Y0113340D01*
X0088602Y0113319D01*
X0088520Y0113303D01*
X0088438Y0113290D01*
X0088354Y0113281D01*
X0088271Y0113276D01*
X0088187Y0113275D01*
X0088103Y0113278D01*
X0088020Y0113285D01*
X0087937Y0113296D01*
X0087855Y0113311D01*
X0087773Y0113329D01*
X0087692Y0113352D01*
X0087613Y0113378D01*
X0087535Y0113408D01*
X0087458Y0113442D01*
X0087383Y0113479D01*
X0087310Y0113519D01*
X0087239Y0113564D01*
X0087170Y0113611D01*
X0087103Y0113662D01*
X0087039Y0113715D01*
X0086977Y0113772D01*
X0086919Y0113832D01*
X0086863Y0113894D01*
X0086810Y0113959D01*
X0086760Y0114026D01*
X0086713Y0114095D01*
X0086670Y0114167D01*
X0086630Y0114241D01*
X0086594Y0114316D01*
X0086561Y0114393D01*
X0086532Y0114472D01*
X0086507Y0114551D01*
X0086485Y0114632D01*
X0086468Y0114714D01*
X0086454Y0114797D01*
X0086444Y0114880D01*
X0086438Y0114963D01*
X0086436Y0115047D01*
X0060161Y0095433D02*
X0060163Y0095532D01*
X0060169Y0095632D01*
X0060179Y0095731D01*
X0060193Y0095829D01*
X0060210Y0095927D01*
X0060232Y0096024D01*
X0060257Y0096120D01*
X0060286Y0096215D01*
X0060319Y0096309D01*
X0060356Y0096401D01*
X0060396Y0096492D01*
X0060440Y0096581D01*
X0060488Y0096669D01*
X0060539Y0096754D01*
X0060593Y0096837D01*
X0060650Y0096919D01*
X0060711Y0096997D01*
X0060775Y0097074D01*
X0060841Y0097147D01*
X0060911Y0097218D01*
X0060983Y0097286D01*
X0061058Y0097352D01*
X0061136Y0097414D01*
X0061216Y0097473D01*
X0061298Y0097529D01*
X0061382Y0097581D01*
X0061469Y0097630D01*
X0061557Y0097676D01*
X0061647Y0097718D01*
X0061739Y0097757D01*
X0061832Y0097792D01*
X0061926Y0097823D01*
X0062022Y0097850D01*
X0062119Y0097873D01*
X0062216Y0097893D01*
X0062314Y0097909D01*
X0062413Y0097921D01*
X0062512Y0097929D01*
X0062611Y0097933D01*
X0062711Y0097933D01*
X0062810Y0097929D01*
X0062909Y0097921D01*
X0063008Y0097909D01*
X0063106Y0097893D01*
X0063203Y0097873D01*
X0063300Y0097850D01*
X0063396Y0097823D01*
X0063490Y0097792D01*
X0063583Y0097757D01*
X0063675Y0097718D01*
X0063765Y0097676D01*
X0063853Y0097630D01*
X0063940Y0097581D01*
X0064024Y0097529D01*
X0064106Y0097473D01*
X0064186Y0097414D01*
X0064264Y0097352D01*
X0064339Y0097286D01*
X0064411Y0097218D01*
X0064481Y0097147D01*
X0064547Y0097074D01*
X0064611Y0096997D01*
X0064672Y0096919D01*
X0064729Y0096837D01*
X0064783Y0096754D01*
X0064834Y0096669D01*
X0064882Y0096581D01*
X0064926Y0096492D01*
X0064966Y0096401D01*
X0065003Y0096309D01*
X0065036Y0096215D01*
X0065065Y0096120D01*
X0065090Y0096024D01*
X0065112Y0095927D01*
X0065129Y0095829D01*
X0065143Y0095731D01*
X0065153Y0095632D01*
X0065159Y0095532D01*
X0065161Y0095433D01*
X0065159Y0095334D01*
X0065153Y0095234D01*
X0065143Y0095135D01*
X0065129Y0095037D01*
X0065112Y0094939D01*
X0065090Y0094842D01*
X0065065Y0094746D01*
X0065036Y0094651D01*
X0065003Y0094557D01*
X0064966Y0094465D01*
X0064926Y0094374D01*
X0064882Y0094285D01*
X0064834Y0094197D01*
X0064783Y0094112D01*
X0064729Y0094029D01*
X0064672Y0093947D01*
X0064611Y0093869D01*
X0064547Y0093792D01*
X0064481Y0093719D01*
X0064411Y0093648D01*
X0064339Y0093580D01*
X0064264Y0093514D01*
X0064186Y0093452D01*
X0064106Y0093393D01*
X0064024Y0093337D01*
X0063940Y0093285D01*
X0063853Y0093236D01*
X0063765Y0093190D01*
X0063675Y0093148D01*
X0063583Y0093109D01*
X0063490Y0093074D01*
X0063396Y0093043D01*
X0063300Y0093016D01*
X0063203Y0092993D01*
X0063106Y0092973D01*
X0063008Y0092957D01*
X0062909Y0092945D01*
X0062810Y0092937D01*
X0062711Y0092933D01*
X0062611Y0092933D01*
X0062512Y0092937D01*
X0062413Y0092945D01*
X0062314Y0092957D01*
X0062216Y0092973D01*
X0062119Y0092993D01*
X0062022Y0093016D01*
X0061926Y0093043D01*
X0061832Y0093074D01*
X0061739Y0093109D01*
X0061647Y0093148D01*
X0061557Y0093190D01*
X0061469Y0093236D01*
X0061382Y0093285D01*
X0061298Y0093337D01*
X0061216Y0093393D01*
X0061136Y0093452D01*
X0061058Y0093514D01*
X0060983Y0093580D01*
X0060911Y0093648D01*
X0060841Y0093719D01*
X0060775Y0093792D01*
X0060711Y0093869D01*
X0060650Y0093947D01*
X0060593Y0094029D01*
X0060539Y0094112D01*
X0060488Y0094197D01*
X0060440Y0094285D01*
X0060396Y0094374D01*
X0060356Y0094465D01*
X0060319Y0094557D01*
X0060286Y0094651D01*
X0060257Y0094746D01*
X0060232Y0094842D01*
X0060210Y0094939D01*
X0060193Y0095037D01*
X0060179Y0095135D01*
X0060169Y0095234D01*
X0060163Y0095334D01*
X0060161Y0095433D01*
X0050661Y0078433D02*
X0050663Y0078532D01*
X0050669Y0078632D01*
X0050679Y0078731D01*
X0050693Y0078829D01*
X0050710Y0078927D01*
X0050732Y0079024D01*
X0050757Y0079120D01*
X0050786Y0079215D01*
X0050819Y0079309D01*
X0050856Y0079401D01*
X0050896Y0079492D01*
X0050940Y0079581D01*
X0050988Y0079669D01*
X0051039Y0079754D01*
X0051093Y0079837D01*
X0051150Y0079919D01*
X0051211Y0079997D01*
X0051275Y0080074D01*
X0051341Y0080147D01*
X0051411Y0080218D01*
X0051483Y0080286D01*
X0051558Y0080352D01*
X0051636Y0080414D01*
X0051716Y0080473D01*
X0051798Y0080529D01*
X0051882Y0080581D01*
X0051969Y0080630D01*
X0052057Y0080676D01*
X0052147Y0080718D01*
X0052239Y0080757D01*
X0052332Y0080792D01*
X0052426Y0080823D01*
X0052522Y0080850D01*
X0052619Y0080873D01*
X0052716Y0080893D01*
X0052814Y0080909D01*
X0052913Y0080921D01*
X0053012Y0080929D01*
X0053111Y0080933D01*
X0053211Y0080933D01*
X0053310Y0080929D01*
X0053409Y0080921D01*
X0053508Y0080909D01*
X0053606Y0080893D01*
X0053703Y0080873D01*
X0053800Y0080850D01*
X0053896Y0080823D01*
X0053990Y0080792D01*
X0054083Y0080757D01*
X0054175Y0080718D01*
X0054265Y0080676D01*
X0054353Y0080630D01*
X0054440Y0080581D01*
X0054524Y0080529D01*
X0054606Y0080473D01*
X0054686Y0080414D01*
X0054764Y0080352D01*
X0054839Y0080286D01*
X0054911Y0080218D01*
X0054981Y0080147D01*
X0055047Y0080074D01*
X0055111Y0079997D01*
X0055172Y0079919D01*
X0055229Y0079837D01*
X0055283Y0079754D01*
X0055334Y0079669D01*
X0055382Y0079581D01*
X0055426Y0079492D01*
X0055466Y0079401D01*
X0055503Y0079309D01*
X0055536Y0079215D01*
X0055565Y0079120D01*
X0055590Y0079024D01*
X0055612Y0078927D01*
X0055629Y0078829D01*
X0055643Y0078731D01*
X0055653Y0078632D01*
X0055659Y0078532D01*
X0055661Y0078433D01*
X0055659Y0078334D01*
X0055653Y0078234D01*
X0055643Y0078135D01*
X0055629Y0078037D01*
X0055612Y0077939D01*
X0055590Y0077842D01*
X0055565Y0077746D01*
X0055536Y0077651D01*
X0055503Y0077557D01*
X0055466Y0077465D01*
X0055426Y0077374D01*
X0055382Y0077285D01*
X0055334Y0077197D01*
X0055283Y0077112D01*
X0055229Y0077029D01*
X0055172Y0076947D01*
X0055111Y0076869D01*
X0055047Y0076792D01*
X0054981Y0076719D01*
X0054911Y0076648D01*
X0054839Y0076580D01*
X0054764Y0076514D01*
X0054686Y0076452D01*
X0054606Y0076393D01*
X0054524Y0076337D01*
X0054440Y0076285D01*
X0054353Y0076236D01*
X0054265Y0076190D01*
X0054175Y0076148D01*
X0054083Y0076109D01*
X0053990Y0076074D01*
X0053896Y0076043D01*
X0053800Y0076016D01*
X0053703Y0075993D01*
X0053606Y0075973D01*
X0053508Y0075957D01*
X0053409Y0075945D01*
X0053310Y0075937D01*
X0053211Y0075933D01*
X0053111Y0075933D01*
X0053012Y0075937D01*
X0052913Y0075945D01*
X0052814Y0075957D01*
X0052716Y0075973D01*
X0052619Y0075993D01*
X0052522Y0076016D01*
X0052426Y0076043D01*
X0052332Y0076074D01*
X0052239Y0076109D01*
X0052147Y0076148D01*
X0052057Y0076190D01*
X0051969Y0076236D01*
X0051882Y0076285D01*
X0051798Y0076337D01*
X0051716Y0076393D01*
X0051636Y0076452D01*
X0051558Y0076514D01*
X0051483Y0076580D01*
X0051411Y0076648D01*
X0051341Y0076719D01*
X0051275Y0076792D01*
X0051211Y0076869D01*
X0051150Y0076947D01*
X0051093Y0077029D01*
X0051039Y0077112D01*
X0050988Y0077197D01*
X0050940Y0077285D01*
X0050896Y0077374D01*
X0050856Y0077465D01*
X0050819Y0077557D01*
X0050786Y0077651D01*
X0050757Y0077746D01*
X0050732Y0077842D01*
X0050710Y0077939D01*
X0050693Y0078037D01*
X0050679Y0078135D01*
X0050669Y0078234D01*
X0050663Y0078334D01*
X0050661Y0078433D01*
X0082661Y0135933D02*
X0082663Y0136032D01*
X0082669Y0136132D01*
X0082679Y0136231D01*
X0082693Y0136329D01*
X0082710Y0136427D01*
X0082732Y0136524D01*
X0082757Y0136620D01*
X0082786Y0136715D01*
X0082819Y0136809D01*
X0082856Y0136901D01*
X0082896Y0136992D01*
X0082940Y0137081D01*
X0082988Y0137169D01*
X0083039Y0137254D01*
X0083093Y0137337D01*
X0083150Y0137419D01*
X0083211Y0137497D01*
X0083275Y0137574D01*
X0083341Y0137647D01*
X0083411Y0137718D01*
X0083483Y0137786D01*
X0083558Y0137852D01*
X0083636Y0137914D01*
X0083716Y0137973D01*
X0083798Y0138029D01*
X0083882Y0138081D01*
X0083969Y0138130D01*
X0084057Y0138176D01*
X0084147Y0138218D01*
X0084239Y0138257D01*
X0084332Y0138292D01*
X0084426Y0138323D01*
X0084522Y0138350D01*
X0084619Y0138373D01*
X0084716Y0138393D01*
X0084814Y0138409D01*
X0084913Y0138421D01*
X0085012Y0138429D01*
X0085111Y0138433D01*
X0085211Y0138433D01*
X0085310Y0138429D01*
X0085409Y0138421D01*
X0085508Y0138409D01*
X0085606Y0138393D01*
X0085703Y0138373D01*
X0085800Y0138350D01*
X0085896Y0138323D01*
X0085990Y0138292D01*
X0086083Y0138257D01*
X0086175Y0138218D01*
X0086265Y0138176D01*
X0086353Y0138130D01*
X0086440Y0138081D01*
X0086524Y0138029D01*
X0086606Y0137973D01*
X0086686Y0137914D01*
X0086764Y0137852D01*
X0086839Y0137786D01*
X0086911Y0137718D01*
X0086981Y0137647D01*
X0087047Y0137574D01*
X0087111Y0137497D01*
X0087172Y0137419D01*
X0087229Y0137337D01*
X0087283Y0137254D01*
X0087334Y0137169D01*
X0087382Y0137081D01*
X0087426Y0136992D01*
X0087466Y0136901D01*
X0087503Y0136809D01*
X0087536Y0136715D01*
X0087565Y0136620D01*
X0087590Y0136524D01*
X0087612Y0136427D01*
X0087629Y0136329D01*
X0087643Y0136231D01*
X0087653Y0136132D01*
X0087659Y0136032D01*
X0087661Y0135933D01*
X0087659Y0135834D01*
X0087653Y0135734D01*
X0087643Y0135635D01*
X0087629Y0135537D01*
X0087612Y0135439D01*
X0087590Y0135342D01*
X0087565Y0135246D01*
X0087536Y0135151D01*
X0087503Y0135057D01*
X0087466Y0134965D01*
X0087426Y0134874D01*
X0087382Y0134785D01*
X0087334Y0134697D01*
X0087283Y0134612D01*
X0087229Y0134529D01*
X0087172Y0134447D01*
X0087111Y0134369D01*
X0087047Y0134292D01*
X0086981Y0134219D01*
X0086911Y0134148D01*
X0086839Y0134080D01*
X0086764Y0134014D01*
X0086686Y0133952D01*
X0086606Y0133893D01*
X0086524Y0133837D01*
X0086440Y0133785D01*
X0086353Y0133736D01*
X0086265Y0133690D01*
X0086175Y0133648D01*
X0086083Y0133609D01*
X0085990Y0133574D01*
X0085896Y0133543D01*
X0085800Y0133516D01*
X0085703Y0133493D01*
X0085606Y0133473D01*
X0085508Y0133457D01*
X0085409Y0133445D01*
X0085310Y0133437D01*
X0085211Y0133433D01*
X0085111Y0133433D01*
X0085012Y0133437D01*
X0084913Y0133445D01*
X0084814Y0133457D01*
X0084716Y0133473D01*
X0084619Y0133493D01*
X0084522Y0133516D01*
X0084426Y0133543D01*
X0084332Y0133574D01*
X0084239Y0133609D01*
X0084147Y0133648D01*
X0084057Y0133690D01*
X0083969Y0133736D01*
X0083882Y0133785D01*
X0083798Y0133837D01*
X0083716Y0133893D01*
X0083636Y0133952D01*
X0083558Y0134014D01*
X0083483Y0134080D01*
X0083411Y0134148D01*
X0083341Y0134219D01*
X0083275Y0134292D01*
X0083211Y0134369D01*
X0083150Y0134447D01*
X0083093Y0134529D01*
X0083039Y0134612D01*
X0082988Y0134697D01*
X0082940Y0134785D01*
X0082896Y0134874D01*
X0082856Y0134965D01*
X0082819Y0135057D01*
X0082786Y0135151D01*
X0082757Y0135246D01*
X0082732Y0135342D01*
X0082710Y0135439D01*
X0082693Y0135537D01*
X0082679Y0135635D01*
X0082669Y0135734D01*
X0082663Y0135834D01*
X0082661Y0135933D01*
M02*
