G75*
%MOIN*%
%OFA0B0*%
%FSLAX25Y25*%
%IPPOS*%
%LPD*%
%AMOC8*
5,1,8,0,0,1.08239X$1,22.5*
%
%ADD10C,0.00500*%
%ADD11C,0.00800*%
D10*
X0074109Y0045308D02*
X0075911Y0045308D01*
X0075911Y0048010D01*
X0074109Y0048010D01*
X0075010Y0046659D02*
X0075911Y0046659D01*
X0077056Y0045758D02*
X0077506Y0045308D01*
X0078857Y0045308D01*
X0078857Y0048010D01*
X0077506Y0048010D01*
X0077056Y0047560D01*
X0077056Y0045758D01*
X0080002Y0045308D02*
X0080002Y0047110D01*
X0080903Y0048010D01*
X0081804Y0047110D01*
X0081804Y0045308D01*
X0082949Y0045308D02*
X0083849Y0046209D01*
X0083399Y0046209D02*
X0084750Y0046209D01*
X0084750Y0045308D02*
X0084750Y0048010D01*
X0083399Y0048010D01*
X0082949Y0047560D01*
X0082949Y0046659D01*
X0083399Y0046209D01*
X0081804Y0046659D02*
X0080002Y0046659D01*
X0085895Y0045308D02*
X0087697Y0045308D01*
X0087697Y0048010D01*
X0085895Y0048010D01*
X0086796Y0046659D02*
X0087697Y0046659D01*
X0088842Y0047560D02*
X0090643Y0045758D01*
X0090643Y0045308D01*
X0088842Y0045308D01*
X0088842Y0047560D02*
X0088842Y0048010D01*
X0090643Y0048010D01*
X0091788Y0047110D02*
X0091788Y0045308D01*
X0091788Y0046659D02*
X0093590Y0046659D01*
X0093590Y0047110D02*
X0092689Y0048010D01*
X0091788Y0047110D01*
X0093590Y0047110D02*
X0093590Y0045308D01*
X0094735Y0045308D02*
X0096536Y0045308D01*
X0096536Y0048010D01*
D11*
X0050722Y0042620D02*
X0048966Y0042620D01*
X0049650Y0041821D02*
X0051136Y0041821D01*
X0051550Y0041023D02*
X0050334Y0041023D01*
X0051019Y0040224D02*
X0051964Y0040224D01*
X0051703Y0039426D02*
X0052378Y0039426D01*
X0052388Y0038627D02*
X0052792Y0038627D01*
X0053072Y0037829D02*
X0053206Y0037829D01*
X0053411Y0037433D02*
X0049911Y0044183D01*
X0052911Y0044183D01*
X0047411Y0052933D01*
X0049661Y0054183D01*
X0045161Y0061433D01*
X0041911Y0061433D01*
X0046411Y0055433D01*
X0043161Y0054183D01*
X0049161Y0046683D01*
X0045911Y0046183D01*
X0053411Y0037433D01*
X0050308Y0043418D02*
X0048281Y0043418D01*
X0047597Y0044217D02*
X0052890Y0044217D01*
X0052388Y0045015D02*
X0046912Y0045015D01*
X0046228Y0045814D02*
X0051886Y0045814D01*
X0051384Y0046612D02*
X0048701Y0046612D01*
X0048579Y0047411D02*
X0050882Y0047411D01*
X0050381Y0048209D02*
X0047940Y0048209D01*
X0047301Y0049008D02*
X0049879Y0049008D01*
X0049377Y0049806D02*
X0046663Y0049806D01*
X0046024Y0050605D02*
X0048875Y0050605D01*
X0048373Y0051403D02*
X0045385Y0051403D01*
X0044746Y0052202D02*
X0047871Y0052202D01*
X0047532Y0053000D02*
X0044107Y0053000D01*
X0043469Y0053799D02*
X0048970Y0053799D01*
X0049404Y0054597D02*
X0044238Y0054597D01*
X0046314Y0055396D02*
X0048908Y0055396D01*
X0048413Y0056194D02*
X0045840Y0056194D01*
X0045241Y0056993D02*
X0047917Y0056993D01*
X0047422Y0057791D02*
X0044643Y0057791D01*
X0044044Y0058590D02*
X0046926Y0058590D01*
X0046430Y0059388D02*
X0043445Y0059388D01*
X0042846Y0060187D02*
X0045935Y0060187D01*
X0045439Y0060985D02*
X0042247Y0060985D01*
X0061161Y0050433D02*
X0061161Y0080433D01*
X0073161Y0092433D01*
X0097161Y0092433D01*
X0109161Y0080433D01*
X0109161Y0050433D01*
X0109099Y0050277D01*
X0109032Y0050122D01*
X0108963Y0049969D01*
X0108889Y0049817D01*
X0108812Y0049668D01*
X0108731Y0049520D01*
X0108647Y0049374D01*
X0108559Y0049231D01*
X0108468Y0049089D01*
X0108374Y0048950D01*
X0108276Y0048813D01*
X0108175Y0048679D01*
X0108070Y0048547D01*
X0107963Y0048417D01*
X0107852Y0048291D01*
X0107738Y0048167D01*
X0107622Y0048045D01*
X0107502Y0047927D01*
X0107380Y0047811D01*
X0107255Y0047699D01*
X0107127Y0047589D01*
X0106996Y0047483D01*
X0106863Y0047380D01*
X0106728Y0047280D01*
X0106590Y0047183D01*
X0106450Y0047090D01*
X0106308Y0047000D01*
X0106163Y0046914D01*
X0106017Y0046831D01*
X0105868Y0046752D01*
X0105718Y0046676D01*
X0105566Y0046604D01*
X0105412Y0046536D01*
X0105257Y0046471D01*
X0105100Y0046410D01*
X0104942Y0046353D01*
X0104782Y0046300D01*
X0104621Y0046251D01*
X0104459Y0046205D01*
X0104296Y0046164D01*
X0104132Y0046126D01*
X0103967Y0046093D01*
X0103801Y0046063D01*
X0103635Y0046037D01*
X0103468Y0046016D01*
X0103301Y0045998D01*
X0103133Y0045985D01*
X0102965Y0045976D01*
X0102797Y0045970D01*
X0102628Y0045969D01*
X0102460Y0045972D01*
X0102292Y0045979D01*
X0102124Y0045990D01*
X0101956Y0046005D01*
X0101789Y0046024D01*
X0101623Y0046047D01*
X0101456Y0046074D01*
X0101291Y0046105D01*
X0101126Y0046140D01*
X0100963Y0046179D01*
X0100800Y0046222D01*
X0100638Y0046269D01*
X0100478Y0046320D01*
X0100319Y0046375D01*
X0100161Y0046433D01*
X0116411Y0037933D02*
X0120911Y0046183D01*
X0117911Y0046183D01*
X0123411Y0054933D01*
X0121161Y0056183D01*
X0125661Y0063433D01*
X0128911Y0063433D01*
X0124411Y0057433D01*
X0127661Y0056183D01*
X0121661Y0048683D01*
X0124911Y0048183D01*
X0116411Y0037933D01*
X0116790Y0038627D02*
X0116987Y0038627D01*
X0117225Y0039426D02*
X0117649Y0039426D01*
X0117661Y0040224D02*
X0118311Y0040224D01*
X0118096Y0041023D02*
X0118973Y0041023D01*
X0118532Y0041821D02*
X0119636Y0041821D01*
X0120298Y0042620D02*
X0118968Y0042620D01*
X0119403Y0043418D02*
X0120960Y0043418D01*
X0121622Y0044217D02*
X0119839Y0044217D01*
X0120274Y0045015D02*
X0122284Y0045015D01*
X0122946Y0045814D02*
X0120710Y0045814D01*
X0118683Y0047411D02*
X0124271Y0047411D01*
X0124741Y0048209D02*
X0119185Y0048209D01*
X0119687Y0049008D02*
X0121921Y0049008D01*
X0122560Y0049806D02*
X0120189Y0049806D01*
X0120691Y0050605D02*
X0123199Y0050605D01*
X0123837Y0051403D02*
X0121193Y0051403D01*
X0121694Y0052202D02*
X0124476Y0052202D01*
X0125115Y0053000D02*
X0122196Y0053000D01*
X0122698Y0053799D02*
X0125754Y0053799D01*
X0126393Y0054597D02*
X0123200Y0054597D01*
X0122578Y0055396D02*
X0127031Y0055396D01*
X0127632Y0056194D02*
X0121168Y0056194D01*
X0121664Y0056993D02*
X0125556Y0056993D01*
X0124680Y0057791D02*
X0122160Y0057791D01*
X0122655Y0058590D02*
X0125279Y0058590D01*
X0125878Y0059388D02*
X0123151Y0059388D01*
X0123646Y0060187D02*
X0126477Y0060187D01*
X0127076Y0060985D02*
X0124142Y0060985D01*
X0124638Y0061784D02*
X0127674Y0061784D01*
X0128273Y0062582D02*
X0125133Y0062582D01*
X0125629Y0063381D02*
X0128872Y0063381D01*
X0123609Y0046612D02*
X0118181Y0046612D01*
X0100161Y0046433D02*
X0099794Y0046791D01*
X0099419Y0047140D01*
X0099035Y0047480D01*
X0098643Y0047811D01*
X0098243Y0048132D01*
X0097836Y0048443D01*
X0097421Y0048744D01*
X0097000Y0049035D01*
X0096571Y0049316D01*
X0096135Y0049587D01*
X0095693Y0049847D01*
X0095245Y0050096D01*
X0094792Y0050334D01*
X0094332Y0050561D01*
X0093867Y0050777D01*
X0093397Y0050982D01*
X0092922Y0051175D01*
X0092443Y0051357D01*
X0091959Y0051527D01*
X0091472Y0051685D01*
X0090981Y0051832D01*
X0090486Y0051967D01*
X0089988Y0052089D01*
X0089488Y0052200D01*
X0088985Y0052299D01*
X0088479Y0052385D01*
X0087972Y0052459D01*
X0087463Y0052521D01*
X0086953Y0052570D01*
X0086442Y0052607D01*
X0085930Y0052632D01*
X0085417Y0052644D01*
X0084905Y0052644D01*
X0084392Y0052632D01*
X0083880Y0052607D01*
X0083369Y0052570D01*
X0082859Y0052521D01*
X0082350Y0052459D01*
X0081843Y0052385D01*
X0081337Y0052299D01*
X0080834Y0052200D01*
X0080334Y0052089D01*
X0079836Y0051967D01*
X0079341Y0051832D01*
X0078850Y0051685D01*
X0078363Y0051527D01*
X0077879Y0051357D01*
X0077400Y0051175D01*
X0076925Y0050982D01*
X0076455Y0050777D01*
X0075990Y0050561D01*
X0075530Y0050334D01*
X0075077Y0050096D01*
X0074629Y0049847D01*
X0074187Y0049587D01*
X0073751Y0049316D01*
X0073322Y0049035D01*
X0072901Y0048744D01*
X0072486Y0048443D01*
X0072079Y0048132D01*
X0071679Y0047811D01*
X0071287Y0047480D01*
X0070903Y0047140D01*
X0070528Y0046791D01*
X0070161Y0046433D01*
X0070003Y0046375D01*
X0069844Y0046320D01*
X0069684Y0046269D01*
X0069522Y0046222D01*
X0069359Y0046179D01*
X0069196Y0046140D01*
X0069031Y0046105D01*
X0068866Y0046074D01*
X0068699Y0046047D01*
X0068533Y0046024D01*
X0068366Y0046005D01*
X0068198Y0045990D01*
X0068030Y0045979D01*
X0067862Y0045972D01*
X0067694Y0045969D01*
X0067525Y0045970D01*
X0067357Y0045976D01*
X0067189Y0045985D01*
X0067021Y0045998D01*
X0066854Y0046016D01*
X0066687Y0046037D01*
X0066521Y0046063D01*
X0066355Y0046093D01*
X0066190Y0046126D01*
X0066026Y0046164D01*
X0065863Y0046205D01*
X0065701Y0046251D01*
X0065540Y0046300D01*
X0065380Y0046353D01*
X0065222Y0046410D01*
X0065065Y0046471D01*
X0064910Y0046536D01*
X0064756Y0046604D01*
X0064604Y0046676D01*
X0064454Y0046752D01*
X0064305Y0046831D01*
X0064159Y0046914D01*
X0064014Y0047000D01*
X0063872Y0047090D01*
X0063732Y0047183D01*
X0063594Y0047280D01*
X0063459Y0047380D01*
X0063326Y0047483D01*
X0063195Y0047589D01*
X0063067Y0047699D01*
X0062942Y0047811D01*
X0062820Y0047927D01*
X0062700Y0048045D01*
X0062584Y0048167D01*
X0062470Y0048291D01*
X0062359Y0048417D01*
X0062252Y0048547D01*
X0062147Y0048679D01*
X0062046Y0048813D01*
X0061948Y0048950D01*
X0061854Y0049089D01*
X0061763Y0049231D01*
X0061675Y0049374D01*
X0061591Y0049520D01*
X0061510Y0049668D01*
X0061433Y0049817D01*
X0061359Y0049969D01*
X0061290Y0050122D01*
X0061223Y0050277D01*
X0061161Y0050433D01*
X0096550Y0097238D02*
X0099462Y0098919D01*
X0101342Y0103536D02*
X0090712Y0121948D01*
X0085773Y0122629D02*
X0082861Y0120948D01*
X0083093Y0112671D02*
X0086546Y0106691D01*
M02*
