G75*
%MOIN*%
%OFA0B0*%
%FSLAX25Y25*%
%IPPOS*%
%LPD*%
%AMOC8*
5,1,8,0,0,1.08239X$1,22.5*
%
%ADD10C,0.05800*%
%ADD11C,0.32296*%
%ADD12R,0.13300X0.13300*%
%ADD13R,0.03556X0.06706*%
%ADD14R,0.04737X0.03162*%
%ADD15R,0.04737X0.03950*%
%ADD16C,0.04343*%
D10*
X0029661Y0039433D03*
X0064661Y0039433D03*
X0085161Y0039433D03*
X0106161Y0039433D03*
X0140661Y0039433D03*
X0117161Y0078433D03*
X0107661Y0095433D03*
X0062661Y0095433D03*
X0053161Y0078433D03*
X0085161Y0135933D03*
D11*
X0085161Y0067433D03*
D12*
X0054161Y0067433D03*
X0116161Y0067433D03*
D13*
G36*
X0087610Y0095601D02*
X0085832Y0098681D01*
X0091638Y0102033D01*
X0093416Y0098953D01*
X0087610Y0095601D01*
G37*
G36*
X0084657Y0100715D02*
X0082879Y0103795D01*
X0088685Y0107147D01*
X0090463Y0104067D01*
X0084657Y0100715D01*
G37*
G36*
X0078751Y0110944D02*
X0076973Y0114024D01*
X0082779Y0117376D01*
X0084557Y0114296D01*
X0078751Y0110944D01*
G37*
D14*
G36*
X0087571Y0127187D02*
X0089939Y0123086D01*
X0087201Y0121505D01*
X0084833Y0125606D01*
X0087571Y0127187D01*
G37*
G36*
X0101941Y0102298D02*
X0104309Y0098197D01*
X0101571Y0096616D01*
X0099203Y0100717D01*
X0101941Y0102298D01*
G37*
D15*
G36*
X0095122Y0098361D02*
X0097490Y0094260D01*
X0094070Y0092285D01*
X0091702Y0096386D01*
X0095122Y0098361D01*
G37*
G36*
X0080752Y0123251D02*
X0083120Y0119150D01*
X0079700Y0117175D01*
X0077332Y0121276D01*
X0080752Y0123251D01*
G37*
D16*
X0088208Y0115047D03*
X0094114Y0104819D03*
M02*
