G75*
%MOIN*%
%OFA0B0*%
%FSLAX25Y25*%
%IPPOS*%
%LPD*%
%AMOC8*
5,1,8,0,0,1.08239X$1,22.5*
%
%ADD10R,0.02756X0.05906*%
%ADD11R,0.03937X0.02362*%
%ADD12R,0.03937X0.03150*%
%ADD13C,0.31496*%
%ADD14R,0.12500X0.12500*%
%ADD15C,0.04000*%
%ADD16C,0.01000*%
%ADD17C,0.03500*%
D10*
G36*
X0221112Y0169552D02*
X0219163Y0171501D01*
X0223338Y0175676D01*
X0225287Y0173727D01*
X0221112Y0169552D01*
G37*
G36*
X0216936Y0173728D02*
X0214987Y0175677D01*
X0219162Y0179852D01*
X0221111Y0177903D01*
X0216936Y0173728D01*
G37*
G36*
X0208585Y0182080D02*
X0206636Y0184029D01*
X0210811Y0188204D01*
X0212760Y0186255D01*
X0208585Y0182080D01*
G37*
D11*
G36*
X0233222Y0178599D02*
X0236004Y0175817D01*
X0234334Y0174147D01*
X0231552Y0176929D01*
X0233222Y0178599D01*
G37*
G36*
X0212900Y0198921D02*
X0215682Y0196139D01*
X0214012Y0194469D01*
X0211230Y0197251D01*
X0212900Y0198921D01*
G37*
D12*
G36*
X0207333Y0193354D02*
X0210115Y0190572D01*
X0207887Y0188344D01*
X0205105Y0191126D01*
X0207333Y0193354D01*
G37*
G36*
X0227655Y0173032D02*
X0230437Y0170250D01*
X0228209Y0168022D01*
X0225427Y0170804D01*
X0227655Y0173032D01*
G37*
D13*
X0190208Y0156250D03*
D14*
X0159208Y0156250D03*
X0221208Y0156250D03*
D15*
X0203333Y0176500D03*
D16*
X0179156Y0102832D02*
X0184915Y0097072D01*
X0184533Y0097994D01*
X0184533Y0099506D01*
X0185112Y0100903D01*
X0186181Y0101971D01*
X0187577Y0102550D01*
X0189089Y0102550D01*
X0190486Y0101971D01*
X0191555Y0100903D01*
X0192133Y0099506D01*
X0192133Y0097994D01*
X0191751Y0097072D01*
X0197511Y0102832D01*
X0196589Y0102450D01*
X0195077Y0102450D01*
X0193681Y0103029D01*
X0192612Y0104097D01*
X0192033Y0105494D01*
X0192033Y0107006D01*
X0192612Y0108403D01*
X0193681Y0109471D01*
X0195077Y0110050D01*
X0196589Y0110050D01*
X0197986Y0109471D01*
X0199055Y0108403D01*
X0199633Y0107006D01*
X0199633Y0105494D01*
X0199251Y0104572D01*
X0241633Y0146954D01*
X0241633Y0179287D01*
X0241555Y0179097D01*
X0240486Y0178029D01*
X0239089Y0177450D01*
X0237577Y0177450D01*
X0236181Y0178029D01*
X0235112Y0179097D01*
X0234533Y0180494D01*
X0234533Y0182006D01*
X0235112Y0183403D01*
X0236181Y0184471D01*
X0237577Y0185050D01*
X0239089Y0185050D01*
X0240486Y0184471D01*
X0241243Y0183714D01*
X0230258Y0198520D01*
X0230258Y0197994D01*
X0229680Y0196597D01*
X0228611Y0195529D01*
X0227214Y0194950D01*
X0225702Y0194950D01*
X0224306Y0195529D01*
X0223237Y0196597D01*
X0222658Y0197994D01*
X0222658Y0199506D01*
X0223237Y0200903D01*
X0223759Y0201425D01*
X0211657Y0201425D01*
X0212180Y0200903D01*
X0212462Y0200222D01*
X0213438Y0200222D01*
X0216983Y0196677D01*
X0216983Y0195600D01*
X0214551Y0193168D01*
X0213474Y0193168D01*
X0211112Y0195530D01*
X0211111Y0195529D01*
X0209714Y0194950D01*
X0208202Y0194950D01*
X0206806Y0195529D01*
X0205737Y0196597D01*
X0205158Y0197994D01*
X0205158Y0198691D01*
X0190022Y0183050D01*
X0190022Y0183018D01*
X0189535Y0182548D01*
X0189409Y0182417D01*
X0190486Y0181971D01*
X0191555Y0180903D01*
X0192133Y0179506D01*
X0192133Y0177994D01*
X0191555Y0176597D01*
X0190486Y0175529D01*
X0189089Y0174950D01*
X0187577Y0174950D01*
X0186181Y0175529D01*
X0185112Y0176597D01*
X0184533Y0177994D01*
X0184533Y0179506D01*
X0185112Y0180903D01*
X0186181Y0181971D01*
X0187257Y0182417D01*
X0187131Y0182548D01*
X0186645Y0183018D01*
X0186645Y0183050D01*
X0171508Y0198691D01*
X0171508Y0197994D01*
X0170930Y0196597D01*
X0169861Y0195529D01*
X0168464Y0194950D01*
X0166952Y0194950D01*
X0165556Y0195529D01*
X0164487Y0196597D01*
X0163908Y0197994D01*
X0163908Y0199506D01*
X0164487Y0200903D01*
X0165009Y0201425D01*
X0152907Y0201425D01*
X0153430Y0200903D01*
X0154008Y0199506D01*
X0154008Y0197994D01*
X0153430Y0196597D01*
X0152361Y0195529D01*
X0150964Y0194950D01*
X0149452Y0194950D01*
X0148056Y0195529D01*
X0146987Y0196597D01*
X0146408Y0197994D01*
X0146408Y0198520D01*
X0135424Y0183714D01*
X0136181Y0184471D01*
X0137577Y0185050D01*
X0139089Y0185050D01*
X0140486Y0184471D01*
X0141555Y0183403D01*
X0142133Y0182006D01*
X0142133Y0180494D01*
X0141555Y0179097D01*
X0140486Y0178029D01*
X0139089Y0177450D01*
X0137577Y0177450D01*
X0136181Y0178029D01*
X0135112Y0179097D01*
X0135033Y0179287D01*
X0135033Y0146954D01*
X0177415Y0104572D01*
X0177033Y0105494D01*
X0177033Y0107006D01*
X0177612Y0108403D01*
X0178681Y0109471D01*
X0180077Y0110050D01*
X0181589Y0110050D01*
X0182986Y0109471D01*
X0184055Y0108403D01*
X0184633Y0107006D01*
X0184633Y0105494D01*
X0184055Y0104097D01*
X0182986Y0103029D01*
X0181589Y0102450D01*
X0180077Y0102450D01*
X0179156Y0102832D01*
X0179266Y0102722D02*
X0179421Y0102722D01*
X0180264Y0101723D02*
X0185933Y0101723D01*
X0185038Y0100725D02*
X0181263Y0100725D01*
X0182261Y0099726D02*
X0184625Y0099726D01*
X0184533Y0098728D02*
X0183260Y0098728D01*
X0184258Y0097729D02*
X0184643Y0097729D01*
X0190734Y0101723D02*
X0196402Y0101723D01*
X0197245Y0102722D02*
X0197401Y0102722D01*
X0199312Y0104719D02*
X0199398Y0104719D01*
X0199633Y0105717D02*
X0200396Y0105717D01*
X0199633Y0106716D02*
X0201395Y0106716D01*
X0202393Y0107714D02*
X0199340Y0107714D01*
X0198745Y0108713D02*
X0203392Y0108713D01*
X0204390Y0109711D02*
X0197407Y0109711D01*
X0194260Y0109711D02*
X0182407Y0109711D01*
X0183745Y0108713D02*
X0192922Y0108713D01*
X0192327Y0107714D02*
X0184340Y0107714D01*
X0184633Y0106716D02*
X0192033Y0106716D01*
X0192033Y0105717D02*
X0184633Y0105717D01*
X0184312Y0104719D02*
X0192355Y0104719D01*
X0192989Y0103720D02*
X0183678Y0103720D01*
X0182245Y0102722D02*
X0194421Y0102722D01*
X0195404Y0100725D02*
X0191628Y0100725D01*
X0192042Y0099726D02*
X0194405Y0099726D01*
X0193407Y0098728D02*
X0192133Y0098728D01*
X0192024Y0097729D02*
X0192408Y0097729D01*
X0177355Y0104719D02*
X0177269Y0104719D01*
X0177033Y0105717D02*
X0176270Y0105717D01*
X0177033Y0106716D02*
X0175272Y0106716D01*
X0174273Y0107714D02*
X0177327Y0107714D01*
X0177922Y0108713D02*
X0173275Y0108713D01*
X0172276Y0109711D02*
X0179260Y0109711D01*
X0171278Y0110710D02*
X0205389Y0110710D01*
X0206387Y0111708D02*
X0170279Y0111708D01*
X0169281Y0112707D02*
X0207386Y0112707D01*
X0208385Y0113705D02*
X0168282Y0113705D01*
X0167284Y0114704D02*
X0209383Y0114704D01*
X0210382Y0115702D02*
X0166285Y0115702D01*
X0165287Y0116701D02*
X0211380Y0116701D01*
X0212379Y0117699D02*
X0164288Y0117699D01*
X0163290Y0118698D02*
X0213377Y0118698D01*
X0214376Y0119696D02*
X0162291Y0119696D01*
X0161293Y0120695D02*
X0215374Y0120695D01*
X0216373Y0121693D02*
X0160294Y0121693D01*
X0159296Y0122692D02*
X0217371Y0122692D01*
X0218370Y0123690D02*
X0158297Y0123690D01*
X0157299Y0124689D02*
X0219368Y0124689D01*
X0220367Y0125687D02*
X0156300Y0125687D01*
X0155301Y0126686D02*
X0221365Y0126686D01*
X0222364Y0127684D02*
X0154303Y0127684D01*
X0153304Y0128683D02*
X0223362Y0128683D01*
X0224361Y0129682D02*
X0152306Y0129682D01*
X0151307Y0130680D02*
X0225359Y0130680D01*
X0226358Y0131679D02*
X0150309Y0131679D01*
X0149310Y0132677D02*
X0227356Y0132677D01*
X0228355Y0133676D02*
X0148312Y0133676D01*
X0147313Y0134674D02*
X0229353Y0134674D01*
X0230352Y0135673D02*
X0146315Y0135673D01*
X0145316Y0136671D02*
X0231350Y0136671D01*
X0232349Y0137670D02*
X0144318Y0137670D01*
X0143319Y0138668D02*
X0233347Y0138668D01*
X0234346Y0139667D02*
X0194960Y0139667D01*
X0195400Y0139785D02*
X0196815Y0140300D01*
X0198180Y0140936D01*
X0199485Y0141689D01*
X0200718Y0142553D01*
X0201872Y0143521D01*
X0202937Y0144586D01*
X0203905Y0145740D01*
X0204769Y0146974D01*
X0205522Y0148278D01*
X0206159Y0149643D01*
X0206674Y0151058D01*
X0207064Y0152513D01*
X0207325Y0153997D01*
X0207456Y0155497D01*
X0207456Y0155750D01*
X0190708Y0155750D01*
X0190708Y0139002D01*
X0190961Y0139002D01*
X0192462Y0139133D01*
X0193945Y0139395D01*
X0195400Y0139785D01*
X0197599Y0140665D02*
X0235344Y0140665D01*
X0236343Y0141664D02*
X0199440Y0141664D01*
X0200848Y0142662D02*
X0237341Y0142662D01*
X0238340Y0143661D02*
X0202011Y0143661D01*
X0202998Y0144659D02*
X0239338Y0144659D01*
X0238990Y0145450D02*
X0240203Y0145952D01*
X0241131Y0146881D01*
X0241633Y0148094D01*
X0241633Y0149406D01*
X0241131Y0150619D01*
X0240203Y0151548D01*
X0238990Y0152050D01*
X0237677Y0152050D01*
X0236464Y0151548D01*
X0235536Y0150619D01*
X0235033Y0149406D01*
X0235033Y0148094D01*
X0235536Y0146881D01*
X0236464Y0145952D01*
X0237677Y0145450D01*
X0238990Y0145450D01*
X0239491Y0145658D02*
X0240337Y0145658D01*
X0240906Y0146656D02*
X0241335Y0146656D01*
X0241452Y0147655D02*
X0241633Y0147655D01*
X0241633Y0148653D02*
X0241633Y0148653D01*
X0241633Y0149652D02*
X0241532Y0149652D01*
X0241633Y0150650D02*
X0241100Y0150650D01*
X0241633Y0151649D02*
X0239958Y0151649D01*
X0241633Y0152647D02*
X0228758Y0152647D01*
X0228758Y0151649D02*
X0236708Y0151649D01*
X0235567Y0150650D02*
X0228758Y0150650D01*
X0228758Y0149652D02*
X0235135Y0149652D01*
X0235033Y0148653D02*
X0205697Y0148653D01*
X0206162Y0149652D02*
X0213658Y0149652D01*
X0213658Y0149462D02*
X0214420Y0148700D01*
X0227997Y0148700D01*
X0228758Y0149462D01*
X0228758Y0163038D01*
X0227997Y0163800D01*
X0220112Y0163800D01*
X0215333Y0168578D01*
X0215333Y0170922D01*
X0216840Y0172428D01*
X0217474Y0172428D01*
X0222412Y0177365D01*
X0222412Y0177828D01*
X0223263Y0176977D01*
X0222800Y0176977D01*
X0217863Y0172039D01*
X0217863Y0170962D01*
X0220573Y0168252D01*
X0221650Y0168252D01*
X0224127Y0170729D01*
X0224127Y0170266D01*
X0227672Y0166721D01*
X0228749Y0166721D01*
X0231738Y0169710D01*
X0231738Y0170787D01*
X0228192Y0174332D01*
X0227115Y0174332D01*
X0226588Y0173804D01*
X0226588Y0174266D01*
X0224318Y0176536D01*
X0224398Y0176503D01*
X0225620Y0176503D01*
X0226749Y0176970D01*
X0227613Y0177834D01*
X0228081Y0178963D01*
X0228081Y0180185D01*
X0227613Y0181314D01*
X0226749Y0182178D01*
X0225620Y0182646D01*
X0224398Y0182646D01*
X0223269Y0182178D01*
X0222405Y0181314D01*
X0221938Y0180185D01*
X0221938Y0178963D01*
X0221971Y0178883D01*
X0219701Y0181153D01*
X0218625Y0181153D01*
X0213687Y0176215D01*
X0213687Y0175138D01*
X0213790Y0175035D01*
X0212505Y0173750D01*
X0211333Y0172578D01*
X0211333Y0166922D01*
X0214455Y0163800D01*
X0214420Y0163800D01*
X0213658Y0163038D01*
X0213658Y0149462D01*
X0213658Y0150650D02*
X0206525Y0150650D01*
X0206832Y0151649D02*
X0213658Y0151649D01*
X0213658Y0152647D02*
X0207087Y0152647D01*
X0207263Y0153646D02*
X0213658Y0153646D01*
X0213658Y0154644D02*
X0207382Y0154644D01*
X0207456Y0155643D02*
X0213658Y0155643D01*
X0213658Y0156641D02*
X0190708Y0156641D01*
X0190708Y0156750D02*
X0207456Y0156750D01*
X0207456Y0157003D01*
X0207325Y0158503D01*
X0207064Y0159987D01*
X0206674Y0161442D01*
X0206159Y0162857D01*
X0205522Y0164222D01*
X0204769Y0165526D01*
X0203905Y0166760D01*
X0202937Y0167914D01*
X0201872Y0168979D01*
X0200718Y0169947D01*
X0199485Y0170811D01*
X0198180Y0171564D01*
X0196815Y0172200D01*
X0195400Y0172715D01*
X0193945Y0173105D01*
X0192462Y0173367D01*
X0190961Y0173498D01*
X0190708Y0173498D01*
X0190708Y0156750D01*
X0189708Y0156750D01*
X0189708Y0155750D01*
X0172960Y0155750D01*
X0172960Y0155497D01*
X0173092Y0153997D01*
X0173353Y0152513D01*
X0173743Y0151058D01*
X0174258Y0149643D01*
X0174895Y0148278D01*
X0175648Y0146974D01*
X0176512Y0145740D01*
X0177480Y0144586D01*
X0178545Y0143521D01*
X0179698Y0142553D01*
X0180932Y0141689D01*
X0182236Y0140936D01*
X0183602Y0140300D01*
X0185017Y0139785D01*
X0186472Y0139395D01*
X0187955Y0139133D01*
X0189455Y0139002D01*
X0189708Y0139002D01*
X0189708Y0155750D01*
X0190708Y0155750D01*
X0190708Y0156750D01*
X0190708Y0157640D02*
X0189708Y0157640D01*
X0189708Y0156750D02*
X0189708Y0173498D01*
X0189455Y0173498D01*
X0187955Y0173367D01*
X0186472Y0173105D01*
X0185017Y0172715D01*
X0183602Y0172200D01*
X0182236Y0171564D01*
X0180932Y0170811D01*
X0179698Y0169947D01*
X0178545Y0168979D01*
X0177480Y0167914D01*
X0176512Y0166760D01*
X0175648Y0165526D01*
X0174895Y0164222D01*
X0174258Y0162857D01*
X0173743Y0161442D01*
X0173353Y0159987D01*
X0173092Y0158503D01*
X0172960Y0157003D01*
X0172960Y0156750D01*
X0189708Y0156750D01*
X0189708Y0156641D02*
X0166758Y0156641D01*
X0166758Y0155643D02*
X0172960Y0155643D01*
X0173035Y0154644D02*
X0166758Y0154644D01*
X0166758Y0153646D02*
X0173153Y0153646D01*
X0173329Y0152647D02*
X0166758Y0152647D01*
X0166758Y0151649D02*
X0173585Y0151649D01*
X0173891Y0150650D02*
X0166758Y0150650D01*
X0166758Y0149652D02*
X0174255Y0149652D01*
X0174720Y0148653D02*
X0141633Y0148653D01*
X0141633Y0148094D02*
X0141131Y0146881D01*
X0140203Y0145952D01*
X0138990Y0145450D01*
X0137677Y0145450D01*
X0136464Y0145952D01*
X0135536Y0146881D01*
X0135033Y0148094D01*
X0135033Y0149406D01*
X0135536Y0150619D01*
X0136464Y0151548D01*
X0137677Y0152050D01*
X0138990Y0152050D01*
X0140203Y0151548D01*
X0141131Y0150619D01*
X0141633Y0149406D01*
X0141633Y0148094D01*
X0141452Y0147655D02*
X0175254Y0147655D01*
X0175870Y0146656D02*
X0140906Y0146656D01*
X0139491Y0145658D02*
X0176581Y0145658D01*
X0177418Y0144659D02*
X0137328Y0144659D01*
X0137175Y0145658D02*
X0136330Y0145658D01*
X0135760Y0146656D02*
X0135331Y0146656D01*
X0135215Y0147655D02*
X0135033Y0147655D01*
X0135033Y0148653D02*
X0135033Y0148653D01*
X0135033Y0149652D02*
X0135135Y0149652D01*
X0135033Y0150650D02*
X0135567Y0150650D01*
X0135033Y0151649D02*
X0136708Y0151649D01*
X0135033Y0152647D02*
X0151658Y0152647D01*
X0151658Y0151649D02*
X0139958Y0151649D01*
X0141100Y0150650D02*
X0151658Y0150650D01*
X0151658Y0149652D02*
X0141532Y0149652D01*
X0135033Y0153646D02*
X0151658Y0153646D01*
X0151658Y0154644D02*
X0135033Y0154644D01*
X0135033Y0155643D02*
X0151658Y0155643D01*
X0151658Y0156641D02*
X0135033Y0156641D01*
X0135033Y0157640D02*
X0151658Y0157640D01*
X0151658Y0158638D02*
X0135033Y0158638D01*
X0135033Y0159637D02*
X0151658Y0159637D01*
X0151658Y0160635D02*
X0135033Y0160635D01*
X0135033Y0161634D02*
X0151658Y0161634D01*
X0151658Y0162632D02*
X0135033Y0162632D01*
X0135033Y0163631D02*
X0152251Y0163631D01*
X0152420Y0163800D02*
X0151658Y0163038D01*
X0151658Y0149462D01*
X0152420Y0148700D01*
X0165997Y0148700D01*
X0166758Y0149462D01*
X0166758Y0163038D01*
X0165997Y0163800D01*
X0152420Y0163800D01*
X0166166Y0163631D02*
X0174619Y0163631D01*
X0174176Y0162632D02*
X0166758Y0162632D01*
X0166758Y0161634D02*
X0173813Y0161634D01*
X0173527Y0160635D02*
X0166758Y0160635D01*
X0166758Y0159637D02*
X0173291Y0159637D01*
X0173115Y0158638D02*
X0166758Y0158638D01*
X0166758Y0157640D02*
X0173016Y0157640D01*
X0175130Y0164629D02*
X0135033Y0164629D01*
X0135033Y0165628D02*
X0175719Y0165628D01*
X0176418Y0166626D02*
X0135033Y0166626D01*
X0135033Y0167625D02*
X0177237Y0167625D01*
X0178189Y0168623D02*
X0135033Y0168623D01*
X0135033Y0169622D02*
X0179311Y0169622D01*
X0180660Y0170620D02*
X0135033Y0170620D01*
X0135033Y0171619D02*
X0182355Y0171619D01*
X0184748Y0172618D02*
X0135033Y0172618D01*
X0135033Y0173616D02*
X0201268Y0173616D01*
X0201351Y0173533D02*
X0202637Y0173000D01*
X0204030Y0173000D01*
X0205316Y0173533D01*
X0206300Y0174517D01*
X0206833Y0175804D01*
X0206833Y0177196D01*
X0206300Y0178483D01*
X0205597Y0179186D01*
X0207162Y0180750D01*
X0208162Y0180750D01*
X0208191Y0180780D01*
X0209123Y0180780D01*
X0214060Y0185717D01*
X0214060Y0186179D01*
X0214918Y0185322D01*
X0216047Y0184854D01*
X0217268Y0184854D01*
X0218397Y0185322D01*
X0219262Y0186186D01*
X0219729Y0187315D01*
X0219729Y0188537D01*
X0219262Y0189666D01*
X0218397Y0190530D01*
X0217268Y0190997D01*
X0216047Y0190997D01*
X0214918Y0190530D01*
X0214053Y0189666D01*
X0213586Y0188537D01*
X0213586Y0187315D01*
X0213619Y0187235D01*
X0211350Y0189504D01*
X0210887Y0189504D01*
X0211415Y0190032D01*
X0211415Y0191109D01*
X0207870Y0194654D01*
X0206793Y0194654D01*
X0203804Y0191666D01*
X0203804Y0190589D01*
X0207350Y0187043D01*
X0207812Y0187043D01*
X0205519Y0184750D01*
X0205505Y0184750D01*
X0202505Y0181750D01*
X0201333Y0180578D01*
X0201333Y0179450D01*
X0200366Y0178483D01*
X0199833Y0177196D01*
X0199833Y0175804D01*
X0200366Y0174517D01*
X0201351Y0173533D01*
X0200326Y0174615D02*
X0135033Y0174615D01*
X0135033Y0175613D02*
X0186096Y0175613D01*
X0185106Y0176612D02*
X0135033Y0176612D01*
X0135033Y0177610D02*
X0137191Y0177610D01*
X0135601Y0178609D02*
X0135033Y0178609D01*
X0139476Y0177610D02*
X0184692Y0177610D01*
X0184533Y0178609D02*
X0141066Y0178609D01*
X0141766Y0179607D02*
X0184575Y0179607D01*
X0184989Y0180606D02*
X0142133Y0180606D01*
X0142133Y0181604D02*
X0185813Y0181604D01*
X0187074Y0182603D02*
X0141886Y0182603D01*
X0141356Y0183601D02*
X0186112Y0183601D01*
X0185145Y0184600D02*
X0140176Y0184600D01*
X0137562Y0186597D02*
X0183213Y0186597D01*
X0182246Y0187595D02*
X0138303Y0187595D01*
X0139044Y0188594D02*
X0181280Y0188594D01*
X0180314Y0189592D02*
X0139785Y0189592D01*
X0140525Y0190591D02*
X0179348Y0190591D01*
X0178381Y0191589D02*
X0141266Y0191589D01*
X0142007Y0192588D02*
X0177415Y0192588D01*
X0176449Y0193586D02*
X0142748Y0193586D01*
X0143489Y0194585D02*
X0175482Y0194585D01*
X0174516Y0195583D02*
X0169916Y0195583D01*
X0170914Y0196582D02*
X0173550Y0196582D01*
X0172583Y0197580D02*
X0171337Y0197580D01*
X0171508Y0198579D02*
X0171617Y0198579D01*
X0165501Y0195583D02*
X0152416Y0195583D01*
X0153414Y0196582D02*
X0164503Y0196582D01*
X0164080Y0197580D02*
X0153837Y0197580D01*
X0154008Y0198579D02*
X0163908Y0198579D01*
X0163938Y0199577D02*
X0153979Y0199577D01*
X0153565Y0200576D02*
X0164352Y0200576D01*
X0148001Y0195583D02*
X0144230Y0195583D01*
X0144970Y0196582D02*
X0147003Y0196582D01*
X0146580Y0197580D02*
X0145711Y0197580D01*
X0136821Y0185598D02*
X0184179Y0185598D01*
X0189592Y0182603D02*
X0203358Y0182603D01*
X0204356Y0183601D02*
X0190555Y0183601D01*
X0191521Y0184600D02*
X0205355Y0184600D01*
X0206367Y0185598D02*
X0192488Y0185598D01*
X0193454Y0186597D02*
X0207365Y0186597D01*
X0206798Y0187595D02*
X0194420Y0187595D01*
X0195386Y0188594D02*
X0205800Y0188594D01*
X0204801Y0189592D02*
X0196353Y0189592D01*
X0197319Y0190591D02*
X0203804Y0190591D01*
X0203804Y0191589D02*
X0198285Y0191589D01*
X0199252Y0192588D02*
X0204726Y0192588D01*
X0205725Y0193586D02*
X0200218Y0193586D01*
X0201184Y0194585D02*
X0206723Y0194585D01*
X0206751Y0195583D02*
X0202151Y0195583D01*
X0203117Y0196582D02*
X0205753Y0196582D01*
X0205330Y0197580D02*
X0204083Y0197580D01*
X0205049Y0198579D02*
X0205158Y0198579D01*
X0207940Y0194585D02*
X0212058Y0194585D01*
X0213056Y0193586D02*
X0208938Y0193586D01*
X0209937Y0192588D02*
X0234659Y0192588D01*
X0233919Y0193586D02*
X0214970Y0193586D01*
X0215968Y0194585D02*
X0233178Y0194585D01*
X0232437Y0195583D02*
X0228666Y0195583D01*
X0229664Y0196582D02*
X0231696Y0196582D01*
X0230955Y0197580D02*
X0230087Y0197580D01*
X0224251Y0195583D02*
X0216967Y0195583D01*
X0216983Y0196582D02*
X0223253Y0196582D01*
X0222830Y0197580D02*
X0216080Y0197580D01*
X0215081Y0198579D02*
X0222658Y0198579D01*
X0222688Y0199577D02*
X0214083Y0199577D01*
X0212315Y0200576D02*
X0223102Y0200576D01*
X0210935Y0191589D02*
X0235400Y0191589D01*
X0236141Y0190591D02*
X0218250Y0190591D01*
X0219292Y0189592D02*
X0236882Y0189592D01*
X0237623Y0188594D02*
X0219706Y0188594D01*
X0219729Y0187595D02*
X0238364Y0187595D01*
X0239104Y0186597D02*
X0219432Y0186597D01*
X0218674Y0185598D02*
X0239845Y0185598D01*
X0240176Y0184600D02*
X0240586Y0184600D01*
X0236490Y0184600D02*
X0212943Y0184600D01*
X0213941Y0185598D02*
X0214641Y0185598D01*
X0213586Y0187595D02*
X0213259Y0187595D01*
X0213609Y0188594D02*
X0212260Y0188594D01*
X0210976Y0189592D02*
X0214023Y0189592D01*
X0215065Y0190591D02*
X0211415Y0190591D01*
X0209698Y0185142D02*
X0209333Y0184750D01*
X0207333Y0182750D01*
X0206333Y0182750D01*
X0203333Y0179750D01*
X0203333Y0176500D01*
X0199833Y0176612D02*
X0191561Y0176612D01*
X0191974Y0177610D02*
X0200005Y0177610D01*
X0200492Y0178609D02*
X0192133Y0178609D01*
X0192091Y0179607D02*
X0201333Y0179607D01*
X0201361Y0180606D02*
X0191678Y0180606D01*
X0190853Y0181604D02*
X0202359Y0181604D01*
X0206019Y0179607D02*
X0217079Y0179607D01*
X0216081Y0178609D02*
X0206174Y0178609D01*
X0206662Y0177610D02*
X0215082Y0177610D01*
X0214084Y0176612D02*
X0206833Y0176612D01*
X0206754Y0175613D02*
X0213687Y0175613D01*
X0213369Y0174615D02*
X0206341Y0174615D01*
X0205399Y0173616D02*
X0212371Y0173616D01*
X0211372Y0172618D02*
X0195669Y0172618D01*
X0198062Y0171619D02*
X0211333Y0171619D01*
X0211333Y0170620D02*
X0199756Y0170620D01*
X0201105Y0169622D02*
X0211333Y0169622D01*
X0211333Y0168623D02*
X0202227Y0168623D01*
X0203179Y0167625D02*
X0211333Y0167625D01*
X0211628Y0166626D02*
X0203999Y0166626D01*
X0204698Y0165628D02*
X0212627Y0165628D01*
X0213625Y0164629D02*
X0205287Y0164629D01*
X0205798Y0163631D02*
X0214251Y0163631D01*
X0213658Y0162632D02*
X0206240Y0162632D01*
X0206604Y0161634D02*
X0213658Y0161634D01*
X0213658Y0160635D02*
X0206890Y0160635D01*
X0207125Y0159637D02*
X0213658Y0159637D01*
X0213658Y0158638D02*
X0207301Y0158638D01*
X0207401Y0157640D02*
X0213658Y0157640D01*
X0220333Y0156750D02*
X0220333Y0160750D01*
X0213333Y0167750D01*
X0213333Y0171750D01*
X0217333Y0175750D01*
X0217333Y0176750D01*
X0218049Y0176790D01*
X0219661Y0174615D02*
X0220438Y0174615D01*
X0220659Y0175613D02*
X0221437Y0175613D01*
X0221658Y0176612D02*
X0222435Y0176612D01*
X0222412Y0177610D02*
X0222629Y0177610D01*
X0221938Y0179607D02*
X0221247Y0179607D01*
X0222112Y0180606D02*
X0220248Y0180606D01*
X0218078Y0180606D02*
X0207017Y0180606D01*
X0209947Y0181604D02*
X0222695Y0181604D01*
X0224294Y0182603D02*
X0210946Y0182603D01*
X0211944Y0183601D02*
X0235310Y0183601D01*
X0234781Y0182603D02*
X0225724Y0182603D01*
X0227323Y0181604D02*
X0234533Y0181604D01*
X0234533Y0180606D02*
X0227907Y0180606D01*
X0228081Y0179607D02*
X0232390Y0179607D01*
X0232683Y0179900D02*
X0233760Y0179900D01*
X0237305Y0176354D01*
X0237305Y0175277D01*
X0234874Y0172846D01*
X0233797Y0172846D01*
X0230251Y0176391D01*
X0230251Y0177468D01*
X0232683Y0179900D01*
X0234053Y0179607D02*
X0234901Y0179607D01*
X0235051Y0178609D02*
X0235601Y0178609D01*
X0236050Y0177610D02*
X0237191Y0177610D01*
X0237048Y0176612D02*
X0241633Y0176612D01*
X0241633Y0177610D02*
X0239476Y0177610D01*
X0241066Y0178609D02*
X0241633Y0178609D01*
X0241633Y0175613D02*
X0237305Y0175613D01*
X0236643Y0174615D02*
X0241633Y0174615D01*
X0241633Y0173616D02*
X0235644Y0173616D01*
X0233026Y0173616D02*
X0228908Y0173616D01*
X0229907Y0172618D02*
X0241633Y0172618D01*
X0241633Y0171619D02*
X0230905Y0171619D01*
X0231738Y0170620D02*
X0241633Y0170620D01*
X0241633Y0169622D02*
X0231650Y0169622D01*
X0230652Y0168623D02*
X0241633Y0168623D01*
X0241633Y0167625D02*
X0229653Y0167625D01*
X0226768Y0167625D02*
X0216287Y0167625D01*
X0215333Y0168623D02*
X0220202Y0168623D01*
X0219203Y0169622D02*
X0215333Y0169622D01*
X0215333Y0170620D02*
X0218205Y0170620D01*
X0217863Y0171619D02*
X0216031Y0171619D01*
X0217664Y0172618D02*
X0218441Y0172618D01*
X0218662Y0173616D02*
X0219440Y0173616D01*
X0224018Y0170620D02*
X0224127Y0170620D01*
X0224771Y0169622D02*
X0223020Y0169622D01*
X0222021Y0168623D02*
X0225770Y0168623D01*
X0219282Y0164629D02*
X0241633Y0164629D01*
X0241633Y0163631D02*
X0228166Y0163631D01*
X0228758Y0162632D02*
X0241633Y0162632D01*
X0241633Y0161634D02*
X0228758Y0161634D01*
X0228758Y0160635D02*
X0241633Y0160635D01*
X0241633Y0159637D02*
X0228758Y0159637D01*
X0228758Y0158638D02*
X0241633Y0158638D01*
X0241633Y0157640D02*
X0228758Y0157640D01*
X0228758Y0156641D02*
X0241633Y0156641D01*
X0241633Y0155643D02*
X0228758Y0155643D01*
X0228758Y0154644D02*
X0241633Y0154644D01*
X0241633Y0153646D02*
X0228758Y0153646D01*
X0221208Y0156250D02*
X0220333Y0156750D01*
X0218284Y0165628D02*
X0241633Y0165628D01*
X0241633Y0166626D02*
X0217285Y0166626D01*
X0226239Y0174615D02*
X0232028Y0174615D01*
X0231029Y0175613D02*
X0225241Y0175613D01*
X0225883Y0176612D02*
X0230251Y0176612D01*
X0230393Y0177610D02*
X0227389Y0177610D01*
X0227934Y0178609D02*
X0231392Y0178609D01*
X0199912Y0175613D02*
X0190570Y0175613D01*
X0190708Y0172618D02*
X0189708Y0172618D01*
X0189708Y0171619D02*
X0190708Y0171619D01*
X0190708Y0170620D02*
X0189708Y0170620D01*
X0189708Y0169622D02*
X0190708Y0169622D01*
X0190708Y0168623D02*
X0189708Y0168623D01*
X0189708Y0167625D02*
X0190708Y0167625D01*
X0190708Y0166626D02*
X0189708Y0166626D01*
X0189708Y0165628D02*
X0190708Y0165628D01*
X0190708Y0164629D02*
X0189708Y0164629D01*
X0189708Y0163631D02*
X0190708Y0163631D01*
X0190708Y0162632D02*
X0189708Y0162632D01*
X0189708Y0161634D02*
X0190708Y0161634D01*
X0190708Y0160635D02*
X0189708Y0160635D01*
X0189708Y0159637D02*
X0190708Y0159637D01*
X0190708Y0158638D02*
X0189708Y0158638D01*
X0189708Y0155643D02*
X0190708Y0155643D01*
X0190708Y0154644D02*
X0189708Y0154644D01*
X0189708Y0153646D02*
X0190708Y0153646D01*
X0190708Y0152647D02*
X0189708Y0152647D01*
X0189708Y0151649D02*
X0190708Y0151649D01*
X0190708Y0150650D02*
X0189708Y0150650D01*
X0189708Y0149652D02*
X0190708Y0149652D01*
X0190708Y0148653D02*
X0189708Y0148653D01*
X0189708Y0147655D02*
X0190708Y0147655D01*
X0190708Y0146656D02*
X0189708Y0146656D01*
X0189708Y0145658D02*
X0190708Y0145658D01*
X0190708Y0144659D02*
X0189708Y0144659D01*
X0189708Y0143661D02*
X0190708Y0143661D01*
X0190708Y0142662D02*
X0189708Y0142662D01*
X0189708Y0141664D02*
X0190708Y0141664D01*
X0190708Y0140665D02*
X0189708Y0140665D01*
X0189708Y0139667D02*
X0190708Y0139667D01*
X0185457Y0139667D02*
X0142321Y0139667D01*
X0141322Y0140665D02*
X0182818Y0140665D01*
X0180977Y0141664D02*
X0140324Y0141664D01*
X0139325Y0142662D02*
X0179568Y0142662D01*
X0178405Y0143661D02*
X0138327Y0143661D01*
X0203836Y0145658D02*
X0237175Y0145658D01*
X0235760Y0146656D02*
X0204547Y0146656D01*
X0205162Y0147655D02*
X0235215Y0147655D01*
X0136490Y0184600D02*
X0136080Y0184600D01*
D17*
X0158333Y0190625D03*
X0231458Y0188125D03*
X0218333Y0130000D03*
X0158333Y0130000D03*
M02*
