G75*
%MOIN*%
%OFA0B0*%
%FSLAX25Y25*%
%IPPOS*%
%LPD*%
%AMOC8*
5,1,8,0,0,1.08239X$1,22.5*
%
%ADD10R,0.05512X0.04724*%
%ADD11R,0.03937X0.04331*%
%ADD12C,0.04000*%
%ADD13C,0.01000*%
%ADD14C,0.03500*%
D10*
X0188333Y0115344D03*
X0188333Y0127156D03*
X0168333Y0132844D03*
X0168333Y0144656D03*
X0150833Y0155344D03*
X0150833Y0167156D03*
X0173333Y0170344D03*
X0188333Y0167156D03*
X0203333Y0170344D03*
X0225833Y0167156D03*
X0225833Y0155344D03*
X0208333Y0144656D03*
X0188333Y0155344D03*
X0208333Y0132844D03*
X0203333Y0182156D03*
X0173333Y0182156D03*
D11*
X0163333Y0179596D03*
X0163333Y0172904D03*
X0143333Y0164596D03*
X0143333Y0157904D03*
X0160833Y0142096D03*
X0160833Y0135404D03*
X0180833Y0124596D03*
X0180833Y0117904D03*
X0215833Y0135404D03*
X0215833Y0142096D03*
X0233333Y0157904D03*
X0233333Y0164596D03*
X0210833Y0172904D03*
X0210833Y0179596D03*
X0195833Y0164596D03*
X0195833Y0157904D03*
D12*
X0203333Y0176500D03*
D13*
X0179156Y0102832D02*
X0184915Y0097072D01*
X0184533Y0097994D01*
X0184533Y0099506D01*
X0185112Y0100903D01*
X0186181Y0101971D01*
X0187577Y0102550D01*
X0189089Y0102550D01*
X0190486Y0101971D01*
X0191555Y0100903D01*
X0192133Y0099506D01*
X0192133Y0097994D01*
X0191751Y0097072D01*
X0197511Y0102832D01*
X0196589Y0102450D01*
X0195077Y0102450D01*
X0193681Y0103029D01*
X0192612Y0104097D01*
X0192033Y0105494D01*
X0192033Y0107006D01*
X0192612Y0108403D01*
X0193681Y0109471D01*
X0195077Y0110050D01*
X0196589Y0110050D01*
X0197986Y0109471D01*
X0199055Y0108403D01*
X0199633Y0107006D01*
X0199633Y0105494D01*
X0199251Y0104572D01*
X0241633Y0146954D01*
X0241633Y0179287D01*
X0241555Y0179097D01*
X0240486Y0178029D01*
X0239089Y0177450D01*
X0237577Y0177450D01*
X0236181Y0178029D01*
X0235112Y0179097D01*
X0234533Y0180494D01*
X0234533Y0182006D01*
X0235112Y0183403D01*
X0236181Y0184471D01*
X0237577Y0185050D01*
X0239089Y0185050D01*
X0240486Y0184471D01*
X0241243Y0183714D01*
X0230258Y0198520D01*
X0230258Y0197994D01*
X0229680Y0196597D01*
X0228611Y0195529D01*
X0227214Y0194950D01*
X0225702Y0194950D01*
X0224306Y0195529D01*
X0223237Y0196597D01*
X0222658Y0197994D01*
X0222658Y0199506D01*
X0223237Y0200903D01*
X0223759Y0201425D01*
X0211657Y0201425D01*
X0212180Y0200903D01*
X0212758Y0199506D01*
X0212758Y0197994D01*
X0212180Y0196597D01*
X0211111Y0195529D01*
X0209714Y0194950D01*
X0208202Y0194950D01*
X0206806Y0195529D01*
X0205737Y0196597D01*
X0205158Y0197994D01*
X0205158Y0198691D01*
X0190022Y0183050D01*
X0190022Y0183018D01*
X0189535Y0182548D01*
X0189409Y0182417D01*
X0190486Y0181971D01*
X0191555Y0180903D01*
X0192133Y0179506D01*
X0192133Y0177994D01*
X0191555Y0176597D01*
X0190486Y0175529D01*
X0189089Y0174950D01*
X0187577Y0174950D01*
X0186181Y0175529D01*
X0185112Y0176597D01*
X0184533Y0177994D01*
X0184533Y0179506D01*
X0185112Y0180903D01*
X0186181Y0181971D01*
X0187257Y0182417D01*
X0187131Y0182548D01*
X0186645Y0183018D01*
X0186645Y0183050D01*
X0171508Y0198691D01*
X0171508Y0197994D01*
X0170930Y0196597D01*
X0169861Y0195529D01*
X0168464Y0194950D01*
X0166952Y0194950D01*
X0165556Y0195529D01*
X0164487Y0196597D01*
X0163908Y0197994D01*
X0163908Y0199506D01*
X0164487Y0200903D01*
X0165009Y0201425D01*
X0152907Y0201425D01*
X0153430Y0200903D01*
X0154008Y0199506D01*
X0154008Y0197994D01*
X0153430Y0196597D01*
X0152361Y0195529D01*
X0150964Y0194950D01*
X0149452Y0194950D01*
X0148056Y0195529D01*
X0146987Y0196597D01*
X0146408Y0197994D01*
X0146408Y0198520D01*
X0135424Y0183714D01*
X0136181Y0184471D01*
X0137577Y0185050D01*
X0139089Y0185050D01*
X0140486Y0184471D01*
X0141555Y0183403D01*
X0142133Y0182006D01*
X0142133Y0180494D01*
X0141555Y0179097D01*
X0140486Y0178029D01*
X0139089Y0177450D01*
X0137577Y0177450D01*
X0136181Y0178029D01*
X0135112Y0179097D01*
X0135033Y0179287D01*
X0135033Y0146954D01*
X0177415Y0104572D01*
X0177033Y0105494D01*
X0177033Y0107006D01*
X0177612Y0108403D01*
X0178681Y0109471D01*
X0180077Y0110050D01*
X0181589Y0110050D01*
X0182986Y0109471D01*
X0184055Y0108403D01*
X0184633Y0107006D01*
X0184633Y0105494D01*
X0184055Y0104097D01*
X0182986Y0103029D01*
X0181589Y0102450D01*
X0180077Y0102450D01*
X0179156Y0102832D01*
X0179266Y0102722D02*
X0179421Y0102722D01*
X0180264Y0101723D02*
X0185933Y0101723D01*
X0185038Y0100725D02*
X0181263Y0100725D01*
X0182261Y0099726D02*
X0184625Y0099726D01*
X0184533Y0098728D02*
X0183260Y0098728D01*
X0184258Y0097729D02*
X0184643Y0097729D01*
X0190734Y0101723D02*
X0196402Y0101723D01*
X0197245Y0102722D02*
X0197401Y0102722D01*
X0199312Y0104719D02*
X0199398Y0104719D01*
X0199633Y0105717D02*
X0200396Y0105717D01*
X0199633Y0106716D02*
X0201395Y0106716D01*
X0202393Y0107714D02*
X0199340Y0107714D01*
X0198745Y0108713D02*
X0203392Y0108713D01*
X0204390Y0109711D02*
X0197407Y0109711D01*
X0194260Y0109711D02*
X0182407Y0109711D01*
X0183745Y0108713D02*
X0192922Y0108713D01*
X0192327Y0107714D02*
X0184340Y0107714D01*
X0184633Y0106716D02*
X0192033Y0106716D01*
X0192033Y0105717D02*
X0184633Y0105717D01*
X0184312Y0104719D02*
X0192355Y0104719D01*
X0192989Y0103720D02*
X0183678Y0103720D01*
X0182245Y0102722D02*
X0194421Y0102722D01*
X0195404Y0100725D02*
X0191628Y0100725D01*
X0192042Y0099726D02*
X0194405Y0099726D01*
X0193407Y0098728D02*
X0192133Y0098728D01*
X0192024Y0097729D02*
X0192408Y0097729D01*
X0177355Y0104719D02*
X0177269Y0104719D01*
X0177033Y0105717D02*
X0176270Y0105717D01*
X0177033Y0106716D02*
X0175272Y0106716D01*
X0174273Y0107714D02*
X0177327Y0107714D01*
X0177922Y0108713D02*
X0173275Y0108713D01*
X0172276Y0109711D02*
X0179260Y0109711D01*
X0184277Y0112444D02*
X0185039Y0111682D01*
X0191628Y0111682D01*
X0192389Y0112444D01*
X0192389Y0113750D01*
X0195162Y0113750D01*
X0204333Y0122922D01*
X0210162Y0128750D01*
X0210594Y0129182D01*
X0211628Y0129182D01*
X0212389Y0129944D01*
X0212389Y0132950D01*
X0212467Y0132659D01*
X0212665Y0132317D01*
X0212944Y0132038D01*
X0213286Y0131840D01*
X0213667Y0131738D01*
X0215349Y0131738D01*
X0215349Y0134919D01*
X0216318Y0134919D01*
X0216318Y0135888D01*
X0219302Y0135888D01*
X0219302Y0137766D01*
X0219200Y0138148D01*
X0219002Y0138490D01*
X0218723Y0138769D01*
X0218568Y0138859D01*
X0219102Y0139393D01*
X0219102Y0144800D01*
X0218340Y0145562D01*
X0213326Y0145562D01*
X0212838Y0145074D01*
X0212389Y0145523D01*
X0212389Y0147556D01*
X0211628Y0148318D01*
X0205039Y0148318D01*
X0204277Y0147556D01*
X0204277Y0141755D01*
X0205039Y0140993D01*
X0211262Y0140993D01*
X0211505Y0140750D01*
X0212565Y0140750D01*
X0212565Y0139393D01*
X0213099Y0138859D01*
X0212944Y0138769D01*
X0212665Y0138490D01*
X0212467Y0138148D01*
X0212365Y0137766D01*
X0212365Y0135888D01*
X0215349Y0135888D01*
X0215349Y0134919D01*
X0212389Y0134919D01*
X0212389Y0135745D01*
X0211628Y0136507D01*
X0205039Y0136507D01*
X0204277Y0135745D01*
X0204277Y0129944D01*
X0204988Y0129233D01*
X0202333Y0126578D01*
X0185662Y0143250D01*
X0188162Y0145750D01*
X0189162Y0146750D01*
X0198162Y0146750D01*
X0199333Y0147922D01*
X0210333Y0158922D01*
X0215505Y0153750D01*
X0221777Y0153750D01*
X0221777Y0152444D01*
X0222539Y0151682D01*
X0229128Y0151682D01*
X0229889Y0152444D01*
X0229889Y0155450D01*
X0229967Y0155159D01*
X0230165Y0154817D01*
X0230444Y0154538D01*
X0230786Y0154340D01*
X0231167Y0154238D01*
X0232849Y0154238D01*
X0232849Y0157419D01*
X0233818Y0157419D01*
X0233818Y0158388D01*
X0236802Y0158388D01*
X0236802Y0160266D01*
X0236700Y0160648D01*
X0236502Y0160990D01*
X0236223Y0161269D01*
X0236068Y0161359D01*
X0236602Y0161893D01*
X0236602Y0167300D01*
X0235840Y0168062D01*
X0230826Y0168062D01*
X0230065Y0167300D01*
X0230065Y0166847D01*
X0229889Y0167023D01*
X0229889Y0170056D01*
X0229128Y0170818D01*
X0222539Y0170818D01*
X0221777Y0170056D01*
X0221777Y0164255D01*
X0222539Y0163493D01*
X0227762Y0163493D01*
X0228505Y0162750D01*
X0230065Y0162750D01*
X0230065Y0161893D01*
X0230599Y0161359D01*
X0230444Y0161269D01*
X0230165Y0160990D01*
X0229967Y0160648D01*
X0229865Y0160266D01*
X0229865Y0158388D01*
X0232849Y0158388D01*
X0232849Y0157419D01*
X0229889Y0157419D01*
X0229889Y0158245D01*
X0229128Y0159007D01*
X0222539Y0159007D01*
X0221777Y0158245D01*
X0221777Y0157750D01*
X0217162Y0157750D01*
X0211162Y0163750D01*
X0207389Y0167523D01*
X0207389Y0170450D01*
X0207467Y0170159D01*
X0207665Y0169817D01*
X0207944Y0169538D01*
X0208286Y0169340D01*
X0208667Y0169238D01*
X0210349Y0169238D01*
X0210349Y0172419D01*
X0211318Y0172419D01*
X0211318Y0173388D01*
X0214302Y0173388D01*
X0214302Y0175266D01*
X0214200Y0175648D01*
X0214002Y0175990D01*
X0213723Y0176269D01*
X0213568Y0176359D01*
X0214102Y0176893D01*
X0214102Y0182300D01*
X0213340Y0183062D01*
X0209989Y0183062D01*
X0209838Y0183199D01*
X0209287Y0183750D01*
X0209230Y0183750D01*
X0209188Y0183788D01*
X0208409Y0183750D01*
X0208162Y0183750D01*
X0207389Y0184523D01*
X0207389Y0185056D01*
X0206628Y0185818D01*
X0200039Y0185818D01*
X0199277Y0185056D01*
X0199277Y0179255D01*
X0200039Y0178493D01*
X0200377Y0178493D01*
X0200366Y0178483D01*
X0199833Y0177196D01*
X0199833Y0175804D01*
X0200366Y0174517D01*
X0200877Y0174007D01*
X0200039Y0174007D01*
X0199277Y0173245D01*
X0199277Y0167444D01*
X0200039Y0166682D01*
X0202573Y0166682D01*
X0207505Y0161750D01*
X0196505Y0150750D01*
X0189333Y0150750D01*
X0189333Y0151682D01*
X0191628Y0151682D01*
X0192389Y0152444D01*
X0192389Y0155450D01*
X0192467Y0155159D01*
X0192665Y0154817D01*
X0192944Y0154538D01*
X0193286Y0154340D01*
X0193667Y0154238D01*
X0195349Y0154238D01*
X0195349Y0157419D01*
X0196318Y0157419D01*
X0196318Y0158388D01*
X0199302Y0158388D01*
X0199302Y0160266D01*
X0199200Y0160648D01*
X0199002Y0160990D01*
X0198723Y0161269D01*
X0198568Y0161359D01*
X0199102Y0161893D01*
X0199102Y0167300D01*
X0198340Y0168062D01*
X0193326Y0168062D01*
X0193088Y0167824D01*
X0192389Y0168523D01*
X0192389Y0170056D01*
X0191628Y0170818D01*
X0185039Y0170818D01*
X0184277Y0170056D01*
X0184277Y0164255D01*
X0185039Y0163493D01*
X0191628Y0163493D01*
X0191695Y0163560D01*
X0192505Y0162750D01*
X0192565Y0162750D01*
X0192565Y0161893D01*
X0193099Y0161359D01*
X0192944Y0161269D01*
X0192665Y0160990D01*
X0192467Y0160648D01*
X0192365Y0160266D01*
X0192365Y0158388D01*
X0195349Y0158388D01*
X0195349Y0157419D01*
X0192389Y0157419D01*
X0192389Y0158245D01*
X0191628Y0159007D01*
X0185039Y0159007D01*
X0184277Y0158245D01*
X0184277Y0157750D01*
X0181162Y0157750D01*
X0174162Y0164750D01*
X0175162Y0165750D01*
X0176094Y0166682D01*
X0176628Y0166682D01*
X0177389Y0167444D01*
X0177389Y0173245D01*
X0176628Y0174007D01*
X0170039Y0174007D01*
X0169277Y0173245D01*
X0169277Y0167444D01*
X0170039Y0166682D01*
X0170437Y0166682D01*
X0161505Y0157750D01*
X0154889Y0157750D01*
X0154889Y0158245D01*
X0154128Y0159007D01*
X0147539Y0159007D01*
X0146777Y0158245D01*
X0146777Y0157419D01*
X0143818Y0157419D01*
X0143818Y0158388D01*
X0146802Y0158388D01*
X0146802Y0160266D01*
X0146700Y0160648D01*
X0146502Y0160990D01*
X0146223Y0161269D01*
X0146068Y0161359D01*
X0146602Y0161893D01*
X0146602Y0162750D01*
X0148162Y0162750D01*
X0148905Y0163493D01*
X0154128Y0163493D01*
X0154889Y0164255D01*
X0154889Y0170056D01*
X0154128Y0170818D01*
X0147539Y0170818D01*
X0146777Y0170056D01*
X0146777Y0167023D01*
X0146602Y0166847D01*
X0146602Y0167300D01*
X0145840Y0168062D01*
X0140826Y0168062D01*
X0140065Y0167300D01*
X0140065Y0161893D01*
X0140599Y0161359D01*
X0140444Y0161269D01*
X0140165Y0160990D01*
X0139967Y0160648D01*
X0139865Y0160266D01*
X0139865Y0158388D01*
X0142849Y0158388D01*
X0142849Y0157419D01*
X0143818Y0157419D01*
X0143818Y0154238D01*
X0145499Y0154238D01*
X0145881Y0154340D01*
X0146223Y0154538D01*
X0146502Y0154817D01*
X0146700Y0155159D01*
X0146777Y0155450D01*
X0146777Y0152444D01*
X0147539Y0151682D01*
X0154128Y0151682D01*
X0154889Y0152444D01*
X0154889Y0153750D01*
X0163162Y0153750D01*
X0171333Y0161922D01*
X0178333Y0154922D01*
X0179505Y0153750D01*
X0184277Y0153750D01*
X0184277Y0152444D01*
X0185039Y0151682D01*
X0185333Y0151682D01*
X0185333Y0148578D01*
X0181505Y0144750D01*
X0181505Y0144750D01*
X0180333Y0143578D01*
X0172389Y0135634D01*
X0172389Y0135745D01*
X0171628Y0136507D01*
X0165039Y0136507D01*
X0164277Y0135745D01*
X0164277Y0134919D01*
X0161318Y0134919D01*
X0161318Y0135888D01*
X0164302Y0135888D01*
X0164302Y0137766D01*
X0164200Y0138148D01*
X0164002Y0138490D01*
X0163723Y0138769D01*
X0163568Y0138859D01*
X0164102Y0139393D01*
X0164102Y0140750D01*
X0165162Y0140750D01*
X0165405Y0140993D01*
X0171628Y0140993D01*
X0172389Y0141755D01*
X0172389Y0147556D01*
X0171628Y0148318D01*
X0165039Y0148318D01*
X0164277Y0147556D01*
X0164277Y0145523D01*
X0163829Y0145074D01*
X0163340Y0145562D01*
X0158326Y0145562D01*
X0157565Y0144800D01*
X0157565Y0139393D01*
X0158099Y0138859D01*
X0157944Y0138769D01*
X0157665Y0138490D01*
X0157467Y0138148D01*
X0157365Y0137766D01*
X0157365Y0135888D01*
X0160349Y0135888D01*
X0160349Y0134919D01*
X0161318Y0134919D01*
X0161318Y0131738D01*
X0162999Y0131738D01*
X0163381Y0131840D01*
X0163723Y0132038D01*
X0164002Y0132317D01*
X0164200Y0132659D01*
X0164277Y0132950D01*
X0164277Y0129944D01*
X0165039Y0129182D01*
X0171628Y0129182D01*
X0172389Y0129944D01*
X0172389Y0130750D01*
X0173162Y0130750D01*
X0182833Y0140422D01*
X0199505Y0123750D01*
X0193505Y0117750D01*
X0192389Y0117750D01*
X0192389Y0118245D01*
X0191628Y0119007D01*
X0185039Y0119007D01*
X0184277Y0118245D01*
X0184277Y0117419D01*
X0181318Y0117419D01*
X0181318Y0118388D01*
X0184302Y0118388D01*
X0184302Y0120266D01*
X0184200Y0120648D01*
X0184002Y0120990D01*
X0183723Y0121269D01*
X0183568Y0121359D01*
X0184102Y0121893D01*
X0184102Y0122750D01*
X0184162Y0122750D01*
X0184972Y0123560D01*
X0185039Y0123493D01*
X0191628Y0123493D01*
X0192389Y0124255D01*
X0192389Y0130056D01*
X0191628Y0130818D01*
X0185039Y0130818D01*
X0184277Y0130056D01*
X0184277Y0128523D01*
X0183579Y0127824D01*
X0183340Y0128062D01*
X0178326Y0128062D01*
X0177565Y0127300D01*
X0177565Y0121893D01*
X0178099Y0121359D01*
X0177944Y0121269D01*
X0177665Y0120990D01*
X0177467Y0120648D01*
X0177365Y0120266D01*
X0177365Y0118388D01*
X0180349Y0118388D01*
X0180349Y0117419D01*
X0181318Y0117419D01*
X0181318Y0114238D01*
X0182999Y0114238D01*
X0183381Y0114340D01*
X0183723Y0114538D01*
X0184002Y0114817D01*
X0184200Y0115159D01*
X0184277Y0115450D01*
X0184277Y0112444D01*
X0184277Y0112707D02*
X0169281Y0112707D01*
X0170279Y0111708D02*
X0185013Y0111708D01*
X0184277Y0113705D02*
X0168282Y0113705D01*
X0167284Y0114704D02*
X0177778Y0114704D01*
X0177665Y0114817D02*
X0177944Y0114538D01*
X0178286Y0114340D01*
X0178667Y0114238D01*
X0180349Y0114238D01*
X0180349Y0117419D01*
X0177365Y0117419D01*
X0177365Y0115541D01*
X0177467Y0115159D01*
X0177665Y0114817D01*
X0177365Y0115702D02*
X0166285Y0115702D01*
X0165287Y0116701D02*
X0177365Y0116701D01*
X0177365Y0118698D02*
X0163290Y0118698D01*
X0164288Y0117699D02*
X0180349Y0117699D01*
X0181318Y0117699D02*
X0184277Y0117699D01*
X0184302Y0118698D02*
X0184730Y0118698D01*
X0184302Y0119696D02*
X0195451Y0119696D01*
X0194453Y0118698D02*
X0191936Y0118698D01*
X0194333Y0115750D02*
X0188333Y0115750D01*
X0188333Y0115344D01*
X0184277Y0114704D02*
X0183889Y0114704D01*
X0181318Y0114704D02*
X0180349Y0114704D01*
X0180349Y0115702D02*
X0181318Y0115702D01*
X0181318Y0116701D02*
X0180349Y0116701D01*
X0177365Y0119696D02*
X0162291Y0119696D01*
X0161293Y0120695D02*
X0177494Y0120695D01*
X0177764Y0121693D02*
X0160294Y0121693D01*
X0159296Y0122692D02*
X0177565Y0122692D01*
X0177565Y0123690D02*
X0158297Y0123690D01*
X0157299Y0124689D02*
X0177565Y0124689D01*
X0177565Y0125687D02*
X0156300Y0125687D01*
X0155301Y0126686D02*
X0177565Y0126686D01*
X0177949Y0127684D02*
X0154303Y0127684D01*
X0153304Y0128683D02*
X0184277Y0128683D01*
X0184277Y0129682D02*
X0172127Y0129682D01*
X0172389Y0130680D02*
X0184901Y0130680D01*
X0190578Y0132677D02*
X0175089Y0132677D01*
X0176087Y0133676D02*
X0189579Y0133676D01*
X0188581Y0134674D02*
X0177086Y0134674D01*
X0178084Y0135673D02*
X0187582Y0135673D01*
X0186584Y0136671D02*
X0179083Y0136671D01*
X0180081Y0137670D02*
X0185585Y0137670D01*
X0184587Y0138668D02*
X0181080Y0138668D01*
X0182078Y0139667D02*
X0183588Y0139667D01*
X0183333Y0142750D02*
X0182333Y0142750D01*
X0172333Y0132750D01*
X0168333Y0132750D01*
X0168333Y0132844D01*
X0164277Y0132677D02*
X0164204Y0132677D01*
X0164277Y0131679D02*
X0150309Y0131679D01*
X0149310Y0132677D02*
X0157462Y0132677D01*
X0157467Y0132659D02*
X0157665Y0132317D01*
X0157944Y0132038D01*
X0158286Y0131840D01*
X0158667Y0131738D01*
X0160349Y0131738D01*
X0160349Y0134919D01*
X0157365Y0134919D01*
X0157365Y0133041D01*
X0157467Y0132659D01*
X0157365Y0133676D02*
X0148312Y0133676D01*
X0147313Y0134674D02*
X0157365Y0134674D01*
X0157365Y0136671D02*
X0145316Y0136671D01*
X0144318Y0137670D02*
X0157365Y0137670D01*
X0157843Y0138668D02*
X0143319Y0138668D01*
X0142321Y0139667D02*
X0157565Y0139667D01*
X0157565Y0140665D02*
X0141322Y0140665D01*
X0140324Y0141664D02*
X0157565Y0141664D01*
X0157565Y0142662D02*
X0139325Y0142662D01*
X0138327Y0143661D02*
X0157565Y0143661D01*
X0157565Y0144659D02*
X0137328Y0144659D01*
X0137677Y0145450D02*
X0136464Y0145952D01*
X0135536Y0146881D01*
X0135033Y0148094D01*
X0135033Y0149406D01*
X0135536Y0150619D01*
X0136464Y0151548D01*
X0137677Y0152050D01*
X0138990Y0152050D01*
X0140203Y0151548D01*
X0141131Y0150619D01*
X0141633Y0149406D01*
X0141633Y0148094D01*
X0141131Y0146881D01*
X0140203Y0145952D01*
X0138990Y0145450D01*
X0137677Y0145450D01*
X0137175Y0145658D02*
X0136330Y0145658D01*
X0135760Y0146656D02*
X0135331Y0146656D01*
X0135215Y0147655D02*
X0135033Y0147655D01*
X0135033Y0148653D02*
X0135033Y0148653D01*
X0135033Y0149652D02*
X0135135Y0149652D01*
X0135033Y0150650D02*
X0135567Y0150650D01*
X0135033Y0151649D02*
X0136708Y0151649D01*
X0135033Y0152647D02*
X0146777Y0152647D01*
X0146777Y0153646D02*
X0135033Y0153646D01*
X0135033Y0154644D02*
X0140337Y0154644D01*
X0140444Y0154538D02*
X0140786Y0154340D01*
X0141167Y0154238D01*
X0142849Y0154238D01*
X0142849Y0157419D01*
X0139865Y0157419D01*
X0139865Y0155541D01*
X0139967Y0155159D01*
X0140165Y0154817D01*
X0140444Y0154538D01*
X0139865Y0155643D02*
X0135033Y0155643D01*
X0135033Y0156641D02*
X0139865Y0156641D01*
X0139865Y0158638D02*
X0135033Y0158638D01*
X0135033Y0157640D02*
X0142849Y0157640D01*
X0143818Y0157640D02*
X0146777Y0157640D01*
X0146802Y0158638D02*
X0147171Y0158638D01*
X0146802Y0159637D02*
X0163392Y0159637D01*
X0164390Y0160635D02*
X0146703Y0160635D01*
X0146343Y0161634D02*
X0165389Y0161634D01*
X0166387Y0162632D02*
X0146602Y0162632D01*
X0147333Y0164750D02*
X0143333Y0164750D01*
X0143333Y0164596D01*
X0140065Y0164629D02*
X0135033Y0164629D01*
X0135033Y0163631D02*
X0140065Y0163631D01*
X0140065Y0162632D02*
X0135033Y0162632D01*
X0135033Y0161634D02*
X0140324Y0161634D01*
X0139964Y0160635D02*
X0135033Y0160635D01*
X0135033Y0159637D02*
X0139865Y0159637D01*
X0142849Y0156641D02*
X0143818Y0156641D01*
X0143818Y0155643D02*
X0142849Y0155643D01*
X0142849Y0154644D02*
X0143818Y0154644D01*
X0146329Y0154644D02*
X0146777Y0154644D01*
X0150833Y0155344D02*
X0151333Y0155750D01*
X0162333Y0155750D01*
X0171333Y0164750D01*
X0180333Y0155750D01*
X0188333Y0155750D01*
X0188333Y0155344D01*
X0188333Y0154750D01*
X0187333Y0153750D01*
X0187333Y0148750D01*
X0197333Y0148750D01*
X0210333Y0161750D01*
X0216333Y0155750D01*
X0225333Y0155750D01*
X0225833Y0155344D01*
X0229889Y0154644D02*
X0230337Y0154644D01*
X0229889Y0153646D02*
X0241633Y0153646D01*
X0241633Y0154644D02*
X0236329Y0154644D01*
X0236223Y0154538D02*
X0236502Y0154817D01*
X0236700Y0155159D01*
X0236802Y0155541D01*
X0236802Y0157419D01*
X0233818Y0157419D01*
X0233818Y0154238D01*
X0235499Y0154238D01*
X0235881Y0154340D01*
X0236223Y0154538D01*
X0236802Y0155643D02*
X0241633Y0155643D01*
X0241633Y0156641D02*
X0236802Y0156641D01*
X0236802Y0158638D02*
X0241633Y0158638D01*
X0241633Y0157640D02*
X0233818Y0157640D01*
X0232849Y0157640D02*
X0229889Y0157640D01*
X0229865Y0158638D02*
X0229496Y0158638D01*
X0229865Y0159637D02*
X0215275Y0159637D01*
X0214276Y0160635D02*
X0229964Y0160635D01*
X0230324Y0161634D02*
X0213278Y0161634D01*
X0212279Y0162632D02*
X0230065Y0162632D01*
X0229333Y0164750D02*
X0226333Y0167750D01*
X0225833Y0167156D01*
X0221777Y0167625D02*
X0207389Y0167625D01*
X0207389Y0168623D02*
X0221777Y0168623D01*
X0221777Y0169622D02*
X0213807Y0169622D01*
X0213723Y0169538D02*
X0214002Y0169817D01*
X0214200Y0170159D01*
X0214302Y0170541D01*
X0214302Y0172419D01*
X0211318Y0172419D01*
X0211318Y0169238D01*
X0212999Y0169238D01*
X0213381Y0169340D01*
X0213723Y0169538D01*
X0214302Y0170620D02*
X0222342Y0170620D01*
X0221777Y0166626D02*
X0208285Y0166626D01*
X0209284Y0165628D02*
X0221777Y0165628D01*
X0221777Y0164629D02*
X0210282Y0164629D01*
X0211281Y0163631D02*
X0222401Y0163631D01*
X0222171Y0158638D02*
X0216273Y0158638D01*
X0212614Y0156641D02*
X0208053Y0156641D01*
X0207055Y0155643D02*
X0213612Y0155643D01*
X0214611Y0154644D02*
X0206056Y0154644D01*
X0205058Y0153646D02*
X0221777Y0153646D01*
X0221777Y0152647D02*
X0204059Y0152647D01*
X0203061Y0151649D02*
X0236708Y0151649D01*
X0236464Y0151548D02*
X0235536Y0150619D01*
X0235033Y0149406D01*
X0235033Y0148094D01*
X0235536Y0146881D01*
X0236464Y0145952D01*
X0237677Y0145450D01*
X0238990Y0145450D01*
X0240203Y0145952D01*
X0241131Y0146881D01*
X0241633Y0148094D01*
X0241633Y0149406D01*
X0241131Y0150619D01*
X0240203Y0151548D01*
X0238990Y0152050D01*
X0237677Y0152050D01*
X0236464Y0151548D01*
X0235567Y0150650D02*
X0202062Y0150650D01*
X0201063Y0149652D02*
X0235135Y0149652D01*
X0235033Y0148653D02*
X0200065Y0148653D01*
X0199066Y0147655D02*
X0204376Y0147655D01*
X0204277Y0146656D02*
X0189068Y0146656D01*
X0188162Y0145750D02*
X0188162Y0145750D01*
X0188069Y0145658D02*
X0204277Y0145658D01*
X0204277Y0144659D02*
X0187071Y0144659D01*
X0186072Y0143661D02*
X0204277Y0143661D01*
X0204277Y0142662D02*
X0186250Y0142662D01*
X0187248Y0141664D02*
X0204369Y0141664D01*
X0208333Y0143750D02*
X0208333Y0144656D01*
X0208333Y0143750D02*
X0211333Y0143750D01*
X0212333Y0142750D01*
X0215333Y0142750D01*
X0215833Y0142096D01*
X0219102Y0141664D02*
X0236343Y0141664D01*
X0237341Y0142662D02*
X0219102Y0142662D01*
X0219102Y0143661D02*
X0238340Y0143661D01*
X0239338Y0144659D02*
X0219102Y0144659D01*
X0212389Y0145658D02*
X0237175Y0145658D01*
X0235760Y0146656D02*
X0212389Y0146656D01*
X0212291Y0147655D02*
X0235215Y0147655D01*
X0239491Y0145658D02*
X0240337Y0145658D01*
X0240906Y0146656D02*
X0241335Y0146656D01*
X0241452Y0147655D02*
X0241633Y0147655D01*
X0241633Y0148653D02*
X0241633Y0148653D01*
X0241633Y0149652D02*
X0241532Y0149652D01*
X0241633Y0150650D02*
X0241100Y0150650D01*
X0241633Y0151649D02*
X0239958Y0151649D01*
X0241633Y0152647D02*
X0229889Y0152647D01*
X0232849Y0154644D02*
X0233818Y0154644D01*
X0233818Y0155643D02*
X0232849Y0155643D01*
X0232849Y0156641D02*
X0233818Y0156641D01*
X0236802Y0159637D02*
X0241633Y0159637D01*
X0241633Y0160635D02*
X0236703Y0160635D01*
X0236343Y0161634D02*
X0241633Y0161634D01*
X0241633Y0162632D02*
X0236602Y0162632D01*
X0236602Y0163631D02*
X0241633Y0163631D01*
X0241633Y0164629D02*
X0236602Y0164629D01*
X0236602Y0165628D02*
X0241633Y0165628D01*
X0241633Y0166626D02*
X0236602Y0166626D01*
X0236277Y0167625D02*
X0241633Y0167625D01*
X0241633Y0168623D02*
X0229889Y0168623D01*
X0229889Y0167625D02*
X0230389Y0167625D01*
X0229889Y0169622D02*
X0241633Y0169622D01*
X0241633Y0170620D02*
X0229325Y0170620D01*
X0226749Y0176970D02*
X0225620Y0176503D01*
X0224398Y0176503D01*
X0223269Y0176970D01*
X0222405Y0177834D01*
X0221938Y0178963D01*
X0221938Y0180185D01*
X0222405Y0181314D01*
X0223269Y0182178D01*
X0224398Y0182646D01*
X0225620Y0182646D01*
X0226749Y0182178D01*
X0227613Y0181314D01*
X0228081Y0180185D01*
X0228081Y0178963D01*
X0227613Y0177834D01*
X0226749Y0176970D01*
X0227389Y0177610D02*
X0237191Y0177610D01*
X0235601Y0178609D02*
X0227934Y0178609D01*
X0228081Y0179607D02*
X0234901Y0179607D01*
X0234533Y0180606D02*
X0227907Y0180606D01*
X0227323Y0181604D02*
X0234533Y0181604D01*
X0234781Y0182603D02*
X0225724Y0182603D01*
X0224294Y0182603D02*
X0213799Y0182603D01*
X0214102Y0181604D02*
X0222695Y0181604D01*
X0222112Y0180606D02*
X0214102Y0180606D01*
X0214102Y0179607D02*
X0221938Y0179607D01*
X0222084Y0178609D02*
X0214102Y0178609D01*
X0214102Y0177610D02*
X0222629Y0177610D01*
X0224135Y0176612D02*
X0213821Y0176612D01*
X0214209Y0175613D02*
X0241633Y0175613D01*
X0241633Y0174615D02*
X0214302Y0174615D01*
X0214302Y0173616D02*
X0241633Y0173616D01*
X0241633Y0172618D02*
X0211318Y0172618D01*
X0210349Y0172618D02*
X0207389Y0172618D01*
X0207389Y0172419D02*
X0207389Y0173245D01*
X0206628Y0174007D01*
X0205790Y0174007D01*
X0206300Y0174517D01*
X0206833Y0175804D01*
X0206833Y0177196D01*
X0206300Y0178483D01*
X0206290Y0178493D01*
X0206628Y0178493D01*
X0207389Y0179255D01*
X0207389Y0179750D01*
X0207565Y0179750D01*
X0207565Y0176893D01*
X0208099Y0176359D01*
X0207944Y0176269D01*
X0207665Y0175990D01*
X0207467Y0175648D01*
X0207365Y0175266D01*
X0207365Y0173388D01*
X0210349Y0173388D01*
X0210349Y0172419D01*
X0207389Y0172419D01*
X0207365Y0173616D02*
X0207018Y0173616D01*
X0207365Y0174615D02*
X0206341Y0174615D01*
X0206754Y0175613D02*
X0207458Y0175613D01*
X0207846Y0176612D02*
X0206833Y0176612D01*
X0206662Y0177610D02*
X0207565Y0177610D01*
X0207565Y0178609D02*
X0206743Y0178609D01*
X0207389Y0179607D02*
X0207565Y0179607D01*
X0207333Y0181750D02*
X0206333Y0182750D01*
X0203333Y0182750D01*
X0203333Y0182156D01*
X0207333Y0181750D02*
X0208458Y0181750D01*
X0210833Y0179596D01*
X0209436Y0183601D02*
X0235310Y0183601D01*
X0236490Y0184600D02*
X0207389Y0184600D01*
X0206847Y0185598D02*
X0214641Y0185598D01*
X0214918Y0185322D02*
X0216047Y0184854D01*
X0217268Y0184854D01*
X0218397Y0185322D01*
X0219262Y0186186D01*
X0219729Y0187315D01*
X0219729Y0188537D01*
X0219262Y0189666D01*
X0218397Y0190530D01*
X0217268Y0190997D01*
X0216047Y0190997D01*
X0214918Y0190530D01*
X0214053Y0189666D01*
X0213586Y0188537D01*
X0213586Y0187315D01*
X0214053Y0186186D01*
X0214918Y0185322D01*
X0213883Y0186597D02*
X0193454Y0186597D01*
X0194420Y0187595D02*
X0213586Y0187595D01*
X0213609Y0188594D02*
X0195386Y0188594D01*
X0196353Y0189592D02*
X0214023Y0189592D01*
X0215065Y0190591D02*
X0197319Y0190591D01*
X0198285Y0191589D02*
X0235400Y0191589D01*
X0234659Y0192588D02*
X0199252Y0192588D01*
X0200218Y0193586D02*
X0233919Y0193586D01*
X0233178Y0194585D02*
X0201184Y0194585D01*
X0202151Y0195583D02*
X0206751Y0195583D01*
X0205753Y0196582D02*
X0203117Y0196582D01*
X0204083Y0197580D02*
X0205330Y0197580D01*
X0205158Y0198579D02*
X0205049Y0198579D01*
X0211166Y0195583D02*
X0224251Y0195583D01*
X0223253Y0196582D02*
X0212164Y0196582D01*
X0212587Y0197580D02*
X0222830Y0197580D01*
X0222658Y0198579D02*
X0212758Y0198579D01*
X0212729Y0199577D02*
X0222688Y0199577D01*
X0223102Y0200576D02*
X0212315Y0200576D01*
X0228666Y0195583D02*
X0232437Y0195583D01*
X0231696Y0196582D02*
X0229664Y0196582D01*
X0230087Y0197580D02*
X0230955Y0197580D01*
X0236141Y0190591D02*
X0218250Y0190591D01*
X0219292Y0189592D02*
X0236882Y0189592D01*
X0237623Y0188594D02*
X0219706Y0188594D01*
X0219729Y0187595D02*
X0238364Y0187595D01*
X0239104Y0186597D02*
X0219432Y0186597D01*
X0218674Y0185598D02*
X0239845Y0185598D01*
X0240176Y0184600D02*
X0240586Y0184600D01*
X0241066Y0178609D02*
X0241633Y0178609D01*
X0241633Y0177610D02*
X0239476Y0177610D01*
X0241633Y0176612D02*
X0225883Y0176612D01*
X0214302Y0171619D02*
X0241633Y0171619D01*
X0233333Y0164750D02*
X0229333Y0164750D01*
X0233333Y0164750D02*
X0233333Y0164596D01*
X0211318Y0169622D02*
X0210349Y0169622D01*
X0210349Y0170620D02*
X0211318Y0170620D01*
X0211318Y0171619D02*
X0210349Y0171619D01*
X0207860Y0169622D02*
X0207389Y0169622D01*
X0203333Y0170344D02*
X0203333Y0171750D01*
X0202333Y0170750D01*
X0202333Y0169750D01*
X0210333Y0161750D01*
X0207389Y0161634D02*
X0198843Y0161634D01*
X0199102Y0162632D02*
X0206623Y0162632D01*
X0205624Y0163631D02*
X0199102Y0163631D01*
X0199102Y0164629D02*
X0204625Y0164629D01*
X0203627Y0165628D02*
X0199102Y0165628D01*
X0199102Y0166626D02*
X0202628Y0166626D01*
X0199277Y0167625D02*
X0198777Y0167625D01*
X0199277Y0168623D02*
X0192389Y0168623D01*
X0192389Y0169622D02*
X0199277Y0169622D01*
X0199277Y0170620D02*
X0191825Y0170620D01*
X0191333Y0166750D02*
X0188333Y0166750D01*
X0188333Y0167156D01*
X0191333Y0166750D02*
X0193333Y0164750D01*
X0195333Y0164750D01*
X0195833Y0164596D01*
X0192565Y0162632D02*
X0176279Y0162632D01*
X0177278Y0161634D02*
X0192824Y0161634D01*
X0192464Y0160635D02*
X0178276Y0160635D01*
X0179275Y0159637D02*
X0192365Y0159637D01*
X0192365Y0158638D02*
X0191996Y0158638D01*
X0192389Y0157640D02*
X0195349Y0157640D01*
X0196318Y0157640D02*
X0203395Y0157640D01*
X0204393Y0158638D02*
X0199302Y0158638D01*
X0199302Y0159637D02*
X0205392Y0159637D01*
X0206390Y0160635D02*
X0199203Y0160635D01*
X0199302Y0157419D02*
X0196318Y0157419D01*
X0196318Y0154238D01*
X0197999Y0154238D01*
X0198381Y0154340D01*
X0198723Y0154538D01*
X0199002Y0154817D01*
X0199200Y0155159D01*
X0199302Y0155541D01*
X0199302Y0157419D01*
X0199302Y0156641D02*
X0202396Y0156641D01*
X0201398Y0155643D02*
X0199302Y0155643D01*
X0198829Y0154644D02*
X0200399Y0154644D01*
X0199401Y0153646D02*
X0192389Y0153646D01*
X0192389Y0154644D02*
X0192837Y0154644D01*
X0192389Y0152647D02*
X0198402Y0152647D01*
X0197404Y0151649D02*
X0189333Y0151649D01*
X0187333Y0148750D02*
X0187333Y0147750D01*
X0182333Y0142750D01*
X0183333Y0142750D02*
X0202333Y0123750D01*
X0194333Y0115750D01*
X0196116Y0114704D02*
X0209383Y0114704D01*
X0210382Y0115702D02*
X0197114Y0115702D01*
X0198113Y0116701D02*
X0211380Y0116701D01*
X0212379Y0117699D02*
X0199111Y0117699D01*
X0200110Y0118698D02*
X0213377Y0118698D01*
X0214376Y0119696D02*
X0201108Y0119696D01*
X0202107Y0120695D02*
X0215374Y0120695D01*
X0216373Y0121693D02*
X0203105Y0121693D01*
X0204104Y0122692D02*
X0217371Y0122692D01*
X0218370Y0123690D02*
X0205102Y0123690D01*
X0206101Y0124689D02*
X0219368Y0124689D01*
X0220367Y0125687D02*
X0207099Y0125687D01*
X0208098Y0126686D02*
X0221365Y0126686D01*
X0222364Y0127684D02*
X0209096Y0127684D01*
X0210095Y0128683D02*
X0223362Y0128683D01*
X0224361Y0129682D02*
X0212127Y0129682D01*
X0212389Y0130680D02*
X0225359Y0130680D01*
X0226358Y0131679D02*
X0212389Y0131679D01*
X0212389Y0132677D02*
X0212462Y0132677D01*
X0215349Y0132677D02*
X0216318Y0132677D01*
X0216318Y0131738D02*
X0217999Y0131738D01*
X0218381Y0131840D01*
X0218723Y0132038D01*
X0219002Y0132317D01*
X0219200Y0132659D01*
X0219302Y0133041D01*
X0219302Y0134919D01*
X0216318Y0134919D01*
X0216318Y0131738D01*
X0216318Y0133676D02*
X0215349Y0133676D01*
X0215349Y0134674D02*
X0216318Y0134674D01*
X0216318Y0135673D02*
X0230352Y0135673D01*
X0231350Y0136671D02*
X0219302Y0136671D01*
X0219302Y0137670D02*
X0232349Y0137670D01*
X0233347Y0138668D02*
X0218824Y0138668D01*
X0219102Y0139667D02*
X0234346Y0139667D01*
X0235344Y0140665D02*
X0219102Y0140665D01*
X0212565Y0140665D02*
X0188247Y0140665D01*
X0189245Y0139667D02*
X0212565Y0139667D01*
X0212843Y0138668D02*
X0190244Y0138668D01*
X0191242Y0137670D02*
X0212365Y0137670D01*
X0212365Y0136671D02*
X0192241Y0136671D01*
X0193239Y0135673D02*
X0204277Y0135673D01*
X0204277Y0134674D02*
X0194238Y0134674D01*
X0195236Y0133676D02*
X0204277Y0133676D01*
X0204277Y0132677D02*
X0196235Y0132677D01*
X0197233Y0131679D02*
X0204277Y0131679D01*
X0204277Y0130680D02*
X0198232Y0130680D01*
X0199230Y0129682D02*
X0204540Y0129682D01*
X0204438Y0128683D02*
X0200229Y0128683D01*
X0201227Y0127684D02*
X0203439Y0127684D01*
X0202441Y0126686D02*
X0202226Y0126686D01*
X0202333Y0123750D02*
X0209333Y0130750D01*
X0209333Y0131750D01*
X0208333Y0132750D01*
X0208333Y0132844D01*
X0212389Y0135673D02*
X0215349Y0135673D01*
X0219302Y0134674D02*
X0229353Y0134674D01*
X0228355Y0133676D02*
X0219302Y0133676D01*
X0219204Y0132677D02*
X0227356Y0132677D01*
X0199445Y0123690D02*
X0191825Y0123690D01*
X0192389Y0124689D02*
X0198566Y0124689D01*
X0197567Y0125687D02*
X0192389Y0125687D01*
X0192389Y0126686D02*
X0196569Y0126686D01*
X0195570Y0127684D02*
X0192389Y0127684D01*
X0192389Y0128683D02*
X0194572Y0128683D01*
X0193573Y0129682D02*
X0192389Y0129682D01*
X0192575Y0130680D02*
X0191765Y0130680D01*
X0191576Y0131679D02*
X0174090Y0131679D01*
X0172428Y0135673D02*
X0172389Y0135673D01*
X0173426Y0136671D02*
X0164302Y0136671D01*
X0164302Y0137670D02*
X0174425Y0137670D01*
X0175423Y0138668D02*
X0163824Y0138668D01*
X0164102Y0139667D02*
X0176422Y0139667D01*
X0177420Y0140665D02*
X0164102Y0140665D01*
X0164333Y0142750D02*
X0161333Y0142750D01*
X0160833Y0142096D01*
X0164333Y0142750D02*
X0165333Y0143750D01*
X0168333Y0143750D01*
X0168333Y0144656D01*
X0172389Y0144659D02*
X0181414Y0144659D01*
X0180416Y0143661D02*
X0172389Y0143661D01*
X0172389Y0142662D02*
X0179417Y0142662D01*
X0180333Y0143578D02*
X0180333Y0143578D01*
X0178419Y0141664D02*
X0172298Y0141664D01*
X0172389Y0145658D02*
X0182413Y0145658D01*
X0183411Y0146656D02*
X0172389Y0146656D01*
X0172291Y0147655D02*
X0184410Y0147655D01*
X0185333Y0148653D02*
X0141633Y0148653D01*
X0141532Y0149652D02*
X0185333Y0149652D01*
X0185333Y0150650D02*
X0141100Y0150650D01*
X0139958Y0151649D02*
X0185333Y0151649D01*
X0184277Y0152647D02*
X0154889Y0152647D01*
X0154889Y0153646D02*
X0184277Y0153646D01*
X0178611Y0154644D02*
X0164056Y0154644D01*
X0165055Y0155643D02*
X0177612Y0155643D01*
X0176614Y0156641D02*
X0166053Y0156641D01*
X0167052Y0157640D02*
X0175615Y0157640D01*
X0174617Y0158638D02*
X0168050Y0158638D01*
X0169049Y0159637D02*
X0173618Y0159637D01*
X0172620Y0160635D02*
X0170047Y0160635D01*
X0171046Y0161634D02*
X0171621Y0161634D01*
X0175281Y0163631D02*
X0184901Y0163631D01*
X0184277Y0164629D02*
X0174282Y0164629D01*
X0175040Y0165628D02*
X0184277Y0165628D01*
X0184277Y0166626D02*
X0176038Y0166626D01*
X0177389Y0167625D02*
X0184277Y0167625D01*
X0184277Y0168623D02*
X0177389Y0168623D01*
X0177389Y0169622D02*
X0184277Y0169622D01*
X0184842Y0170620D02*
X0177389Y0170620D01*
X0177389Y0171619D02*
X0199277Y0171619D01*
X0199277Y0172618D02*
X0177389Y0172618D01*
X0177018Y0173616D02*
X0199648Y0173616D01*
X0200326Y0174615D02*
X0166802Y0174615D01*
X0166802Y0175266D02*
X0166700Y0175648D01*
X0166502Y0175990D01*
X0166223Y0176269D01*
X0166068Y0176359D01*
X0166602Y0176893D01*
X0166602Y0177750D01*
X0169162Y0177750D01*
X0169972Y0178560D01*
X0170039Y0178493D01*
X0176628Y0178493D01*
X0177389Y0179255D01*
X0177389Y0185056D01*
X0176628Y0185818D01*
X0170039Y0185818D01*
X0169277Y0185056D01*
X0169277Y0183523D01*
X0168333Y0182578D01*
X0167505Y0181750D01*
X0166602Y0181750D01*
X0166602Y0182300D01*
X0165840Y0183062D01*
X0160826Y0183062D01*
X0160065Y0182300D01*
X0160065Y0176893D01*
X0160599Y0176359D01*
X0160444Y0176269D01*
X0160165Y0175990D01*
X0159967Y0175648D01*
X0159865Y0175266D01*
X0159865Y0173388D01*
X0162849Y0173388D01*
X0162849Y0172419D01*
X0163818Y0172419D01*
X0163818Y0173388D01*
X0166802Y0173388D01*
X0166802Y0175266D01*
X0166709Y0175613D02*
X0186096Y0175613D01*
X0185106Y0176612D02*
X0166321Y0176612D01*
X0166602Y0177610D02*
X0184692Y0177610D01*
X0184533Y0178609D02*
X0176743Y0178609D01*
X0177389Y0179607D02*
X0184575Y0179607D01*
X0184989Y0180606D02*
X0177389Y0180606D01*
X0177389Y0181604D02*
X0185813Y0181604D01*
X0187074Y0182603D02*
X0177389Y0182603D01*
X0177389Y0183601D02*
X0186112Y0183601D01*
X0185145Y0184600D02*
X0177389Y0184600D01*
X0176847Y0185598D02*
X0184179Y0185598D01*
X0183213Y0186597D02*
X0137562Y0186597D01*
X0138303Y0187595D02*
X0182246Y0187595D01*
X0181280Y0188594D02*
X0139044Y0188594D01*
X0139785Y0189592D02*
X0180314Y0189592D01*
X0179348Y0190591D02*
X0140525Y0190591D01*
X0141266Y0191589D02*
X0178381Y0191589D01*
X0177415Y0192588D02*
X0142007Y0192588D01*
X0142748Y0193586D02*
X0176449Y0193586D01*
X0175482Y0194585D02*
X0143489Y0194585D01*
X0144230Y0195583D02*
X0148001Y0195583D01*
X0147003Y0196582D02*
X0144970Y0196582D01*
X0145711Y0197580D02*
X0146580Y0197580D01*
X0152416Y0195583D02*
X0165501Y0195583D01*
X0164503Y0196582D02*
X0153414Y0196582D01*
X0153837Y0197580D02*
X0164080Y0197580D01*
X0163908Y0198579D02*
X0154008Y0198579D01*
X0153979Y0199577D02*
X0163938Y0199577D01*
X0164352Y0200576D02*
X0153565Y0200576D01*
X0169916Y0195583D02*
X0174516Y0195583D01*
X0173550Y0196582D02*
X0170914Y0196582D01*
X0171337Y0197580D02*
X0172583Y0197580D01*
X0171617Y0198579D02*
X0171508Y0198579D01*
X0169819Y0185598D02*
X0136821Y0185598D01*
X0136490Y0184600D02*
X0136080Y0184600D01*
X0140176Y0184600D02*
X0169277Y0184600D01*
X0169277Y0183601D02*
X0141356Y0183601D01*
X0141886Y0182603D02*
X0160367Y0182603D01*
X0160065Y0181604D02*
X0142133Y0181604D01*
X0142133Y0180606D02*
X0160065Y0180606D01*
X0160065Y0179607D02*
X0141766Y0179607D01*
X0141066Y0178609D02*
X0160065Y0178609D01*
X0160065Y0177610D02*
X0139476Y0177610D01*
X0137191Y0177610D02*
X0135033Y0177610D01*
X0135033Y0176612D02*
X0160346Y0176612D01*
X0159958Y0175613D02*
X0135033Y0175613D01*
X0135033Y0174615D02*
X0159865Y0174615D01*
X0159865Y0173616D02*
X0135033Y0173616D01*
X0135033Y0172618D02*
X0162849Y0172618D01*
X0162849Y0172419D02*
X0159865Y0172419D01*
X0159865Y0170541D01*
X0159967Y0170159D01*
X0160165Y0169817D01*
X0160444Y0169538D01*
X0160786Y0169340D01*
X0161167Y0169238D01*
X0162849Y0169238D01*
X0162849Y0172419D01*
X0162849Y0171619D02*
X0163818Y0171619D01*
X0163818Y0172419D02*
X0163818Y0169238D01*
X0165499Y0169238D01*
X0165881Y0169340D01*
X0166223Y0169538D01*
X0166502Y0169817D01*
X0166700Y0170159D01*
X0166802Y0170541D01*
X0166802Y0172419D01*
X0163818Y0172419D01*
X0163818Y0172618D02*
X0169277Y0172618D01*
X0169277Y0171619D02*
X0166802Y0171619D01*
X0166802Y0170620D02*
X0169277Y0170620D01*
X0169277Y0169622D02*
X0166307Y0169622D01*
X0163818Y0169622D02*
X0162849Y0169622D01*
X0162849Y0170620D02*
X0163818Y0170620D01*
X0160360Y0169622D02*
X0154889Y0169622D01*
X0154889Y0168623D02*
X0169277Y0168623D01*
X0169277Y0167625D02*
X0154889Y0167625D01*
X0154889Y0166626D02*
X0170381Y0166626D01*
X0169383Y0165628D02*
X0154889Y0165628D01*
X0154889Y0164629D02*
X0168384Y0164629D01*
X0167386Y0163631D02*
X0154265Y0163631D01*
X0150333Y0167750D02*
X0147333Y0164750D01*
X0146777Y0167625D02*
X0146277Y0167625D01*
X0146777Y0168623D02*
X0135033Y0168623D01*
X0135033Y0167625D02*
X0140389Y0167625D01*
X0140065Y0166626D02*
X0135033Y0166626D01*
X0135033Y0165628D02*
X0140065Y0165628D01*
X0135033Y0169622D02*
X0146777Y0169622D01*
X0147342Y0170620D02*
X0135033Y0170620D01*
X0135033Y0171619D02*
X0159865Y0171619D01*
X0159865Y0170620D02*
X0154325Y0170620D01*
X0150333Y0167750D02*
X0150833Y0167156D01*
X0166802Y0173616D02*
X0169648Y0173616D01*
X0173333Y0170344D02*
X0173333Y0169750D01*
X0174333Y0168750D01*
X0174333Y0167750D01*
X0171333Y0164750D01*
X0162393Y0158638D02*
X0154496Y0158638D01*
X0164376Y0147655D02*
X0141452Y0147655D01*
X0140906Y0146656D02*
X0164277Y0146656D01*
X0164277Y0145658D02*
X0139491Y0145658D01*
X0146315Y0135673D02*
X0160349Y0135673D01*
X0161318Y0135673D02*
X0164277Y0135673D01*
X0161318Y0134674D02*
X0160349Y0134674D01*
X0160349Y0133676D02*
X0161318Y0133676D01*
X0161318Y0132677D02*
X0160349Y0132677D01*
X0164277Y0130680D02*
X0151307Y0130680D01*
X0152306Y0129682D02*
X0164540Y0129682D01*
X0180833Y0124596D02*
X0181333Y0124750D01*
X0183333Y0124750D01*
X0185333Y0126750D01*
X0188333Y0126750D01*
X0188333Y0127156D01*
X0184102Y0122692D02*
X0198447Y0122692D01*
X0197448Y0121693D02*
X0183903Y0121693D01*
X0184172Y0120695D02*
X0196450Y0120695D01*
X0192389Y0113705D02*
X0208385Y0113705D01*
X0207386Y0112707D02*
X0192389Y0112707D01*
X0191654Y0111708D02*
X0206387Y0111708D01*
X0205389Y0110710D02*
X0171278Y0110710D01*
X0195349Y0154644D02*
X0196318Y0154644D01*
X0196318Y0155643D02*
X0195349Y0155643D01*
X0195349Y0156641D02*
X0196318Y0156641D01*
X0184671Y0158638D02*
X0180273Y0158638D01*
X0203333Y0171750D02*
X0203333Y0176500D01*
X0199833Y0176612D02*
X0191561Y0176612D01*
X0191974Y0177610D02*
X0200005Y0177610D01*
X0199924Y0178609D02*
X0192133Y0178609D01*
X0192091Y0179607D02*
X0199277Y0179607D01*
X0199277Y0180606D02*
X0191678Y0180606D01*
X0190853Y0181604D02*
X0199277Y0181604D01*
X0199277Y0182603D02*
X0189592Y0182603D01*
X0190555Y0183601D02*
X0199277Y0183601D01*
X0199277Y0184600D02*
X0191521Y0184600D01*
X0192488Y0185598D02*
X0199819Y0185598D01*
X0199912Y0175613D02*
X0190570Y0175613D01*
X0173333Y0181750D02*
X0173333Y0182156D01*
X0173333Y0181750D02*
X0170333Y0181750D01*
X0168333Y0179750D01*
X0163333Y0179750D01*
X0163333Y0179596D01*
X0166299Y0182603D02*
X0168358Y0182603D01*
X0135601Y0178609D02*
X0135033Y0178609D01*
X0209052Y0157640D02*
X0211615Y0157640D01*
X0210617Y0158638D02*
X0210050Y0158638D01*
D14*
X0218333Y0130000D03*
X0158333Y0130000D03*
X0231458Y0188125D03*
X0158333Y0190625D03*
M02*
