G75*
%MOIN*%
%OFA0B0*%
%FSLAX25Y25*%
%IPPOS*%
%LPD*%
%AMOC8*
5,1,8,0,0,1.08239X$1,22.5*
%
%ADD10C,0.00500*%
%ADD11C,0.00800*%
D10*
X0177531Y0113375D02*
X0179333Y0113375D01*
X0179333Y0116077D01*
X0177531Y0116077D01*
X0178432Y0114726D02*
X0179333Y0114726D01*
X0180478Y0113825D02*
X0180478Y0115627D01*
X0180928Y0116077D01*
X0182279Y0116077D01*
X0182279Y0113375D01*
X0180928Y0113375D01*
X0180478Y0113825D01*
X0183424Y0113375D02*
X0183424Y0115177D01*
X0184325Y0116077D01*
X0185226Y0115177D01*
X0185226Y0113375D01*
X0186371Y0113375D02*
X0187271Y0114276D01*
X0186821Y0114276D02*
X0188172Y0114276D01*
X0188172Y0113375D02*
X0188172Y0116077D01*
X0186821Y0116077D01*
X0186371Y0115627D01*
X0186371Y0114726D01*
X0186821Y0114276D01*
X0185226Y0114726D02*
X0183424Y0114726D01*
X0189317Y0113375D02*
X0191119Y0113375D01*
X0191119Y0116077D01*
X0189317Y0116077D01*
X0190218Y0114726D02*
X0191119Y0114726D01*
X0192264Y0115627D02*
X0194065Y0113825D01*
X0194065Y0113375D01*
X0192264Y0113375D01*
X0192264Y0115627D02*
X0192264Y0116077D01*
X0194065Y0116077D01*
X0195210Y0115177D02*
X0195210Y0113375D01*
X0195210Y0114726D02*
X0197012Y0114726D01*
X0197012Y0115177D02*
X0197012Y0113375D01*
X0198157Y0113375D02*
X0199958Y0113375D01*
X0199958Y0116077D01*
X0197012Y0115177D02*
X0196111Y0116077D01*
X0195210Y0115177D01*
D11*
X0174583Y0109375D02*
X0166458Y0118125D01*
X0170833Y0118125D01*
X0164583Y0126250D01*
X0168958Y0127500D01*
X0163333Y0135000D01*
X0168333Y0135000D01*
X0173333Y0125000D01*
X0168958Y0125000D01*
X0174583Y0115000D01*
X0171458Y0115000D01*
X0174583Y0109375D01*
X0174180Y0110101D02*
X0173909Y0110101D01*
X0173736Y0110899D02*
X0173168Y0110899D01*
X0173293Y0111698D02*
X0172426Y0111698D01*
X0172849Y0112496D02*
X0171685Y0112496D01*
X0172406Y0113295D02*
X0170943Y0113295D01*
X0170202Y0114093D02*
X0171962Y0114093D01*
X0171518Y0114892D02*
X0169460Y0114892D01*
X0168719Y0115690D02*
X0174195Y0115690D01*
X0173746Y0116489D02*
X0167977Y0116489D01*
X0167236Y0117287D02*
X0173297Y0117287D01*
X0172847Y0118086D02*
X0166495Y0118086D01*
X0169021Y0120482D02*
X0171500Y0120482D01*
X0171051Y0121280D02*
X0168406Y0121280D01*
X0167792Y0122079D02*
X0170602Y0122079D01*
X0170152Y0122877D02*
X0167178Y0122877D01*
X0166564Y0123676D02*
X0169703Y0123676D01*
X0169254Y0124474D02*
X0165949Y0124474D01*
X0165335Y0125273D02*
X0173197Y0125273D01*
X0172798Y0126071D02*
X0164721Y0126071D01*
X0166752Y0126870D02*
X0172399Y0126870D01*
X0171999Y0127668D02*
X0168832Y0127668D01*
X0168233Y0128467D02*
X0171600Y0128467D01*
X0171201Y0129265D02*
X0167634Y0129265D01*
X0167036Y0130064D02*
X0170802Y0130064D01*
X0170402Y0130862D02*
X0166437Y0130862D01*
X0165838Y0131661D02*
X0170003Y0131661D01*
X0169604Y0132459D02*
X0165239Y0132459D01*
X0164640Y0133258D02*
X0169204Y0133258D01*
X0168805Y0134056D02*
X0164041Y0134056D01*
X0163442Y0134855D02*
X0168406Y0134855D01*
X0166208Y0143250D02*
X0178208Y0131250D01*
X0202208Y0131250D01*
X0214208Y0143250D01*
X0214208Y0173250D01*
X0214146Y0173406D01*
X0214079Y0173561D01*
X0214010Y0173714D01*
X0213936Y0173866D01*
X0213859Y0174015D01*
X0213778Y0174163D01*
X0213694Y0174309D01*
X0213606Y0174452D01*
X0213515Y0174594D01*
X0213421Y0174733D01*
X0213323Y0174870D01*
X0213222Y0175004D01*
X0213117Y0175136D01*
X0213010Y0175266D01*
X0212899Y0175392D01*
X0212785Y0175516D01*
X0212669Y0175638D01*
X0212549Y0175756D01*
X0212427Y0175872D01*
X0212302Y0175984D01*
X0212174Y0176094D01*
X0212043Y0176200D01*
X0211910Y0176303D01*
X0211775Y0176403D01*
X0211637Y0176500D01*
X0211497Y0176593D01*
X0211355Y0176683D01*
X0211210Y0176769D01*
X0211064Y0176852D01*
X0210915Y0176931D01*
X0210765Y0177007D01*
X0210613Y0177079D01*
X0210459Y0177147D01*
X0210304Y0177212D01*
X0210147Y0177273D01*
X0209989Y0177330D01*
X0209829Y0177383D01*
X0209668Y0177432D01*
X0209506Y0177478D01*
X0209343Y0177519D01*
X0209179Y0177557D01*
X0209014Y0177590D01*
X0208848Y0177620D01*
X0208682Y0177646D01*
X0208515Y0177667D01*
X0208348Y0177685D01*
X0208180Y0177698D01*
X0208012Y0177707D01*
X0207844Y0177713D01*
X0207675Y0177714D01*
X0207507Y0177711D01*
X0207339Y0177704D01*
X0207171Y0177693D01*
X0207003Y0177678D01*
X0206836Y0177659D01*
X0206670Y0177636D01*
X0206503Y0177609D01*
X0206338Y0177578D01*
X0206173Y0177543D01*
X0206010Y0177504D01*
X0205847Y0177461D01*
X0205685Y0177414D01*
X0205525Y0177363D01*
X0205366Y0177308D01*
X0205208Y0177250D01*
X0212331Y0184307D02*
X0217214Y0179424D01*
X0229324Y0172882D02*
X0231702Y0175259D01*
X0232322Y0180206D02*
X0217289Y0195239D01*
X0212342Y0194618D02*
X0209965Y0192241D01*
X0205208Y0177250D02*
X0204841Y0176892D01*
X0204466Y0176543D01*
X0204082Y0176203D01*
X0203690Y0175872D01*
X0203290Y0175551D01*
X0202883Y0175240D01*
X0202468Y0174939D01*
X0202047Y0174648D01*
X0201618Y0174367D01*
X0201182Y0174096D01*
X0200740Y0173836D01*
X0200292Y0173587D01*
X0199839Y0173349D01*
X0199379Y0173122D01*
X0198914Y0172906D01*
X0198444Y0172701D01*
X0197969Y0172508D01*
X0197490Y0172326D01*
X0197006Y0172156D01*
X0196519Y0171998D01*
X0196028Y0171851D01*
X0195533Y0171716D01*
X0195035Y0171594D01*
X0194535Y0171483D01*
X0194032Y0171384D01*
X0193526Y0171298D01*
X0193019Y0171224D01*
X0192510Y0171162D01*
X0192000Y0171113D01*
X0191489Y0171076D01*
X0190977Y0171051D01*
X0190464Y0171039D01*
X0189952Y0171039D01*
X0189439Y0171051D01*
X0188927Y0171076D01*
X0188416Y0171113D01*
X0187906Y0171162D01*
X0187397Y0171224D01*
X0186890Y0171298D01*
X0186384Y0171384D01*
X0185881Y0171483D01*
X0185381Y0171594D01*
X0184883Y0171716D01*
X0184388Y0171851D01*
X0183897Y0171998D01*
X0183410Y0172156D01*
X0182926Y0172326D01*
X0182447Y0172508D01*
X0181972Y0172701D01*
X0181502Y0172906D01*
X0181037Y0173122D01*
X0180577Y0173349D01*
X0180124Y0173587D01*
X0179676Y0173836D01*
X0179234Y0174096D01*
X0178798Y0174367D01*
X0178369Y0174648D01*
X0177948Y0174939D01*
X0177533Y0175240D01*
X0177126Y0175551D01*
X0176726Y0175872D01*
X0176334Y0176203D01*
X0175950Y0176543D01*
X0175575Y0176892D01*
X0175208Y0177250D01*
X0166208Y0173250D02*
X0166208Y0143250D01*
X0203958Y0125000D02*
X0208958Y0135000D01*
X0213958Y0135000D01*
X0208333Y0127500D01*
X0212708Y0126250D01*
X0206458Y0118125D01*
X0210833Y0118125D01*
X0202708Y0109375D01*
X0205833Y0115000D01*
X0202708Y0115000D01*
X0208333Y0125000D01*
X0203958Y0125000D01*
X0204095Y0125273D02*
X0211956Y0125273D01*
X0212571Y0126071D02*
X0204494Y0126071D01*
X0204893Y0126870D02*
X0210540Y0126870D01*
X0209058Y0128467D02*
X0205692Y0128467D01*
X0206091Y0129265D02*
X0209657Y0129265D01*
X0210256Y0130064D02*
X0206490Y0130064D01*
X0206889Y0130862D02*
X0210855Y0130862D01*
X0211454Y0131661D02*
X0207289Y0131661D01*
X0207688Y0132459D02*
X0212053Y0132459D01*
X0212652Y0133258D02*
X0208087Y0133258D01*
X0208486Y0134056D02*
X0213250Y0134056D01*
X0213849Y0134855D02*
X0208886Y0134855D01*
X0208459Y0127668D02*
X0205292Y0127668D01*
X0208037Y0124474D02*
X0211342Y0124474D01*
X0210728Y0123676D02*
X0207588Y0123676D01*
X0207139Y0122877D02*
X0210114Y0122877D01*
X0209500Y0122079D02*
X0206690Y0122079D01*
X0206241Y0121280D02*
X0208885Y0121280D01*
X0208271Y0120482D02*
X0205792Y0120482D01*
X0205343Y0119683D02*
X0207657Y0119683D01*
X0207043Y0118884D02*
X0204893Y0118884D01*
X0204444Y0118086D02*
X0210797Y0118086D01*
X0210056Y0117287D02*
X0203995Y0117287D01*
X0203546Y0116489D02*
X0209314Y0116489D01*
X0208573Y0115690D02*
X0203097Y0115690D01*
X0205330Y0114093D02*
X0207090Y0114093D01*
X0206348Y0113295D02*
X0204886Y0113295D01*
X0204442Y0112496D02*
X0205607Y0112496D01*
X0204865Y0111698D02*
X0203999Y0111698D01*
X0204124Y0110899D02*
X0203555Y0110899D01*
X0203382Y0110101D02*
X0203112Y0110101D01*
X0205773Y0114892D02*
X0207831Y0114892D01*
X0172398Y0118884D02*
X0170249Y0118884D01*
X0169635Y0119683D02*
X0171949Y0119683D01*
X0166208Y0173250D02*
X0166270Y0173406D01*
X0166337Y0173561D01*
X0166406Y0173714D01*
X0166480Y0173866D01*
X0166557Y0174015D01*
X0166638Y0174163D01*
X0166722Y0174309D01*
X0166810Y0174452D01*
X0166901Y0174594D01*
X0166995Y0174733D01*
X0167093Y0174870D01*
X0167194Y0175004D01*
X0167299Y0175136D01*
X0167406Y0175266D01*
X0167517Y0175392D01*
X0167631Y0175516D01*
X0167747Y0175638D01*
X0167867Y0175756D01*
X0167989Y0175872D01*
X0168114Y0175984D01*
X0168242Y0176094D01*
X0168373Y0176200D01*
X0168506Y0176303D01*
X0168641Y0176403D01*
X0168779Y0176500D01*
X0168919Y0176593D01*
X0169061Y0176683D01*
X0169206Y0176769D01*
X0169352Y0176852D01*
X0169501Y0176931D01*
X0169651Y0177007D01*
X0169803Y0177079D01*
X0169957Y0177147D01*
X0170112Y0177212D01*
X0170269Y0177273D01*
X0170427Y0177330D01*
X0170587Y0177383D01*
X0170748Y0177432D01*
X0170910Y0177478D01*
X0171073Y0177519D01*
X0171237Y0177557D01*
X0171402Y0177590D01*
X0171568Y0177620D01*
X0171734Y0177646D01*
X0171901Y0177667D01*
X0172068Y0177685D01*
X0172236Y0177698D01*
X0172404Y0177707D01*
X0172572Y0177713D01*
X0172741Y0177714D01*
X0172909Y0177711D01*
X0173077Y0177704D01*
X0173245Y0177693D01*
X0173413Y0177678D01*
X0173580Y0177659D01*
X0173746Y0177636D01*
X0173913Y0177609D01*
X0174078Y0177578D01*
X0174243Y0177543D01*
X0174406Y0177504D01*
X0174569Y0177461D01*
X0174731Y0177414D01*
X0174891Y0177363D01*
X0175050Y0177308D01*
X0175208Y0177250D01*
M02*
