G75*
%MOIN*%
%OFA0B0*%
%FSLAX25Y25*%
%IPPOS*%
%LPD*%
%AMOC8*
5,1,8,0,0,1.08239X$1,22.5*
%
%ADD10C,0.00000*%
%ADD11C,0.00800*%
D10*
X0185833Y0098750D02*
X0185835Y0098849D01*
X0185841Y0098949D01*
X0185851Y0099048D01*
X0185865Y0099146D01*
X0185882Y0099244D01*
X0185904Y0099341D01*
X0185929Y0099437D01*
X0185958Y0099532D01*
X0185991Y0099626D01*
X0186028Y0099718D01*
X0186068Y0099809D01*
X0186112Y0099898D01*
X0186160Y0099986D01*
X0186211Y0100071D01*
X0186265Y0100154D01*
X0186322Y0100236D01*
X0186383Y0100314D01*
X0186447Y0100391D01*
X0186513Y0100464D01*
X0186583Y0100535D01*
X0186655Y0100603D01*
X0186730Y0100669D01*
X0186808Y0100731D01*
X0186888Y0100790D01*
X0186970Y0100846D01*
X0187054Y0100898D01*
X0187141Y0100947D01*
X0187229Y0100993D01*
X0187319Y0101035D01*
X0187411Y0101074D01*
X0187504Y0101109D01*
X0187598Y0101140D01*
X0187694Y0101167D01*
X0187791Y0101190D01*
X0187888Y0101210D01*
X0187986Y0101226D01*
X0188085Y0101238D01*
X0188184Y0101246D01*
X0188283Y0101250D01*
X0188383Y0101250D01*
X0188482Y0101246D01*
X0188581Y0101238D01*
X0188680Y0101226D01*
X0188778Y0101210D01*
X0188875Y0101190D01*
X0188972Y0101167D01*
X0189068Y0101140D01*
X0189162Y0101109D01*
X0189255Y0101074D01*
X0189347Y0101035D01*
X0189437Y0100993D01*
X0189525Y0100947D01*
X0189612Y0100898D01*
X0189696Y0100846D01*
X0189778Y0100790D01*
X0189858Y0100731D01*
X0189936Y0100669D01*
X0190011Y0100603D01*
X0190083Y0100535D01*
X0190153Y0100464D01*
X0190219Y0100391D01*
X0190283Y0100314D01*
X0190344Y0100236D01*
X0190401Y0100154D01*
X0190455Y0100071D01*
X0190506Y0099986D01*
X0190554Y0099898D01*
X0190598Y0099809D01*
X0190638Y0099718D01*
X0190675Y0099626D01*
X0190708Y0099532D01*
X0190737Y0099437D01*
X0190762Y0099341D01*
X0190784Y0099244D01*
X0190801Y0099146D01*
X0190815Y0099048D01*
X0190825Y0098949D01*
X0190831Y0098849D01*
X0190833Y0098750D01*
X0190831Y0098651D01*
X0190825Y0098551D01*
X0190815Y0098452D01*
X0190801Y0098354D01*
X0190784Y0098256D01*
X0190762Y0098159D01*
X0190737Y0098063D01*
X0190708Y0097968D01*
X0190675Y0097874D01*
X0190638Y0097782D01*
X0190598Y0097691D01*
X0190554Y0097602D01*
X0190506Y0097514D01*
X0190455Y0097429D01*
X0190401Y0097346D01*
X0190344Y0097264D01*
X0190283Y0097186D01*
X0190219Y0097109D01*
X0190153Y0097036D01*
X0190083Y0096965D01*
X0190011Y0096897D01*
X0189936Y0096831D01*
X0189858Y0096769D01*
X0189778Y0096710D01*
X0189696Y0096654D01*
X0189612Y0096602D01*
X0189525Y0096553D01*
X0189437Y0096507D01*
X0189347Y0096465D01*
X0189255Y0096426D01*
X0189162Y0096391D01*
X0189068Y0096360D01*
X0188972Y0096333D01*
X0188875Y0096310D01*
X0188778Y0096290D01*
X0188680Y0096274D01*
X0188581Y0096262D01*
X0188482Y0096254D01*
X0188383Y0096250D01*
X0188283Y0096250D01*
X0188184Y0096254D01*
X0188085Y0096262D01*
X0187986Y0096274D01*
X0187888Y0096290D01*
X0187791Y0096310D01*
X0187694Y0096333D01*
X0187598Y0096360D01*
X0187504Y0096391D01*
X0187411Y0096426D01*
X0187319Y0096465D01*
X0187229Y0096507D01*
X0187141Y0096553D01*
X0187054Y0096602D01*
X0186970Y0096654D01*
X0186888Y0096710D01*
X0186808Y0096769D01*
X0186730Y0096831D01*
X0186655Y0096897D01*
X0186583Y0096965D01*
X0186513Y0097036D01*
X0186447Y0097109D01*
X0186383Y0097186D01*
X0186322Y0097264D01*
X0186265Y0097346D01*
X0186211Y0097429D01*
X0186160Y0097514D01*
X0186112Y0097602D01*
X0186068Y0097691D01*
X0186028Y0097782D01*
X0185991Y0097874D01*
X0185958Y0097968D01*
X0185929Y0098063D01*
X0185904Y0098159D01*
X0185882Y0098256D01*
X0185865Y0098354D01*
X0185851Y0098452D01*
X0185841Y0098551D01*
X0185835Y0098651D01*
X0185833Y0098750D01*
X0178333Y0106250D02*
X0178335Y0106349D01*
X0178341Y0106449D01*
X0178351Y0106548D01*
X0178365Y0106646D01*
X0178382Y0106744D01*
X0178404Y0106841D01*
X0178429Y0106937D01*
X0178458Y0107032D01*
X0178491Y0107126D01*
X0178528Y0107218D01*
X0178568Y0107309D01*
X0178612Y0107398D01*
X0178660Y0107486D01*
X0178711Y0107571D01*
X0178765Y0107654D01*
X0178822Y0107736D01*
X0178883Y0107814D01*
X0178947Y0107891D01*
X0179013Y0107964D01*
X0179083Y0108035D01*
X0179155Y0108103D01*
X0179230Y0108169D01*
X0179308Y0108231D01*
X0179388Y0108290D01*
X0179470Y0108346D01*
X0179554Y0108398D01*
X0179641Y0108447D01*
X0179729Y0108493D01*
X0179819Y0108535D01*
X0179911Y0108574D01*
X0180004Y0108609D01*
X0180098Y0108640D01*
X0180194Y0108667D01*
X0180291Y0108690D01*
X0180388Y0108710D01*
X0180486Y0108726D01*
X0180585Y0108738D01*
X0180684Y0108746D01*
X0180783Y0108750D01*
X0180883Y0108750D01*
X0180982Y0108746D01*
X0181081Y0108738D01*
X0181180Y0108726D01*
X0181278Y0108710D01*
X0181375Y0108690D01*
X0181472Y0108667D01*
X0181568Y0108640D01*
X0181662Y0108609D01*
X0181755Y0108574D01*
X0181847Y0108535D01*
X0181937Y0108493D01*
X0182025Y0108447D01*
X0182112Y0108398D01*
X0182196Y0108346D01*
X0182278Y0108290D01*
X0182358Y0108231D01*
X0182436Y0108169D01*
X0182511Y0108103D01*
X0182583Y0108035D01*
X0182653Y0107964D01*
X0182719Y0107891D01*
X0182783Y0107814D01*
X0182844Y0107736D01*
X0182901Y0107654D01*
X0182955Y0107571D01*
X0183006Y0107486D01*
X0183054Y0107398D01*
X0183098Y0107309D01*
X0183138Y0107218D01*
X0183175Y0107126D01*
X0183208Y0107032D01*
X0183237Y0106937D01*
X0183262Y0106841D01*
X0183284Y0106744D01*
X0183301Y0106646D01*
X0183315Y0106548D01*
X0183325Y0106449D01*
X0183331Y0106349D01*
X0183333Y0106250D01*
X0183331Y0106151D01*
X0183325Y0106051D01*
X0183315Y0105952D01*
X0183301Y0105854D01*
X0183284Y0105756D01*
X0183262Y0105659D01*
X0183237Y0105563D01*
X0183208Y0105468D01*
X0183175Y0105374D01*
X0183138Y0105282D01*
X0183098Y0105191D01*
X0183054Y0105102D01*
X0183006Y0105014D01*
X0182955Y0104929D01*
X0182901Y0104846D01*
X0182844Y0104764D01*
X0182783Y0104686D01*
X0182719Y0104609D01*
X0182653Y0104536D01*
X0182583Y0104465D01*
X0182511Y0104397D01*
X0182436Y0104331D01*
X0182358Y0104269D01*
X0182278Y0104210D01*
X0182196Y0104154D01*
X0182112Y0104102D01*
X0182025Y0104053D01*
X0181937Y0104007D01*
X0181847Y0103965D01*
X0181755Y0103926D01*
X0181662Y0103891D01*
X0181568Y0103860D01*
X0181472Y0103833D01*
X0181375Y0103810D01*
X0181278Y0103790D01*
X0181180Y0103774D01*
X0181081Y0103762D01*
X0180982Y0103754D01*
X0180883Y0103750D01*
X0180783Y0103750D01*
X0180684Y0103754D01*
X0180585Y0103762D01*
X0180486Y0103774D01*
X0180388Y0103790D01*
X0180291Y0103810D01*
X0180194Y0103833D01*
X0180098Y0103860D01*
X0180004Y0103891D01*
X0179911Y0103926D01*
X0179819Y0103965D01*
X0179729Y0104007D01*
X0179641Y0104053D01*
X0179554Y0104102D01*
X0179470Y0104154D01*
X0179388Y0104210D01*
X0179308Y0104269D01*
X0179230Y0104331D01*
X0179155Y0104397D01*
X0179083Y0104465D01*
X0179013Y0104536D01*
X0178947Y0104609D01*
X0178883Y0104686D01*
X0178822Y0104764D01*
X0178765Y0104846D01*
X0178711Y0104929D01*
X0178660Y0105014D01*
X0178612Y0105102D01*
X0178568Y0105191D01*
X0178528Y0105282D01*
X0178491Y0105374D01*
X0178458Y0105468D01*
X0178429Y0105563D01*
X0178404Y0105659D01*
X0178382Y0105756D01*
X0178365Y0105854D01*
X0178351Y0105952D01*
X0178341Y0106051D01*
X0178335Y0106151D01*
X0178333Y0106250D01*
X0193333Y0106250D02*
X0193335Y0106349D01*
X0193341Y0106449D01*
X0193351Y0106548D01*
X0193365Y0106646D01*
X0193382Y0106744D01*
X0193404Y0106841D01*
X0193429Y0106937D01*
X0193458Y0107032D01*
X0193491Y0107126D01*
X0193528Y0107218D01*
X0193568Y0107309D01*
X0193612Y0107398D01*
X0193660Y0107486D01*
X0193711Y0107571D01*
X0193765Y0107654D01*
X0193822Y0107736D01*
X0193883Y0107814D01*
X0193947Y0107891D01*
X0194013Y0107964D01*
X0194083Y0108035D01*
X0194155Y0108103D01*
X0194230Y0108169D01*
X0194308Y0108231D01*
X0194388Y0108290D01*
X0194470Y0108346D01*
X0194554Y0108398D01*
X0194641Y0108447D01*
X0194729Y0108493D01*
X0194819Y0108535D01*
X0194911Y0108574D01*
X0195004Y0108609D01*
X0195098Y0108640D01*
X0195194Y0108667D01*
X0195291Y0108690D01*
X0195388Y0108710D01*
X0195486Y0108726D01*
X0195585Y0108738D01*
X0195684Y0108746D01*
X0195783Y0108750D01*
X0195883Y0108750D01*
X0195982Y0108746D01*
X0196081Y0108738D01*
X0196180Y0108726D01*
X0196278Y0108710D01*
X0196375Y0108690D01*
X0196472Y0108667D01*
X0196568Y0108640D01*
X0196662Y0108609D01*
X0196755Y0108574D01*
X0196847Y0108535D01*
X0196937Y0108493D01*
X0197025Y0108447D01*
X0197112Y0108398D01*
X0197196Y0108346D01*
X0197278Y0108290D01*
X0197358Y0108231D01*
X0197436Y0108169D01*
X0197511Y0108103D01*
X0197583Y0108035D01*
X0197653Y0107964D01*
X0197719Y0107891D01*
X0197783Y0107814D01*
X0197844Y0107736D01*
X0197901Y0107654D01*
X0197955Y0107571D01*
X0198006Y0107486D01*
X0198054Y0107398D01*
X0198098Y0107309D01*
X0198138Y0107218D01*
X0198175Y0107126D01*
X0198208Y0107032D01*
X0198237Y0106937D01*
X0198262Y0106841D01*
X0198284Y0106744D01*
X0198301Y0106646D01*
X0198315Y0106548D01*
X0198325Y0106449D01*
X0198331Y0106349D01*
X0198333Y0106250D01*
X0198331Y0106151D01*
X0198325Y0106051D01*
X0198315Y0105952D01*
X0198301Y0105854D01*
X0198284Y0105756D01*
X0198262Y0105659D01*
X0198237Y0105563D01*
X0198208Y0105468D01*
X0198175Y0105374D01*
X0198138Y0105282D01*
X0198098Y0105191D01*
X0198054Y0105102D01*
X0198006Y0105014D01*
X0197955Y0104929D01*
X0197901Y0104846D01*
X0197844Y0104764D01*
X0197783Y0104686D01*
X0197719Y0104609D01*
X0197653Y0104536D01*
X0197583Y0104465D01*
X0197511Y0104397D01*
X0197436Y0104331D01*
X0197358Y0104269D01*
X0197278Y0104210D01*
X0197196Y0104154D01*
X0197112Y0104102D01*
X0197025Y0104053D01*
X0196937Y0104007D01*
X0196847Y0103965D01*
X0196755Y0103926D01*
X0196662Y0103891D01*
X0196568Y0103860D01*
X0196472Y0103833D01*
X0196375Y0103810D01*
X0196278Y0103790D01*
X0196180Y0103774D01*
X0196081Y0103762D01*
X0195982Y0103754D01*
X0195883Y0103750D01*
X0195783Y0103750D01*
X0195684Y0103754D01*
X0195585Y0103762D01*
X0195486Y0103774D01*
X0195388Y0103790D01*
X0195291Y0103810D01*
X0195194Y0103833D01*
X0195098Y0103860D01*
X0195004Y0103891D01*
X0194911Y0103926D01*
X0194819Y0103965D01*
X0194729Y0104007D01*
X0194641Y0104053D01*
X0194554Y0104102D01*
X0194470Y0104154D01*
X0194388Y0104210D01*
X0194308Y0104269D01*
X0194230Y0104331D01*
X0194155Y0104397D01*
X0194083Y0104465D01*
X0194013Y0104536D01*
X0193947Y0104609D01*
X0193883Y0104686D01*
X0193822Y0104764D01*
X0193765Y0104846D01*
X0193711Y0104929D01*
X0193660Y0105014D01*
X0193612Y0105102D01*
X0193568Y0105191D01*
X0193528Y0105282D01*
X0193491Y0105374D01*
X0193458Y0105468D01*
X0193429Y0105563D01*
X0193404Y0105659D01*
X0193382Y0105756D01*
X0193365Y0105854D01*
X0193351Y0105952D01*
X0193341Y0106051D01*
X0193335Y0106151D01*
X0193333Y0106250D01*
X0236333Y0148750D02*
X0236335Y0148839D01*
X0236341Y0148928D01*
X0236351Y0149017D01*
X0236365Y0149105D01*
X0236382Y0149192D01*
X0236404Y0149278D01*
X0236430Y0149364D01*
X0236459Y0149448D01*
X0236492Y0149531D01*
X0236528Y0149612D01*
X0236569Y0149692D01*
X0236612Y0149769D01*
X0236659Y0149845D01*
X0236710Y0149918D01*
X0236763Y0149989D01*
X0236820Y0150058D01*
X0236880Y0150124D01*
X0236943Y0150188D01*
X0237008Y0150248D01*
X0237076Y0150306D01*
X0237147Y0150360D01*
X0237220Y0150411D01*
X0237295Y0150459D01*
X0237372Y0150504D01*
X0237451Y0150545D01*
X0237532Y0150582D01*
X0237614Y0150616D01*
X0237698Y0150647D01*
X0237783Y0150673D01*
X0237869Y0150696D01*
X0237956Y0150714D01*
X0238044Y0150729D01*
X0238133Y0150740D01*
X0238222Y0150747D01*
X0238311Y0150750D01*
X0238400Y0150749D01*
X0238489Y0150744D01*
X0238577Y0150735D01*
X0238666Y0150722D01*
X0238753Y0150705D01*
X0238840Y0150685D01*
X0238926Y0150660D01*
X0239010Y0150632D01*
X0239093Y0150600D01*
X0239175Y0150564D01*
X0239255Y0150525D01*
X0239333Y0150482D01*
X0239409Y0150436D01*
X0239483Y0150386D01*
X0239555Y0150333D01*
X0239624Y0150277D01*
X0239691Y0150218D01*
X0239755Y0150156D01*
X0239816Y0150092D01*
X0239875Y0150024D01*
X0239930Y0149954D01*
X0239982Y0149882D01*
X0240031Y0149807D01*
X0240076Y0149731D01*
X0240118Y0149652D01*
X0240156Y0149572D01*
X0240191Y0149490D01*
X0240222Y0149406D01*
X0240250Y0149321D01*
X0240273Y0149235D01*
X0240293Y0149148D01*
X0240309Y0149061D01*
X0240321Y0148972D01*
X0240329Y0148884D01*
X0240333Y0148795D01*
X0240333Y0148705D01*
X0240329Y0148616D01*
X0240321Y0148528D01*
X0240309Y0148439D01*
X0240293Y0148352D01*
X0240273Y0148265D01*
X0240250Y0148179D01*
X0240222Y0148094D01*
X0240191Y0148010D01*
X0240156Y0147928D01*
X0240118Y0147848D01*
X0240076Y0147769D01*
X0240031Y0147693D01*
X0239982Y0147618D01*
X0239930Y0147546D01*
X0239875Y0147476D01*
X0239816Y0147408D01*
X0239755Y0147344D01*
X0239691Y0147282D01*
X0239624Y0147223D01*
X0239555Y0147167D01*
X0239483Y0147114D01*
X0239409Y0147064D01*
X0239333Y0147018D01*
X0239255Y0146975D01*
X0239175Y0146936D01*
X0239093Y0146900D01*
X0239010Y0146868D01*
X0238926Y0146840D01*
X0238840Y0146815D01*
X0238753Y0146795D01*
X0238666Y0146778D01*
X0238577Y0146765D01*
X0238489Y0146756D01*
X0238400Y0146751D01*
X0238311Y0146750D01*
X0238222Y0146753D01*
X0238133Y0146760D01*
X0238044Y0146771D01*
X0237956Y0146786D01*
X0237869Y0146804D01*
X0237783Y0146827D01*
X0237698Y0146853D01*
X0237614Y0146884D01*
X0237532Y0146918D01*
X0237451Y0146955D01*
X0237372Y0146996D01*
X0237295Y0147041D01*
X0237220Y0147089D01*
X0237147Y0147140D01*
X0237076Y0147194D01*
X0237008Y0147252D01*
X0236943Y0147312D01*
X0236880Y0147376D01*
X0236820Y0147442D01*
X0236763Y0147511D01*
X0236710Y0147582D01*
X0236659Y0147655D01*
X0236612Y0147731D01*
X0236569Y0147808D01*
X0236528Y0147888D01*
X0236492Y0147969D01*
X0236459Y0148052D01*
X0236430Y0148136D01*
X0236404Y0148222D01*
X0236382Y0148308D01*
X0236365Y0148395D01*
X0236351Y0148483D01*
X0236341Y0148572D01*
X0236335Y0148661D01*
X0236333Y0148750D01*
X0223237Y0179574D02*
X0223239Y0179658D01*
X0223245Y0179741D01*
X0223255Y0179824D01*
X0223269Y0179907D01*
X0223286Y0179989D01*
X0223308Y0180070D01*
X0223333Y0180149D01*
X0223362Y0180228D01*
X0223395Y0180305D01*
X0223431Y0180380D01*
X0223471Y0180454D01*
X0223514Y0180526D01*
X0223561Y0180595D01*
X0223611Y0180662D01*
X0223664Y0180727D01*
X0223720Y0180789D01*
X0223778Y0180849D01*
X0223840Y0180906D01*
X0223904Y0180959D01*
X0223971Y0181010D01*
X0224040Y0181057D01*
X0224111Y0181102D01*
X0224184Y0181142D01*
X0224259Y0181179D01*
X0224336Y0181213D01*
X0224414Y0181243D01*
X0224493Y0181269D01*
X0224574Y0181292D01*
X0224656Y0181310D01*
X0224738Y0181325D01*
X0224821Y0181336D01*
X0224904Y0181343D01*
X0224988Y0181346D01*
X0225072Y0181345D01*
X0225155Y0181340D01*
X0225239Y0181331D01*
X0225321Y0181318D01*
X0225403Y0181302D01*
X0225484Y0181281D01*
X0225565Y0181257D01*
X0225643Y0181229D01*
X0225721Y0181197D01*
X0225797Y0181161D01*
X0225871Y0181122D01*
X0225943Y0181080D01*
X0226013Y0181034D01*
X0226081Y0180985D01*
X0226146Y0180933D01*
X0226209Y0180878D01*
X0226269Y0180820D01*
X0226327Y0180759D01*
X0226381Y0180695D01*
X0226433Y0180629D01*
X0226481Y0180561D01*
X0226526Y0180490D01*
X0226567Y0180417D01*
X0226606Y0180343D01*
X0226640Y0180267D01*
X0226671Y0180189D01*
X0226698Y0180110D01*
X0226722Y0180029D01*
X0226741Y0179948D01*
X0226757Y0179866D01*
X0226769Y0179783D01*
X0226777Y0179699D01*
X0226781Y0179616D01*
X0226781Y0179532D01*
X0226777Y0179449D01*
X0226769Y0179365D01*
X0226757Y0179282D01*
X0226741Y0179200D01*
X0226722Y0179119D01*
X0226698Y0179038D01*
X0226671Y0178959D01*
X0226640Y0178881D01*
X0226606Y0178805D01*
X0226567Y0178731D01*
X0226526Y0178658D01*
X0226481Y0178587D01*
X0226433Y0178519D01*
X0226381Y0178453D01*
X0226327Y0178389D01*
X0226269Y0178328D01*
X0226209Y0178270D01*
X0226146Y0178215D01*
X0226081Y0178163D01*
X0226013Y0178114D01*
X0225943Y0178068D01*
X0225871Y0178026D01*
X0225797Y0177987D01*
X0225721Y0177951D01*
X0225643Y0177919D01*
X0225565Y0177891D01*
X0225484Y0177867D01*
X0225403Y0177846D01*
X0225321Y0177830D01*
X0225239Y0177817D01*
X0225155Y0177808D01*
X0225072Y0177803D01*
X0224988Y0177802D01*
X0224904Y0177805D01*
X0224821Y0177812D01*
X0224738Y0177823D01*
X0224656Y0177838D01*
X0224574Y0177856D01*
X0224493Y0177879D01*
X0224414Y0177905D01*
X0224336Y0177935D01*
X0224259Y0177969D01*
X0224184Y0178006D01*
X0224111Y0178046D01*
X0224040Y0178091D01*
X0223971Y0178138D01*
X0223904Y0178189D01*
X0223840Y0178242D01*
X0223778Y0178299D01*
X0223720Y0178359D01*
X0223664Y0178421D01*
X0223611Y0178486D01*
X0223561Y0178553D01*
X0223514Y0178622D01*
X0223471Y0178694D01*
X0223431Y0178768D01*
X0223395Y0178843D01*
X0223362Y0178920D01*
X0223333Y0178999D01*
X0223308Y0179078D01*
X0223286Y0179159D01*
X0223269Y0179241D01*
X0223255Y0179324D01*
X0223245Y0179407D01*
X0223239Y0179490D01*
X0223237Y0179574D01*
X0214886Y0187926D02*
X0214888Y0188010D01*
X0214894Y0188093D01*
X0214904Y0188176D01*
X0214918Y0188259D01*
X0214935Y0188341D01*
X0214957Y0188422D01*
X0214982Y0188501D01*
X0215011Y0188580D01*
X0215044Y0188657D01*
X0215080Y0188732D01*
X0215120Y0188806D01*
X0215163Y0188878D01*
X0215210Y0188947D01*
X0215260Y0189014D01*
X0215313Y0189079D01*
X0215369Y0189141D01*
X0215427Y0189201D01*
X0215489Y0189258D01*
X0215553Y0189311D01*
X0215620Y0189362D01*
X0215689Y0189409D01*
X0215760Y0189454D01*
X0215833Y0189494D01*
X0215908Y0189531D01*
X0215985Y0189565D01*
X0216063Y0189595D01*
X0216142Y0189621D01*
X0216223Y0189644D01*
X0216305Y0189662D01*
X0216387Y0189677D01*
X0216470Y0189688D01*
X0216553Y0189695D01*
X0216637Y0189698D01*
X0216721Y0189697D01*
X0216804Y0189692D01*
X0216888Y0189683D01*
X0216970Y0189670D01*
X0217052Y0189654D01*
X0217133Y0189633D01*
X0217214Y0189609D01*
X0217292Y0189581D01*
X0217370Y0189549D01*
X0217446Y0189513D01*
X0217520Y0189474D01*
X0217592Y0189432D01*
X0217662Y0189386D01*
X0217730Y0189337D01*
X0217795Y0189285D01*
X0217858Y0189230D01*
X0217918Y0189172D01*
X0217976Y0189111D01*
X0218030Y0189047D01*
X0218082Y0188981D01*
X0218130Y0188913D01*
X0218175Y0188842D01*
X0218216Y0188769D01*
X0218255Y0188695D01*
X0218289Y0188619D01*
X0218320Y0188541D01*
X0218347Y0188462D01*
X0218371Y0188381D01*
X0218390Y0188300D01*
X0218406Y0188218D01*
X0218418Y0188135D01*
X0218426Y0188051D01*
X0218430Y0187968D01*
X0218430Y0187884D01*
X0218426Y0187801D01*
X0218418Y0187717D01*
X0218406Y0187634D01*
X0218390Y0187552D01*
X0218371Y0187471D01*
X0218347Y0187390D01*
X0218320Y0187311D01*
X0218289Y0187233D01*
X0218255Y0187157D01*
X0218216Y0187083D01*
X0218175Y0187010D01*
X0218130Y0186939D01*
X0218082Y0186871D01*
X0218030Y0186805D01*
X0217976Y0186741D01*
X0217918Y0186680D01*
X0217858Y0186622D01*
X0217795Y0186567D01*
X0217730Y0186515D01*
X0217662Y0186466D01*
X0217592Y0186420D01*
X0217520Y0186378D01*
X0217446Y0186339D01*
X0217370Y0186303D01*
X0217292Y0186271D01*
X0217214Y0186243D01*
X0217133Y0186219D01*
X0217052Y0186198D01*
X0216970Y0186182D01*
X0216888Y0186169D01*
X0216804Y0186160D01*
X0216721Y0186155D01*
X0216637Y0186154D01*
X0216553Y0186157D01*
X0216470Y0186164D01*
X0216387Y0186175D01*
X0216305Y0186190D01*
X0216223Y0186208D01*
X0216142Y0186231D01*
X0216063Y0186257D01*
X0215985Y0186287D01*
X0215908Y0186321D01*
X0215833Y0186358D01*
X0215760Y0186398D01*
X0215689Y0186443D01*
X0215620Y0186490D01*
X0215553Y0186541D01*
X0215489Y0186594D01*
X0215427Y0186651D01*
X0215369Y0186711D01*
X0215313Y0186773D01*
X0215260Y0186838D01*
X0215210Y0186905D01*
X0215163Y0186974D01*
X0215120Y0187046D01*
X0215080Y0187120D01*
X0215044Y0187195D01*
X0215011Y0187272D01*
X0214982Y0187351D01*
X0214957Y0187430D01*
X0214935Y0187511D01*
X0214918Y0187593D01*
X0214904Y0187676D01*
X0214894Y0187759D01*
X0214888Y0187842D01*
X0214886Y0187926D01*
X0206458Y0198750D02*
X0206460Y0198849D01*
X0206466Y0198949D01*
X0206476Y0199048D01*
X0206490Y0199146D01*
X0206507Y0199244D01*
X0206529Y0199341D01*
X0206554Y0199437D01*
X0206583Y0199532D01*
X0206616Y0199626D01*
X0206653Y0199718D01*
X0206693Y0199809D01*
X0206737Y0199898D01*
X0206785Y0199986D01*
X0206836Y0200071D01*
X0206890Y0200154D01*
X0206947Y0200236D01*
X0207008Y0200314D01*
X0207072Y0200391D01*
X0207138Y0200464D01*
X0207208Y0200535D01*
X0207280Y0200603D01*
X0207355Y0200669D01*
X0207433Y0200731D01*
X0207513Y0200790D01*
X0207595Y0200846D01*
X0207679Y0200898D01*
X0207766Y0200947D01*
X0207854Y0200993D01*
X0207944Y0201035D01*
X0208036Y0201074D01*
X0208129Y0201109D01*
X0208223Y0201140D01*
X0208319Y0201167D01*
X0208416Y0201190D01*
X0208513Y0201210D01*
X0208611Y0201226D01*
X0208710Y0201238D01*
X0208809Y0201246D01*
X0208908Y0201250D01*
X0209008Y0201250D01*
X0209107Y0201246D01*
X0209206Y0201238D01*
X0209305Y0201226D01*
X0209403Y0201210D01*
X0209500Y0201190D01*
X0209597Y0201167D01*
X0209693Y0201140D01*
X0209787Y0201109D01*
X0209880Y0201074D01*
X0209972Y0201035D01*
X0210062Y0200993D01*
X0210150Y0200947D01*
X0210237Y0200898D01*
X0210321Y0200846D01*
X0210403Y0200790D01*
X0210483Y0200731D01*
X0210561Y0200669D01*
X0210636Y0200603D01*
X0210708Y0200535D01*
X0210778Y0200464D01*
X0210844Y0200391D01*
X0210908Y0200314D01*
X0210969Y0200236D01*
X0211026Y0200154D01*
X0211080Y0200071D01*
X0211131Y0199986D01*
X0211179Y0199898D01*
X0211223Y0199809D01*
X0211263Y0199718D01*
X0211300Y0199626D01*
X0211333Y0199532D01*
X0211362Y0199437D01*
X0211387Y0199341D01*
X0211409Y0199244D01*
X0211426Y0199146D01*
X0211440Y0199048D01*
X0211450Y0198949D01*
X0211456Y0198849D01*
X0211458Y0198750D01*
X0211456Y0198651D01*
X0211450Y0198551D01*
X0211440Y0198452D01*
X0211426Y0198354D01*
X0211409Y0198256D01*
X0211387Y0198159D01*
X0211362Y0198063D01*
X0211333Y0197968D01*
X0211300Y0197874D01*
X0211263Y0197782D01*
X0211223Y0197691D01*
X0211179Y0197602D01*
X0211131Y0197514D01*
X0211080Y0197429D01*
X0211026Y0197346D01*
X0210969Y0197264D01*
X0210908Y0197186D01*
X0210844Y0197109D01*
X0210778Y0197036D01*
X0210708Y0196965D01*
X0210636Y0196897D01*
X0210561Y0196831D01*
X0210483Y0196769D01*
X0210403Y0196710D01*
X0210321Y0196654D01*
X0210237Y0196602D01*
X0210150Y0196553D01*
X0210062Y0196507D01*
X0209972Y0196465D01*
X0209880Y0196426D01*
X0209787Y0196391D01*
X0209693Y0196360D01*
X0209597Y0196333D01*
X0209500Y0196310D01*
X0209403Y0196290D01*
X0209305Y0196274D01*
X0209206Y0196262D01*
X0209107Y0196254D01*
X0209008Y0196250D01*
X0208908Y0196250D01*
X0208809Y0196254D01*
X0208710Y0196262D01*
X0208611Y0196274D01*
X0208513Y0196290D01*
X0208416Y0196310D01*
X0208319Y0196333D01*
X0208223Y0196360D01*
X0208129Y0196391D01*
X0208036Y0196426D01*
X0207944Y0196465D01*
X0207854Y0196507D01*
X0207766Y0196553D01*
X0207679Y0196602D01*
X0207595Y0196654D01*
X0207513Y0196710D01*
X0207433Y0196769D01*
X0207355Y0196831D01*
X0207280Y0196897D01*
X0207208Y0196965D01*
X0207138Y0197036D01*
X0207072Y0197109D01*
X0207008Y0197186D01*
X0206947Y0197264D01*
X0206890Y0197346D01*
X0206836Y0197429D01*
X0206785Y0197514D01*
X0206737Y0197602D01*
X0206693Y0197691D01*
X0206653Y0197782D01*
X0206616Y0197874D01*
X0206583Y0197968D01*
X0206554Y0198063D01*
X0206529Y0198159D01*
X0206507Y0198256D01*
X0206490Y0198354D01*
X0206476Y0198452D01*
X0206466Y0198551D01*
X0206460Y0198651D01*
X0206458Y0198750D01*
X0223958Y0198750D02*
X0223960Y0198849D01*
X0223966Y0198949D01*
X0223976Y0199048D01*
X0223990Y0199146D01*
X0224007Y0199244D01*
X0224029Y0199341D01*
X0224054Y0199437D01*
X0224083Y0199532D01*
X0224116Y0199626D01*
X0224153Y0199718D01*
X0224193Y0199809D01*
X0224237Y0199898D01*
X0224285Y0199986D01*
X0224336Y0200071D01*
X0224390Y0200154D01*
X0224447Y0200236D01*
X0224508Y0200314D01*
X0224572Y0200391D01*
X0224638Y0200464D01*
X0224708Y0200535D01*
X0224780Y0200603D01*
X0224855Y0200669D01*
X0224933Y0200731D01*
X0225013Y0200790D01*
X0225095Y0200846D01*
X0225179Y0200898D01*
X0225266Y0200947D01*
X0225354Y0200993D01*
X0225444Y0201035D01*
X0225536Y0201074D01*
X0225629Y0201109D01*
X0225723Y0201140D01*
X0225819Y0201167D01*
X0225916Y0201190D01*
X0226013Y0201210D01*
X0226111Y0201226D01*
X0226210Y0201238D01*
X0226309Y0201246D01*
X0226408Y0201250D01*
X0226508Y0201250D01*
X0226607Y0201246D01*
X0226706Y0201238D01*
X0226805Y0201226D01*
X0226903Y0201210D01*
X0227000Y0201190D01*
X0227097Y0201167D01*
X0227193Y0201140D01*
X0227287Y0201109D01*
X0227380Y0201074D01*
X0227472Y0201035D01*
X0227562Y0200993D01*
X0227650Y0200947D01*
X0227737Y0200898D01*
X0227821Y0200846D01*
X0227903Y0200790D01*
X0227983Y0200731D01*
X0228061Y0200669D01*
X0228136Y0200603D01*
X0228208Y0200535D01*
X0228278Y0200464D01*
X0228344Y0200391D01*
X0228408Y0200314D01*
X0228469Y0200236D01*
X0228526Y0200154D01*
X0228580Y0200071D01*
X0228631Y0199986D01*
X0228679Y0199898D01*
X0228723Y0199809D01*
X0228763Y0199718D01*
X0228800Y0199626D01*
X0228833Y0199532D01*
X0228862Y0199437D01*
X0228887Y0199341D01*
X0228909Y0199244D01*
X0228926Y0199146D01*
X0228940Y0199048D01*
X0228950Y0198949D01*
X0228956Y0198849D01*
X0228958Y0198750D01*
X0228956Y0198651D01*
X0228950Y0198551D01*
X0228940Y0198452D01*
X0228926Y0198354D01*
X0228909Y0198256D01*
X0228887Y0198159D01*
X0228862Y0198063D01*
X0228833Y0197968D01*
X0228800Y0197874D01*
X0228763Y0197782D01*
X0228723Y0197691D01*
X0228679Y0197602D01*
X0228631Y0197514D01*
X0228580Y0197429D01*
X0228526Y0197346D01*
X0228469Y0197264D01*
X0228408Y0197186D01*
X0228344Y0197109D01*
X0228278Y0197036D01*
X0228208Y0196965D01*
X0228136Y0196897D01*
X0228061Y0196831D01*
X0227983Y0196769D01*
X0227903Y0196710D01*
X0227821Y0196654D01*
X0227737Y0196602D01*
X0227650Y0196553D01*
X0227562Y0196507D01*
X0227472Y0196465D01*
X0227380Y0196426D01*
X0227287Y0196391D01*
X0227193Y0196360D01*
X0227097Y0196333D01*
X0227000Y0196310D01*
X0226903Y0196290D01*
X0226805Y0196274D01*
X0226706Y0196262D01*
X0226607Y0196254D01*
X0226508Y0196250D01*
X0226408Y0196250D01*
X0226309Y0196254D01*
X0226210Y0196262D01*
X0226111Y0196274D01*
X0226013Y0196290D01*
X0225916Y0196310D01*
X0225819Y0196333D01*
X0225723Y0196360D01*
X0225629Y0196391D01*
X0225536Y0196426D01*
X0225444Y0196465D01*
X0225354Y0196507D01*
X0225266Y0196553D01*
X0225179Y0196602D01*
X0225095Y0196654D01*
X0225013Y0196710D01*
X0224933Y0196769D01*
X0224855Y0196831D01*
X0224780Y0196897D01*
X0224708Y0196965D01*
X0224638Y0197036D01*
X0224572Y0197109D01*
X0224508Y0197186D01*
X0224447Y0197264D01*
X0224390Y0197346D01*
X0224336Y0197429D01*
X0224285Y0197514D01*
X0224237Y0197602D01*
X0224193Y0197691D01*
X0224153Y0197782D01*
X0224116Y0197874D01*
X0224083Y0197968D01*
X0224054Y0198063D01*
X0224029Y0198159D01*
X0224007Y0198256D01*
X0223990Y0198354D01*
X0223976Y0198452D01*
X0223966Y0198551D01*
X0223960Y0198651D01*
X0223958Y0198750D01*
X0235833Y0181250D02*
X0235835Y0181349D01*
X0235841Y0181449D01*
X0235851Y0181548D01*
X0235865Y0181646D01*
X0235882Y0181744D01*
X0235904Y0181841D01*
X0235929Y0181937D01*
X0235958Y0182032D01*
X0235991Y0182126D01*
X0236028Y0182218D01*
X0236068Y0182309D01*
X0236112Y0182398D01*
X0236160Y0182486D01*
X0236211Y0182571D01*
X0236265Y0182654D01*
X0236322Y0182736D01*
X0236383Y0182814D01*
X0236447Y0182891D01*
X0236513Y0182964D01*
X0236583Y0183035D01*
X0236655Y0183103D01*
X0236730Y0183169D01*
X0236808Y0183231D01*
X0236888Y0183290D01*
X0236970Y0183346D01*
X0237054Y0183398D01*
X0237141Y0183447D01*
X0237229Y0183493D01*
X0237319Y0183535D01*
X0237411Y0183574D01*
X0237504Y0183609D01*
X0237598Y0183640D01*
X0237694Y0183667D01*
X0237791Y0183690D01*
X0237888Y0183710D01*
X0237986Y0183726D01*
X0238085Y0183738D01*
X0238184Y0183746D01*
X0238283Y0183750D01*
X0238383Y0183750D01*
X0238482Y0183746D01*
X0238581Y0183738D01*
X0238680Y0183726D01*
X0238778Y0183710D01*
X0238875Y0183690D01*
X0238972Y0183667D01*
X0239068Y0183640D01*
X0239162Y0183609D01*
X0239255Y0183574D01*
X0239347Y0183535D01*
X0239437Y0183493D01*
X0239525Y0183447D01*
X0239612Y0183398D01*
X0239696Y0183346D01*
X0239778Y0183290D01*
X0239858Y0183231D01*
X0239936Y0183169D01*
X0240011Y0183103D01*
X0240083Y0183035D01*
X0240153Y0182964D01*
X0240219Y0182891D01*
X0240283Y0182814D01*
X0240344Y0182736D01*
X0240401Y0182654D01*
X0240455Y0182571D01*
X0240506Y0182486D01*
X0240554Y0182398D01*
X0240598Y0182309D01*
X0240638Y0182218D01*
X0240675Y0182126D01*
X0240708Y0182032D01*
X0240737Y0181937D01*
X0240762Y0181841D01*
X0240784Y0181744D01*
X0240801Y0181646D01*
X0240815Y0181548D01*
X0240825Y0181449D01*
X0240831Y0181349D01*
X0240833Y0181250D01*
X0240831Y0181151D01*
X0240825Y0181051D01*
X0240815Y0180952D01*
X0240801Y0180854D01*
X0240784Y0180756D01*
X0240762Y0180659D01*
X0240737Y0180563D01*
X0240708Y0180468D01*
X0240675Y0180374D01*
X0240638Y0180282D01*
X0240598Y0180191D01*
X0240554Y0180102D01*
X0240506Y0180014D01*
X0240455Y0179929D01*
X0240401Y0179846D01*
X0240344Y0179764D01*
X0240283Y0179686D01*
X0240219Y0179609D01*
X0240153Y0179536D01*
X0240083Y0179465D01*
X0240011Y0179397D01*
X0239936Y0179331D01*
X0239858Y0179269D01*
X0239778Y0179210D01*
X0239696Y0179154D01*
X0239612Y0179102D01*
X0239525Y0179053D01*
X0239437Y0179007D01*
X0239347Y0178965D01*
X0239255Y0178926D01*
X0239162Y0178891D01*
X0239068Y0178860D01*
X0238972Y0178833D01*
X0238875Y0178810D01*
X0238778Y0178790D01*
X0238680Y0178774D01*
X0238581Y0178762D01*
X0238482Y0178754D01*
X0238383Y0178750D01*
X0238283Y0178750D01*
X0238184Y0178754D01*
X0238085Y0178762D01*
X0237986Y0178774D01*
X0237888Y0178790D01*
X0237791Y0178810D01*
X0237694Y0178833D01*
X0237598Y0178860D01*
X0237504Y0178891D01*
X0237411Y0178926D01*
X0237319Y0178965D01*
X0237229Y0179007D01*
X0237141Y0179053D01*
X0237054Y0179102D01*
X0236970Y0179154D01*
X0236888Y0179210D01*
X0236808Y0179269D01*
X0236730Y0179331D01*
X0236655Y0179397D01*
X0236583Y0179465D01*
X0236513Y0179536D01*
X0236447Y0179609D01*
X0236383Y0179686D01*
X0236322Y0179764D01*
X0236265Y0179846D01*
X0236211Y0179929D01*
X0236160Y0180014D01*
X0236112Y0180102D01*
X0236068Y0180191D01*
X0236028Y0180282D01*
X0235991Y0180374D01*
X0235958Y0180468D01*
X0235929Y0180563D01*
X0235904Y0180659D01*
X0235882Y0180756D01*
X0235865Y0180854D01*
X0235851Y0180952D01*
X0235841Y0181051D01*
X0235835Y0181151D01*
X0235833Y0181250D01*
X0185833Y0178750D02*
X0185835Y0178849D01*
X0185841Y0178949D01*
X0185851Y0179048D01*
X0185865Y0179146D01*
X0185882Y0179244D01*
X0185904Y0179341D01*
X0185929Y0179437D01*
X0185958Y0179532D01*
X0185991Y0179626D01*
X0186028Y0179718D01*
X0186068Y0179809D01*
X0186112Y0179898D01*
X0186160Y0179986D01*
X0186211Y0180071D01*
X0186265Y0180154D01*
X0186322Y0180236D01*
X0186383Y0180314D01*
X0186447Y0180391D01*
X0186513Y0180464D01*
X0186583Y0180535D01*
X0186655Y0180603D01*
X0186730Y0180669D01*
X0186808Y0180731D01*
X0186888Y0180790D01*
X0186970Y0180846D01*
X0187054Y0180898D01*
X0187141Y0180947D01*
X0187229Y0180993D01*
X0187319Y0181035D01*
X0187411Y0181074D01*
X0187504Y0181109D01*
X0187598Y0181140D01*
X0187694Y0181167D01*
X0187791Y0181190D01*
X0187888Y0181210D01*
X0187986Y0181226D01*
X0188085Y0181238D01*
X0188184Y0181246D01*
X0188283Y0181250D01*
X0188383Y0181250D01*
X0188482Y0181246D01*
X0188581Y0181238D01*
X0188680Y0181226D01*
X0188778Y0181210D01*
X0188875Y0181190D01*
X0188972Y0181167D01*
X0189068Y0181140D01*
X0189162Y0181109D01*
X0189255Y0181074D01*
X0189347Y0181035D01*
X0189437Y0180993D01*
X0189525Y0180947D01*
X0189612Y0180898D01*
X0189696Y0180846D01*
X0189778Y0180790D01*
X0189858Y0180731D01*
X0189936Y0180669D01*
X0190011Y0180603D01*
X0190083Y0180535D01*
X0190153Y0180464D01*
X0190219Y0180391D01*
X0190283Y0180314D01*
X0190344Y0180236D01*
X0190401Y0180154D01*
X0190455Y0180071D01*
X0190506Y0179986D01*
X0190554Y0179898D01*
X0190598Y0179809D01*
X0190638Y0179718D01*
X0190675Y0179626D01*
X0190708Y0179532D01*
X0190737Y0179437D01*
X0190762Y0179341D01*
X0190784Y0179244D01*
X0190801Y0179146D01*
X0190815Y0179048D01*
X0190825Y0178949D01*
X0190831Y0178849D01*
X0190833Y0178750D01*
X0190831Y0178651D01*
X0190825Y0178551D01*
X0190815Y0178452D01*
X0190801Y0178354D01*
X0190784Y0178256D01*
X0190762Y0178159D01*
X0190737Y0178063D01*
X0190708Y0177968D01*
X0190675Y0177874D01*
X0190638Y0177782D01*
X0190598Y0177691D01*
X0190554Y0177602D01*
X0190506Y0177514D01*
X0190455Y0177429D01*
X0190401Y0177346D01*
X0190344Y0177264D01*
X0190283Y0177186D01*
X0190219Y0177109D01*
X0190153Y0177036D01*
X0190083Y0176965D01*
X0190011Y0176897D01*
X0189936Y0176831D01*
X0189858Y0176769D01*
X0189778Y0176710D01*
X0189696Y0176654D01*
X0189612Y0176602D01*
X0189525Y0176553D01*
X0189437Y0176507D01*
X0189347Y0176465D01*
X0189255Y0176426D01*
X0189162Y0176391D01*
X0189068Y0176360D01*
X0188972Y0176333D01*
X0188875Y0176310D01*
X0188778Y0176290D01*
X0188680Y0176274D01*
X0188581Y0176262D01*
X0188482Y0176254D01*
X0188383Y0176250D01*
X0188283Y0176250D01*
X0188184Y0176254D01*
X0188085Y0176262D01*
X0187986Y0176274D01*
X0187888Y0176290D01*
X0187791Y0176310D01*
X0187694Y0176333D01*
X0187598Y0176360D01*
X0187504Y0176391D01*
X0187411Y0176426D01*
X0187319Y0176465D01*
X0187229Y0176507D01*
X0187141Y0176553D01*
X0187054Y0176602D01*
X0186970Y0176654D01*
X0186888Y0176710D01*
X0186808Y0176769D01*
X0186730Y0176831D01*
X0186655Y0176897D01*
X0186583Y0176965D01*
X0186513Y0177036D01*
X0186447Y0177109D01*
X0186383Y0177186D01*
X0186322Y0177264D01*
X0186265Y0177346D01*
X0186211Y0177429D01*
X0186160Y0177514D01*
X0186112Y0177602D01*
X0186068Y0177691D01*
X0186028Y0177782D01*
X0185991Y0177874D01*
X0185958Y0177968D01*
X0185929Y0178063D01*
X0185904Y0178159D01*
X0185882Y0178256D01*
X0185865Y0178354D01*
X0185851Y0178452D01*
X0185841Y0178551D01*
X0185835Y0178651D01*
X0185833Y0178750D01*
X0165208Y0198750D02*
X0165210Y0198849D01*
X0165216Y0198949D01*
X0165226Y0199048D01*
X0165240Y0199146D01*
X0165257Y0199244D01*
X0165279Y0199341D01*
X0165304Y0199437D01*
X0165333Y0199532D01*
X0165366Y0199626D01*
X0165403Y0199718D01*
X0165443Y0199809D01*
X0165487Y0199898D01*
X0165535Y0199986D01*
X0165586Y0200071D01*
X0165640Y0200154D01*
X0165697Y0200236D01*
X0165758Y0200314D01*
X0165822Y0200391D01*
X0165888Y0200464D01*
X0165958Y0200535D01*
X0166030Y0200603D01*
X0166105Y0200669D01*
X0166183Y0200731D01*
X0166263Y0200790D01*
X0166345Y0200846D01*
X0166429Y0200898D01*
X0166516Y0200947D01*
X0166604Y0200993D01*
X0166694Y0201035D01*
X0166786Y0201074D01*
X0166879Y0201109D01*
X0166973Y0201140D01*
X0167069Y0201167D01*
X0167166Y0201190D01*
X0167263Y0201210D01*
X0167361Y0201226D01*
X0167460Y0201238D01*
X0167559Y0201246D01*
X0167658Y0201250D01*
X0167758Y0201250D01*
X0167857Y0201246D01*
X0167956Y0201238D01*
X0168055Y0201226D01*
X0168153Y0201210D01*
X0168250Y0201190D01*
X0168347Y0201167D01*
X0168443Y0201140D01*
X0168537Y0201109D01*
X0168630Y0201074D01*
X0168722Y0201035D01*
X0168812Y0200993D01*
X0168900Y0200947D01*
X0168987Y0200898D01*
X0169071Y0200846D01*
X0169153Y0200790D01*
X0169233Y0200731D01*
X0169311Y0200669D01*
X0169386Y0200603D01*
X0169458Y0200535D01*
X0169528Y0200464D01*
X0169594Y0200391D01*
X0169658Y0200314D01*
X0169719Y0200236D01*
X0169776Y0200154D01*
X0169830Y0200071D01*
X0169881Y0199986D01*
X0169929Y0199898D01*
X0169973Y0199809D01*
X0170013Y0199718D01*
X0170050Y0199626D01*
X0170083Y0199532D01*
X0170112Y0199437D01*
X0170137Y0199341D01*
X0170159Y0199244D01*
X0170176Y0199146D01*
X0170190Y0199048D01*
X0170200Y0198949D01*
X0170206Y0198849D01*
X0170208Y0198750D01*
X0170206Y0198651D01*
X0170200Y0198551D01*
X0170190Y0198452D01*
X0170176Y0198354D01*
X0170159Y0198256D01*
X0170137Y0198159D01*
X0170112Y0198063D01*
X0170083Y0197968D01*
X0170050Y0197874D01*
X0170013Y0197782D01*
X0169973Y0197691D01*
X0169929Y0197602D01*
X0169881Y0197514D01*
X0169830Y0197429D01*
X0169776Y0197346D01*
X0169719Y0197264D01*
X0169658Y0197186D01*
X0169594Y0197109D01*
X0169528Y0197036D01*
X0169458Y0196965D01*
X0169386Y0196897D01*
X0169311Y0196831D01*
X0169233Y0196769D01*
X0169153Y0196710D01*
X0169071Y0196654D01*
X0168987Y0196602D01*
X0168900Y0196553D01*
X0168812Y0196507D01*
X0168722Y0196465D01*
X0168630Y0196426D01*
X0168537Y0196391D01*
X0168443Y0196360D01*
X0168347Y0196333D01*
X0168250Y0196310D01*
X0168153Y0196290D01*
X0168055Y0196274D01*
X0167956Y0196262D01*
X0167857Y0196254D01*
X0167758Y0196250D01*
X0167658Y0196250D01*
X0167559Y0196254D01*
X0167460Y0196262D01*
X0167361Y0196274D01*
X0167263Y0196290D01*
X0167166Y0196310D01*
X0167069Y0196333D01*
X0166973Y0196360D01*
X0166879Y0196391D01*
X0166786Y0196426D01*
X0166694Y0196465D01*
X0166604Y0196507D01*
X0166516Y0196553D01*
X0166429Y0196602D01*
X0166345Y0196654D01*
X0166263Y0196710D01*
X0166183Y0196769D01*
X0166105Y0196831D01*
X0166030Y0196897D01*
X0165958Y0196965D01*
X0165888Y0197036D01*
X0165822Y0197109D01*
X0165758Y0197186D01*
X0165697Y0197264D01*
X0165640Y0197346D01*
X0165586Y0197429D01*
X0165535Y0197514D01*
X0165487Y0197602D01*
X0165443Y0197691D01*
X0165403Y0197782D01*
X0165366Y0197874D01*
X0165333Y0197968D01*
X0165304Y0198063D01*
X0165279Y0198159D01*
X0165257Y0198256D01*
X0165240Y0198354D01*
X0165226Y0198452D01*
X0165216Y0198551D01*
X0165210Y0198651D01*
X0165208Y0198750D01*
X0147708Y0198750D02*
X0147710Y0198849D01*
X0147716Y0198949D01*
X0147726Y0199048D01*
X0147740Y0199146D01*
X0147757Y0199244D01*
X0147779Y0199341D01*
X0147804Y0199437D01*
X0147833Y0199532D01*
X0147866Y0199626D01*
X0147903Y0199718D01*
X0147943Y0199809D01*
X0147987Y0199898D01*
X0148035Y0199986D01*
X0148086Y0200071D01*
X0148140Y0200154D01*
X0148197Y0200236D01*
X0148258Y0200314D01*
X0148322Y0200391D01*
X0148388Y0200464D01*
X0148458Y0200535D01*
X0148530Y0200603D01*
X0148605Y0200669D01*
X0148683Y0200731D01*
X0148763Y0200790D01*
X0148845Y0200846D01*
X0148929Y0200898D01*
X0149016Y0200947D01*
X0149104Y0200993D01*
X0149194Y0201035D01*
X0149286Y0201074D01*
X0149379Y0201109D01*
X0149473Y0201140D01*
X0149569Y0201167D01*
X0149666Y0201190D01*
X0149763Y0201210D01*
X0149861Y0201226D01*
X0149960Y0201238D01*
X0150059Y0201246D01*
X0150158Y0201250D01*
X0150258Y0201250D01*
X0150357Y0201246D01*
X0150456Y0201238D01*
X0150555Y0201226D01*
X0150653Y0201210D01*
X0150750Y0201190D01*
X0150847Y0201167D01*
X0150943Y0201140D01*
X0151037Y0201109D01*
X0151130Y0201074D01*
X0151222Y0201035D01*
X0151312Y0200993D01*
X0151400Y0200947D01*
X0151487Y0200898D01*
X0151571Y0200846D01*
X0151653Y0200790D01*
X0151733Y0200731D01*
X0151811Y0200669D01*
X0151886Y0200603D01*
X0151958Y0200535D01*
X0152028Y0200464D01*
X0152094Y0200391D01*
X0152158Y0200314D01*
X0152219Y0200236D01*
X0152276Y0200154D01*
X0152330Y0200071D01*
X0152381Y0199986D01*
X0152429Y0199898D01*
X0152473Y0199809D01*
X0152513Y0199718D01*
X0152550Y0199626D01*
X0152583Y0199532D01*
X0152612Y0199437D01*
X0152637Y0199341D01*
X0152659Y0199244D01*
X0152676Y0199146D01*
X0152690Y0199048D01*
X0152700Y0198949D01*
X0152706Y0198849D01*
X0152708Y0198750D01*
X0152706Y0198651D01*
X0152700Y0198551D01*
X0152690Y0198452D01*
X0152676Y0198354D01*
X0152659Y0198256D01*
X0152637Y0198159D01*
X0152612Y0198063D01*
X0152583Y0197968D01*
X0152550Y0197874D01*
X0152513Y0197782D01*
X0152473Y0197691D01*
X0152429Y0197602D01*
X0152381Y0197514D01*
X0152330Y0197429D01*
X0152276Y0197346D01*
X0152219Y0197264D01*
X0152158Y0197186D01*
X0152094Y0197109D01*
X0152028Y0197036D01*
X0151958Y0196965D01*
X0151886Y0196897D01*
X0151811Y0196831D01*
X0151733Y0196769D01*
X0151653Y0196710D01*
X0151571Y0196654D01*
X0151487Y0196602D01*
X0151400Y0196553D01*
X0151312Y0196507D01*
X0151222Y0196465D01*
X0151130Y0196426D01*
X0151037Y0196391D01*
X0150943Y0196360D01*
X0150847Y0196333D01*
X0150750Y0196310D01*
X0150653Y0196290D01*
X0150555Y0196274D01*
X0150456Y0196262D01*
X0150357Y0196254D01*
X0150258Y0196250D01*
X0150158Y0196250D01*
X0150059Y0196254D01*
X0149960Y0196262D01*
X0149861Y0196274D01*
X0149763Y0196290D01*
X0149666Y0196310D01*
X0149569Y0196333D01*
X0149473Y0196360D01*
X0149379Y0196391D01*
X0149286Y0196426D01*
X0149194Y0196465D01*
X0149104Y0196507D01*
X0149016Y0196553D01*
X0148929Y0196602D01*
X0148845Y0196654D01*
X0148763Y0196710D01*
X0148683Y0196769D01*
X0148605Y0196831D01*
X0148530Y0196897D01*
X0148458Y0196965D01*
X0148388Y0197036D01*
X0148322Y0197109D01*
X0148258Y0197186D01*
X0148197Y0197264D01*
X0148140Y0197346D01*
X0148086Y0197429D01*
X0148035Y0197514D01*
X0147987Y0197602D01*
X0147943Y0197691D01*
X0147903Y0197782D01*
X0147866Y0197874D01*
X0147833Y0197968D01*
X0147804Y0198063D01*
X0147779Y0198159D01*
X0147757Y0198256D01*
X0147740Y0198354D01*
X0147726Y0198452D01*
X0147716Y0198551D01*
X0147710Y0198651D01*
X0147708Y0198750D01*
X0135833Y0181250D02*
X0135835Y0181349D01*
X0135841Y0181449D01*
X0135851Y0181548D01*
X0135865Y0181646D01*
X0135882Y0181744D01*
X0135904Y0181841D01*
X0135929Y0181937D01*
X0135958Y0182032D01*
X0135991Y0182126D01*
X0136028Y0182218D01*
X0136068Y0182309D01*
X0136112Y0182398D01*
X0136160Y0182486D01*
X0136211Y0182571D01*
X0136265Y0182654D01*
X0136322Y0182736D01*
X0136383Y0182814D01*
X0136447Y0182891D01*
X0136513Y0182964D01*
X0136583Y0183035D01*
X0136655Y0183103D01*
X0136730Y0183169D01*
X0136808Y0183231D01*
X0136888Y0183290D01*
X0136970Y0183346D01*
X0137054Y0183398D01*
X0137141Y0183447D01*
X0137229Y0183493D01*
X0137319Y0183535D01*
X0137411Y0183574D01*
X0137504Y0183609D01*
X0137598Y0183640D01*
X0137694Y0183667D01*
X0137791Y0183690D01*
X0137888Y0183710D01*
X0137986Y0183726D01*
X0138085Y0183738D01*
X0138184Y0183746D01*
X0138283Y0183750D01*
X0138383Y0183750D01*
X0138482Y0183746D01*
X0138581Y0183738D01*
X0138680Y0183726D01*
X0138778Y0183710D01*
X0138875Y0183690D01*
X0138972Y0183667D01*
X0139068Y0183640D01*
X0139162Y0183609D01*
X0139255Y0183574D01*
X0139347Y0183535D01*
X0139437Y0183493D01*
X0139525Y0183447D01*
X0139612Y0183398D01*
X0139696Y0183346D01*
X0139778Y0183290D01*
X0139858Y0183231D01*
X0139936Y0183169D01*
X0140011Y0183103D01*
X0140083Y0183035D01*
X0140153Y0182964D01*
X0140219Y0182891D01*
X0140283Y0182814D01*
X0140344Y0182736D01*
X0140401Y0182654D01*
X0140455Y0182571D01*
X0140506Y0182486D01*
X0140554Y0182398D01*
X0140598Y0182309D01*
X0140638Y0182218D01*
X0140675Y0182126D01*
X0140708Y0182032D01*
X0140737Y0181937D01*
X0140762Y0181841D01*
X0140784Y0181744D01*
X0140801Y0181646D01*
X0140815Y0181548D01*
X0140825Y0181449D01*
X0140831Y0181349D01*
X0140833Y0181250D01*
X0140831Y0181151D01*
X0140825Y0181051D01*
X0140815Y0180952D01*
X0140801Y0180854D01*
X0140784Y0180756D01*
X0140762Y0180659D01*
X0140737Y0180563D01*
X0140708Y0180468D01*
X0140675Y0180374D01*
X0140638Y0180282D01*
X0140598Y0180191D01*
X0140554Y0180102D01*
X0140506Y0180014D01*
X0140455Y0179929D01*
X0140401Y0179846D01*
X0140344Y0179764D01*
X0140283Y0179686D01*
X0140219Y0179609D01*
X0140153Y0179536D01*
X0140083Y0179465D01*
X0140011Y0179397D01*
X0139936Y0179331D01*
X0139858Y0179269D01*
X0139778Y0179210D01*
X0139696Y0179154D01*
X0139612Y0179102D01*
X0139525Y0179053D01*
X0139437Y0179007D01*
X0139347Y0178965D01*
X0139255Y0178926D01*
X0139162Y0178891D01*
X0139068Y0178860D01*
X0138972Y0178833D01*
X0138875Y0178810D01*
X0138778Y0178790D01*
X0138680Y0178774D01*
X0138581Y0178762D01*
X0138482Y0178754D01*
X0138383Y0178750D01*
X0138283Y0178750D01*
X0138184Y0178754D01*
X0138085Y0178762D01*
X0137986Y0178774D01*
X0137888Y0178790D01*
X0137791Y0178810D01*
X0137694Y0178833D01*
X0137598Y0178860D01*
X0137504Y0178891D01*
X0137411Y0178926D01*
X0137319Y0178965D01*
X0137229Y0179007D01*
X0137141Y0179053D01*
X0137054Y0179102D01*
X0136970Y0179154D01*
X0136888Y0179210D01*
X0136808Y0179269D01*
X0136730Y0179331D01*
X0136655Y0179397D01*
X0136583Y0179465D01*
X0136513Y0179536D01*
X0136447Y0179609D01*
X0136383Y0179686D01*
X0136322Y0179764D01*
X0136265Y0179846D01*
X0136211Y0179929D01*
X0136160Y0180014D01*
X0136112Y0180102D01*
X0136068Y0180191D01*
X0136028Y0180282D01*
X0135991Y0180374D01*
X0135958Y0180468D01*
X0135929Y0180563D01*
X0135904Y0180659D01*
X0135882Y0180756D01*
X0135865Y0180854D01*
X0135851Y0180952D01*
X0135841Y0181051D01*
X0135835Y0181151D01*
X0135833Y0181250D01*
X0136333Y0148750D02*
X0136335Y0148839D01*
X0136341Y0148928D01*
X0136351Y0149017D01*
X0136365Y0149105D01*
X0136382Y0149192D01*
X0136404Y0149278D01*
X0136430Y0149364D01*
X0136459Y0149448D01*
X0136492Y0149531D01*
X0136528Y0149612D01*
X0136569Y0149692D01*
X0136612Y0149769D01*
X0136659Y0149845D01*
X0136710Y0149918D01*
X0136763Y0149989D01*
X0136820Y0150058D01*
X0136880Y0150124D01*
X0136943Y0150188D01*
X0137008Y0150248D01*
X0137076Y0150306D01*
X0137147Y0150360D01*
X0137220Y0150411D01*
X0137295Y0150459D01*
X0137372Y0150504D01*
X0137451Y0150545D01*
X0137532Y0150582D01*
X0137614Y0150616D01*
X0137698Y0150647D01*
X0137783Y0150673D01*
X0137869Y0150696D01*
X0137956Y0150714D01*
X0138044Y0150729D01*
X0138133Y0150740D01*
X0138222Y0150747D01*
X0138311Y0150750D01*
X0138400Y0150749D01*
X0138489Y0150744D01*
X0138577Y0150735D01*
X0138666Y0150722D01*
X0138753Y0150705D01*
X0138840Y0150685D01*
X0138926Y0150660D01*
X0139010Y0150632D01*
X0139093Y0150600D01*
X0139175Y0150564D01*
X0139255Y0150525D01*
X0139333Y0150482D01*
X0139409Y0150436D01*
X0139483Y0150386D01*
X0139555Y0150333D01*
X0139624Y0150277D01*
X0139691Y0150218D01*
X0139755Y0150156D01*
X0139816Y0150092D01*
X0139875Y0150024D01*
X0139930Y0149954D01*
X0139982Y0149882D01*
X0140031Y0149807D01*
X0140076Y0149731D01*
X0140118Y0149652D01*
X0140156Y0149572D01*
X0140191Y0149490D01*
X0140222Y0149406D01*
X0140250Y0149321D01*
X0140273Y0149235D01*
X0140293Y0149148D01*
X0140309Y0149061D01*
X0140321Y0148972D01*
X0140329Y0148884D01*
X0140333Y0148795D01*
X0140333Y0148705D01*
X0140329Y0148616D01*
X0140321Y0148528D01*
X0140309Y0148439D01*
X0140293Y0148352D01*
X0140273Y0148265D01*
X0140250Y0148179D01*
X0140222Y0148094D01*
X0140191Y0148010D01*
X0140156Y0147928D01*
X0140118Y0147848D01*
X0140076Y0147769D01*
X0140031Y0147693D01*
X0139982Y0147618D01*
X0139930Y0147546D01*
X0139875Y0147476D01*
X0139816Y0147408D01*
X0139755Y0147344D01*
X0139691Y0147282D01*
X0139624Y0147223D01*
X0139555Y0147167D01*
X0139483Y0147114D01*
X0139409Y0147064D01*
X0139333Y0147018D01*
X0139255Y0146975D01*
X0139175Y0146936D01*
X0139093Y0146900D01*
X0139010Y0146868D01*
X0138926Y0146840D01*
X0138840Y0146815D01*
X0138753Y0146795D01*
X0138666Y0146778D01*
X0138577Y0146765D01*
X0138489Y0146756D01*
X0138400Y0146751D01*
X0138311Y0146750D01*
X0138222Y0146753D01*
X0138133Y0146760D01*
X0138044Y0146771D01*
X0137956Y0146786D01*
X0137869Y0146804D01*
X0137783Y0146827D01*
X0137698Y0146853D01*
X0137614Y0146884D01*
X0137532Y0146918D01*
X0137451Y0146955D01*
X0137372Y0146996D01*
X0137295Y0147041D01*
X0137220Y0147089D01*
X0137147Y0147140D01*
X0137076Y0147194D01*
X0137008Y0147252D01*
X0136943Y0147312D01*
X0136880Y0147376D01*
X0136820Y0147442D01*
X0136763Y0147511D01*
X0136710Y0147582D01*
X0136659Y0147655D01*
X0136612Y0147731D01*
X0136569Y0147808D01*
X0136528Y0147888D01*
X0136492Y0147969D01*
X0136459Y0148052D01*
X0136430Y0148136D01*
X0136404Y0148222D01*
X0136382Y0148308D01*
X0136365Y0148395D01*
X0136351Y0148483D01*
X0136341Y0148572D01*
X0136335Y0148661D01*
X0136333Y0148750D01*
D11*
X0133333Y0146250D02*
X0188333Y0091250D01*
X0243333Y0146250D01*
X0243333Y0183750D01*
X0228958Y0203125D01*
X0207083Y0203125D01*
X0188333Y0183750D01*
X0169583Y0203125D01*
X0147708Y0203125D01*
X0133333Y0183750D01*
X0133333Y0146250D01*
M02*
