G75*
%MOIN*%
%OFA0B0*%
%FSLAX25Y25*%
%IPPOS*%
%LPD*%
%AMOC8*
5,1,8,0,0,1.08239X$1,22.5*
%
%ADD10C,0.05800*%
%ADD11C,0.04800*%
%ADD12R,0.06312X0.05524*%
%ADD13R,0.04737X0.05131*%
%ADD14C,0.04343*%
D10*
X0188333Y0098750D03*
X0180833Y0106250D03*
X0195833Y0106250D03*
X0188333Y0178750D03*
X0167708Y0198750D03*
X0150208Y0198750D03*
X0138333Y0181250D03*
X0208958Y0198750D03*
X0226458Y0198750D03*
X0238333Y0181250D03*
D11*
X0238333Y0148750D03*
X0138333Y0148750D03*
D12*
X0150833Y0155344D03*
X0168333Y0144656D03*
X0188333Y0155344D03*
X0208333Y0144656D03*
X0225833Y0155344D03*
X0225833Y0167156D03*
X0203333Y0170344D03*
X0188333Y0167156D03*
X0173333Y0170344D03*
X0150833Y0167156D03*
X0173333Y0182156D03*
X0203333Y0182156D03*
X0208333Y0132844D03*
X0188333Y0127156D03*
X0168333Y0132844D03*
X0188333Y0115344D03*
D13*
X0180833Y0117904D03*
X0180833Y0124596D03*
X0160833Y0135404D03*
X0160833Y0142096D03*
X0143333Y0157904D03*
X0143333Y0164596D03*
X0163333Y0172904D03*
X0163333Y0179596D03*
X0195833Y0164596D03*
X0195833Y0157904D03*
X0215833Y0142096D03*
X0215833Y0135404D03*
X0233333Y0157904D03*
X0233333Y0164596D03*
X0210833Y0172904D03*
X0210833Y0179596D03*
D14*
X0225009Y0179574D03*
X0216658Y0187926D03*
M02*
