G75*
%MOIN*%
%OFA0B0*%
%FSLAX25Y25*%
%IPPOS*%
%LPD*%
%AMOC8*
5,1,8,0,0,1.08239X$1,22.5*
%
%ADD10C,0.00800*%
%ADD11C,0.01500*%
%ADD12C,0.01200*%
D10*
X0217708Y0076458D02*
X0210208Y0086458D01*
X0216458Y0086458D01*
X0223958Y0075208D01*
X0220208Y0073958D01*
X0227708Y0062708D01*
X0222708Y0062708D01*
X0227708Y0051458D01*
X0217708Y0065208D01*
X0221458Y0065208D01*
X0213958Y0075208D01*
X0217708Y0076458D01*
X0217321Y0076975D02*
X0222780Y0076975D01*
X0223313Y0076177D02*
X0216864Y0076177D01*
X0216722Y0077774D02*
X0222248Y0077774D01*
X0221716Y0078572D02*
X0216123Y0078572D01*
X0215524Y0079371D02*
X0221183Y0079371D01*
X0220651Y0080169D02*
X0214925Y0080169D01*
X0214326Y0080968D02*
X0220119Y0080968D01*
X0219586Y0081766D02*
X0213727Y0081766D01*
X0213128Y0082565D02*
X0219054Y0082565D01*
X0218522Y0083363D02*
X0212530Y0083363D01*
X0211931Y0084162D02*
X0217989Y0084162D01*
X0217457Y0084960D02*
X0211332Y0084960D01*
X0210733Y0085759D02*
X0216925Y0085759D01*
X0214468Y0075378D02*
X0223845Y0075378D01*
X0222073Y0074580D02*
X0214430Y0074580D01*
X0215029Y0073781D02*
X0220326Y0073781D01*
X0220859Y0072983D02*
X0215628Y0072983D01*
X0216226Y0072184D02*
X0221391Y0072184D01*
X0221923Y0071386D02*
X0216825Y0071386D01*
X0217424Y0070587D02*
X0222456Y0070587D01*
X0222988Y0069789D02*
X0218023Y0069789D01*
X0218622Y0068990D02*
X0223520Y0068990D01*
X0224053Y0068192D02*
X0219221Y0068192D01*
X0219820Y0067393D02*
X0224585Y0067393D01*
X0225117Y0066595D02*
X0220419Y0066595D01*
X0221017Y0065796D02*
X0225650Y0065796D01*
X0226182Y0064998D02*
X0217862Y0064998D01*
X0218442Y0064199D02*
X0226714Y0064199D01*
X0227247Y0063401D02*
X0219023Y0063401D01*
X0219604Y0062602D02*
X0222756Y0062602D01*
X0223110Y0061804D02*
X0220185Y0061804D01*
X0220765Y0061005D02*
X0223465Y0061005D01*
X0223820Y0060207D02*
X0221346Y0060207D01*
X0221927Y0059408D02*
X0224175Y0059408D01*
X0224530Y0058610D02*
X0222507Y0058610D01*
X0223088Y0057811D02*
X0224885Y0057811D01*
X0225240Y0057012D02*
X0223669Y0057012D01*
X0224250Y0056214D02*
X0225595Y0056214D01*
X0225950Y0055415D02*
X0224830Y0055415D01*
X0225411Y0054617D02*
X0226305Y0054617D01*
X0225992Y0053818D02*
X0226659Y0053818D01*
X0226573Y0053020D02*
X0227014Y0053020D01*
X0227153Y0052221D02*
X0227369Y0052221D01*
X0228146Y0108885D02*
X0233520Y0108885D01*
X0248146Y0108885D02*
X0253520Y0108885D01*
X0268146Y0108885D02*
X0273520Y0108885D01*
X0288146Y0108885D02*
X0293520Y0108885D01*
X0308146Y0108885D02*
X0313520Y0108885D01*
X0328146Y0108885D02*
X0333520Y0108885D01*
X0348146Y0108885D02*
X0353520Y0108885D01*
X0352083Y0087083D02*
X0345833Y0087083D01*
X0338333Y0075833D01*
X0342083Y0074583D01*
X0334583Y0063333D01*
X0339583Y0063333D01*
X0334583Y0052083D01*
X0344583Y0065833D01*
X0340833Y0065833D01*
X0348333Y0075833D01*
X0344583Y0077083D01*
X0352083Y0087083D01*
X0351689Y0086557D02*
X0345483Y0086557D01*
X0344950Y0085759D02*
X0351090Y0085759D01*
X0350491Y0084960D02*
X0344418Y0084960D01*
X0343886Y0084162D02*
X0349892Y0084162D01*
X0349293Y0083363D02*
X0343353Y0083363D01*
X0342821Y0082565D02*
X0348694Y0082565D01*
X0348096Y0081766D02*
X0342289Y0081766D01*
X0341756Y0080968D02*
X0347497Y0080968D01*
X0346898Y0080169D02*
X0341224Y0080169D01*
X0340692Y0079371D02*
X0346299Y0079371D01*
X0345700Y0078572D02*
X0340159Y0078572D01*
X0339627Y0077774D02*
X0345101Y0077774D01*
X0344908Y0076975D02*
X0339095Y0076975D01*
X0338562Y0076177D02*
X0347303Y0076177D01*
X0347992Y0075378D02*
X0339699Y0075378D01*
X0341549Y0073781D02*
X0346794Y0073781D01*
X0346195Y0072983D02*
X0341016Y0072983D01*
X0340484Y0072184D02*
X0345596Y0072184D01*
X0344998Y0071386D02*
X0339952Y0071386D01*
X0339419Y0070587D02*
X0344399Y0070587D01*
X0343800Y0069789D02*
X0338887Y0069789D01*
X0338355Y0068990D02*
X0343201Y0068990D01*
X0342602Y0068192D02*
X0337822Y0068192D01*
X0337290Y0067393D02*
X0342003Y0067393D01*
X0341404Y0066595D02*
X0336758Y0066595D01*
X0336225Y0065796D02*
X0344556Y0065796D01*
X0343976Y0064998D02*
X0335693Y0064998D01*
X0335160Y0064199D02*
X0343395Y0064199D01*
X0342814Y0063401D02*
X0334628Y0063401D01*
X0338903Y0061804D02*
X0341653Y0061804D01*
X0342233Y0062602D02*
X0339258Y0062602D01*
X0338549Y0061005D02*
X0341072Y0061005D01*
X0340491Y0060207D02*
X0338194Y0060207D01*
X0337839Y0059408D02*
X0339910Y0059408D01*
X0339330Y0058610D02*
X0337484Y0058610D01*
X0337129Y0057811D02*
X0338749Y0057811D01*
X0338168Y0057012D02*
X0336774Y0057012D01*
X0336419Y0056214D02*
X0337587Y0056214D01*
X0337007Y0055415D02*
X0336064Y0055415D01*
X0335709Y0054617D02*
X0336426Y0054617D01*
X0335845Y0053818D02*
X0335354Y0053818D01*
X0335265Y0053020D02*
X0335000Y0053020D01*
X0334684Y0052221D02*
X0334645Y0052221D01*
X0342081Y0074580D02*
X0347393Y0074580D01*
X0348146Y0148885D02*
X0353520Y0148885D01*
X0333520Y0148885D02*
X0328146Y0148885D01*
X0313520Y0148885D02*
X0308146Y0148885D01*
X0293520Y0148885D02*
X0288146Y0148885D01*
X0273520Y0148885D02*
X0268146Y0148885D01*
X0253520Y0148885D02*
X0248146Y0148885D01*
X0233520Y0148885D02*
X0228146Y0148885D01*
X0213520Y0148885D02*
X0208146Y0148885D01*
X0208146Y0188885D02*
X0213520Y0188885D01*
X0228146Y0188885D02*
X0233520Y0188885D01*
X0248146Y0188885D02*
X0253520Y0188885D01*
X0268146Y0188885D02*
X0273520Y0188885D01*
X0288146Y0188885D02*
X0293520Y0188885D01*
X0308146Y0188885D02*
X0313520Y0188885D01*
X0328146Y0188885D02*
X0333520Y0188885D01*
X0348146Y0188885D02*
X0353520Y0188885D01*
X0353520Y0228885D02*
X0348146Y0228885D01*
X0333520Y0228885D02*
X0328146Y0228885D01*
X0313520Y0228885D02*
X0308146Y0228885D01*
X0293520Y0228885D02*
X0288146Y0228885D01*
X0273520Y0228885D02*
X0268146Y0228885D01*
X0253520Y0228885D02*
X0248146Y0228885D01*
X0233520Y0228885D02*
X0228146Y0228885D01*
X0213520Y0228885D02*
X0208146Y0228885D01*
X0208146Y0268885D02*
X0213520Y0268885D01*
X0228146Y0268885D02*
X0233520Y0268885D01*
X0248146Y0268885D02*
X0253520Y0268885D01*
X0268146Y0268885D02*
X0273520Y0268885D01*
X0288146Y0268885D02*
X0293520Y0268885D01*
X0308146Y0268885D02*
X0313520Y0268885D01*
X0328146Y0268885D02*
X0333520Y0268885D01*
X0348146Y0268885D02*
X0353520Y0268885D01*
X0353520Y0308885D02*
X0348146Y0308885D01*
X0333520Y0308885D02*
X0328146Y0308885D01*
X0313520Y0308885D02*
X0308146Y0308885D01*
X0293520Y0308885D02*
X0288146Y0308885D01*
X0273520Y0308885D02*
X0268146Y0308885D01*
X0253520Y0308885D02*
X0248146Y0308885D01*
X0233520Y0308885D02*
X0228146Y0308885D01*
X0213520Y0308885D02*
X0208146Y0308885D01*
X0209333Y0328583D02*
X0212136Y0328583D01*
X0210735Y0328583D02*
X0210735Y0332787D01*
X0209333Y0331386D01*
X0229358Y0332236D02*
X0230059Y0332937D01*
X0231460Y0332937D01*
X0232161Y0332236D01*
X0232161Y0331536D01*
X0229358Y0328733D01*
X0232161Y0328733D01*
X0249508Y0329434D02*
X0250209Y0328733D01*
X0251610Y0328733D01*
X0252311Y0329434D01*
X0252311Y0330135D01*
X0251610Y0330835D01*
X0250910Y0330835D01*
X0251610Y0330835D02*
X0252311Y0331536D01*
X0252311Y0332236D01*
X0251610Y0332937D01*
X0250209Y0332937D01*
X0249508Y0332236D01*
X0269358Y0330835D02*
X0272161Y0330835D01*
X0271460Y0328733D02*
X0271460Y0332937D01*
X0269358Y0330835D01*
X0289408Y0330835D02*
X0290810Y0331536D01*
X0291510Y0331536D01*
X0292211Y0330835D01*
X0292211Y0329434D01*
X0291510Y0328733D01*
X0290109Y0328733D01*
X0289408Y0329434D01*
X0289408Y0330835D02*
X0289408Y0332937D01*
X0292211Y0332937D01*
X0309408Y0330835D02*
X0309408Y0329434D01*
X0310109Y0328733D01*
X0311510Y0328733D01*
X0312211Y0329434D01*
X0312211Y0330135D01*
X0311510Y0330835D01*
X0309408Y0330835D01*
X0310810Y0332236D01*
X0312211Y0332937D01*
X0330033Y0332937D02*
X0332836Y0332937D01*
X0332836Y0332236D01*
X0330033Y0329434D01*
X0330033Y0328733D01*
X0349308Y0329434D02*
X0349308Y0330135D01*
X0350009Y0330835D01*
X0351410Y0330835D01*
X0352111Y0330135D01*
X0352111Y0329434D01*
X0351410Y0328733D01*
X0350009Y0328733D01*
X0349308Y0329434D01*
X0350009Y0330835D02*
X0349308Y0331536D01*
X0349308Y0332236D01*
X0350009Y0332937D01*
X0351410Y0332937D01*
X0352111Y0332236D01*
X0352111Y0331536D01*
X0351410Y0330835D01*
X0213520Y0108885D02*
X0208146Y0108885D01*
D11*
X0245333Y0073841D02*
X0245333Y0065333D01*
X0251005Y0065333D01*
X0254541Y0065333D02*
X0254541Y0071005D01*
X0257377Y0073841D01*
X0260213Y0071005D01*
X0260213Y0065333D01*
X0263749Y0065333D02*
X0269421Y0065333D01*
X0272957Y0065333D02*
X0278628Y0065333D01*
X0282165Y0065333D02*
X0282165Y0073841D01*
X0286418Y0073841D01*
X0287836Y0072423D01*
X0287836Y0069587D01*
X0286418Y0068169D01*
X0282165Y0068169D01*
X0285001Y0068169D02*
X0287836Y0065333D01*
X0291373Y0065333D02*
X0291373Y0071005D01*
X0294208Y0073841D01*
X0297044Y0071005D01*
X0297044Y0065333D01*
X0300580Y0065333D02*
X0304834Y0065333D01*
X0306252Y0066751D01*
X0306252Y0072423D01*
X0304834Y0073841D01*
X0300580Y0073841D01*
X0300580Y0065333D01*
X0301038Y0060716D02*
X0306710Y0060716D01*
X0303874Y0060716D02*
X0303874Y0052208D01*
X0297502Y0052208D02*
X0297502Y0057880D01*
X0294666Y0060716D01*
X0291830Y0057880D01*
X0291830Y0052208D01*
X0288294Y0052208D02*
X0288294Y0060716D01*
X0291830Y0056462D02*
X0297502Y0056462D01*
X0288294Y0052208D02*
X0285458Y0055044D01*
X0282623Y0052208D01*
X0282623Y0060716D01*
X0279086Y0059298D02*
X0277668Y0060716D01*
X0274833Y0060716D01*
X0273415Y0059298D01*
X0273415Y0057880D01*
X0274833Y0056462D01*
X0277668Y0056462D01*
X0279086Y0055044D01*
X0279086Y0053626D01*
X0277668Y0052208D01*
X0274833Y0052208D01*
X0273415Y0053626D01*
X0260671Y0053626D02*
X0260671Y0059298D01*
X0259253Y0060716D01*
X0254999Y0060716D01*
X0254999Y0052208D01*
X0259253Y0052208D01*
X0260671Y0053626D01*
X0251463Y0052208D02*
X0245791Y0052208D01*
X0245791Y0060716D01*
X0251463Y0060716D01*
X0248627Y0056462D02*
X0245791Y0056462D01*
X0242255Y0052208D02*
X0236583Y0052208D01*
X0236583Y0060716D01*
X0254541Y0069587D02*
X0260213Y0069587D01*
X0263749Y0066751D02*
X0263749Y0065333D01*
X0263749Y0066751D02*
X0269421Y0072423D01*
X0269421Y0073841D01*
X0263749Y0073841D01*
X0272957Y0073841D02*
X0272957Y0065333D01*
X0272957Y0069587D02*
X0275793Y0069587D01*
X0278628Y0073841D02*
X0272957Y0073841D01*
X0291373Y0069587D02*
X0297044Y0069587D01*
X0309788Y0069587D02*
X0312624Y0069587D01*
X0309788Y0073841D02*
X0309788Y0065333D01*
X0315460Y0065333D01*
X0314500Y0060716D02*
X0311664Y0060716D01*
X0310246Y0059298D01*
X0310246Y0053626D01*
X0311664Y0052208D01*
X0314500Y0052208D01*
X0315918Y0053626D01*
X0319454Y0052208D02*
X0319454Y0060716D01*
X0315918Y0059298D02*
X0314500Y0060716D01*
X0319454Y0056462D02*
X0325126Y0056462D01*
X0325126Y0060716D02*
X0325126Y0052208D01*
X0315460Y0073841D02*
X0309788Y0073841D01*
D12*
X0195833Y0080833D02*
X0195833Y0055833D01*
X0198333Y0057083D02*
X0198333Y0078333D01*
X0200833Y0075833D02*
X0200833Y0059583D01*
X0203333Y0062083D02*
X0203333Y0073333D01*
M02*
