G75*
%MOIN*%
%OFA0B0*%
%FSLAX25Y25*%
%IPPOS*%
%LPD*%
%AMOC8*
5,1,8,0,0,1.08239X$1,22.5*
%
%ADD10C,0.00800*%
%ADD11C,0.00500*%
%ADD12C,0.02200*%
%ADD13R,0.01800X0.03000*%
%ADD14C,0.00600*%
%ADD15C,0.01000*%
D10*
X0179205Y0126703D02*
X0182824Y0130322D01*
X0172384Y0140761D02*
X0168765Y0137142D01*
X0167708Y0138125D02*
X0172083Y0146875D01*
X0167708Y0146875D01*
X0173333Y0155000D01*
X0168958Y0156250D01*
X0174583Y0163750D01*
X0180833Y0163750D01*
X0174583Y0157500D01*
X0178958Y0156250D01*
X0173958Y0149375D01*
X0177708Y0149375D01*
X0167708Y0138125D01*
X0168069Y0138847D02*
X0168350Y0138847D01*
X0168469Y0139646D02*
X0169060Y0139646D01*
X0168868Y0140444D02*
X0169770Y0140444D01*
X0169267Y0141243D02*
X0170480Y0141243D01*
X0171190Y0142041D02*
X0169666Y0142041D01*
X0170066Y0142840D02*
X0171899Y0142840D01*
X0172609Y0143638D02*
X0170465Y0143638D01*
X0170864Y0144437D02*
X0173319Y0144437D01*
X0174029Y0145235D02*
X0171264Y0145235D01*
X0171663Y0146034D02*
X0174738Y0146034D01*
X0175448Y0146832D02*
X0172062Y0146832D01*
X0169337Y0149228D02*
X0177578Y0149228D01*
X0176868Y0148429D02*
X0168784Y0148429D01*
X0168232Y0147631D02*
X0176158Y0147631D01*
X0174432Y0150026D02*
X0169890Y0150026D01*
X0170443Y0150825D02*
X0175013Y0150825D01*
X0175594Y0151623D02*
X0170996Y0151623D01*
X0171549Y0152422D02*
X0176174Y0152422D01*
X0176755Y0153220D02*
X0172101Y0153220D01*
X0172654Y0154019D02*
X0177336Y0154019D01*
X0177917Y0154818D02*
X0173207Y0154818D01*
X0171177Y0155616D02*
X0178497Y0155616D01*
X0178382Y0156415D02*
X0169082Y0156415D01*
X0169681Y0157213D02*
X0175588Y0157213D01*
X0175095Y0158012D02*
X0170279Y0158012D01*
X0170878Y0158810D02*
X0175893Y0158810D01*
X0176692Y0159609D02*
X0171477Y0159609D01*
X0172076Y0160407D02*
X0177490Y0160407D01*
X0178289Y0161206D02*
X0172675Y0161206D01*
X0173274Y0162004D02*
X0179087Y0162004D01*
X0179886Y0162803D02*
X0173873Y0162803D01*
X0174472Y0163601D02*
X0180684Y0163601D01*
X0159827Y0179634D02*
X0157449Y0177257D01*
X0160447Y0184581D02*
X0145414Y0199614D01*
X0140467Y0198993D02*
X0138090Y0196616D01*
X0140456Y0188682D02*
X0145339Y0183799D01*
X0131270Y0178483D02*
X0131270Y0176255D01*
X0128208Y0173193D01*
X0131270Y0178483D02*
X0126816Y0182937D01*
X0124589Y0182937D01*
X0121527Y0179875D01*
X0115959Y0174307D02*
X0111783Y0170131D01*
X0118464Y0163450D01*
X0122640Y0167625D01*
X0114423Y0190269D02*
X0116814Y0192660D01*
X0110857Y0192280D02*
X0109363Y0193774D01*
X0107352Y0197340D02*
X0109743Y0199731D01*
X0104714Y0209700D02*
X0108890Y0213875D01*
X0104714Y0209700D02*
X0098033Y0216381D01*
X0102209Y0220557D01*
X0107777Y0226125D02*
X0110839Y0229187D01*
X0113066Y0229187D01*
X0117520Y0224733D01*
X0117520Y0222505D01*
X0114458Y0219443D01*
X0223958Y0162500D02*
X0230208Y0156250D01*
X0225833Y0155000D01*
X0230833Y0148125D01*
X0227083Y0148125D01*
X0237083Y0136875D01*
X0232708Y0145625D01*
X0237083Y0145625D01*
X0231458Y0153750D01*
X0235833Y0155000D01*
X0230208Y0162500D01*
X0223958Y0162500D01*
X0224454Y0162004D02*
X0230580Y0162004D01*
X0231179Y0161206D02*
X0225253Y0161206D01*
X0226051Y0160407D02*
X0231778Y0160407D01*
X0232377Y0159609D02*
X0226850Y0159609D01*
X0227648Y0158810D02*
X0232976Y0158810D01*
X0233575Y0158012D02*
X0228447Y0158012D01*
X0229245Y0157213D02*
X0234174Y0157213D01*
X0234772Y0156415D02*
X0230044Y0156415D01*
X0227989Y0155616D02*
X0235371Y0155616D01*
X0235195Y0154818D02*
X0225966Y0154818D01*
X0226547Y0154019D02*
X0232400Y0154019D01*
X0231825Y0153220D02*
X0227128Y0153220D01*
X0227708Y0152422D02*
X0232378Y0152422D01*
X0232931Y0151623D02*
X0228289Y0151623D01*
X0228870Y0150825D02*
X0233483Y0150825D01*
X0234036Y0150026D02*
X0229450Y0150026D01*
X0230031Y0149228D02*
X0234589Y0149228D01*
X0235142Y0148429D02*
X0230612Y0148429D01*
X0228232Y0146832D02*
X0236247Y0146832D01*
X0236800Y0146034D02*
X0228942Y0146034D01*
X0229652Y0145235D02*
X0232903Y0145235D01*
X0233302Y0144437D02*
X0230362Y0144437D01*
X0231071Y0143638D02*
X0233702Y0143638D01*
X0234101Y0142840D02*
X0231781Y0142840D01*
X0232491Y0142041D02*
X0234500Y0142041D01*
X0234899Y0141243D02*
X0233201Y0141243D01*
X0233911Y0140444D02*
X0235299Y0140444D01*
X0235698Y0139646D02*
X0234620Y0139646D01*
X0235330Y0138847D02*
X0236097Y0138847D01*
X0236040Y0138049D02*
X0236496Y0138049D01*
X0236750Y0137250D02*
X0236896Y0137250D01*
X0235695Y0147631D02*
X0227523Y0147631D01*
X0239685Y0163256D02*
X0246673Y0156268D01*
X0252992Y0155517D02*
X0261567Y0164091D01*
X0245208Y0166875D02*
X0245210Y0167016D01*
X0245216Y0167157D01*
X0245226Y0167297D01*
X0245240Y0167437D01*
X0245258Y0167577D01*
X0245279Y0167716D01*
X0245305Y0167855D01*
X0245334Y0167993D01*
X0245368Y0168129D01*
X0245405Y0168265D01*
X0245446Y0168400D01*
X0245491Y0168534D01*
X0245540Y0168666D01*
X0245592Y0168797D01*
X0245648Y0168926D01*
X0245708Y0169053D01*
X0245771Y0169179D01*
X0245837Y0169303D01*
X0245908Y0169426D01*
X0245981Y0169546D01*
X0246058Y0169664D01*
X0246138Y0169780D01*
X0246222Y0169893D01*
X0246308Y0170004D01*
X0246398Y0170113D01*
X0246491Y0170219D01*
X0246586Y0170322D01*
X0246685Y0170423D01*
X0246786Y0170521D01*
X0246890Y0170616D01*
X0246997Y0170708D01*
X0247106Y0170797D01*
X0247218Y0170882D01*
X0247332Y0170965D01*
X0247448Y0171045D01*
X0247567Y0171121D01*
X0247688Y0171193D01*
X0247810Y0171263D01*
X0247935Y0171328D01*
X0248061Y0171391D01*
X0248189Y0171449D01*
X0248319Y0171504D01*
X0248450Y0171556D01*
X0248583Y0171603D01*
X0248717Y0171647D01*
X0248852Y0171688D01*
X0248988Y0171724D01*
X0249125Y0171756D01*
X0249263Y0171785D01*
X0249401Y0171810D01*
X0249541Y0171830D01*
X0249681Y0171847D01*
X0249821Y0171860D01*
X0249962Y0171869D01*
X0250102Y0171874D01*
X0250243Y0171875D01*
X0250384Y0171872D01*
X0250525Y0171865D01*
X0250665Y0171854D01*
X0250805Y0171839D01*
X0250945Y0171820D01*
X0251084Y0171798D01*
X0251222Y0171771D01*
X0251360Y0171741D01*
X0251496Y0171706D01*
X0251632Y0171668D01*
X0251766Y0171626D01*
X0251900Y0171580D01*
X0252032Y0171531D01*
X0252162Y0171477D01*
X0252291Y0171420D01*
X0252418Y0171360D01*
X0252544Y0171296D01*
X0252667Y0171228D01*
X0252789Y0171157D01*
X0252909Y0171083D01*
X0253026Y0171005D01*
X0253141Y0170924D01*
X0253254Y0170840D01*
X0253365Y0170753D01*
X0253473Y0170662D01*
X0253578Y0170569D01*
X0253681Y0170472D01*
X0253781Y0170373D01*
X0253878Y0170271D01*
X0253972Y0170166D01*
X0254063Y0170059D01*
X0254151Y0169949D01*
X0254236Y0169837D01*
X0254318Y0169722D01*
X0254397Y0169605D01*
X0254472Y0169486D01*
X0254544Y0169365D01*
X0254612Y0169242D01*
X0254677Y0169117D01*
X0254739Y0168990D01*
X0254796Y0168861D01*
X0254851Y0168731D01*
X0254901Y0168600D01*
X0254948Y0168467D01*
X0254991Y0168333D01*
X0255030Y0168197D01*
X0255065Y0168061D01*
X0255097Y0167924D01*
X0255124Y0167786D01*
X0255148Y0167647D01*
X0255168Y0167507D01*
X0255184Y0167367D01*
X0255196Y0167227D01*
X0255204Y0167086D01*
X0255208Y0166945D01*
X0255208Y0166805D01*
X0255204Y0166664D01*
X0255196Y0166523D01*
X0255184Y0166383D01*
X0255168Y0166243D01*
X0255148Y0166103D01*
X0255124Y0165964D01*
X0255097Y0165826D01*
X0255065Y0165689D01*
X0255030Y0165553D01*
X0254991Y0165417D01*
X0254948Y0165283D01*
X0254901Y0165150D01*
X0254851Y0165019D01*
X0254796Y0164889D01*
X0254739Y0164760D01*
X0254677Y0164633D01*
X0254612Y0164508D01*
X0254544Y0164385D01*
X0254472Y0164264D01*
X0254397Y0164145D01*
X0254318Y0164028D01*
X0254236Y0163913D01*
X0254151Y0163801D01*
X0254063Y0163691D01*
X0253972Y0163584D01*
X0253878Y0163479D01*
X0253781Y0163377D01*
X0253681Y0163278D01*
X0253578Y0163181D01*
X0253473Y0163088D01*
X0253365Y0162997D01*
X0253254Y0162910D01*
X0253141Y0162826D01*
X0253026Y0162745D01*
X0252909Y0162667D01*
X0252789Y0162593D01*
X0252667Y0162522D01*
X0252544Y0162454D01*
X0252418Y0162390D01*
X0252291Y0162330D01*
X0252162Y0162273D01*
X0252032Y0162219D01*
X0251900Y0162170D01*
X0251766Y0162124D01*
X0251632Y0162082D01*
X0251496Y0162044D01*
X0251360Y0162009D01*
X0251222Y0161979D01*
X0251084Y0161952D01*
X0250945Y0161930D01*
X0250805Y0161911D01*
X0250665Y0161896D01*
X0250525Y0161885D01*
X0250384Y0161878D01*
X0250243Y0161875D01*
X0250102Y0161876D01*
X0249962Y0161881D01*
X0249821Y0161890D01*
X0249681Y0161903D01*
X0249541Y0161920D01*
X0249401Y0161940D01*
X0249263Y0161965D01*
X0249125Y0161994D01*
X0248988Y0162026D01*
X0248852Y0162062D01*
X0248717Y0162103D01*
X0248583Y0162147D01*
X0248450Y0162194D01*
X0248319Y0162246D01*
X0248189Y0162301D01*
X0248061Y0162359D01*
X0247935Y0162422D01*
X0247810Y0162487D01*
X0247688Y0162557D01*
X0247567Y0162629D01*
X0247448Y0162705D01*
X0247332Y0162785D01*
X0247218Y0162868D01*
X0247106Y0162953D01*
X0246997Y0163042D01*
X0246890Y0163134D01*
X0246786Y0163229D01*
X0246685Y0163327D01*
X0246586Y0163428D01*
X0246491Y0163531D01*
X0246398Y0163637D01*
X0246308Y0163746D01*
X0246222Y0163857D01*
X0246138Y0163970D01*
X0246058Y0164086D01*
X0245981Y0164204D01*
X0245908Y0164324D01*
X0245837Y0164447D01*
X0245771Y0164571D01*
X0245708Y0164697D01*
X0245648Y0164824D01*
X0245592Y0164953D01*
X0245540Y0165084D01*
X0245491Y0165216D01*
X0245446Y0165350D01*
X0245405Y0165485D01*
X0245368Y0165621D01*
X0245334Y0165757D01*
X0245305Y0165895D01*
X0245279Y0166034D01*
X0245258Y0166173D01*
X0245240Y0166313D01*
X0245226Y0166453D01*
X0245216Y0166593D01*
X0245210Y0166734D01*
X0245208Y0166875D01*
X0238850Y0169659D02*
X0247424Y0178233D01*
X0253827Y0177398D02*
X0260731Y0170494D01*
X0259248Y0186480D02*
X0261229Y0188462D01*
X0258257Y0191434D01*
X0256275Y0189452D01*
X0258752Y0188957D02*
X0259743Y0189948D01*
X0260026Y0192213D02*
X0260026Y0193203D01*
X0261512Y0194690D01*
X0264485Y0191717D01*
X0262999Y0190231D01*
X0262008Y0190231D01*
X0260026Y0192213D01*
X0263777Y0194973D02*
X0265759Y0192991D01*
X0264273Y0194477D02*
X0266254Y0196459D01*
X0265759Y0196954D02*
X0263777Y0196954D01*
X0263777Y0194973D01*
X0265759Y0196954D02*
X0267740Y0194973D01*
X0269014Y0196246D02*
X0269014Y0198228D01*
X0268519Y0197733D02*
X0270005Y0199219D01*
X0270996Y0198228D02*
X0268023Y0201200D01*
X0266537Y0199714D01*
X0266537Y0198723D01*
X0267528Y0197733D01*
X0268519Y0197733D01*
X0272270Y0199502D02*
X0274251Y0201484D01*
X0271279Y0204456D01*
X0269297Y0202474D01*
X0271774Y0201979D02*
X0272765Y0202970D01*
X0273048Y0205234D02*
X0277011Y0205234D01*
X0277507Y0204739D01*
X0275525Y0202757D01*
X0277295Y0200472D02*
X0277295Y0198491D01*
X0275314Y0198491D01*
X0278286Y0195518D01*
X0276517Y0194740D02*
X0276517Y0193749D01*
X0275526Y0192758D01*
X0274535Y0192758D01*
X0273261Y0191484D02*
X0273261Y0190494D01*
X0272271Y0189503D01*
X0271280Y0189503D01*
X0268803Y0191980D01*
X0270784Y0193961D02*
X0273261Y0191484D01*
X0272554Y0194740D02*
X0272554Y0195731D01*
X0273544Y0196722D01*
X0274535Y0196721D01*
X0276517Y0194740D01*
X0280268Y0197500D02*
X0277295Y0200472D01*
X0278781Y0206013D02*
X0276799Y0207995D01*
X0276799Y0209976D01*
X0278781Y0209976D01*
X0280762Y0207995D01*
X0282036Y0209268D02*
X0284018Y0211250D01*
X0281045Y0214222D01*
X0279276Y0209481D02*
X0277294Y0207499D01*
X0274534Y0207711D02*
X0272553Y0205730D01*
X0273048Y0205234D01*
D11*
X0176203Y0110735D02*
X0173655Y0110735D01*
X0174929Y0109461D01*
X0175566Y0109461D01*
X0176203Y0110098D01*
X0176203Y0110735D01*
X0174929Y0112009D01*
X0174292Y0112009D01*
X0173655Y0111372D01*
X0173655Y0110735D01*
X0176057Y0112500D02*
X0177331Y0111226D01*
X0176376Y0112182D02*
X0177649Y0113455D01*
X0177331Y0113774D02*
X0176057Y0113774D01*
X0176057Y0112500D01*
X0177331Y0113774D02*
X0178605Y0112500D01*
X0159646Y0128541D02*
X0158372Y0127268D01*
X0159009Y0127905D02*
X0157099Y0129815D01*
X0158372Y0129815D01*
X0159182Y0130625D02*
X0159182Y0131899D01*
X0160456Y0131899D01*
X0161730Y0130625D01*
X0160774Y0131580D02*
X0159501Y0130307D01*
X0159182Y0130625D02*
X0160456Y0129351D01*
X0151203Y0136348D02*
X0150566Y0135711D01*
X0149929Y0135711D01*
X0149610Y0136030D01*
X0149610Y0136666D01*
X0150566Y0137622D01*
X0151203Y0136985D01*
X0151203Y0136348D01*
X0150566Y0137622D02*
X0149292Y0137622D01*
X0148337Y0137303D01*
X0150739Y0139068D02*
X0150739Y0139705D01*
X0151694Y0140661D01*
X0153605Y0138750D01*
X0152649Y0137795D01*
X0152012Y0137795D01*
X0150739Y0139068D01*
X0143899Y0146545D02*
X0143262Y0146545D01*
X0141989Y0147818D01*
X0141989Y0148455D01*
X0142944Y0149411D01*
X0144855Y0147500D01*
X0143899Y0146545D01*
X0142453Y0145735D02*
X0142453Y0145098D01*
X0141816Y0144461D01*
X0141179Y0144461D01*
X0139905Y0145735D01*
X0139905Y0146372D01*
X0140542Y0147009D01*
X0141179Y0147009D01*
X0141497Y0146690D01*
X0141497Y0146053D01*
X0140542Y0145098D01*
X0125972Y0171982D02*
X0120316Y0177639D01*
X0124095Y0206128D02*
X0122822Y0207401D01*
X0122822Y0208038D01*
X0123777Y0208994D01*
X0125688Y0207083D01*
X0124732Y0206128D01*
X0124095Y0206128D01*
X0126497Y0207893D02*
X0124587Y0209803D01*
X0125860Y0211077D02*
X0126497Y0207893D01*
X0127771Y0209166D02*
X0125860Y0211077D01*
X0126989Y0211568D02*
X0126989Y0212205D01*
X0127626Y0212842D01*
X0128262Y0212842D01*
X0129536Y0211568D01*
X0129536Y0210932D01*
X0128899Y0210295D01*
X0128262Y0210295D01*
X0127626Y0210932D01*
X0128262Y0211568D01*
X0120456Y0217476D02*
X0120456Y0218750D01*
X0120137Y0218432D02*
X0121093Y0219387D01*
X0121730Y0218750D02*
X0119819Y0220661D01*
X0118864Y0219705D01*
X0118864Y0219068D01*
X0119501Y0218432D01*
X0120137Y0218432D01*
X0118691Y0217622D02*
X0117417Y0216348D01*
X0117099Y0216666D02*
X0118372Y0215393D01*
X0117563Y0214583D02*
X0116289Y0214583D01*
X0116289Y0213309D01*
X0114378Y0215220D01*
X0115652Y0216494D02*
X0117563Y0214583D01*
X0117099Y0216666D02*
X0117099Y0217940D01*
X0118372Y0217940D01*
X0119646Y0216666D01*
X0112222Y0218232D02*
X0106566Y0223889D01*
D12*
X0130748Y0163835D02*
X0130918Y0163665D01*
X0139498Y0155085D02*
X0139668Y0154915D01*
X0186373Y0144460D02*
X0186543Y0144290D01*
X0291998Y0187415D02*
X0292168Y0187585D01*
D13*
G36*
X0282507Y0184197D02*
X0283780Y0182924D01*
X0281659Y0180803D01*
X0280386Y0182076D01*
X0282507Y0184197D01*
G37*
D14*
X0217133Y0125049D02*
X0189534Y0125049D01*
X0189534Y0098848D01*
X0190932Y0097451D01*
X0217133Y0097451D01*
X0217133Y0125049D01*
X0191119Y0100450D02*
X0191121Y0100525D01*
X0191127Y0100599D01*
X0191137Y0100673D01*
X0191150Y0100746D01*
X0191168Y0100819D01*
X0191189Y0100890D01*
X0191214Y0100961D01*
X0191243Y0101030D01*
X0191276Y0101097D01*
X0191312Y0101162D01*
X0191351Y0101226D01*
X0191393Y0101287D01*
X0191439Y0101346D01*
X0191488Y0101403D01*
X0191540Y0101456D01*
X0191594Y0101507D01*
X0191651Y0101556D01*
X0191711Y0101600D01*
X0191773Y0101642D01*
X0191837Y0101681D01*
X0191903Y0101716D01*
X0191970Y0101747D01*
X0192040Y0101775D01*
X0192110Y0101799D01*
X0192182Y0101820D01*
X0192255Y0101836D01*
X0192328Y0101849D01*
X0192403Y0101858D01*
X0192477Y0101863D01*
X0192552Y0101864D01*
X0192626Y0101861D01*
X0192701Y0101854D01*
X0192774Y0101843D01*
X0192848Y0101829D01*
X0192920Y0101810D01*
X0192991Y0101788D01*
X0193061Y0101762D01*
X0193130Y0101732D01*
X0193196Y0101699D01*
X0193261Y0101662D01*
X0193324Y0101622D01*
X0193385Y0101578D01*
X0193443Y0101532D01*
X0193499Y0101482D01*
X0193552Y0101430D01*
X0193603Y0101375D01*
X0193650Y0101317D01*
X0193694Y0101257D01*
X0193735Y0101194D01*
X0193773Y0101130D01*
X0193807Y0101064D01*
X0193838Y0100995D01*
X0193865Y0100926D01*
X0193888Y0100855D01*
X0193907Y0100783D01*
X0193923Y0100710D01*
X0193935Y0100636D01*
X0193943Y0100562D01*
X0193947Y0100487D01*
X0193947Y0100413D01*
X0193943Y0100338D01*
X0193935Y0100264D01*
X0193923Y0100190D01*
X0193907Y0100117D01*
X0193888Y0100045D01*
X0193865Y0099974D01*
X0193838Y0099905D01*
X0193807Y0099836D01*
X0193773Y0099770D01*
X0193735Y0099706D01*
X0193694Y0099643D01*
X0193650Y0099583D01*
X0193603Y0099525D01*
X0193552Y0099470D01*
X0193499Y0099418D01*
X0193443Y0099368D01*
X0193385Y0099322D01*
X0193324Y0099278D01*
X0193261Y0099238D01*
X0193196Y0099201D01*
X0193130Y0099168D01*
X0193061Y0099138D01*
X0192991Y0099112D01*
X0192920Y0099090D01*
X0192848Y0099071D01*
X0192774Y0099057D01*
X0192701Y0099046D01*
X0192626Y0099039D01*
X0192552Y0099036D01*
X0192477Y0099037D01*
X0192403Y0099042D01*
X0192328Y0099051D01*
X0192255Y0099064D01*
X0192182Y0099080D01*
X0192110Y0099101D01*
X0192040Y0099125D01*
X0191970Y0099153D01*
X0191903Y0099184D01*
X0191837Y0099219D01*
X0191773Y0099258D01*
X0191711Y0099300D01*
X0191651Y0099344D01*
X0191594Y0099393D01*
X0191540Y0099444D01*
X0191488Y0099497D01*
X0191439Y0099554D01*
X0191393Y0099613D01*
X0191351Y0099674D01*
X0191312Y0099738D01*
X0191276Y0099803D01*
X0191243Y0099870D01*
X0191214Y0099939D01*
X0191189Y0100010D01*
X0191168Y0100081D01*
X0191150Y0100154D01*
X0191137Y0100227D01*
X0191127Y0100301D01*
X0191121Y0100375D01*
X0191119Y0100450D01*
D15*
X0110457Y0202283D03*
M02*
