G75*
%MOIN*%
%OFA0B0*%
%FSLAX25Y25*%
%IPPOS*%
%LPD*%
%AMOC8*
5,1,8,0,0,1.08239X$1,22.5*
%
%ADD10C,0.05800*%
%ADD11R,0.05131X0.04737*%
%ADD12R,0.07099X0.06312*%
%ADD13R,0.05800X0.03000*%
%ADD14R,0.03000X0.05800*%
%ADD15R,0.03800X0.06800*%
%ADD16C,0.02572*%
%ADD17R,0.13760X0.06040*%
%ADD18R,0.10800X0.05800*%
%ADD19R,0.02965X0.05524*%
%ADD20R,0.03556X0.06706*%
%ADD21R,0.04737X0.03162*%
%ADD22R,0.04737X0.03950*%
%ADD23C,0.04343*%
D10*
X0203333Y0081875D03*
X0203333Y0138750D03*
X0100833Y0183750D03*
X0100208Y0240000D03*
X0305833Y0240000D03*
X0305833Y0183750D03*
D11*
G36*
X0294311Y0188622D02*
X0297938Y0184995D01*
X0294589Y0181646D01*
X0290962Y0185273D01*
X0294311Y0188622D01*
G37*
G36*
X0289578Y0193354D02*
X0293205Y0189727D01*
X0289856Y0186378D01*
X0286229Y0190005D01*
X0289578Y0193354D01*
G37*
G36*
X0279578Y0188354D02*
X0283205Y0184727D01*
X0279856Y0181378D01*
X0276229Y0185005D01*
X0279578Y0188354D01*
G37*
G36*
X0284311Y0183622D02*
X0287938Y0179995D01*
X0284589Y0176646D01*
X0280962Y0180273D01*
X0284311Y0183622D01*
G37*
G36*
X0185337Y0146602D02*
X0188964Y0150229D01*
X0192313Y0146880D01*
X0188686Y0143253D01*
X0185337Y0146602D01*
G37*
G36*
X0180604Y0141870D02*
X0184231Y0145497D01*
X0187580Y0142148D01*
X0183953Y0138521D01*
X0180604Y0141870D01*
G37*
G36*
X0145438Y0157505D02*
X0141811Y0153878D01*
X0138462Y0157227D01*
X0142089Y0160854D01*
X0145438Y0157505D01*
G37*
G36*
X0140705Y0152773D02*
X0137078Y0149146D01*
X0133729Y0152495D01*
X0137356Y0156122D01*
X0140705Y0152773D01*
G37*
G36*
X0124979Y0161245D02*
X0128606Y0164872D01*
X0131955Y0161523D01*
X0128328Y0157896D01*
X0124979Y0161245D01*
G37*
G36*
X0129712Y0165977D02*
X0133339Y0169604D01*
X0136688Y0166255D01*
X0133061Y0162628D01*
X0129712Y0165977D01*
G37*
D12*
G36*
X0118463Y0165112D02*
X0113445Y0170130D01*
X0117909Y0174594D01*
X0122927Y0169576D01*
X0118463Y0165112D01*
G37*
G36*
X0126258Y0172906D02*
X0121240Y0177924D01*
X0125704Y0182388D01*
X0130722Y0177370D01*
X0126258Y0172906D01*
G37*
G36*
X0104713Y0211362D02*
X0099695Y0216380D01*
X0104159Y0220844D01*
X0109177Y0215826D01*
X0104713Y0211362D01*
G37*
G36*
X0112508Y0219156D02*
X0107490Y0224174D01*
X0111954Y0228638D01*
X0116972Y0223620D01*
X0112508Y0219156D01*
G37*
D13*
X0186433Y0100226D03*
X0186433Y0103376D03*
X0186433Y0106526D03*
X0186433Y0109675D03*
X0186433Y0112825D03*
X0186433Y0115974D03*
X0186433Y0119124D03*
X0186433Y0122274D03*
X0220233Y0122274D03*
X0220233Y0119124D03*
X0220233Y0115974D03*
X0220233Y0112825D03*
X0220233Y0109675D03*
X0220233Y0106526D03*
X0220233Y0103376D03*
X0220233Y0100226D03*
D14*
X0214357Y0094350D03*
X0211207Y0094350D03*
X0208058Y0094350D03*
X0204908Y0094350D03*
X0201759Y0094350D03*
X0198609Y0094350D03*
X0195459Y0094350D03*
X0192310Y0094350D03*
X0192310Y0128150D03*
X0195459Y0128150D03*
X0198609Y0128150D03*
X0201759Y0128150D03*
X0204908Y0128150D03*
X0208058Y0128150D03*
X0211207Y0128150D03*
X0214357Y0128150D03*
D15*
G36*
X0246673Y0150047D02*
X0243986Y0152734D01*
X0248793Y0157541D01*
X0251480Y0154854D01*
X0246673Y0150047D01*
G37*
G36*
X0236067Y0160653D02*
X0233380Y0163340D01*
X0238187Y0168147D01*
X0240874Y0165460D01*
X0236067Y0160653D01*
G37*
G36*
X0262230Y0165603D02*
X0259543Y0168290D01*
X0264350Y0173097D01*
X0267037Y0170410D01*
X0262230Y0165603D01*
G37*
G36*
X0251623Y0176209D02*
X0248936Y0178896D01*
X0253743Y0183703D01*
X0256430Y0181016D01*
X0251623Y0176209D01*
G37*
D16*
X0181199Y0132434D02*
X0177149Y0128384D01*
X0173808Y0131725D02*
X0177858Y0135775D01*
X0174518Y0139116D02*
X0170468Y0135066D01*
D17*
G36*
X0178562Y0126764D02*
X0168833Y0136493D01*
X0173104Y0140764D01*
X0182833Y0131035D01*
X0178562Y0126764D01*
G37*
D18*
G36*
X0157465Y0123233D02*
X0165100Y0130868D01*
X0169201Y0126767D01*
X0161566Y0119132D01*
X0157465Y0123233D01*
G37*
G36*
X0148715Y0131983D02*
X0156350Y0139618D01*
X0160451Y0135517D01*
X0152816Y0127882D01*
X0148715Y0131983D01*
G37*
G36*
X0139965Y0140733D02*
X0147600Y0148368D01*
X0151701Y0144267D01*
X0144066Y0136632D01*
X0139965Y0140733D01*
G37*
G36*
X0166215Y0114483D02*
X0173850Y0122118D01*
X0177951Y0118017D01*
X0170316Y0110382D01*
X0166215Y0114483D01*
G37*
G36*
X0252816Y0140868D02*
X0260451Y0133233D01*
X0256350Y0129132D01*
X0248715Y0136767D01*
X0252816Y0140868D01*
G37*
G36*
X0260316Y0148368D02*
X0267951Y0140733D01*
X0263850Y0136632D01*
X0256215Y0144267D01*
X0260316Y0148368D01*
G37*
G36*
X0267816Y0155868D02*
X0275451Y0148233D01*
X0271350Y0144132D01*
X0263715Y0151767D01*
X0267816Y0155868D01*
G37*
G36*
X0275316Y0163368D02*
X0282951Y0155733D01*
X0278850Y0151632D01*
X0271215Y0159267D01*
X0275316Y0163368D01*
G37*
G36*
X0282816Y0170868D02*
X0290451Y0163233D01*
X0286350Y0159132D01*
X0278715Y0166767D01*
X0282816Y0170868D01*
G37*
G36*
X0290316Y0178368D02*
X0297951Y0170733D01*
X0293850Y0166632D01*
X0286215Y0174267D01*
X0290316Y0178368D01*
G37*
X0303333Y0193750D03*
X0303333Y0201250D03*
X0303333Y0208750D03*
X0303333Y0216250D03*
X0303333Y0223750D03*
X0303333Y0231250D03*
G36*
X0123715Y0204483D02*
X0131350Y0212118D01*
X0135451Y0208017D01*
X0127816Y0200382D01*
X0123715Y0204483D01*
G37*
G36*
X0116215Y0211983D02*
X0123850Y0219618D01*
X0127951Y0215517D01*
X0120316Y0207882D01*
X0116215Y0211983D01*
G37*
D19*
G36*
X0112153Y0198264D02*
X0110058Y0200359D01*
X0113963Y0204264D01*
X0116058Y0202169D01*
X0112153Y0198264D01*
G37*
G36*
X0114798Y0195619D02*
X0112703Y0197714D01*
X0116608Y0201619D01*
X0118703Y0199524D01*
X0114798Y0195619D01*
G37*
G36*
X0117442Y0192975D02*
X0115347Y0195070D01*
X0119252Y0198975D01*
X0121347Y0196880D01*
X0117442Y0192975D01*
G37*
G36*
X0110204Y0185736D02*
X0108109Y0187831D01*
X0112014Y0191736D01*
X0114109Y0189641D01*
X0110204Y0185736D01*
G37*
G36*
X0104914Y0191025D02*
X0102819Y0193120D01*
X0106724Y0197025D01*
X0108819Y0194930D01*
X0104914Y0191025D01*
G37*
D20*
G36*
X0136710Y0185889D02*
X0134195Y0188404D01*
X0138936Y0193145D01*
X0141451Y0190630D01*
X0136710Y0185889D01*
G37*
G36*
X0145061Y0177537D02*
X0142546Y0180052D01*
X0147287Y0184793D01*
X0149802Y0182278D01*
X0145061Y0177537D01*
G37*
G36*
X0149237Y0173361D02*
X0146722Y0175876D01*
X0151463Y0180617D01*
X0153978Y0178102D01*
X0149237Y0173361D01*
G37*
D21*
G36*
X0161347Y0183540D02*
X0164695Y0180192D01*
X0162459Y0177956D01*
X0159111Y0181304D01*
X0161347Y0183540D01*
G37*
G36*
X0141025Y0203862D02*
X0144373Y0200514D01*
X0142137Y0198278D01*
X0138789Y0201626D01*
X0141025Y0203862D01*
G37*
D22*
G36*
X0135458Y0198294D02*
X0138805Y0194947D01*
X0136012Y0192154D01*
X0132665Y0195501D01*
X0135458Y0198294D01*
G37*
G36*
X0155780Y0177972D02*
X0159127Y0174625D01*
X0156334Y0171832D01*
X0152987Y0175179D01*
X0155780Y0177972D01*
G37*
D23*
X0153134Y0183949D03*
X0144783Y0192301D03*
M02*
