%
M48
M72
T01C0.0200
T02C0.0354
T03C0.0500
%
T01
X19633Y10475
X20183Y10025
X20533Y10875
X21433Y11275
X21433Y10275
X19833Y8875
X23183Y11625
X22583Y12225
X22383Y12825
X21883Y12825
X21133Y13375
X19533Y13375
X19033Y13725
X19283Y12225
X19233Y11725
X16833Y12175
X16483Y11775
X16083Y13925
X15183Y14825
X14833Y16750
X13458Y18250
X23183Y14225
X23183Y13725
X23883Y13725
X24833Y13325
X23533Y12425
X25583Y14775
X26333Y15525
X27083Y16275
X27583Y18125
X29183Y20225
X29183Y21075
X29533Y21475
X23946Y15925
T02
X15313Y18395
X14478Y19230
T03
X10083Y18375
X10021Y24000
X20333Y13875
X20333Y8188
X30583Y18375
X30583Y24000
M30
