G75*
%MOIN*%
%OFA0B0*%
%FSLAX25Y25*%
%IPPOS*%
%LPD*%
%AMOC8*
5,1,8,0,0,1.08239X$1,22.5*
%
%ADD10C,0.01000*%
%ADD11C,0.04000*%
D10*
X0164833Y0117750D02*
X0187833Y0094750D01*
X0204333Y0094750D01*
X0212333Y0102750D01*
X0214333Y0102750D01*
X0214333Y0107750D02*
X0203333Y0096750D01*
X0200333Y0096750D01*
X0198333Y0098750D01*
X0198333Y0101750D01*
X0199833Y0103250D01*
X0199833Y0134250D01*
X0196833Y0137250D01*
X0190333Y0137250D01*
X0195333Y0133750D02*
X0166333Y0133750D01*
X0160833Y0139250D01*
X0163333Y0131750D02*
X0151833Y0143250D01*
X0151833Y0148250D01*
X0148333Y0143750D02*
X0166833Y0125250D01*
X0184333Y0125250D01*
X0192333Y0117250D01*
X0192833Y0122250D02*
X0190333Y0122250D01*
X0180833Y0131750D01*
X0163333Y0131750D01*
X0168333Y0121750D02*
X0185333Y0104750D01*
X0196333Y0104750D01*
X0201833Y0100250D02*
X0201833Y0129750D01*
X0232583Y0160500D01*
X0238208Y0160500D01*
X0239458Y0159250D01*
X0255833Y0147750D02*
X0255833Y0135750D01*
X0249833Y0129750D01*
X0246833Y0129750D01*
X0244833Y0131750D01*
X0222333Y0131750D01*
X0218833Y0128250D01*
X0223833Y0128250D02*
X0231333Y0128250D01*
X0232833Y0129750D01*
X0243833Y0129750D01*
X0245833Y0127750D01*
X0250833Y0127750D01*
X0263333Y0140250D01*
X0263333Y0155250D01*
X0270833Y0162750D02*
X0270833Y0144750D01*
X0251833Y0125750D01*
X0244833Y0125750D01*
X0242833Y0127750D01*
X0233833Y0127750D01*
X0228333Y0122250D01*
X0225833Y0122250D01*
X0235333Y0124250D02*
X0235333Y0114750D01*
X0209333Y0088750D01*
X0198333Y0088750D01*
X0205333Y0108750D02*
X0212833Y0116250D01*
X0231833Y0116250D01*
X0214333Y0112750D02*
X0214333Y0107750D01*
X0211333Y0133750D02*
X0247833Y0133750D01*
X0248333Y0133250D01*
X0238833Y0137250D02*
X0238833Y0139250D01*
X0298833Y0199250D01*
X0298833Y0216250D01*
X0296833Y0218250D01*
X0293833Y0218250D01*
X0291833Y0216250D01*
X0291833Y0210750D01*
X0295333Y0214750D02*
X0295333Y0200750D01*
X0275833Y0181250D01*
X0231833Y0137250D01*
X0231833Y0142250D02*
X0291833Y0202250D01*
X0148333Y0167500D02*
X0148333Y0143750D01*
X0148333Y0167500D02*
X0134583Y0181250D01*
X0134583Y0182500D01*
D11*
X0134583Y0182500D03*
X0148333Y0167500D03*
X0151833Y0148250D03*
X0160833Y0139250D03*
X0168333Y0121750D03*
X0164833Y0117750D03*
X0192333Y0117250D03*
X0192833Y0122250D03*
X0195333Y0133750D03*
X0190333Y0137250D03*
X0211333Y0133750D03*
X0218833Y0128250D03*
X0223833Y0128250D03*
X0225833Y0122250D03*
X0235333Y0124250D03*
X0248333Y0133250D03*
X0238833Y0137250D03*
X0231833Y0137250D03*
X0231833Y0142250D03*
X0239458Y0159250D03*
X0255833Y0147750D03*
X0263333Y0155250D03*
X0270833Y0162750D03*
X0275833Y0181250D03*
X0291833Y0202250D03*
X0291833Y0210750D03*
X0295333Y0214750D03*
X0231833Y0116250D03*
X0214333Y0112750D03*
X0205333Y0108750D03*
X0196333Y0104750D03*
X0201833Y0100250D03*
X0214333Y0102750D03*
X0198333Y0088750D03*
M02*
