G75*
%MOIN*%
%OFA0B0*%
%FSLAX25Y25*%
%IPPOS*%
%LPD*%
%AMOC8*
5,1,8,0,0,1.08239X$1,22.5*
%
%ADD10R,0.04331X0.03937*%
%ADD11R,0.06299X0.05512*%
%ADD12R,0.05000X0.02200*%
%ADD13R,0.02200X0.05000*%
%ADD14R,0.03000X0.06000*%
%ADD15C,0.01772*%
%ADD16C,0.01000*%
%ADD17R,0.10000X0.05000*%
%ADD18R,0.02165X0.04724*%
%ADD19R,0.02756X0.05906*%
%ADD20R,0.03937X0.02362*%
%ADD21R,0.03937X0.03150*%
%ADD22C,0.04000*%
D10*
G36*
X0181170Y0141870D02*
X0184231Y0144931D01*
X0187014Y0142148D01*
X0183953Y0139087D01*
X0181170Y0141870D01*
G37*
G36*
X0185903Y0146602D02*
X0188964Y0149663D01*
X0191747Y0146880D01*
X0188686Y0143819D01*
X0185903Y0146602D01*
G37*
G36*
X0144872Y0157505D02*
X0141811Y0154444D01*
X0139028Y0157227D01*
X0142089Y0160288D01*
X0144872Y0157505D01*
G37*
G36*
X0140139Y0152773D02*
X0137078Y0149712D01*
X0134295Y0152495D01*
X0137356Y0155556D01*
X0140139Y0152773D01*
G37*
G36*
X0125545Y0161245D02*
X0128606Y0164306D01*
X0131389Y0161523D01*
X0128328Y0158462D01*
X0125545Y0161245D01*
G37*
G36*
X0130278Y0165977D02*
X0133339Y0169038D01*
X0136122Y0166255D01*
X0133061Y0163194D01*
X0130278Y0165977D01*
G37*
G36*
X0279578Y0187788D02*
X0282639Y0184727D01*
X0279856Y0181944D01*
X0276795Y0185005D01*
X0279578Y0187788D01*
G37*
G36*
X0289578Y0192788D02*
X0292639Y0189727D01*
X0289856Y0186944D01*
X0286795Y0190005D01*
X0289578Y0192788D01*
G37*
G36*
X0294311Y0188056D02*
X0297372Y0184995D01*
X0294589Y0182212D01*
X0291528Y0185273D01*
X0294311Y0188056D01*
G37*
G36*
X0284311Y0183056D02*
X0287372Y0179995D01*
X0284589Y0177212D01*
X0281528Y0180273D01*
X0284311Y0183056D01*
G37*
D11*
G36*
X0126258Y0173472D02*
X0121806Y0177924D01*
X0125704Y0181822D01*
X0130156Y0177370D01*
X0126258Y0173472D01*
G37*
G36*
X0118463Y0165678D02*
X0114011Y0170130D01*
X0117909Y0174028D01*
X0122361Y0169576D01*
X0118463Y0165678D01*
G37*
G36*
X0104713Y0211928D02*
X0100261Y0216380D01*
X0104159Y0220278D01*
X0108611Y0215826D01*
X0104713Y0211928D01*
G37*
G36*
X0112508Y0219722D02*
X0108056Y0224174D01*
X0111954Y0228072D01*
X0116406Y0223620D01*
X0112508Y0219722D01*
G37*
D12*
X0186433Y0122274D03*
X0186433Y0119124D03*
X0186433Y0115974D03*
X0186433Y0112825D03*
X0186433Y0109675D03*
X0186433Y0106526D03*
X0186433Y0103376D03*
X0186433Y0100226D03*
X0220233Y0100226D03*
X0220233Y0103376D03*
X0220233Y0106526D03*
X0220233Y0109675D03*
X0220233Y0112825D03*
X0220233Y0115974D03*
X0220233Y0119124D03*
X0220233Y0122274D03*
D13*
X0214357Y0128150D03*
X0211207Y0128150D03*
X0208058Y0128150D03*
X0204908Y0128150D03*
X0201759Y0128150D03*
X0198609Y0128150D03*
X0195459Y0128150D03*
X0192310Y0128150D03*
X0192310Y0094350D03*
X0195459Y0094350D03*
X0198609Y0094350D03*
X0201759Y0094350D03*
X0204908Y0094350D03*
X0208058Y0094350D03*
X0211207Y0094350D03*
X0214357Y0094350D03*
D14*
G36*
X0246673Y0150613D02*
X0244552Y0152734D01*
X0248793Y0156975D01*
X0250914Y0154854D01*
X0246673Y0150613D01*
G37*
G36*
X0236067Y0161219D02*
X0233946Y0163340D01*
X0238187Y0167581D01*
X0240308Y0165460D01*
X0236067Y0161219D01*
G37*
G36*
X0262230Y0166169D02*
X0260109Y0168290D01*
X0264350Y0172531D01*
X0266471Y0170410D01*
X0262230Y0166169D01*
G37*
G36*
X0251623Y0176775D02*
X0249502Y0178896D01*
X0253743Y0183137D01*
X0255864Y0181016D01*
X0251623Y0176775D01*
G37*
D15*
X0181199Y0132434D02*
X0177149Y0128384D01*
X0173808Y0131725D02*
X0177858Y0135775D01*
X0174518Y0139116D02*
X0170468Y0135066D01*
D16*
X0174336Y0105717D02*
X0182433Y0105717D01*
X0182433Y0105228D02*
X0182536Y0104847D01*
X0182633Y0104677D01*
X0182633Y0098588D01*
X0183395Y0097826D01*
X0189472Y0097826D01*
X0190233Y0098588D01*
X0190233Y0104677D01*
X0190331Y0104847D01*
X0190433Y0105228D01*
X0190433Y0106476D01*
X0186483Y0106476D01*
X0186483Y0106576D01*
X0190433Y0106576D01*
X0190433Y0107675D01*
X0191430Y0107675D01*
X0190833Y0107078D01*
X0190833Y0102422D01*
X0192005Y0101250D01*
X0192833Y0100422D01*
X0192833Y0100422D01*
X0194005Y0099250D01*
X0194505Y0099250D01*
X0195605Y0098150D01*
X0190671Y0098150D01*
X0189910Y0097388D01*
X0189910Y0091312D01*
X0190671Y0090550D01*
X0193705Y0090550D01*
X0194833Y0089422D01*
X0194833Y0088054D01*
X0195366Y0086767D01*
X0196351Y0085783D01*
X0197637Y0085250D01*
X0199030Y0085250D01*
X0200316Y0085783D01*
X0201300Y0086767D01*
X0201833Y0088054D01*
X0201833Y0089446D01*
X0201376Y0090550D01*
X0215995Y0090550D01*
X0216757Y0091312D01*
X0216757Y0096750D01*
X0217287Y0096750D01*
X0217912Y0097375D01*
X0218537Y0097375D01*
X0218988Y0097826D01*
X0223272Y0097826D01*
X0224033Y0098588D01*
X0224033Y0107827D01*
X0224131Y0107996D01*
X0224233Y0108378D01*
X0224233Y0109625D01*
X0220283Y0109625D01*
X0220283Y0109725D01*
X0224233Y0109725D01*
X0224233Y0110973D01*
X0224131Y0111354D01*
X0224033Y0111523D01*
X0224033Y0116750D01*
X0228162Y0116750D01*
X0228333Y0116922D01*
X0228333Y0115554D01*
X0228866Y0114267D01*
X0229851Y0113283D01*
X0231137Y0112750D01*
X0232530Y0112750D01*
X0233816Y0113283D01*
X0234800Y0114267D01*
X0235333Y0115554D01*
X0235333Y0116922D01*
X0237162Y0118750D01*
X0237662Y0118750D01*
X0239662Y0120750D01*
X0240833Y0121922D01*
X0240833Y0134300D01*
X0241800Y0135267D01*
X0242333Y0136554D01*
X0242333Y0137946D01*
X0241800Y0139233D01*
X0240816Y0140217D01*
X0239530Y0140750D01*
X0238137Y0140750D01*
X0236851Y0140217D01*
X0236773Y0140139D01*
X0235333Y0141578D01*
X0235333Y0142946D01*
X0234800Y0144233D01*
X0233816Y0145217D01*
X0232530Y0145750D01*
X0231137Y0145750D01*
X0229851Y0145217D01*
X0228866Y0144233D01*
X0228333Y0142946D01*
X0228333Y0141554D01*
X0228866Y0140267D01*
X0229384Y0139750D01*
X0228866Y0139233D01*
X0228333Y0137946D01*
X0228333Y0136554D01*
X0228866Y0135267D01*
X0229833Y0134300D01*
X0229833Y0124078D01*
X0229148Y0123393D01*
X0228800Y0124233D01*
X0227816Y0125217D01*
X0226530Y0125750D01*
X0226283Y0125750D01*
X0226800Y0126267D01*
X0227333Y0127554D01*
X0227333Y0128946D01*
X0226800Y0130233D01*
X0225816Y0131217D01*
X0224530Y0131750D01*
X0223137Y0131750D01*
X0221851Y0131217D01*
X0221333Y0130700D01*
X0220816Y0131217D01*
X0219530Y0131750D01*
X0218137Y0131750D01*
X0216851Y0131217D01*
X0216757Y0131123D01*
X0216757Y0131188D01*
X0215995Y0131950D01*
X0214376Y0131950D01*
X0214833Y0133054D01*
X0214833Y0134446D01*
X0214300Y0135733D01*
X0213316Y0136717D01*
X0212030Y0137250D01*
X0210637Y0137250D01*
X0209351Y0136717D01*
X0208366Y0135733D01*
X0208104Y0135099D01*
X0206958Y0133953D01*
X0206058Y0133053D01*
X0206058Y0131950D01*
X0198376Y0131950D01*
X0198833Y0133054D01*
X0198833Y0134446D01*
X0198300Y0135733D01*
X0197316Y0136717D01*
X0196030Y0137250D01*
X0194637Y0137250D01*
X0193833Y0136917D01*
X0193833Y0137946D01*
X0193300Y0139233D01*
X0192316Y0140217D01*
X0191030Y0140750D01*
X0189637Y0140750D01*
X0188606Y0140323D01*
X0187817Y0141112D01*
X0188315Y0141609D01*
X0188315Y0142365D01*
X0188488Y0142318D01*
X0188883Y0142318D01*
X0189264Y0142420D01*
X0189606Y0142618D01*
X0190935Y0143946D01*
X0188825Y0146056D01*
X0189510Y0146741D01*
X0191620Y0144631D01*
X0192948Y0145959D01*
X0193145Y0146302D01*
X0193248Y0146683D01*
X0193248Y0147078D01*
X0193145Y0147459D01*
X0192948Y0147802D01*
X0191759Y0148991D01*
X0189510Y0146741D01*
X0188825Y0147426D01*
X0191074Y0149675D01*
X0189885Y0150865D01*
X0189543Y0151062D01*
X0189161Y0151164D01*
X0188766Y0151164D01*
X0188385Y0151062D01*
X0188043Y0150865D01*
X0186714Y0149536D01*
X0188825Y0147426D01*
X0188140Y0146741D01*
X0186030Y0148851D01*
X0184701Y0147523D01*
X0184504Y0147181D01*
X0184402Y0146800D01*
X0184402Y0146405D01*
X0184448Y0146232D01*
X0183693Y0146232D01*
X0179869Y0142408D01*
X0179869Y0141331D01*
X0183414Y0137786D01*
X0184491Y0137786D01*
X0184989Y0138283D01*
X0186851Y0136422D01*
X0186915Y0136358D01*
X0187366Y0135267D01*
X0188351Y0134283D01*
X0189637Y0133750D01*
X0191030Y0133750D01*
X0191833Y0134083D01*
X0191833Y0133054D01*
X0192291Y0131950D01*
X0190671Y0131950D01*
X0189910Y0131188D01*
X0189910Y0125112D01*
X0190327Y0124694D01*
X0189890Y0124256D01*
X0189472Y0124674D01*
X0183395Y0124674D01*
X0182995Y0124274D01*
X0180638Y0124274D01*
X0178384Y0126528D01*
X0183385Y0131529D01*
X0183385Y0132075D01*
X0183802Y0132492D01*
X0183802Y0133983D01*
X0182748Y0135038D01*
X0181257Y0135038D01*
X0180840Y0134620D01*
X0180294Y0134620D01*
X0175173Y0129500D01*
X0175005Y0129500D01*
X0173833Y0128328D01*
X0173833Y0127328D01*
X0171583Y0129578D01*
X0171583Y0130861D01*
X0171694Y0130595D01*
X0171955Y0130204D01*
X0172121Y0130038D01*
X0175833Y0133750D01*
X0174146Y0135437D01*
X0171955Y0133246D01*
X0171694Y0132855D01*
X0171583Y0132588D01*
X0171583Y0132922D01*
X0173321Y0134659D01*
X0174493Y0135831D01*
X0174493Y0135999D01*
X0176704Y0138211D01*
X0176704Y0138756D01*
X0177121Y0139173D01*
X0177121Y0140665D01*
X0176067Y0141719D01*
X0174576Y0141719D01*
X0174158Y0141302D01*
X0173613Y0141302D01*
X0168282Y0135971D01*
X0168282Y0135425D01*
X0167864Y0135008D01*
X0167864Y0134859D01*
X0167583Y0134578D01*
X0167583Y0129660D01*
X0165640Y0131603D01*
X0164563Y0131603D01*
X0156730Y0123771D01*
X0156730Y0123323D01*
X0152906Y0127147D01*
X0153354Y0127147D01*
X0161187Y0134979D01*
X0161187Y0135750D01*
X0161530Y0135750D01*
X0162816Y0136283D01*
X0163800Y0137267D01*
X0164333Y0138554D01*
X0164333Y0139946D01*
X0163800Y0141233D01*
X0162816Y0142217D01*
X0161530Y0142750D01*
X0160137Y0142750D01*
X0158851Y0142217D01*
X0157866Y0141233D01*
X0157333Y0139946D01*
X0157333Y0139910D01*
X0156890Y0140353D01*
X0155813Y0140353D01*
X0147980Y0132521D01*
X0147980Y0132073D01*
X0144156Y0135897D01*
X0144604Y0135897D01*
X0152437Y0143729D01*
X0152437Y0144750D01*
X0152530Y0144750D01*
X0153816Y0145283D01*
X0154800Y0146267D01*
X0155333Y0147554D01*
X0155333Y0148946D01*
X0154800Y0150233D01*
X0153816Y0151217D01*
X0152530Y0151750D01*
X0151137Y0151750D01*
X0149851Y0151217D01*
X0148866Y0150233D01*
X0148333Y0148946D01*
X0148333Y0148910D01*
X0148140Y0149103D01*
X0147063Y0149103D01*
X0139230Y0141271D01*
X0139230Y0140823D01*
X0100103Y0179950D01*
X0101589Y0179950D01*
X0102986Y0180529D01*
X0104055Y0181597D01*
X0104633Y0182994D01*
X0104633Y0183372D01*
X0111333Y0176672D01*
X0112505Y0175500D01*
X0117604Y0175500D01*
X0117329Y0175426D01*
X0116986Y0175229D01*
X0115252Y0173494D01*
X0118186Y0170560D01*
X0120842Y0173215D01*
X0118829Y0175229D01*
X0118486Y0175426D01*
X0118211Y0175500D01*
X0122392Y0175500D01*
X0125721Y0172172D01*
X0126798Y0172172D01*
X0127713Y0173087D01*
X0127878Y0172922D01*
X0129050Y0171750D01*
X0135083Y0171750D01*
X0135083Y0170828D01*
X0134236Y0169981D01*
X0133877Y0170339D01*
X0132800Y0170339D01*
X0128977Y0166516D01*
X0128977Y0165760D01*
X0128804Y0165807D01*
X0128409Y0165807D01*
X0128027Y0165705D01*
X0127685Y0165507D01*
X0126357Y0164179D01*
X0128467Y0162069D01*
X0127782Y0161384D01*
X0125672Y0163494D01*
X0124344Y0162166D01*
X0124146Y0161823D01*
X0124044Y0161442D01*
X0124044Y0161047D01*
X0124146Y0160666D01*
X0124344Y0160323D01*
X0125533Y0159134D01*
X0127782Y0161384D01*
X0128467Y0160699D01*
X0129152Y0161384D01*
X0131262Y0159274D01*
X0132590Y0160602D01*
X0132788Y0160944D01*
X0132890Y0161325D01*
X0132890Y0161720D01*
X0132844Y0161893D01*
X0133599Y0161893D01*
X0137423Y0165717D01*
X0137423Y0166794D01*
X0137064Y0167152D01*
X0137912Y0168000D01*
X0139083Y0169172D01*
X0139083Y0171750D01*
X0139588Y0171750D01*
X0140759Y0172922D01*
X0144641Y0176803D01*
X0145599Y0176803D01*
X0150537Y0181740D01*
X0150537Y0182203D01*
X0151388Y0181352D01*
X0150925Y0181352D01*
X0145988Y0176414D01*
X0145988Y0175337D01*
X0148698Y0172627D01*
X0149775Y0172627D01*
X0152252Y0175104D01*
X0152252Y0174641D01*
X0155797Y0171096D01*
X0156874Y0171096D01*
X0159863Y0174085D01*
X0159863Y0175162D01*
X0156317Y0178707D01*
X0155240Y0178707D01*
X0154713Y0178179D01*
X0154713Y0178641D01*
X0152443Y0180911D01*
X0152523Y0180878D01*
X0153745Y0180878D01*
X0154874Y0181345D01*
X0155738Y0182209D01*
X0156206Y0183338D01*
X0156206Y0184560D01*
X0155738Y0185689D01*
X0154874Y0186553D01*
X0153745Y0187021D01*
X0152523Y0187021D01*
X0151394Y0186553D01*
X0150530Y0185689D01*
X0150063Y0184560D01*
X0150063Y0183338D01*
X0150096Y0183258D01*
X0147826Y0185528D01*
X0146750Y0185528D01*
X0141812Y0180590D01*
X0141812Y0179631D01*
X0137931Y0175750D01*
X0130707Y0175750D01*
X0130541Y0175915D01*
X0131457Y0176831D01*
X0131457Y0177908D01*
X0126241Y0183123D01*
X0125164Y0183123D01*
X0121541Y0179500D01*
X0114162Y0179500D01*
X0105333Y0188328D01*
X0105333Y0190289D01*
X0105453Y0190289D01*
X0109555Y0194392D01*
X0109555Y0195469D01*
X0107263Y0197761D01*
X0106186Y0197761D01*
X0102083Y0193659D01*
X0102083Y0193118D01*
X0101333Y0192368D01*
X0101333Y0187550D01*
X0100077Y0187550D01*
X0098681Y0186971D01*
X0097933Y0186224D01*
X0097933Y0236901D01*
X0098056Y0236779D01*
X0099452Y0236200D01*
X0100964Y0236200D01*
X0102361Y0236779D01*
X0103430Y0237847D01*
X0104008Y0239244D01*
X0104008Y0240105D01*
X0123760Y0220353D01*
X0123313Y0220353D01*
X0120958Y0217999D01*
X0116791Y0222165D01*
X0117707Y0223081D01*
X0117707Y0224158D01*
X0112491Y0229373D01*
X0111414Y0229373D01*
X0106755Y0224714D01*
X0106755Y0223637D01*
X0111971Y0218422D01*
X0113048Y0218422D01*
X0113963Y0219337D01*
X0118130Y0215170D01*
X0115480Y0212521D01*
X0115480Y0211444D01*
X0116214Y0210709D01*
X0115083Y0209578D01*
X0115083Y0207078D01*
X0111058Y0203053D01*
X0111058Y0202634D01*
X0109322Y0200898D01*
X0109322Y0199821D01*
X0111615Y0197528D01*
X0111767Y0197528D01*
X0111767Y0197517D01*
X0111869Y0197136D01*
X0112066Y0196794D01*
X0112942Y0195918D01*
X0115644Y0198619D01*
X0115703Y0198561D01*
X0113001Y0195859D01*
X0113877Y0194983D01*
X0114219Y0194786D01*
X0114600Y0194683D01*
X0114611Y0194683D01*
X0114611Y0194531D01*
X0116904Y0192239D01*
X0117981Y0192239D01*
X0119717Y0193975D01*
X0120136Y0193975D01*
X0122912Y0196750D01*
X0124083Y0197922D01*
X0124083Y0202078D01*
X0119083Y0207078D01*
X0119083Y0207840D01*
X0119777Y0207147D01*
X0120854Y0207147D01*
X0128687Y0214979D01*
X0128687Y0215427D01*
X0131080Y0213034D01*
X0130772Y0212951D01*
X0130430Y0212754D01*
X0127108Y0209432D01*
X0129583Y0206957D01*
X0128876Y0206250D01*
X0129583Y0205543D01*
X0125341Y0201300D01*
X0126895Y0199746D01*
X0127237Y0199549D01*
X0127618Y0199447D01*
X0128013Y0199447D01*
X0128395Y0199549D01*
X0128737Y0199746D01*
X0132058Y0203068D01*
X0129583Y0205543D01*
X0130290Y0206250D01*
X0132765Y0203775D01*
X0136087Y0207097D01*
X0136284Y0207439D01*
X0136367Y0207747D01*
X0140001Y0204112D01*
X0138054Y0202165D01*
X0138054Y0201088D01*
X0141599Y0197543D01*
X0142676Y0197543D01*
X0144623Y0199490D01*
X0160323Y0183790D01*
X0158376Y0181843D01*
X0158376Y0180766D01*
X0161922Y0177221D01*
X0162999Y0177221D01*
X0164946Y0179168D01*
X0201860Y0142253D01*
X0201181Y0141971D01*
X0200112Y0140903D01*
X0199533Y0139506D01*
X0199533Y0137994D01*
X0200112Y0136597D01*
X0201181Y0135529D01*
X0202577Y0134950D01*
X0204089Y0134950D01*
X0205486Y0135529D01*
X0206555Y0136597D01*
X0207133Y0137994D01*
X0207133Y0139506D01*
X0206555Y0140903D01*
X0205486Y0141971D01*
X0204806Y0142253D01*
X0205433Y0142880D01*
X0297009Y0234455D01*
X0296936Y0234329D01*
X0296833Y0233947D01*
X0296833Y0231750D01*
X0302833Y0231750D01*
X0302833Y0230750D01*
X0296833Y0230750D01*
X0296833Y0228553D01*
X0296936Y0228171D01*
X0297133Y0227829D01*
X0297412Y0227550D01*
X0297498Y0227500D01*
X0297412Y0227450D01*
X0297133Y0227171D01*
X0296936Y0226829D01*
X0296833Y0226447D01*
X0296833Y0224250D01*
X0302833Y0224250D01*
X0302833Y0223250D01*
X0296833Y0223250D01*
X0296833Y0221053D01*
X0296936Y0220671D01*
X0297133Y0220329D01*
X0297412Y0220050D01*
X0297655Y0219910D01*
X0297033Y0219288D01*
X0297033Y0218250D01*
X0294637Y0218250D01*
X0293351Y0217717D01*
X0292366Y0216733D01*
X0291833Y0215446D01*
X0291833Y0214250D01*
X0291137Y0214250D01*
X0289851Y0213717D01*
X0288866Y0212733D01*
X0288333Y0211446D01*
X0288333Y0210054D01*
X0288866Y0208767D01*
X0289851Y0207783D01*
X0291137Y0207250D01*
X0292530Y0207250D01*
X0293816Y0207783D01*
X0294394Y0208361D01*
X0294833Y0207922D01*
X0296005Y0206750D01*
X0297033Y0206750D01*
X0297033Y0205712D01*
X0297745Y0205000D01*
X0297033Y0204288D01*
X0297033Y0204250D01*
X0294783Y0204250D01*
X0293816Y0205217D01*
X0292530Y0205750D01*
X0291137Y0205750D01*
X0289851Y0205217D01*
X0288866Y0204233D01*
X0288333Y0202946D01*
X0288333Y0201554D01*
X0288866Y0200267D01*
X0289851Y0199283D01*
X0291137Y0198750D01*
X0292530Y0198750D01*
X0293816Y0199283D01*
X0294783Y0200250D01*
X0297033Y0200250D01*
X0297033Y0198212D01*
X0297745Y0197500D01*
X0297033Y0196788D01*
X0297033Y0195750D01*
X0292505Y0195750D01*
X0291333Y0194578D01*
X0290480Y0193725D01*
X0290116Y0194089D01*
X0289039Y0194089D01*
X0285494Y0190544D01*
X0285494Y0189467D01*
X0289318Y0185643D01*
X0290227Y0185643D01*
X0290227Y0184734D01*
X0291483Y0183478D01*
X0291458Y0183453D01*
X0289708Y0185203D01*
X0288537Y0186375D01*
X0279162Y0195750D01*
X0265648Y0195750D01*
X0264477Y0194578D01*
X0254310Y0184411D01*
X0254282Y0184438D01*
X0253205Y0184438D01*
X0248201Y0179434D01*
X0248201Y0178357D01*
X0248228Y0178330D01*
X0238753Y0168855D01*
X0238726Y0168882D01*
X0237649Y0168882D01*
X0232645Y0163878D01*
X0232645Y0162801D01*
X0235528Y0159918D01*
X0235958Y0159918D01*
X0235958Y0158554D01*
X0236491Y0157267D01*
X0237476Y0156283D01*
X0238762Y0155750D01*
X0240155Y0155750D01*
X0241441Y0156283D01*
X0242425Y0157267D01*
X0242958Y0158554D01*
X0242958Y0159946D01*
X0242425Y0161233D01*
X0241458Y0162200D01*
X0241458Y0162897D01*
X0240521Y0163834D01*
X0241609Y0164922D01*
X0241609Y0165999D01*
X0241582Y0166026D01*
X0251057Y0175502D01*
X0251084Y0175474D01*
X0252161Y0175474D01*
X0257165Y0180479D01*
X0257165Y0181556D01*
X0257138Y0181583D01*
X0267305Y0191750D01*
X0277505Y0191750D01*
X0285371Y0183884D01*
X0285347Y0183859D01*
X0284849Y0184357D01*
X0283940Y0184357D01*
X0283940Y0185266D01*
X0280116Y0189089D01*
X0279039Y0189089D01*
X0275494Y0185544D01*
X0275494Y0184750D01*
X0275137Y0184750D01*
X0273851Y0184217D01*
X0272866Y0183233D01*
X0272333Y0181946D01*
X0272333Y0180554D01*
X0272866Y0179267D01*
X0273833Y0178300D01*
X0273833Y0173922D01*
X0279214Y0168541D01*
X0277980Y0167306D01*
X0277980Y0166229D01*
X0285411Y0158798D01*
X0283285Y0156672D01*
X0275854Y0164103D01*
X0274777Y0164103D01*
X0274271Y0163597D01*
X0273800Y0164733D01*
X0272816Y0165717D01*
X0271530Y0166250D01*
X0270137Y0166250D01*
X0268851Y0165717D01*
X0267866Y0164733D01*
X0267333Y0163446D01*
X0267333Y0162054D01*
X0267866Y0160767D01*
X0268851Y0159783D01*
X0270137Y0159250D01*
X0270480Y0159250D01*
X0270480Y0158729D01*
X0277911Y0151298D01*
X0275785Y0149172D01*
X0268354Y0156603D01*
X0267277Y0156603D01*
X0266771Y0156097D01*
X0266300Y0157233D01*
X0265316Y0158217D01*
X0264030Y0158750D01*
X0262637Y0158750D01*
X0261351Y0158217D01*
X0260366Y0157233D01*
X0259833Y0155946D01*
X0259833Y0154554D01*
X0260366Y0153267D01*
X0261351Y0152283D01*
X0262637Y0151750D01*
X0262980Y0151750D01*
X0262980Y0151229D01*
X0270411Y0143798D01*
X0268285Y0141672D01*
X0260854Y0149103D01*
X0259777Y0149103D01*
X0259271Y0148597D01*
X0258800Y0149733D01*
X0257816Y0150717D01*
X0256530Y0151250D01*
X0255137Y0151250D01*
X0253851Y0150717D01*
X0252866Y0149733D01*
X0252333Y0148446D01*
X0252333Y0147054D01*
X0252866Y0145767D01*
X0253851Y0144783D01*
X0255137Y0144250D01*
X0255480Y0144250D01*
X0255480Y0143729D01*
X0262911Y0136298D01*
X0260785Y0134172D01*
X0253354Y0141603D01*
X0252277Y0141603D01*
X0247980Y0137306D01*
X0247980Y0136750D01*
X0247637Y0136750D01*
X0246351Y0136217D01*
X0245366Y0135233D01*
X0244833Y0133946D01*
X0244833Y0132554D01*
X0245366Y0131267D01*
X0246351Y0130283D01*
X0247637Y0129750D01*
X0249030Y0129750D01*
X0250316Y0130283D01*
X0251300Y0131267D01*
X0251781Y0132428D01*
X0255411Y0128798D01*
X0206710Y0080096D01*
X0207133Y0081119D01*
X0207133Y0082631D01*
X0206555Y0084028D01*
X0205486Y0085096D01*
X0204089Y0085675D01*
X0202577Y0085675D01*
X0201181Y0085096D01*
X0200112Y0084028D01*
X0199533Y0082631D01*
X0199533Y0081119D01*
X0199957Y0080096D01*
X0170406Y0109647D01*
X0170854Y0109647D01*
X0178356Y0117149D01*
X0178755Y0116750D01*
X0182633Y0116750D01*
X0182633Y0114673D01*
X0182536Y0114504D01*
X0182433Y0114122D01*
X0182433Y0112875D01*
X0186383Y0112875D01*
X0186383Y0112775D01*
X0182433Y0112775D01*
X0182433Y0111527D01*
X0182536Y0111146D01*
X0182633Y0110976D01*
X0182633Y0108374D01*
X0182536Y0108205D01*
X0182433Y0107823D01*
X0182433Y0106576D01*
X0186383Y0106576D01*
X0186383Y0106476D01*
X0182433Y0106476D01*
X0182433Y0105228D01*
X0182609Y0104719D02*
X0175334Y0104719D01*
X0176333Y0103720D02*
X0182633Y0103720D01*
X0182633Y0102722D02*
X0177331Y0102722D01*
X0178330Y0101723D02*
X0182633Y0101723D01*
X0182633Y0100725D02*
X0179328Y0100725D01*
X0180327Y0099726D02*
X0182633Y0099726D01*
X0182633Y0098728D02*
X0181325Y0098728D01*
X0182324Y0097729D02*
X0190250Y0097729D01*
X0190233Y0098728D02*
X0195027Y0098728D01*
X0193529Y0099726D02*
X0190233Y0099726D01*
X0190233Y0100725D02*
X0192530Y0100725D01*
X0192005Y0101250D02*
X0192005Y0101250D01*
X0191532Y0101723D02*
X0190233Y0101723D01*
X0190233Y0102722D02*
X0190833Y0102722D01*
X0190833Y0103720D02*
X0190233Y0103720D01*
X0190257Y0104719D02*
X0190833Y0104719D01*
X0190833Y0105717D02*
X0190433Y0105717D01*
X0190433Y0106716D02*
X0190833Y0106716D01*
X0192833Y0106250D02*
X0195333Y0108750D01*
X0205333Y0108750D01*
X0208833Y0108713D02*
X0216233Y0108713D01*
X0216233Y0108378D02*
X0216336Y0107996D01*
X0216433Y0107827D01*
X0216433Y0105600D01*
X0216316Y0105717D01*
X0215030Y0106250D01*
X0213637Y0106250D01*
X0212351Y0105717D01*
X0209194Y0105717D01*
X0208222Y0106689D02*
X0208300Y0106767D01*
X0208833Y0108054D01*
X0208833Y0109446D01*
X0208300Y0110733D01*
X0207316Y0111717D01*
X0206030Y0112250D01*
X0204637Y0112250D01*
X0203351Y0111717D01*
X0202384Y0110750D01*
X0194505Y0110750D01*
X0194333Y0110578D01*
X0194333Y0114300D01*
X0195300Y0115267D01*
X0195833Y0116554D01*
X0195833Y0116875D01*
X0216433Y0116875D01*
X0216433Y0115600D01*
X0216316Y0115717D01*
X0215030Y0116250D01*
X0213637Y0116250D01*
X0212351Y0115717D01*
X0211366Y0114733D01*
X0210833Y0113446D01*
X0210833Y0112054D01*
X0211366Y0110767D01*
X0212351Y0109783D01*
X0213637Y0109250D01*
X0215030Y0109250D01*
X0216233Y0109749D01*
X0216233Y0109725D01*
X0220183Y0109725D01*
X0220183Y0109625D01*
X0216233Y0109625D01*
X0216233Y0108378D01*
X0216433Y0107714D02*
X0208693Y0107714D01*
X0208249Y0106716D02*
X0216433Y0106716D01*
X0216433Y0105717D02*
X0216316Y0105717D01*
X0214959Y0103376D02*
X0214333Y0102750D01*
X0214959Y0103376D02*
X0220233Y0103376D01*
X0220233Y0100226D02*
X0218560Y0100226D01*
X0217708Y0099375D01*
X0217083Y0099375D01*
X0216458Y0098750D01*
X0213333Y0098750D01*
X0207333Y0104750D01*
X0196333Y0104750D01*
X0195333Y0101250D02*
X0198609Y0097974D01*
X0198609Y0094350D01*
X0201759Y0094350D02*
X0201759Y0100175D01*
X0201833Y0100250D01*
X0195333Y0101250D02*
X0194833Y0101250D01*
X0192833Y0103250D01*
X0192833Y0106250D01*
X0191134Y0109675D02*
X0186433Y0109675D01*
X0182633Y0109711D02*
X0170919Y0109711D01*
X0171340Y0108713D02*
X0182633Y0108713D01*
X0182433Y0107714D02*
X0172339Y0107714D01*
X0173337Y0106716D02*
X0182433Y0106716D01*
X0182633Y0110710D02*
X0171917Y0110710D01*
X0172916Y0111708D02*
X0182433Y0111708D01*
X0182433Y0112707D02*
X0173914Y0112707D01*
X0174913Y0113705D02*
X0182433Y0113705D01*
X0182633Y0114704D02*
X0175911Y0114704D01*
X0176910Y0115702D02*
X0182633Y0115702D01*
X0182633Y0116701D02*
X0177908Y0116701D01*
X0179583Y0118750D02*
X0186059Y0118750D01*
X0186433Y0119124D01*
X0186433Y0122274D02*
X0179810Y0122274D01*
X0175833Y0126250D01*
X0175833Y0127500D01*
X0176265Y0127500D01*
X0179174Y0130409D01*
X0182002Y0133238D01*
X0180893Y0134674D02*
X0179985Y0134674D01*
X0179973Y0134645D02*
X0180153Y0135079D01*
X0180244Y0135540D01*
X0180244Y0136010D01*
X0180153Y0136471D01*
X0179973Y0136905D01*
X0179712Y0137296D01*
X0179546Y0137462D01*
X0175833Y0133750D01*
X0175833Y0133750D01*
X0175833Y0133750D01*
X0174146Y0135437D01*
X0176338Y0137628D01*
X0176728Y0137890D01*
X0177163Y0138069D01*
X0177624Y0138161D01*
X0178094Y0138161D01*
X0178555Y0138069D01*
X0178989Y0137890D01*
X0179379Y0137628D01*
X0179546Y0137462D01*
X0175833Y0133750D01*
X0172121Y0130038D01*
X0172287Y0129872D01*
X0172678Y0129610D01*
X0173112Y0129431D01*
X0173573Y0129339D01*
X0174043Y0129339D01*
X0174504Y0129431D01*
X0174938Y0129610D01*
X0175329Y0129872D01*
X0177520Y0132063D01*
X0175833Y0133750D01*
X0178662Y0136578D01*
X0178754Y0136671D02*
X0178755Y0136671D01*
X0179318Y0137670D02*
X0185603Y0137670D01*
X0186601Y0136671D02*
X0180070Y0136671D01*
X0180244Y0135673D02*
X0187198Y0135673D01*
X0187959Y0134674D02*
X0183112Y0134674D01*
X0183802Y0133676D02*
X0191833Y0133676D01*
X0191989Y0132677D02*
X0183802Y0132677D01*
X0183385Y0131679D02*
X0190400Y0131679D01*
X0189910Y0130680D02*
X0182536Y0130680D01*
X0181537Y0129682D02*
X0189910Y0129682D01*
X0189910Y0128683D02*
X0180539Y0128683D01*
X0179540Y0127684D02*
X0189910Y0127684D01*
X0189910Y0126686D02*
X0178542Y0126686D01*
X0179224Y0125687D02*
X0189910Y0125687D01*
X0190323Y0124689D02*
X0180223Y0124689D01*
X0176346Y0127581D02*
X0179174Y0130409D01*
X0177352Y0131679D02*
X0177136Y0131679D01*
X0177520Y0132063D02*
X0179712Y0134254D01*
X0179973Y0134645D01*
X0179349Y0133676D02*
X0179133Y0133676D01*
X0178351Y0132677D02*
X0178134Y0132677D01*
X0177520Y0132063D02*
X0175833Y0133750D01*
X0173005Y0130922D01*
X0172763Y0130680D02*
X0172763Y0130680D01*
X0172572Y0129682D02*
X0171583Y0129682D01*
X0171583Y0130680D02*
X0171658Y0130680D01*
X0171620Y0132677D02*
X0171583Y0132677D01*
X0172337Y0133676D02*
X0172385Y0133676D01*
X0173336Y0134674D02*
X0173383Y0134674D01*
X0174334Y0135673D02*
X0174382Y0135673D01*
X0174909Y0134674D02*
X0174909Y0134674D01*
X0175833Y0133750D02*
X0175833Y0133750D01*
X0175833Y0133750D01*
X0175759Y0133676D02*
X0175759Y0133676D01*
X0175908Y0133676D02*
X0175908Y0133676D01*
X0176757Y0134674D02*
X0176757Y0134674D01*
X0177756Y0135673D02*
X0177756Y0135673D01*
X0176399Y0137670D02*
X0176163Y0137670D01*
X0176704Y0138668D02*
X0182532Y0138668D01*
X0181533Y0139667D02*
X0177121Y0139667D01*
X0177121Y0140665D02*
X0180535Y0140665D01*
X0179869Y0141664D02*
X0176122Y0141664D01*
X0174520Y0141664D02*
X0163369Y0141664D01*
X0164036Y0140665D02*
X0172976Y0140665D01*
X0171977Y0139667D02*
X0164333Y0139667D01*
X0164333Y0138668D02*
X0170979Y0138668D01*
X0169980Y0137670D02*
X0163967Y0137670D01*
X0163204Y0136671D02*
X0168982Y0136671D01*
X0168282Y0135673D02*
X0161187Y0135673D01*
X0160881Y0134674D02*
X0167679Y0134674D01*
X0167583Y0133676D02*
X0159883Y0133676D01*
X0158884Y0132677D02*
X0167583Y0132677D01*
X0167583Y0131679D02*
X0157886Y0131679D01*
X0156887Y0130680D02*
X0163639Y0130680D01*
X0162641Y0129682D02*
X0155889Y0129682D01*
X0154890Y0128683D02*
X0161642Y0128683D01*
X0160644Y0127684D02*
X0153892Y0127684D01*
X0153367Y0126686D02*
X0159645Y0126686D01*
X0158647Y0125687D02*
X0154366Y0125687D01*
X0155364Y0124689D02*
X0157648Y0124689D01*
X0156730Y0123690D02*
X0156363Y0123690D01*
X0163333Y0124750D02*
X0163333Y0125000D01*
X0163333Y0124750D02*
X0166333Y0121750D01*
X0168333Y0121750D01*
X0170333Y0117750D02*
X0164833Y0117750D01*
X0170333Y0117750D02*
X0171833Y0116250D01*
X0172083Y0116250D01*
X0179583Y0118750D02*
X0169583Y0128750D01*
X0169583Y0133750D01*
X0172493Y0136659D01*
X0172493Y0137091D01*
X0175321Y0139919D01*
X0175380Y0136671D02*
X0175164Y0136671D01*
X0172493Y0137091D02*
X0169664Y0134262D01*
X0173762Y0131679D02*
X0173762Y0131679D01*
X0174760Y0132677D02*
X0174760Y0132677D01*
X0176906Y0132677D02*
X0176906Y0132677D01*
X0176354Y0130680D02*
X0176137Y0130680D01*
X0175355Y0129682D02*
X0175045Y0129682D01*
X0174188Y0128683D02*
X0172479Y0128683D01*
X0173477Y0127684D02*
X0173833Y0127684D01*
X0167583Y0129682D02*
X0167561Y0129682D01*
X0167583Y0130680D02*
X0166563Y0130680D01*
X0160833Y0139250D02*
X0155333Y0133750D01*
X0154583Y0133750D01*
X0151132Y0135673D02*
X0144381Y0135673D01*
X0145378Y0136671D02*
X0152130Y0136671D01*
X0153129Y0137670D02*
X0146377Y0137670D01*
X0147375Y0138668D02*
X0154127Y0138668D01*
X0155126Y0139667D02*
X0148374Y0139667D01*
X0149372Y0140665D02*
X0157631Y0140665D01*
X0158297Y0141664D02*
X0150371Y0141664D01*
X0151370Y0142662D02*
X0159925Y0142662D01*
X0161742Y0142662D02*
X0180123Y0142662D01*
X0181122Y0143661D02*
X0152368Y0143661D01*
X0152437Y0144659D02*
X0182120Y0144659D01*
X0183119Y0145658D02*
X0154191Y0145658D01*
X0154962Y0146656D02*
X0184402Y0146656D01*
X0184833Y0147655D02*
X0155333Y0147655D01*
X0155333Y0148653D02*
X0185831Y0148653D01*
X0186228Y0148653D02*
X0187598Y0148653D01*
X0187226Y0147655D02*
X0188596Y0147655D01*
X0189053Y0147655D02*
X0190423Y0147655D01*
X0190052Y0148653D02*
X0191421Y0148653D01*
X0192096Y0148653D02*
X0195460Y0148653D01*
X0194462Y0149652D02*
X0191050Y0149652D01*
X0190099Y0150650D02*
X0193463Y0150650D01*
X0192465Y0151649D02*
X0152774Y0151649D01*
X0150893Y0151649D02*
X0141137Y0151649D01*
X0141340Y0151852D02*
X0140012Y0150524D01*
X0137902Y0152634D01*
X0137217Y0151949D01*
X0139327Y0149839D01*
X0137999Y0148510D01*
X0137657Y0148313D01*
X0137275Y0148211D01*
X0136880Y0148211D01*
X0136499Y0148313D01*
X0136157Y0148510D01*
X0134968Y0149699D01*
X0137217Y0151949D01*
X0136532Y0152634D01*
X0134422Y0154744D01*
X0133094Y0153416D01*
X0132896Y0153073D01*
X0132794Y0152692D01*
X0132794Y0152297D01*
X0132896Y0151916D01*
X0133094Y0151573D01*
X0134283Y0150384D01*
X0136532Y0152634D01*
X0137217Y0153319D01*
X0135107Y0155429D01*
X0136435Y0156757D01*
X0136777Y0156955D01*
X0137159Y0157057D01*
X0137554Y0157057D01*
X0137727Y0157010D01*
X0137727Y0157766D01*
X0141550Y0161589D01*
X0142583Y0161589D01*
X0142583Y0164578D01*
X0143755Y0165750D01*
X0144833Y0166828D01*
X0144833Y0168196D01*
X0145366Y0169483D01*
X0146351Y0170467D01*
X0147637Y0171000D01*
X0149030Y0171000D01*
X0150316Y0170467D01*
X0151300Y0169483D01*
X0151833Y0168196D01*
X0151833Y0166804D01*
X0151300Y0165517D01*
X0150316Y0164533D01*
X0149030Y0164000D01*
X0147662Y0164000D01*
X0146583Y0162922D01*
X0146583Y0159172D01*
X0145814Y0158402D01*
X0146173Y0158044D01*
X0146173Y0156967D01*
X0142349Y0153143D01*
X0141594Y0153143D01*
X0141640Y0152970D01*
X0141640Y0152575D01*
X0141538Y0152194D01*
X0141340Y0151852D01*
X0141640Y0152647D02*
X0191466Y0152647D01*
X0190468Y0153646D02*
X0142851Y0153646D01*
X0143850Y0154644D02*
X0189469Y0154644D01*
X0188471Y0155643D02*
X0144849Y0155643D01*
X0145847Y0156641D02*
X0187472Y0156641D01*
X0186474Y0157640D02*
X0146173Y0157640D01*
X0146050Y0158638D02*
X0185475Y0158638D01*
X0184477Y0159637D02*
X0146583Y0159637D01*
X0146583Y0160635D02*
X0183478Y0160635D01*
X0182480Y0161634D02*
X0146583Y0161634D01*
X0146583Y0162632D02*
X0181481Y0162632D01*
X0180483Y0163631D02*
X0147293Y0163631D01*
X0144583Y0163750D02*
X0144583Y0160000D01*
X0141950Y0157366D01*
X0141950Y0157366D01*
X0139598Y0159637D02*
X0131625Y0159637D01*
X0130899Y0159637D02*
X0129529Y0159637D01*
X0129900Y0160635D02*
X0128530Y0160635D01*
X0128467Y0160699D02*
X0130577Y0158589D01*
X0129249Y0157260D01*
X0128907Y0157063D01*
X0128525Y0156961D01*
X0128130Y0156961D01*
X0127749Y0157063D01*
X0127407Y0157260D01*
X0126218Y0158449D01*
X0128467Y0160699D01*
X0128404Y0160635D02*
X0127034Y0160635D01*
X0127405Y0159637D02*
X0126035Y0159637D01*
X0125030Y0159637D02*
X0120416Y0159637D01*
X0119418Y0160635D02*
X0124164Y0160635D01*
X0124095Y0161634D02*
X0118419Y0161634D01*
X0117421Y0162632D02*
X0124811Y0162632D01*
X0126533Y0162632D02*
X0127903Y0162632D01*
X0128032Y0161634D02*
X0127532Y0161634D01*
X0126905Y0163631D02*
X0116422Y0163631D01*
X0117390Y0164629D02*
X0115424Y0164629D01*
X0116392Y0165628D02*
X0114425Y0165628D01*
X0115530Y0166490D02*
X0117543Y0164476D01*
X0117885Y0164279D01*
X0118267Y0164177D01*
X0118662Y0164177D01*
X0119043Y0164279D01*
X0119385Y0164476D01*
X0121120Y0166211D01*
X0118186Y0169145D01*
X0118893Y0169853D01*
X0118186Y0170560D01*
X0117479Y0169853D01*
X0114545Y0172787D01*
X0112810Y0171052D01*
X0112612Y0170710D01*
X0112510Y0170328D01*
X0112510Y0169933D01*
X0112612Y0169552D01*
X0112810Y0169210D01*
X0114823Y0167197D01*
X0117479Y0169853D01*
X0118186Y0169145D01*
X0115530Y0166490D01*
X0115667Y0166626D02*
X0113427Y0166626D01*
X0114395Y0167625D02*
X0112428Y0167625D01*
X0113396Y0168623D02*
X0111430Y0168623D01*
X0110431Y0169622D02*
X0112594Y0169622D01*
X0112588Y0170620D02*
X0109433Y0170620D01*
X0108434Y0171619D02*
X0113377Y0171619D01*
X0114375Y0172618D02*
X0107436Y0172618D01*
X0106437Y0173616D02*
X0115374Y0173616D01*
X0114714Y0172618D02*
X0116128Y0172618D01*
X0115712Y0171619D02*
X0117127Y0171619D01*
X0116711Y0170620D02*
X0118125Y0170620D01*
X0118247Y0170620D02*
X0119661Y0170620D01*
X0119245Y0171619D02*
X0120659Y0171619D01*
X0120244Y0172618D02*
X0125275Y0172618D01*
X0124276Y0173616D02*
X0120441Y0173616D01*
X0119443Y0174615D02*
X0123278Y0174615D01*
X0121549Y0172508D02*
X0123562Y0170495D01*
X0123759Y0170153D01*
X0123862Y0169772D01*
X0123862Y0169377D01*
X0123759Y0168995D01*
X0123562Y0168653D01*
X0121827Y0166918D01*
X0118893Y0169853D01*
X0121549Y0172508D01*
X0122438Y0171619D02*
X0135083Y0171619D01*
X0134875Y0170620D02*
X0123437Y0170620D01*
X0123862Y0169622D02*
X0132083Y0169622D01*
X0131084Y0168623D02*
X0123532Y0168623D01*
X0122534Y0167625D02*
X0130086Y0167625D01*
X0129087Y0166626D02*
X0120705Y0166626D01*
X0120537Y0165628D02*
X0127895Y0165628D01*
X0126808Y0164629D02*
X0119538Y0164629D01*
X0119706Y0167625D02*
X0121121Y0167625D01*
X0120122Y0168623D02*
X0118708Y0168623D01*
X0118662Y0169622D02*
X0119124Y0169622D01*
X0117709Y0169622D02*
X0117248Y0169622D01*
X0117664Y0168623D02*
X0116250Y0168623D01*
X0116665Y0167625D02*
X0115251Y0167625D01*
X0116372Y0174615D02*
X0105439Y0174615D01*
X0104440Y0175613D02*
X0112392Y0175613D01*
X0111393Y0176612D02*
X0103442Y0176612D01*
X0102443Y0177610D02*
X0110395Y0177610D01*
X0109396Y0178609D02*
X0101445Y0178609D01*
X0100446Y0179607D02*
X0108398Y0179607D01*
X0107399Y0180606D02*
X0103063Y0180606D01*
X0104058Y0181604D02*
X0106401Y0181604D01*
X0105402Y0182603D02*
X0104471Y0182603D01*
X0108064Y0185598D02*
X0109067Y0185598D01*
X0109665Y0185000D02*
X0110742Y0185000D01*
X0114845Y0189102D01*
X0114845Y0190179D01*
X0112552Y0192472D01*
X0111475Y0192472D01*
X0107373Y0188370D01*
X0107373Y0187293D01*
X0109665Y0185000D01*
X0109062Y0184600D02*
X0131733Y0184600D01*
X0131616Y0184483D02*
X0131083Y0183196D01*
X0131083Y0181804D01*
X0131616Y0180517D01*
X0132601Y0179533D01*
X0133887Y0179000D01*
X0135280Y0179000D01*
X0136566Y0179533D01*
X0137550Y0180517D01*
X0138083Y0181804D01*
X0138083Y0183196D01*
X0137550Y0184483D01*
X0136878Y0185155D01*
X0137248Y0185155D01*
X0142185Y0190092D01*
X0142185Y0190554D01*
X0143043Y0189697D01*
X0144172Y0189229D01*
X0145393Y0189229D01*
X0146522Y0189697D01*
X0147387Y0190561D01*
X0147854Y0191690D01*
X0147854Y0192912D01*
X0147387Y0194041D01*
X0146522Y0194905D01*
X0145393Y0195372D01*
X0144172Y0195372D01*
X0143043Y0194905D01*
X0142178Y0194041D01*
X0141711Y0192912D01*
X0141711Y0191690D01*
X0141744Y0191610D01*
X0139475Y0193879D01*
X0139013Y0193879D01*
X0139540Y0194407D01*
X0139540Y0195484D01*
X0135995Y0199029D01*
X0134918Y0199029D01*
X0131929Y0196041D01*
X0131929Y0194964D01*
X0135475Y0191418D01*
X0135937Y0191418D01*
X0133461Y0188942D01*
X0133461Y0187983D01*
X0132583Y0187106D01*
X0132583Y0185450D01*
X0131616Y0184483D01*
X0131251Y0183601D02*
X0110061Y0183601D01*
X0111059Y0182603D02*
X0124643Y0182603D01*
X0123645Y0181604D02*
X0112058Y0181604D01*
X0113056Y0180606D02*
X0122646Y0180606D01*
X0121648Y0179607D02*
X0114055Y0179607D01*
X0113333Y0177500D02*
X0125833Y0177500D01*
X0125981Y0177647D01*
X0129878Y0173750D01*
X0137083Y0173750D01*
X0137083Y0170000D01*
X0133200Y0166116D01*
X0135337Y0163631D02*
X0142583Y0163631D01*
X0142583Y0162632D02*
X0134338Y0162632D01*
X0132890Y0161634D02*
X0142583Y0161634D01*
X0140596Y0160635D02*
X0132610Y0160635D01*
X0130527Y0158638D02*
X0138599Y0158638D01*
X0137727Y0157640D02*
X0129628Y0157640D01*
X0127027Y0157640D02*
X0122413Y0157640D01*
X0121415Y0158638D02*
X0126407Y0158638D01*
X0123412Y0156641D02*
X0136319Y0156641D01*
X0135321Y0155643D02*
X0124410Y0155643D01*
X0125409Y0154644D02*
X0134322Y0154644D01*
X0134522Y0154644D02*
X0135891Y0154644D01*
X0135520Y0153646D02*
X0136890Y0153646D01*
X0136546Y0152647D02*
X0136519Y0152647D01*
X0136917Y0151649D02*
X0135547Y0151649D01*
X0135918Y0150650D02*
X0134549Y0150650D01*
X0134017Y0150650D02*
X0129403Y0150650D01*
X0130401Y0149652D02*
X0135015Y0149652D01*
X0136014Y0148653D02*
X0131400Y0148653D01*
X0132398Y0147655D02*
X0145614Y0147655D01*
X0146613Y0148653D02*
X0138142Y0148653D01*
X0139140Y0149652D02*
X0148626Y0149652D01*
X0149284Y0150650D02*
X0140139Y0150650D01*
X0139885Y0150650D02*
X0138516Y0150650D01*
X0138887Y0151649D02*
X0137517Y0151649D01*
X0133050Y0151649D02*
X0128404Y0151649D01*
X0127406Y0152647D02*
X0132794Y0152647D01*
X0133324Y0153646D02*
X0126407Y0153646D01*
X0133397Y0146656D02*
X0144616Y0146656D01*
X0143617Y0145658D02*
X0134395Y0145658D01*
X0135394Y0144659D02*
X0142619Y0144659D01*
X0141620Y0143661D02*
X0136392Y0143661D01*
X0137391Y0142662D02*
X0140621Y0142662D01*
X0139623Y0141664D02*
X0138389Y0141664D01*
X0145833Y0142500D02*
X0151583Y0148250D01*
X0151833Y0148250D01*
X0155041Y0149652D02*
X0186830Y0149652D01*
X0187828Y0150650D02*
X0154383Y0150650D01*
X0144583Y0163750D02*
X0148333Y0167500D01*
X0144833Y0167625D02*
X0137537Y0167625D01*
X0137423Y0166626D02*
X0144631Y0166626D01*
X0143633Y0165628D02*
X0137334Y0165628D01*
X0136335Y0164629D02*
X0142634Y0164629D01*
X0145010Y0168623D02*
X0138535Y0168623D01*
X0139083Y0169622D02*
X0145506Y0169622D01*
X0146721Y0170620D02*
X0139083Y0170620D01*
X0139083Y0171619D02*
X0155274Y0171619D01*
X0154276Y0172618D02*
X0140455Y0172618D01*
X0141454Y0173616D02*
X0147709Y0173616D01*
X0146711Y0174615D02*
X0142452Y0174615D01*
X0143451Y0175613D02*
X0145988Y0175613D01*
X0146185Y0176612D02*
X0144449Y0176612D01*
X0146406Y0177610D02*
X0147184Y0177610D01*
X0147405Y0178609D02*
X0148182Y0178609D01*
X0148403Y0179607D02*
X0149181Y0179607D01*
X0149402Y0180606D02*
X0150179Y0180606D01*
X0150400Y0181604D02*
X0151135Y0181604D01*
X0152748Y0180606D02*
X0158537Y0180606D01*
X0158376Y0181604D02*
X0155133Y0181604D01*
X0155901Y0182603D02*
X0159136Y0182603D01*
X0160134Y0183601D02*
X0156206Y0183601D01*
X0156189Y0184600D02*
X0159514Y0184600D01*
X0158515Y0185598D02*
X0155776Y0185598D01*
X0154769Y0186597D02*
X0157517Y0186597D01*
X0156518Y0187595D02*
X0139688Y0187595D01*
X0138690Y0186597D02*
X0151499Y0186597D01*
X0150492Y0185598D02*
X0137691Y0185598D01*
X0137433Y0184600D02*
X0145822Y0184600D01*
X0144823Y0183601D02*
X0137916Y0183601D01*
X0138083Y0182603D02*
X0143825Y0182603D01*
X0142826Y0181604D02*
X0138001Y0181604D01*
X0137587Y0180606D02*
X0141828Y0180606D01*
X0141788Y0179607D02*
X0136640Y0179607D01*
X0138792Y0176612D02*
X0131238Y0176612D01*
X0131457Y0177610D02*
X0139791Y0177610D01*
X0140789Y0178609D02*
X0130756Y0178609D01*
X0129757Y0179607D02*
X0132526Y0179607D01*
X0131580Y0180606D02*
X0128759Y0180606D01*
X0127760Y0181604D02*
X0131166Y0181604D01*
X0131083Y0182603D02*
X0126761Y0182603D01*
X0132583Y0185598D02*
X0111340Y0185598D01*
X0112339Y0186597D02*
X0132583Y0186597D01*
X0133073Y0187595D02*
X0113337Y0187595D01*
X0114336Y0188594D02*
X0133461Y0188594D01*
X0134111Y0189592D02*
X0114845Y0189592D01*
X0114433Y0190591D02*
X0135109Y0190591D01*
X0135304Y0191589D02*
X0113435Y0191589D01*
X0110592Y0191589D02*
X0106753Y0191589D01*
X0105754Y0190591D02*
X0109594Y0190591D01*
X0108595Y0189592D02*
X0105333Y0189592D01*
X0105333Y0188594D02*
X0107597Y0188594D01*
X0107373Y0187595D02*
X0106067Y0187595D01*
X0107065Y0186597D02*
X0108069Y0186597D01*
X0103333Y0187500D02*
X0103333Y0191539D01*
X0105819Y0194025D01*
X0104008Y0195583D02*
X0097933Y0195583D01*
X0097933Y0194585D02*
X0103009Y0194585D01*
X0102083Y0193586D02*
X0097933Y0193586D01*
X0097933Y0192588D02*
X0101553Y0192588D01*
X0101333Y0191589D02*
X0097933Y0191589D01*
X0097933Y0190591D02*
X0101333Y0190591D01*
X0101333Y0189592D02*
X0097933Y0189592D01*
X0097933Y0188594D02*
X0101333Y0188594D01*
X0101333Y0187595D02*
X0097933Y0187595D01*
X0097933Y0186597D02*
X0098306Y0186597D01*
X0103333Y0187500D02*
X0113333Y0177500D01*
X0127244Y0172618D02*
X0128182Y0172618D01*
X0137083Y0173750D02*
X0138759Y0173750D01*
X0146174Y0181165D01*
X0148754Y0184600D02*
X0150079Y0184600D01*
X0150063Y0183601D02*
X0149753Y0183601D01*
X0153747Y0179607D02*
X0159535Y0179607D01*
X0160534Y0178609D02*
X0156416Y0178609D01*
X0155142Y0178609D02*
X0154713Y0178609D01*
X0157414Y0177610D02*
X0161532Y0177610D01*
X0163388Y0177610D02*
X0166503Y0177610D01*
X0165505Y0178609D02*
X0164387Y0178609D01*
X0167502Y0176612D02*
X0158413Y0176612D01*
X0159411Y0175613D02*
X0168500Y0175613D01*
X0169499Y0174615D02*
X0159863Y0174615D01*
X0159394Y0173616D02*
X0170497Y0173616D01*
X0171496Y0172618D02*
X0158396Y0172618D01*
X0157397Y0171619D02*
X0172494Y0171619D01*
X0173493Y0170620D02*
X0149946Y0170620D01*
X0151161Y0169622D02*
X0174492Y0169622D01*
X0175490Y0168623D02*
X0151656Y0168623D01*
X0151833Y0167625D02*
X0176489Y0167625D01*
X0177487Y0166626D02*
X0151760Y0166626D01*
X0151346Y0165628D02*
X0178486Y0165628D01*
X0179484Y0164629D02*
X0150412Y0164629D01*
X0150764Y0173616D02*
X0153277Y0173616D01*
X0152279Y0174615D02*
X0151763Y0174615D01*
X0134583Y0182500D02*
X0134583Y0186277D01*
X0137823Y0189517D01*
X0140687Y0188594D02*
X0155520Y0188594D01*
X0154521Y0189592D02*
X0146270Y0189592D01*
X0147399Y0190591D02*
X0153523Y0190591D01*
X0152524Y0191589D02*
X0147812Y0191589D01*
X0147854Y0192588D02*
X0151526Y0192588D01*
X0150527Y0193586D02*
X0147575Y0193586D01*
X0146843Y0194585D02*
X0149529Y0194585D01*
X0148530Y0195583D02*
X0139441Y0195583D01*
X0139540Y0194585D02*
X0142722Y0194585D01*
X0141990Y0193586D02*
X0139768Y0193586D01*
X0140766Y0192588D02*
X0141711Y0192588D01*
X0138443Y0196582D02*
X0147532Y0196582D01*
X0146533Y0197580D02*
X0142714Y0197580D01*
X0141562Y0197580D02*
X0137444Y0197580D01*
X0136446Y0198579D02*
X0140563Y0198579D01*
X0139565Y0199577D02*
X0128444Y0199577D01*
X0127187Y0199577D02*
X0124083Y0199577D01*
X0124083Y0198579D02*
X0134467Y0198579D01*
X0133469Y0197580D02*
X0123742Y0197580D01*
X0122744Y0196582D02*
X0132470Y0196582D01*
X0131929Y0195583D02*
X0121745Y0195583D01*
X0120747Y0194585D02*
X0132308Y0194585D01*
X0133307Y0193586D02*
X0119329Y0193586D01*
X0118330Y0192588D02*
X0134305Y0192588D01*
X0141685Y0189592D02*
X0143295Y0189592D01*
X0143712Y0198579D02*
X0145535Y0198579D01*
X0138566Y0200576D02*
X0129566Y0200576D01*
X0130565Y0201574D02*
X0138054Y0201574D01*
X0138462Y0202573D02*
X0131563Y0202573D01*
X0131555Y0203571D02*
X0139460Y0203571D01*
X0139544Y0204570D02*
X0133560Y0204570D01*
X0134559Y0205568D02*
X0138545Y0205568D01*
X0137547Y0206567D02*
X0135557Y0206567D01*
X0136318Y0207565D02*
X0136548Y0207565D01*
X0130972Y0205568D02*
X0129609Y0205568D01*
X0129558Y0205568D02*
X0128195Y0205568D01*
X0128876Y0206250D02*
X0124634Y0202007D01*
X0123080Y0203561D01*
X0122882Y0203903D01*
X0122780Y0204285D01*
X0122780Y0204680D01*
X0122882Y0205061D01*
X0123080Y0205403D01*
X0126401Y0208725D01*
X0128876Y0206250D01*
X0128559Y0206567D02*
X0129193Y0206567D01*
X0128975Y0207565D02*
X0127561Y0207565D01*
X0127976Y0208564D02*
X0126562Y0208564D01*
X0126240Y0208564D02*
X0122271Y0208564D01*
X0121273Y0207565D02*
X0125242Y0207565D01*
X0124243Y0206567D02*
X0119595Y0206567D01*
X0119358Y0207565D02*
X0119083Y0207565D01*
X0117083Y0208750D02*
X0122083Y0213750D01*
X0122083Y0214045D01*
X0112231Y0223897D01*
X0115327Y0226537D02*
X0117576Y0226537D01*
X0116578Y0227536D02*
X0114328Y0227536D01*
X0113330Y0228534D02*
X0115579Y0228534D01*
X0114581Y0229533D02*
X0097933Y0229533D01*
X0097933Y0230531D02*
X0113582Y0230531D01*
X0112584Y0231530D02*
X0097933Y0231530D01*
X0097933Y0232528D02*
X0111585Y0232528D01*
X0110587Y0233527D02*
X0097933Y0233527D01*
X0097933Y0234525D02*
X0109588Y0234525D01*
X0108590Y0235524D02*
X0097933Y0235524D01*
X0097933Y0236522D02*
X0098675Y0236522D01*
X0101742Y0236522D02*
X0107591Y0236522D01*
X0106593Y0237521D02*
X0103103Y0237521D01*
X0103708Y0238519D02*
X0105594Y0238519D01*
X0104596Y0239518D02*
X0104008Y0239518D01*
X0097933Y0228534D02*
X0110575Y0228534D01*
X0109576Y0227536D02*
X0097933Y0227536D01*
X0097933Y0226537D02*
X0108578Y0226537D01*
X0107579Y0225539D02*
X0097933Y0225539D01*
X0097933Y0224540D02*
X0106755Y0224540D01*
X0106851Y0223542D02*
X0097933Y0223542D01*
X0097933Y0222543D02*
X0107849Y0222543D01*
X0108848Y0221545D02*
X0104964Y0221545D01*
X0105079Y0221479D02*
X0104736Y0221676D01*
X0104355Y0221778D01*
X0103960Y0221778D01*
X0103579Y0221676D01*
X0103236Y0221479D01*
X0101502Y0219744D01*
X0104436Y0216810D01*
X0107092Y0219465D01*
X0105079Y0221479D01*
X0106011Y0220546D02*
X0109846Y0220546D01*
X0110845Y0219548D02*
X0107010Y0219548D01*
X0107799Y0218758D02*
X0105143Y0216103D01*
X0104436Y0216810D01*
X0103729Y0216103D01*
X0100795Y0219037D01*
X0099060Y0217302D01*
X0098862Y0216960D01*
X0098760Y0216578D01*
X0098760Y0216183D01*
X0098862Y0215802D01*
X0099060Y0215460D01*
X0101073Y0213447D01*
X0103729Y0216103D01*
X0104436Y0215395D01*
X0105143Y0216103D01*
X0108077Y0213168D01*
X0109812Y0214903D01*
X0110009Y0215245D01*
X0110112Y0215627D01*
X0110112Y0216022D01*
X0110009Y0216403D01*
X0109812Y0216745D01*
X0107799Y0218758D01*
X0108008Y0218549D02*
X0111843Y0218549D01*
X0113175Y0218549D02*
X0114751Y0218549D01*
X0115749Y0217551D02*
X0109007Y0217551D01*
X0109924Y0216552D02*
X0116748Y0216552D01*
X0117746Y0215553D02*
X0110092Y0215553D01*
X0109464Y0214555D02*
X0117514Y0214555D01*
X0116516Y0213556D02*
X0108465Y0213556D01*
X0107689Y0213556D02*
X0106275Y0213556D01*
X0106691Y0214555D02*
X0105276Y0214555D01*
X0105692Y0215553D02*
X0104594Y0215553D01*
X0104436Y0215395D02*
X0107370Y0212461D01*
X0105635Y0210726D01*
X0105293Y0210529D01*
X0104912Y0210427D01*
X0104517Y0210427D01*
X0104135Y0210529D01*
X0103793Y0210726D01*
X0101780Y0212740D01*
X0104436Y0215395D01*
X0104278Y0215553D02*
X0103180Y0215553D01*
X0103279Y0216552D02*
X0104178Y0216552D01*
X0104694Y0216552D02*
X0105592Y0216552D01*
X0105177Y0217551D02*
X0106591Y0217551D01*
X0106175Y0218549D02*
X0107589Y0218549D01*
X0103695Y0217551D02*
X0102281Y0217551D01*
X0102696Y0218549D02*
X0101282Y0218549D01*
X0100307Y0218549D02*
X0097933Y0218549D01*
X0097933Y0217551D02*
X0099308Y0217551D01*
X0098760Y0216552D02*
X0097933Y0216552D01*
X0097933Y0215553D02*
X0099006Y0215553D01*
X0099965Y0214555D02*
X0097933Y0214555D01*
X0097933Y0213556D02*
X0100963Y0213556D01*
X0101183Y0213556D02*
X0102597Y0213556D01*
X0102181Y0214555D02*
X0103595Y0214555D01*
X0101962Y0212558D02*
X0097933Y0212558D01*
X0097933Y0211559D02*
X0102960Y0211559D01*
X0104080Y0210561D02*
X0097933Y0210561D01*
X0097933Y0209562D02*
X0115083Y0209562D01*
X0115083Y0208564D02*
X0097933Y0208564D01*
X0097933Y0207565D02*
X0115083Y0207565D01*
X0114572Y0206567D02*
X0097933Y0206567D01*
X0097933Y0205568D02*
X0113573Y0205568D01*
X0112575Y0204570D02*
X0097933Y0204570D01*
X0097933Y0203571D02*
X0111576Y0203571D01*
X0110997Y0202573D02*
X0097933Y0202573D01*
X0097933Y0201574D02*
X0109999Y0201574D01*
X0109322Y0200576D02*
X0097933Y0200576D01*
X0097933Y0199577D02*
X0109566Y0199577D01*
X0110564Y0198579D02*
X0097933Y0198579D01*
X0097933Y0197580D02*
X0106005Y0197580D01*
X0105006Y0196582D02*
X0097933Y0196582D01*
X0107443Y0197580D02*
X0111563Y0197580D01*
X0112278Y0196582D02*
X0108442Y0196582D01*
X0109441Y0195583D02*
X0113277Y0195583D01*
X0113607Y0196582D02*
X0113724Y0196582D01*
X0114605Y0197580D02*
X0114722Y0197580D01*
X0115604Y0198579D02*
X0115685Y0198579D01*
X0115761Y0198619D02*
X0115703Y0198678D01*
X0118404Y0201380D01*
X0117528Y0202255D01*
X0117186Y0202453D01*
X0116805Y0202555D01*
X0116794Y0202555D01*
X0116794Y0202707D01*
X0116581Y0202920D01*
X0117083Y0203422D01*
X0120083Y0200422D01*
X0120083Y0199578D01*
X0120003Y0199498D01*
X0119791Y0199711D01*
X0119639Y0199711D01*
X0119639Y0199722D01*
X0119536Y0200103D01*
X0119339Y0200445D01*
X0118463Y0201321D01*
X0115761Y0198619D01*
X0116602Y0199577D02*
X0116719Y0199577D01*
X0117601Y0200576D02*
X0117718Y0200576D01*
X0118210Y0201574D02*
X0118931Y0201574D01*
X0119208Y0200576D02*
X0119929Y0200576D01*
X0119924Y0199577D02*
X0120082Y0199577D01*
X0122083Y0198750D02*
X0119308Y0195975D01*
X0118347Y0195975D01*
X0115557Y0193586D02*
X0108750Y0193586D01*
X0109555Y0194585D02*
X0114611Y0194585D01*
X0116555Y0192588D02*
X0107751Y0192588D01*
X0113058Y0201264D02*
X0113058Y0202225D01*
X0117083Y0206250D01*
X0122083Y0201250D01*
X0122083Y0198750D01*
X0124083Y0200576D02*
X0126065Y0200576D01*
X0125615Y0201574D02*
X0124083Y0201574D01*
X0124068Y0202573D02*
X0123589Y0202573D01*
X0123074Y0203571D02*
X0122590Y0203571D01*
X0122780Y0204570D02*
X0121592Y0204570D01*
X0120593Y0205568D02*
X0123245Y0205568D01*
X0126198Y0203571D02*
X0127612Y0203571D01*
X0127196Y0204570D02*
X0128610Y0204570D01*
X0130556Y0204570D02*
X0131971Y0204570D01*
X0126613Y0202573D02*
X0125199Y0202573D01*
X0123270Y0209562D02*
X0127239Y0209562D01*
X0128237Y0210561D02*
X0124268Y0210561D01*
X0125267Y0211559D02*
X0129236Y0211559D01*
X0130234Y0212558D02*
X0126265Y0212558D01*
X0127264Y0213556D02*
X0130557Y0213556D01*
X0129559Y0214555D02*
X0128262Y0214555D01*
X0122507Y0219548D02*
X0119409Y0219548D01*
X0118411Y0220546D02*
X0123567Y0220546D01*
X0122569Y0221545D02*
X0117412Y0221545D01*
X0117169Y0222543D02*
X0121570Y0222543D01*
X0120572Y0223542D02*
X0117707Y0223542D01*
X0117324Y0224540D02*
X0119573Y0224540D01*
X0118575Y0225539D02*
X0116325Y0225539D01*
X0120408Y0218549D02*
X0121508Y0218549D01*
X0115517Y0212558D02*
X0107273Y0212558D01*
X0106468Y0211559D02*
X0115480Y0211559D01*
X0116066Y0210561D02*
X0105349Y0210561D01*
X0101698Y0219548D02*
X0097933Y0219548D01*
X0097933Y0220546D02*
X0102304Y0220546D01*
X0103351Y0221545D02*
X0097933Y0221545D01*
X0117083Y0208750D02*
X0117083Y0206250D01*
X0116794Y0202573D02*
X0117932Y0202573D01*
X0193033Y0147655D02*
X0196459Y0147655D01*
X0197457Y0146656D02*
X0193241Y0146656D01*
X0192646Y0145658D02*
X0198456Y0145658D01*
X0199454Y0144659D02*
X0191648Y0144659D01*
X0191592Y0144659D02*
X0190222Y0144659D01*
X0190593Y0145658D02*
X0189223Y0145658D01*
X0189424Y0146656D02*
X0189595Y0146656D01*
X0190649Y0143661D02*
X0200453Y0143661D01*
X0201451Y0142662D02*
X0189651Y0142662D01*
X0188315Y0141664D02*
X0200873Y0141664D01*
X0200014Y0140665D02*
X0191234Y0140665D01*
X0189432Y0140665D02*
X0188264Y0140665D01*
X0188851Y0137250D02*
X0184092Y0142009D01*
X0188851Y0137250D02*
X0190333Y0137250D01*
X0192866Y0139667D02*
X0199600Y0139667D01*
X0199533Y0138668D02*
X0193534Y0138668D01*
X0193833Y0137670D02*
X0199668Y0137670D01*
X0200081Y0136671D02*
X0197362Y0136671D01*
X0198325Y0135673D02*
X0201037Y0135673D01*
X0198739Y0134674D02*
X0207679Y0134674D01*
X0208341Y0135673D02*
X0205630Y0135673D01*
X0206585Y0136671D02*
X0209305Y0136671D01*
X0206999Y0137670D02*
X0228333Y0137670D01*
X0228333Y0136671D02*
X0213362Y0136671D01*
X0214325Y0135673D02*
X0228698Y0135673D01*
X0229459Y0134674D02*
X0214739Y0134674D01*
X0214833Y0133676D02*
X0229833Y0133676D01*
X0229833Y0132677D02*
X0214677Y0132677D01*
X0216267Y0131679D02*
X0217965Y0131679D01*
X0219702Y0131679D02*
X0222965Y0131679D01*
X0224702Y0131679D02*
X0229833Y0131679D01*
X0229833Y0130680D02*
X0226353Y0130680D01*
X0227029Y0129682D02*
X0229833Y0129682D01*
X0229833Y0128683D02*
X0227333Y0128683D01*
X0227333Y0127684D02*
X0229833Y0127684D01*
X0229833Y0126686D02*
X0226974Y0126686D01*
X0226680Y0125687D02*
X0229833Y0125687D01*
X0229833Y0124689D02*
X0228344Y0124689D01*
X0229025Y0123690D02*
X0229445Y0123690D01*
X0231833Y0123250D02*
X0227333Y0118750D01*
X0223333Y0118750D01*
X0222959Y0119124D01*
X0220233Y0119124D01*
X0219984Y0118875D01*
X0194083Y0118875D01*
X0192396Y0117187D01*
X0192583Y0117000D01*
X0192333Y0116750D01*
X0192333Y0116250D01*
X0192333Y0110875D01*
X0191134Y0109675D01*
X0194333Y0110710D02*
X0194465Y0110710D01*
X0194333Y0111708D02*
X0203342Y0111708D01*
X0207325Y0111708D02*
X0210976Y0111708D01*
X0210833Y0112707D02*
X0194333Y0112707D01*
X0194333Y0113705D02*
X0210941Y0113705D01*
X0211354Y0114704D02*
X0194737Y0114704D01*
X0195481Y0115702D02*
X0212336Y0115702D01*
X0214408Y0112825D02*
X0214333Y0112750D01*
X0214408Y0112825D02*
X0220233Y0112825D01*
X0220183Y0109711D02*
X0216143Y0109711D01*
X0212523Y0109711D02*
X0208724Y0109711D01*
X0208310Y0110710D02*
X0211424Y0110710D01*
X0208222Y0106689D02*
X0211019Y0103893D01*
X0211366Y0104733D01*
X0212351Y0105717D01*
X0211360Y0104719D02*
X0210193Y0104719D01*
X0216757Y0096731D02*
X0223344Y0096731D01*
X0224343Y0097729D02*
X0218891Y0097729D01*
X0216757Y0095732D02*
X0222346Y0095732D01*
X0221347Y0094734D02*
X0216757Y0094734D01*
X0216757Y0093735D02*
X0220349Y0093735D01*
X0219350Y0092737D02*
X0216757Y0092737D01*
X0216757Y0091738D02*
X0218352Y0091738D01*
X0217353Y0090740D02*
X0216185Y0090740D01*
X0216355Y0089741D02*
X0201711Y0089741D01*
X0201833Y0088743D02*
X0215356Y0088743D01*
X0214358Y0087744D02*
X0201705Y0087744D01*
X0201279Y0086746D02*
X0213359Y0086746D01*
X0212361Y0085747D02*
X0200229Y0085747D01*
X0200833Y0084749D02*
X0195305Y0084749D01*
X0194306Y0085747D02*
X0196437Y0085747D01*
X0195388Y0086746D02*
X0193308Y0086746D01*
X0192309Y0087744D02*
X0194962Y0087744D01*
X0194833Y0088743D02*
X0191311Y0088743D01*
X0190312Y0089741D02*
X0194514Y0089741D01*
X0195459Y0091624D02*
X0198333Y0088750D01*
X0195459Y0091624D02*
X0195459Y0094350D01*
X0189910Y0094734D02*
X0185320Y0094734D01*
X0186318Y0093735D02*
X0189910Y0093735D01*
X0189910Y0092737D02*
X0187317Y0092737D01*
X0188315Y0091738D02*
X0189910Y0091738D01*
X0190482Y0090740D02*
X0189314Y0090740D01*
X0189910Y0095732D02*
X0184321Y0095732D01*
X0183323Y0096731D02*
X0189910Y0096731D01*
X0196303Y0083750D02*
X0199997Y0083750D01*
X0199583Y0082751D02*
X0197302Y0082751D01*
X0198300Y0081753D02*
X0199533Y0081753D01*
X0199684Y0080754D02*
X0199299Y0080754D01*
X0205834Y0084749D02*
X0211362Y0084749D01*
X0210363Y0083750D02*
X0206670Y0083750D01*
X0207083Y0082751D02*
X0209365Y0082751D01*
X0208366Y0081753D02*
X0207133Y0081753D01*
X0206982Y0080754D02*
X0207368Y0080754D01*
X0224033Y0098728D02*
X0225341Y0098728D01*
X0226340Y0099726D02*
X0224033Y0099726D01*
X0224033Y0100725D02*
X0227338Y0100725D01*
X0228337Y0101723D02*
X0224033Y0101723D01*
X0224033Y0102722D02*
X0229335Y0102722D01*
X0230334Y0103720D02*
X0224033Y0103720D01*
X0224033Y0104719D02*
X0231332Y0104719D01*
X0232331Y0105717D02*
X0224033Y0105717D01*
X0224033Y0106716D02*
X0233329Y0106716D01*
X0234328Y0107714D02*
X0224033Y0107714D01*
X0224233Y0108713D02*
X0235326Y0108713D01*
X0236325Y0109711D02*
X0220283Y0109711D01*
X0224233Y0110710D02*
X0237323Y0110710D01*
X0238322Y0111708D02*
X0224033Y0111708D01*
X0224033Y0112707D02*
X0239320Y0112707D01*
X0240319Y0113705D02*
X0234238Y0113705D01*
X0234981Y0114704D02*
X0241317Y0114704D01*
X0242316Y0115702D02*
X0235333Y0115702D01*
X0235333Y0116701D02*
X0243314Y0116701D01*
X0244313Y0117699D02*
X0236111Y0117699D01*
X0237110Y0118698D02*
X0245311Y0118698D01*
X0246310Y0119696D02*
X0238608Y0119696D01*
X0239607Y0120695D02*
X0247308Y0120695D01*
X0248307Y0121693D02*
X0240605Y0121693D01*
X0240833Y0122692D02*
X0249305Y0122692D01*
X0250304Y0123690D02*
X0240833Y0123690D01*
X0240833Y0124689D02*
X0251302Y0124689D01*
X0252301Y0125687D02*
X0240833Y0125687D01*
X0240833Y0126686D02*
X0253299Y0126686D01*
X0254298Y0127684D02*
X0240833Y0127684D01*
X0240833Y0128683D02*
X0255297Y0128683D01*
X0254528Y0129682D02*
X0240833Y0129682D01*
X0240833Y0130680D02*
X0245954Y0130680D01*
X0245196Y0131679D02*
X0240833Y0131679D01*
X0240833Y0132677D02*
X0244833Y0132677D01*
X0244833Y0133676D02*
X0240833Y0133676D01*
X0241207Y0134674D02*
X0245135Y0134674D01*
X0245806Y0135673D02*
X0241968Y0135673D01*
X0242333Y0136671D02*
X0247447Y0136671D01*
X0248343Y0137670D02*
X0242333Y0137670D01*
X0242034Y0138668D02*
X0249342Y0138668D01*
X0250340Y0139667D02*
X0241366Y0139667D01*
X0239734Y0140665D02*
X0251339Y0140665D01*
X0254292Y0140665D02*
X0258544Y0140665D01*
X0257546Y0141664D02*
X0235333Y0141664D01*
X0235333Y0142662D02*
X0256547Y0142662D01*
X0255549Y0143661D02*
X0235037Y0143661D01*
X0234374Y0144659D02*
X0254149Y0144659D01*
X0252976Y0145658D02*
X0232752Y0145658D01*
X0230914Y0145658D02*
X0208211Y0145658D01*
X0209209Y0146656D02*
X0252498Y0146656D01*
X0252333Y0147655D02*
X0210208Y0147655D01*
X0211206Y0148653D02*
X0252419Y0148653D01*
X0252833Y0149652D02*
X0247834Y0149652D01*
X0247594Y0149411D02*
X0249678Y0151495D01*
X0247733Y0153440D01*
X0244728Y0150435D01*
X0245752Y0149411D01*
X0246094Y0149214D01*
X0246475Y0149112D01*
X0246870Y0149112D01*
X0247252Y0149214D01*
X0247594Y0149411D01*
X0248833Y0150650D02*
X0253784Y0150650D01*
X0255833Y0147750D02*
X0260833Y0142750D01*
X0261833Y0142750D01*
X0262083Y0142500D01*
X0259543Y0139667D02*
X0255291Y0139667D01*
X0256289Y0138668D02*
X0260541Y0138668D01*
X0261540Y0137670D02*
X0257288Y0137670D01*
X0258286Y0136671D02*
X0262538Y0136671D01*
X0262286Y0135673D02*
X0259285Y0135673D01*
X0260283Y0134674D02*
X0261288Y0134674D01*
X0254583Y0135000D02*
X0253833Y0135750D01*
X0250833Y0135750D01*
X0248333Y0133250D01*
X0250713Y0130680D02*
X0253529Y0130680D01*
X0252531Y0131679D02*
X0251471Y0131679D01*
X0238833Y0137250D02*
X0238833Y0122750D01*
X0236833Y0120750D01*
X0236333Y0120750D01*
X0231833Y0116250D01*
X0229428Y0113705D02*
X0224033Y0113705D01*
X0224033Y0114704D02*
X0228685Y0114704D01*
X0228333Y0115702D02*
X0224033Y0115702D01*
X0224033Y0116701D02*
X0228333Y0116701D01*
X0225833Y0122250D02*
X0225810Y0122274D01*
X0220233Y0122274D01*
X0220333Y0124750D02*
X0216833Y0124750D01*
X0215208Y0123125D01*
X0212708Y0123125D01*
X0211207Y0124626D01*
X0211207Y0128150D01*
X0208058Y0128150D02*
X0208058Y0132224D01*
X0208958Y0133125D01*
X0210708Y0133125D01*
X0211333Y0133750D01*
X0206680Y0133676D02*
X0198833Y0133676D01*
X0198677Y0132677D02*
X0206058Y0132677D01*
X0204908Y0128150D02*
X0204908Y0124075D01*
X0203083Y0122250D01*
X0192833Y0122250D01*
X0192333Y0117250D02*
X0192396Y0117187D01*
X0192333Y0116250D02*
X0192058Y0115974D01*
X0186433Y0115974D01*
X0195833Y0116701D02*
X0216433Y0116701D01*
X0216433Y0115702D02*
X0216331Y0115702D01*
X0231833Y0123250D02*
X0231833Y0137250D01*
X0229300Y0139667D02*
X0207067Y0139667D01*
X0207133Y0138668D02*
X0228632Y0138668D01*
X0228701Y0140665D02*
X0206653Y0140665D01*
X0205794Y0141664D02*
X0228333Y0141664D01*
X0228333Y0142662D02*
X0205215Y0142662D01*
X0206214Y0143661D02*
X0228629Y0143661D01*
X0229293Y0144659D02*
X0207212Y0144659D01*
X0212205Y0149652D02*
X0245511Y0149652D01*
X0244944Y0150650D02*
X0213203Y0150650D01*
X0214202Y0151649D02*
X0243514Y0151649D01*
X0243351Y0151812D02*
X0244375Y0150788D01*
X0247380Y0153793D01*
X0247733Y0153440D01*
X0248087Y0153793D01*
X0250032Y0151849D01*
X0252116Y0153933D01*
X0252313Y0154275D01*
X0252415Y0154657D01*
X0252415Y0155052D01*
X0252313Y0155433D01*
X0252116Y0155775D01*
X0251092Y0156799D01*
X0248087Y0153794D01*
X0247734Y0154147D01*
X0250739Y0157152D01*
X0249715Y0158176D01*
X0249373Y0158373D01*
X0248992Y0158475D01*
X0248597Y0158475D01*
X0248215Y0158373D01*
X0247873Y0158176D01*
X0245789Y0156092D01*
X0247733Y0154147D01*
X0247380Y0153794D01*
X0245435Y0155738D01*
X0243351Y0153654D01*
X0243154Y0153312D01*
X0243051Y0152930D01*
X0243051Y0152535D01*
X0243154Y0152154D01*
X0243351Y0151812D01*
X0243051Y0152647D02*
X0215200Y0152647D01*
X0216199Y0153646D02*
X0243347Y0153646D01*
X0244342Y0154644D02*
X0217197Y0154644D01*
X0218196Y0155643D02*
X0245340Y0155643D01*
X0245531Y0155643D02*
X0246238Y0155643D01*
X0246339Y0156641D02*
X0241799Y0156641D01*
X0242580Y0157640D02*
X0247337Y0157640D01*
X0249229Y0155643D02*
X0249936Y0155643D01*
X0250228Y0156641D02*
X0250935Y0156641D01*
X0251250Y0156641D02*
X0260121Y0156641D01*
X0259833Y0155643D02*
X0252192Y0155643D01*
X0252412Y0154644D02*
X0259833Y0154644D01*
X0260209Y0153646D02*
X0251828Y0153646D01*
X0250830Y0152647D02*
X0260986Y0152647D01*
X0262980Y0151649D02*
X0249525Y0151649D01*
X0249233Y0152647D02*
X0248526Y0152647D01*
X0248235Y0153646D02*
X0247939Y0153646D01*
X0247528Y0153646D02*
X0247232Y0153646D01*
X0247236Y0154644D02*
X0246529Y0154644D01*
X0248231Y0154644D02*
X0248938Y0154644D01*
X0246941Y0152647D02*
X0246234Y0152647D01*
X0245942Y0151649D02*
X0245235Y0151649D01*
X0237117Y0156641D02*
X0219194Y0156641D01*
X0220193Y0157640D02*
X0236337Y0157640D01*
X0235958Y0158638D02*
X0221192Y0158638D01*
X0222190Y0159637D02*
X0235958Y0159637D01*
X0234810Y0160635D02*
X0223189Y0160635D01*
X0224187Y0161634D02*
X0233812Y0161634D01*
X0232813Y0162632D02*
X0225186Y0162632D01*
X0226184Y0163631D02*
X0232645Y0163631D01*
X0233396Y0164629D02*
X0227183Y0164629D01*
X0228181Y0165628D02*
X0234395Y0165628D01*
X0235393Y0166626D02*
X0229180Y0166626D01*
X0230178Y0167625D02*
X0236392Y0167625D01*
X0237390Y0168623D02*
X0231177Y0168623D01*
X0232175Y0169622D02*
X0239520Y0169622D01*
X0240519Y0170620D02*
X0233174Y0170620D01*
X0234172Y0171619D02*
X0241517Y0171619D01*
X0242516Y0172618D02*
X0235171Y0172618D01*
X0236169Y0173616D02*
X0243514Y0173616D01*
X0244513Y0174615D02*
X0237168Y0174615D01*
X0238166Y0175613D02*
X0245511Y0175613D01*
X0246510Y0176612D02*
X0239165Y0176612D01*
X0240163Y0177610D02*
X0247508Y0177610D01*
X0248201Y0178609D02*
X0241162Y0178609D01*
X0242160Y0179607D02*
X0248374Y0179607D01*
X0249373Y0180606D02*
X0243159Y0180606D01*
X0244157Y0181604D02*
X0250371Y0181604D01*
X0251370Y0182603D02*
X0245156Y0182603D01*
X0246154Y0183601D02*
X0252368Y0183601D01*
X0254498Y0184600D02*
X0247153Y0184600D01*
X0248151Y0185598D02*
X0255496Y0185598D01*
X0256495Y0186597D02*
X0249150Y0186597D01*
X0250148Y0187595D02*
X0257494Y0187595D01*
X0258492Y0188594D02*
X0251147Y0188594D01*
X0252145Y0189592D02*
X0259491Y0189592D01*
X0260489Y0190591D02*
X0253144Y0190591D01*
X0254142Y0191589D02*
X0261488Y0191589D01*
X0262486Y0192588D02*
X0255141Y0192588D01*
X0256139Y0193586D02*
X0263485Y0193586D01*
X0264477Y0194578D02*
X0264477Y0194578D01*
X0264483Y0194585D02*
X0257138Y0194585D01*
X0258136Y0195583D02*
X0265482Y0195583D01*
X0266477Y0193750D02*
X0252405Y0179678D01*
X0237127Y0164400D01*
X0239458Y0162069D01*
X0239458Y0159250D01*
X0242673Y0160635D02*
X0267998Y0160635D01*
X0267507Y0161634D02*
X0242024Y0161634D01*
X0241458Y0162632D02*
X0267333Y0162632D01*
X0267410Y0163631D02*
X0240724Y0163631D01*
X0241316Y0164629D02*
X0267823Y0164629D01*
X0268762Y0165628D02*
X0263810Y0165628D01*
X0263150Y0164968D02*
X0265234Y0167052D01*
X0263290Y0168996D01*
X0263643Y0169350D01*
X0263290Y0169703D01*
X0266295Y0172709D01*
X0265271Y0173732D01*
X0264929Y0173930D01*
X0264548Y0174032D01*
X0264153Y0174032D01*
X0263771Y0173930D01*
X0263429Y0173732D01*
X0261345Y0171648D01*
X0263290Y0169703D01*
X0262936Y0169350D01*
X0260992Y0171294D01*
X0258908Y0169210D01*
X0258710Y0168868D01*
X0258608Y0168487D01*
X0258608Y0168092D01*
X0258710Y0167710D01*
X0258908Y0167368D01*
X0259931Y0166345D01*
X0262936Y0169350D01*
X0263290Y0168996D01*
X0260285Y0165991D01*
X0261308Y0164968D01*
X0261650Y0164770D01*
X0262032Y0164668D01*
X0262427Y0164668D01*
X0262808Y0164770D01*
X0263150Y0164968D01*
X0264809Y0166626D02*
X0277980Y0166626D01*
X0278299Y0167625D02*
X0265808Y0167625D01*
X0265588Y0167405D02*
X0267672Y0169489D01*
X0267870Y0169832D01*
X0267972Y0170213D01*
X0267972Y0170608D01*
X0267870Y0170989D01*
X0267672Y0171332D01*
X0266649Y0172355D01*
X0263643Y0169350D01*
X0265588Y0167405D01*
X0265368Y0167625D02*
X0264661Y0167625D01*
X0264370Y0168623D02*
X0263663Y0168623D01*
X0262917Y0168623D02*
X0262210Y0168623D01*
X0261918Y0167625D02*
X0261211Y0167625D01*
X0260920Y0166626D02*
X0260213Y0166626D01*
X0259649Y0166626D02*
X0242182Y0166626D01*
X0241609Y0165628D02*
X0260648Y0165628D01*
X0258759Y0167625D02*
X0243180Y0167625D01*
X0244179Y0168623D02*
X0258644Y0168623D01*
X0259319Y0169622D02*
X0245177Y0169622D01*
X0246176Y0170620D02*
X0260318Y0170620D01*
X0261666Y0170620D02*
X0262373Y0170620D01*
X0262664Y0169622D02*
X0263208Y0169622D01*
X0263371Y0169622D02*
X0263916Y0169622D01*
X0264207Y0170620D02*
X0264914Y0170620D01*
X0265205Y0171619D02*
X0265913Y0171619D01*
X0266204Y0172618D02*
X0275137Y0172618D01*
X0274139Y0173616D02*
X0265388Y0173616D01*
X0263313Y0173616D02*
X0249171Y0173616D01*
X0248173Y0172618D02*
X0262315Y0172618D01*
X0261374Y0171619D02*
X0247174Y0171619D01*
X0250170Y0174615D02*
X0273833Y0174615D01*
X0273833Y0175613D02*
X0252300Y0175613D01*
X0253298Y0176612D02*
X0273833Y0176612D01*
X0273833Y0177610D02*
X0254297Y0177610D01*
X0255295Y0178609D02*
X0273525Y0178609D01*
X0272725Y0179607D02*
X0256294Y0179607D01*
X0257165Y0180606D02*
X0272333Y0180606D01*
X0272333Y0181604D02*
X0257159Y0181604D01*
X0258158Y0182603D02*
X0272605Y0182603D01*
X0273235Y0183601D02*
X0259156Y0183601D01*
X0260155Y0184600D02*
X0274774Y0184600D01*
X0275548Y0185598D02*
X0261153Y0185598D01*
X0262152Y0186597D02*
X0276547Y0186597D01*
X0277545Y0187595D02*
X0263150Y0187595D01*
X0264149Y0188594D02*
X0278544Y0188594D01*
X0279663Y0189592D02*
X0265147Y0189592D01*
X0266146Y0190591D02*
X0278664Y0190591D01*
X0277666Y0191589D02*
X0267144Y0191589D01*
X0266477Y0193750D02*
X0278333Y0193750D01*
X0287708Y0184375D01*
X0287708Y0183392D01*
X0284450Y0180134D01*
X0284655Y0184600D02*
X0283940Y0184600D01*
X0283657Y0185598D02*
X0283608Y0185598D01*
X0282658Y0186597D02*
X0282609Y0186597D01*
X0281660Y0187595D02*
X0281610Y0187595D01*
X0280661Y0188594D02*
X0280612Y0188594D01*
X0279717Y0184866D02*
X0279450Y0184866D01*
X0275833Y0181250D01*
X0275833Y0174750D01*
X0284333Y0166250D01*
X0284333Y0165250D01*
X0284583Y0165000D01*
X0281577Y0162632D02*
X0277325Y0162632D01*
X0278323Y0161634D02*
X0282575Y0161634D01*
X0283574Y0160635D02*
X0279322Y0160635D01*
X0280320Y0159637D02*
X0284572Y0159637D01*
X0285252Y0158638D02*
X0281319Y0158638D01*
X0282317Y0157640D02*
X0284253Y0157640D01*
X0280578Y0163631D02*
X0276326Y0163631D01*
X0274305Y0163631D02*
X0274257Y0163631D01*
X0273843Y0164629D02*
X0279580Y0164629D01*
X0278581Y0165628D02*
X0272905Y0165628D01*
X0270833Y0162750D02*
X0275833Y0157750D01*
X0276833Y0157750D01*
X0277083Y0157500D01*
X0274565Y0154644D02*
X0270313Y0154644D01*
X0271312Y0153646D02*
X0275564Y0153646D01*
X0276562Y0152647D02*
X0272310Y0152647D01*
X0273309Y0151649D02*
X0277561Y0151649D01*
X0277264Y0150650D02*
X0274307Y0150650D01*
X0275306Y0149652D02*
X0276265Y0149652D01*
X0273566Y0155643D02*
X0269315Y0155643D01*
X0266545Y0156641D02*
X0272568Y0156641D01*
X0271569Y0157640D02*
X0265893Y0157640D01*
X0264299Y0158638D02*
X0270571Y0158638D01*
X0269203Y0159637D02*
X0242958Y0159637D01*
X0242958Y0158638D02*
X0262368Y0158638D01*
X0260773Y0157640D02*
X0250251Y0157640D01*
X0257883Y0150650D02*
X0263559Y0150650D01*
X0264558Y0149652D02*
X0258834Y0149652D01*
X0259248Y0148653D02*
X0259327Y0148653D01*
X0261304Y0148653D02*
X0265556Y0148653D01*
X0266555Y0147655D02*
X0262303Y0147655D01*
X0263301Y0146656D02*
X0267553Y0146656D01*
X0268552Y0145658D02*
X0264300Y0145658D01*
X0265298Y0144659D02*
X0269550Y0144659D01*
X0270274Y0143661D02*
X0266297Y0143661D01*
X0267295Y0142662D02*
X0269276Y0142662D01*
X0269583Y0150000D02*
X0269333Y0150250D01*
X0268333Y0150250D01*
X0263333Y0155250D01*
X0266806Y0168623D02*
X0279131Y0168623D01*
X0278133Y0169622D02*
X0267749Y0169622D01*
X0267968Y0170620D02*
X0277134Y0170620D01*
X0276136Y0171619D02*
X0267385Y0171619D01*
X0252683Y0179956D02*
X0252405Y0179678D01*
X0252655Y0179928D02*
X0252683Y0179956D01*
X0259135Y0196582D02*
X0297033Y0196582D01*
X0297665Y0197580D02*
X0260133Y0197580D01*
X0261132Y0198579D02*
X0297033Y0198579D01*
X0297033Y0199577D02*
X0294110Y0199577D01*
X0291833Y0202250D02*
X0302333Y0202250D01*
X0303333Y0201250D01*
X0297315Y0204570D02*
X0294463Y0204570D01*
X0292968Y0205568D02*
X0297176Y0205568D01*
X0297033Y0206567D02*
X0269120Y0206567D01*
X0270119Y0207565D02*
X0290376Y0207565D01*
X0289070Y0208564D02*
X0271117Y0208564D01*
X0272116Y0209562D02*
X0288537Y0209562D01*
X0288333Y0210561D02*
X0273114Y0210561D01*
X0274113Y0211559D02*
X0288380Y0211559D01*
X0288794Y0212558D02*
X0275111Y0212558D01*
X0276110Y0213556D02*
X0289690Y0213556D01*
X0291833Y0214555D02*
X0277108Y0214555D01*
X0278107Y0215553D02*
X0291878Y0215553D01*
X0292291Y0216552D02*
X0279105Y0216552D01*
X0280104Y0217551D02*
X0293184Y0217551D01*
X0295333Y0214750D02*
X0296833Y0216250D01*
X0303333Y0216250D01*
X0297033Y0218549D02*
X0281102Y0218549D01*
X0282101Y0219548D02*
X0297292Y0219548D01*
X0297008Y0220546D02*
X0283099Y0220546D01*
X0284098Y0221545D02*
X0296833Y0221545D01*
X0296833Y0222543D02*
X0285096Y0222543D01*
X0286095Y0223542D02*
X0302833Y0223542D01*
X0302833Y0224250D02*
X0302833Y0227750D01*
X0302833Y0230750D01*
X0303833Y0230750D01*
X0303833Y0224250D01*
X0302833Y0224250D01*
X0302833Y0224540D02*
X0303833Y0224540D01*
X0303833Y0225539D02*
X0302833Y0225539D01*
X0302833Y0226537D02*
X0303833Y0226537D01*
X0303833Y0227536D02*
X0302833Y0227536D01*
X0302833Y0228534D02*
X0303833Y0228534D01*
X0303833Y0229533D02*
X0302833Y0229533D01*
X0302833Y0230531D02*
X0303833Y0230531D01*
X0303833Y0231750D02*
X0302833Y0231750D01*
X0302833Y0235250D01*
X0298136Y0235250D01*
X0297754Y0235148D01*
X0297628Y0235075D01*
X0302033Y0239480D01*
X0302033Y0239244D01*
X0302612Y0237847D01*
X0303681Y0236779D01*
X0305077Y0236200D01*
X0306589Y0236200D01*
X0307986Y0236779D01*
X0308733Y0237526D01*
X0308733Y0235196D01*
X0308531Y0235250D01*
X0303833Y0235250D01*
X0303833Y0231750D01*
X0303833Y0232528D02*
X0302833Y0232528D01*
X0302833Y0231530D02*
X0294083Y0231530D01*
X0295081Y0232528D02*
X0296833Y0232528D01*
X0296833Y0233527D02*
X0296080Y0233527D01*
X0298077Y0235524D02*
X0308733Y0235524D01*
X0308733Y0236522D02*
X0307367Y0236522D01*
X0308728Y0237521D02*
X0308733Y0237521D01*
X0304300Y0236522D02*
X0299075Y0236522D01*
X0300074Y0237521D02*
X0302939Y0237521D01*
X0302334Y0238519D02*
X0301072Y0238519D01*
X0302833Y0234525D02*
X0303833Y0234525D01*
X0303833Y0233527D02*
X0302833Y0233527D01*
X0296833Y0230531D02*
X0293084Y0230531D01*
X0292086Y0229533D02*
X0296833Y0229533D01*
X0296838Y0228534D02*
X0291087Y0228534D01*
X0290089Y0227536D02*
X0297437Y0227536D01*
X0296857Y0226537D02*
X0289090Y0226537D01*
X0288092Y0225539D02*
X0296833Y0225539D01*
X0296833Y0224540D02*
X0287093Y0224540D01*
X0291833Y0210750D02*
X0294833Y0210750D01*
X0296833Y0208750D01*
X0303333Y0208750D01*
X0295189Y0207565D02*
X0293291Y0207565D01*
X0290699Y0205568D02*
X0268122Y0205568D01*
X0267123Y0204570D02*
X0289203Y0204570D01*
X0288592Y0203571D02*
X0266125Y0203571D01*
X0265126Y0202573D02*
X0288333Y0202573D01*
X0288333Y0201574D02*
X0264127Y0201574D01*
X0263129Y0200576D02*
X0288738Y0200576D01*
X0289556Y0199577D02*
X0262130Y0199577D01*
X0279328Y0195583D02*
X0292338Y0195583D01*
X0291340Y0194585D02*
X0280327Y0194585D01*
X0281325Y0193586D02*
X0288536Y0193586D01*
X0287538Y0192588D02*
X0282324Y0192588D01*
X0283323Y0191589D02*
X0286539Y0191589D01*
X0285541Y0190591D02*
X0284321Y0190591D01*
X0285320Y0189592D02*
X0285494Y0189592D01*
X0286318Y0188594D02*
X0286367Y0188594D01*
X0287317Y0187595D02*
X0287366Y0187595D01*
X0288315Y0186597D02*
X0288364Y0186597D01*
X0289314Y0185598D02*
X0290227Y0185598D01*
X0290312Y0184600D02*
X0290361Y0184600D01*
X0291311Y0183601D02*
X0291360Y0183601D01*
X0291458Y0180625D02*
X0294450Y0183616D01*
X0294450Y0185134D01*
X0291458Y0180625D02*
X0294583Y0177500D01*
X0294583Y0175000D01*
X0292083Y0172500D01*
X0291458Y0180625D02*
X0287708Y0184375D01*
X0289717Y0189866D02*
X0289717Y0190134D01*
X0293333Y0193750D01*
X0303333Y0193750D01*
X0235333Y0138750D02*
X0231833Y0142250D01*
X0236247Y0140665D02*
X0237932Y0140665D01*
X0235333Y0138750D02*
X0235333Y0124250D01*
X0223833Y0128250D02*
X0220333Y0124750D01*
X0218733Y0128150D02*
X0218833Y0128250D01*
X0218733Y0128150D02*
X0214357Y0128150D01*
X0195459Y0128150D02*
X0195459Y0133624D01*
X0195333Y0133750D01*
X0150133Y0134674D02*
X0145379Y0134674D01*
X0146378Y0133676D02*
X0149135Y0133676D01*
X0148136Y0132677D02*
X0147376Y0132677D01*
D17*
G36*
X0149280Y0131983D02*
X0156350Y0139053D01*
X0159886Y0135517D01*
X0152816Y0128447D01*
X0149280Y0131983D01*
G37*
G36*
X0158030Y0123233D02*
X0165100Y0130303D01*
X0168636Y0126767D01*
X0161566Y0119697D01*
X0158030Y0123233D01*
G37*
G36*
X0166780Y0114483D02*
X0173850Y0121553D01*
X0177386Y0118017D01*
X0170316Y0110947D01*
X0166780Y0114483D01*
G37*
G36*
X0140530Y0140733D02*
X0147600Y0147803D01*
X0151136Y0144267D01*
X0144066Y0137197D01*
X0140530Y0140733D01*
G37*
G36*
X0124280Y0204483D02*
X0131350Y0211553D01*
X0134886Y0208017D01*
X0127816Y0200947D01*
X0124280Y0204483D01*
G37*
G36*
X0116780Y0211983D02*
X0123850Y0219053D01*
X0127386Y0215517D01*
X0120316Y0208447D01*
X0116780Y0211983D01*
G37*
G36*
X0252816Y0140303D02*
X0259886Y0133233D01*
X0256350Y0129697D01*
X0249280Y0136767D01*
X0252816Y0140303D01*
G37*
G36*
X0260316Y0147803D02*
X0267386Y0140733D01*
X0263850Y0137197D01*
X0256780Y0144267D01*
X0260316Y0147803D01*
G37*
G36*
X0267816Y0155303D02*
X0274886Y0148233D01*
X0271350Y0144697D01*
X0264280Y0151767D01*
X0267816Y0155303D01*
G37*
G36*
X0275316Y0162803D02*
X0282386Y0155733D01*
X0278850Y0152197D01*
X0271780Y0159267D01*
X0275316Y0162803D01*
G37*
G36*
X0282816Y0170303D02*
X0289886Y0163233D01*
X0286350Y0159697D01*
X0279280Y0166767D01*
X0282816Y0170303D01*
G37*
G36*
X0290316Y0177803D02*
X0297386Y0170733D01*
X0293850Y0167197D01*
X0286780Y0174267D01*
X0290316Y0177803D01*
G37*
X0303333Y0193750D03*
X0303333Y0201250D03*
X0303333Y0208750D03*
X0303333Y0216250D03*
X0303333Y0223750D03*
X0303333Y0231250D03*
D18*
G36*
X0117442Y0193540D02*
X0115912Y0195070D01*
X0119252Y0198410D01*
X0120782Y0196880D01*
X0117442Y0193540D01*
G37*
G36*
X0114798Y0196184D02*
X0113268Y0197714D01*
X0116608Y0201054D01*
X0118138Y0199524D01*
X0114798Y0196184D01*
G37*
G36*
X0112153Y0198829D02*
X0110623Y0200359D01*
X0113963Y0203699D01*
X0115493Y0202169D01*
X0112153Y0198829D01*
G37*
G36*
X0104914Y0191590D02*
X0103384Y0193120D01*
X0106724Y0196460D01*
X0108254Y0194930D01*
X0104914Y0191590D01*
G37*
G36*
X0110204Y0186301D02*
X0108674Y0187831D01*
X0112014Y0191171D01*
X0113544Y0189641D01*
X0110204Y0186301D01*
G37*
D19*
G36*
X0136710Y0186455D02*
X0134761Y0188404D01*
X0138936Y0192579D01*
X0140885Y0190630D01*
X0136710Y0186455D01*
G37*
G36*
X0145061Y0178103D02*
X0143112Y0180052D01*
X0147287Y0184227D01*
X0149236Y0182278D01*
X0145061Y0178103D01*
G37*
G36*
X0149237Y0173927D02*
X0147288Y0175876D01*
X0151463Y0180051D01*
X0153412Y0178102D01*
X0149237Y0173927D01*
G37*
D20*
G36*
X0161347Y0182974D02*
X0164129Y0180192D01*
X0162459Y0178522D01*
X0159677Y0181304D01*
X0161347Y0182974D01*
G37*
G36*
X0141025Y0203296D02*
X0143807Y0200514D01*
X0142137Y0198844D01*
X0139355Y0201626D01*
X0141025Y0203296D01*
G37*
D21*
G36*
X0135458Y0197729D02*
X0138240Y0194947D01*
X0136012Y0192719D01*
X0133230Y0195501D01*
X0135458Y0197729D01*
G37*
G36*
X0155780Y0177407D02*
X0158562Y0174625D01*
X0156334Y0172397D01*
X0153552Y0175179D01*
X0155780Y0177407D01*
G37*
D22*
X0148333Y0167500D03*
X0134583Y0182500D03*
X0151833Y0148250D03*
X0160833Y0139250D03*
X0168333Y0121750D03*
X0164833Y0117750D03*
X0192333Y0117250D03*
X0192833Y0122250D03*
X0195333Y0133750D03*
X0190333Y0137250D03*
X0211333Y0133750D03*
X0218833Y0128250D03*
X0223833Y0128250D03*
X0225833Y0122250D03*
X0235333Y0124250D03*
X0248333Y0133250D03*
X0238833Y0137250D03*
X0231833Y0137250D03*
X0231833Y0142250D03*
X0239458Y0159250D03*
X0255833Y0147750D03*
X0263333Y0155250D03*
X0270833Y0162750D03*
X0275833Y0181250D03*
X0291833Y0202250D03*
X0291833Y0210750D03*
X0295333Y0214750D03*
X0231833Y0116250D03*
X0214333Y0112750D03*
X0205333Y0108750D03*
X0196333Y0104750D03*
X0201833Y0100250D03*
X0214333Y0102750D03*
X0198333Y0088750D03*
M02*
